<?xml version="1.0" encoding="UTF-8" standalone="no"?>
<!-- Created with Inkscape (http://www.inkscape.org/) -->

<svg
   width="88.714363mm"
   height="24.995142mm"
   viewBox="0 0 88.714363 24.995142"
   version="1.1"
   id="svg1"
   inkscape:version="1.3 (0e150ed6c4, 2023-07-21)"
   sodipodi:docname="Logo2.svg"
   inkscape:dataloss="true"
   inkscape:export-filename="Logo3.svg"
   inkscape:export-xdpi="300"
   inkscape:export-ydpi="300"
   xmlns:inkscape="http://www.inkscape.org/namespaces/inkscape"
   xmlns:sodipodi="http://sodipodi.sourceforge.net/DTD/sodipodi-0.dtd"
   xmlns="http://www.w3.org/2000/svg"
   xmlns:svg="http://www.w3.org/2000/svg">
  <sodipodi:namedview
     id="namedview1"
     pagecolor="#ffffff"
     bordercolor="#000000"
     borderopacity="0.25"
     inkscape:showpageshadow="2"
     inkscape:pageopacity="0.0"
     inkscape:pagecheckerboard="0"
     inkscape:deskcolor="#d1d1d1"
     inkscape:document-units="mm"
     inkscape:zoom="1.4778115"
     inkscape:cx="201.98787"
     inkscape:cy="128.90683"
     inkscape:window-width="2072"
     inkscape:window-height="1237"
     inkscape:window-x="1071"
     inkscape:window-y="54"
     inkscape:window-maximized="0"
     inkscape:current-layer="layer1" />
  <defs
     id="defs1" />
  <g
     inkscape:label="Layer 1"
     inkscape:groupmode="layer"
     id="layer1"
     transform="translate(-4.359639,-4.7390314)">
    <path
       style="font-weight:bold;font-size:14.1111px;font-family:'Hachi Maru Pop';-inkscape-font-specification:'Hachi Maru Pop';stroke:#000000;stroke-width:0.7"
       d="m 89.746554,15.065579 q 0.634999,0 1.128888,-0.366888 0.493888,-0.352778 0.846666,-0.959555 0.338666,-0.620889 0.564444,-1.382888 0.225778,-0.761999 0.338666,-1.566332 0.09878,-0.818444 0.09878,-1.5663323 0,-0.9172215 -0.155222,-1.9049985 -0.155222,-1.0018881 -0.423333,-1.8908875 -0.05644,-0.1975554 -0.183444,-0.2681109 -0.127,-0.070555 -0.254,-0.070555 -0.211667,0 -0.324555,0.1269999 -0.112889,0.1269999 -0.07056,0.3527776 0.253999,1.1147769 0.380999,2.0884428 0.112889,0.9736659 0.112889,1.8203319 0,0.860778 -0.112889,1.679221 -0.127,0.818444 -0.380999,1.481666 -0.268111,0.663222 -0.677333,1.058332 -0.423333,0.381 -1.015999,0.381 -0.508,0 -0.945444,-0.310444 -0.451555,-0.324555 -0.832555,-0.832555 -0.381,-0.508 -0.663221,-1.072444 -0.155222,-0.338666 -0.366889,-0.310444 -0.211666,0 -0.423333,0.296333 -0.352777,0.508 -0.77611,1.016 -0.423333,0.493888 -0.874889,0.818443 -0.451555,0.324556 -0.874888,0.352778 -0.423333,0.04233 -0.747888,-0.211667 -0.324555,-0.268111 -0.550333,-0.705555 -0.225778,-0.437444 -0.366889,-0.973666 -0.141111,-0.536221 -0.211666,-1.044221 -0.127,-0.846666 -0.127,-1.7921102 0,-0.9736659 0.127,-1.9473318 0.127,-0.987777 0.366888,-1.8062208 0.01411,-0.028222 0.01411,-0.070556 0,-0.042333 0,-0.070555 0,-0.1834443 -0.126999,-0.2539998 -0.141111,-0.070555 -0.296334,-0.070555 -0.352777,0 -0.423333,0.3527775 -0.26811,0.9877771 -0.409221,2.0037763 -0.155223,1.0018881 -0.155223,2.0037762 0,1.1288876 0.211667,2.1731096 0.183444,0.846666 0.536222,1.636887 0.338666,0.776111 0.874888,1.28411 0.522111,0.508 1.255888,0.508 0.522111,0 1.044221,-0.296333 0.508,-0.282222 0.987777,-0.761999 0.465667,-0.465667 0.874889,-1.030111 0.620888,0.903111 1.42522,1.495777 0.804333,0.606777 1.580443,0.606777 z"
       id="text7"
       aria-label="W" />
    <path
       d="m 74.810859,17.211595 q 0.112888,0.01411 0.239888,0.01411 0.112889,0 0.225778,0 1.255888,0 2.243665,-0.536222 0.987777,-0.52211 1.552221,-1.453443 0.564444,-0.931333 0.564444,-2.130776 0,-1.128888 -0.437444,-2.074332 -0.451555,-0.959555 -1.269999,-1.5945542 -0.818444,-0.6349995 -1.933221,-0.8043327 -0.155222,-0.028222 -0.338666,-0.042333 -0.183445,-0.014111 -0.366889,-0.014111 -0.761999,0 -1.580443,0.2116665 -0.832555,0.1975554 -1.396999,0.564444 -0.07056,-0.1552221 -0.225778,-0.1834443 -0.155222,-0.042333 -0.253999,-0.014111 -0.155223,0.014111 -0.239889,0.141111 -0.08467,0.1269999 -0.08467,0.2963331 0.01411,0.3245553 0.02822,0.6349996 0,0.310445 0,0.620889 0,1.580443 -0.225777,2.808109 -0.239889,1.227665 -0.888999,2.144887 -0.08467,0.127 -0.08467,0.253999 0,0.169334 0.141111,0.282223 0.127,0.112888 0.282222,0.112888 0.211666,0 0.352777,-0.183444 0.141111,-0.197556 0.282222,-0.437444 0.127,-0.239889 0.211667,-0.423333 0.578555,0.804333 1.41111,1.241777 0.832555,0.451554 1.79211,0.564444 z m 0.282222,-0.818444 q -0.959555,0 -1.763888,-0.536222 -0.818444,-0.536221 -1.326443,-1.467554 0.211666,-0.790222 0.310444,-1.834443 0.09878,-1.044221 0.08467,-2.173109 0.282219,-0.310445 0.747885,-0.5221112 0.465666,-0.2116665 1.015999,-0.3245553 0.550333,-0.1128888 1.086555,-0.1128888 0.352777,0 0.663221,0.042333 0.310445,0.042333 0.578556,0.1552221 1.072443,0.3951112 1.707443,1.3264442 0.620888,0.917221 0.620888,2.102553 0,1.044222 -0.493888,1.79211 -0.508,0.747888 -1.354666,1.15711 -0.846666,0.395111 -1.876776,0.395111 z"
       id="text8"
       style="font-size:14.1111px;font-family:'Hachi Maru Pop';-inkscape-font-specification:'Hachi Maru Pop';stroke:#000000;stroke-width:0.7"
       aria-label="a" />
    <path
       d="m 67.66795,18.818988 q 0.324555,0 0.409222,-0.352777 0.254,-1.749776 0.381,-3.697108 0.112889,-1.961443 0.112889,-3.880553 0,-1.15711 -0.04233,-2.2295536 0,-0.2257776 -0.141111,-0.3104442 -0.155222,-0.098778 -0.296333,-0.098778 -0.183444,0.014111 -0.296333,0.141111 -0.112889,0.1128888 -0.112889,0.3104442 0.01411,0.3809997 0.02822,1.1006658 0.01411,0.7055548 0.01411,1.4957768 0,0.649111 0,1.28411 -0.01411,0.635 -0.02822,1.128888 -0.02822,0.479778 -0.04233,0.719666 -0.352777,-0.465666 -1.03011,-0.917221 -0.691444,-0.465666 -1.509888,-0.874888 -0.832555,-0.409222 -1.636888,-0.719666 -0.818443,-0.324556 -1.439332,-0.522111 -0.08467,-0.02822 -0.127,-0.02822 -0.169333,0 -0.310444,0.141111 -0.141111,0.126999 -0.141111,0.310444 0,0.112889 0.08467,0.225777 0.07055,0.112889 0.225777,0.155223 1.255888,0.479777 2.314221,0.917221 1.044221,0.423333 1.80622,0.888999 0.762,0.451556 1.143,1.016 -0.395111,0.423333 -1.044222,0.804332 -0.663222,0.381 -1.439332,0.719666 -0.790222,0.324556 -1.594554,0.606778 -0.804333,0.282222 -1.495777,0.507999 -0.296333,0.127 -0.296333,0.395111 0,0.05644 0.02822,0.141111 0.112889,0.296333 0.366889,0.296333 0.04233,0 0.155222,-0.02822 0.05644,-0.02822 0.536222,-0.197555 0.465666,-0.155223 1.185332,-0.423333 0.705555,-0.254 1.495777,-0.578556 0.77611,-0.338666 1.481665,-0.733777 0.705555,-0.395111 1.142999,-0.804332 -0.07055,0.677332 -0.112888,1.142999 -0.04233,0.451555 -0.08467,0.790221 -0.05644,0.352778 -0.112889,0.677333 -0.02822,0.239889 0.112889,0.352778 0.141111,0.126999 0.310444,0.126999 z"
       id="text9"
       style="font-size:14.1111px;font-family:'Hachi Maru Pop';-inkscape-font-specification:'Hachi Maru Pop';stroke:#000000;stroke-width:0.7"
       aria-label="k" />
    <path
       d="m 54.269974,20.268195 q 0.338667,0.09878 0.677333,0.141111 0.338667,0.05645 0.691444,0.05645 0.917222,0 1.777999,-0.324555 0.846666,-0.324556 1.523999,-0.917222 0.677332,-0.592666 1.072443,-1.396999 0.395111,-0.804333 0.395111,-1.763887 0,-1.340555 -0.592666,-2.370665 -0.606777,-1.044222 -1.636888,-1.636888 -1.044221,-0.592666 -2.342442,-0.592666 -0.818444,0 -1.566333,0.324555 -0.761999,0.310444 -1.354665,0.874888 -0.592666,0.564444 -0.931333,1.312333 -0.352777,0.747888 -0.352777,1.594554 0,0.705555 0.437444,1.072444 0.437444,0.352777 1.171221,0.479777 0.733777,0.127 1.608666,0.127 0.592666,0 1.326443,-0.04233 0.719666,-0.04233 1.425221,-0.112889 0.691444,-0.08467 1.199444,-0.155222 0.197555,-0.02822 0.282222,-0.141111 0.08467,-0.127 0.08467,-0.268111 0,-0.197555 -0.127,-0.324555 -0.141111,-0.141111 -0.366888,-0.112889 -0.254,0.05644 -0.790222,0.127 -0.536222,0.05644 -1.171221,0.112889 -0.649111,0.04233 -1.227666,0.07055 -0.592666,0.02822 -0.959555,0.02822 -1.044221,-0.02822 -1.566332,-0.254 -0.536222,-0.239888 -0.536222,-0.77611 0,-0.578555 0.296333,-1.128888 0.296334,-0.550333 0.804333,-0.987777 0.493889,-0.451555 1.100666,-0.705555 0.592666,-0.268111 1.213555,-0.268111 0.790221,-0.02822 1.481665,0.282222 0.691444,0.296333 1.213555,0.832555 0.507999,0.522111 0.804332,1.227666 0.282222,0.691444 0.282222,1.453443 0,0.733777 -0.352777,1.382888 -0.352778,0.634999 -0.945444,1.114777 -0.592666,0.479777 -1.312332,0.747888 -0.719666,0.268111 -1.453443,0.268111 -0.493889,0 -1.001888,-0.155222 -0.04233,-0.01411 -0.127,-0.01411 -0.169334,0 -0.296334,0.112888 -0.141111,0.127 -0.141111,0.324556 0,0.112889 0.07056,0.225777 0.05644,0.112889 0.211666,0.155222 z"
       id="text10"
       style="font-size:14.1111px;font-family:'Hachi Maru Pop';-inkscape-font-specification:'Hachi Maru Pop';stroke:#000000;stroke-width:0.7"
       aria-label="e" />
    <path
       d="m 49.8322,21.713268 q 0.338666,-0.04233 0.380999,-0.381 0.09878,-1.086554 0.141111,-2.257776 0.02822,-1.171221 0.02822,-2.370665 0,-1.312332 -0.04233,-2.624664 -0.04233,-1.326444 -0.127,-2.56822 -0.02822,-0.211667 -0.141111,-0.296333 -0.112889,-0.09878 -0.254,-0.09878 -0.26811,0 -0.352777,0.141111 -0.09878,0.127 -0.09878,0.310444 0.08467,1.340555 0.141111,2.638776 0.04233,1.298221 0.04233,2.582331 0,1.904999 -0.127,3.795886 -0.691444,0.239889 -1.523999,0.239889 -0.874888,0 -1.721554,-0.254 -0.860777,-0.254 -1.425222,-0.705555 -0.52211,-0.409222 -0.77611,-1.001888 -0.254,-0.606777 -0.254,-1.241777 0,-0.832555 0.423333,-1.594554 0.409222,-0.762 1.227666,-1.114777 0.479777,-0.225778 1.100666,-0.310444 0.620888,-0.08467 1.28411,-0.08467 0.310444,0 0.634999,0.01411 0.310445,0.01411 0.606778,0.04233 0.197555,0.04233 0.310444,-0.08467 0.112889,-0.141111 0.141111,-0.282222 0,-0.183445 -0.09878,-0.324556 -0.112889,-0.141111 -0.310444,-0.155222 -0.719666,-0.127 -1.495777,-0.127 -0.747888,0 -1.439332,0.141111 -0.705555,0.127 -1.269999,0.423333 -0.649111,0.338667 -1.086555,0.903111 -0.437444,0.564444 -0.663221,1.241777 -0.225778,0.663221 -0.225778,1.354665 0,0.747889 0.282222,1.453444 0.268111,0.705555 0.832555,1.213554 0.719666,0.649111 1.777999,0.973666 1.044221,0.338667 2.116665,0.338667 0.39511,0 0.790221,-0.04233 0.381,-0.04233 0.733777,-0.141111 0.04233,0.169333 0.183445,0.211667 0.141111,0.05644 0.254,0.04233 z"
       id="text11"
       style="font-size:14.1111px;font-family:'Hachi Maru Pop';-inkscape-font-specification:'Hachi Maru Pop';stroke:#000000;stroke-width:0.7"
       aria-label="b" />
    <path
       d="m 37.134745,23.696843 q 1.368776,0 2.384775,-0.564444 1.001889,-0.564444 1.566333,-1.552221 0.550332,-1.001888 0.550332,-2.31422 0,-1.354666 -0.550332,-2.342443 -0.550333,-1.001888 -1.552221,-1.552221 -1.016,-0.550333 -2.398887,-0.550333 -1.411111,0 -2.412999,0.550333 -1.015999,0.536222 -1.552221,1.53811 -0.536221,0.987777 -0.536221,2.356554 0,1.340554 0.550332,2.342442 0.550333,1.001888 1.566333,1.53811 1.001888,0.550333 2.384776,0.550333 z m 0,-0.888999 q -1.735666,0 -2.666998,-0.945444 -0.945444,-0.945444 -0.945444,-2.596442 0,-1.721555 0.973666,-2.638776 0.973666,-0.917222 2.638776,-0.917222 1.665109,0 2.638775,0.945444 0.973666,0.945444 0.973666,2.610554 0,1.100665 -0.465666,1.890887 -0.465666,0.790222 -1.28411,1.227666 -0.818444,0.423333 -1.862665,0.423333 z"
       id="text12"
       style="font-size:14.1111px;font-family:'Hachi Maru Pop';-inkscape-font-specification:'Hachi Maru Pop';stroke:#000000;stroke-width:0.7"
       aria-label="o" />
    <path
       d="m 26.873631,25.671106 q 0.112889,0.01411 0.239889,0.01411 0.112889,0 0.225778,0 1.255888,0 2.243665,-0.536222 0.987777,-0.522111 1.552221,-1.453443 0.564444,-0.931333 0.564444,-2.130776 0,-1.128888 -0.437444,-2.074332 -0.451556,-0.959555 -1.269999,-1.594554 -0.818444,-0.635 -1.933221,-0.804333 -0.155222,-0.02822 -0.338667,-0.04233 -0.183444,-0.01411 -0.366888,-0.01411 -0.762,0 -1.580443,0.211667 -0.832555,0.197555 -1.396999,0.564444 -0.07056,-0.155222 -0.225778,-0.183444 -0.155222,-0.04233 -0.254,-0.01411 -0.155222,0.01411 -0.239888,0.141111 -0.08467,0.126999 -0.08467,0.296333 0.01411,0.324555 0.02822,0.634999 0,0.310444 0,0.620889 0,1.580443 -0.225777,2.808109 -0.239889,1.227665 -0.889,2.144887 -0.08467,0.127 -0.08467,0.254 0,0.169333 0.141111,0.282222 0.127,0.112888 0.282222,0.112888 0.211666,0 0.352777,-0.183444 0.141111,-0.197555 0.282222,-0.437444 0.127,-0.239889 0.211667,-0.423333 0.578555,0.804333 1.41111,1.241777 0.832555,0.451555 1.792109,0.564444 z m 0.282222,-0.818444 q -0.959554,0 -1.763887,-0.536222 -0.818444,-0.536222 -1.326444,-1.467554 0.211667,-0.790222 0.310445,-1.834443 0.09878,-1.044222 0.08467,-2.17311 0.282222,-0.310444 0.747889,-0.52211 0.465666,-0.211667 1.015999,-0.324556 0.550333,-0.112889 1.086555,-0.112889 0.352777,0 0.663221,0.04233 0.310444,0.04233 0.578555,0.155222 1.072444,0.395111 1.707443,1.326443 0.620889,0.917222 0.620889,2.102554 0,1.044222 -0.493889,1.79211 -0.507999,0.747888 -1.354665,1.15711 -0.846666,0.395111 -1.876777,0.395111 z"
       id="text13"
       style="font-size:14.1111px;font-family:'Hachi Maru Pop';-inkscape-font-specification:'Hachi Maru Pop';stroke:#000000;stroke-width:0.7"
       aria-label="a" />
    <path
       d="m 19.425343,26.790915 q 0.183444,0 0.310444,-0.127 0.112889,-0.112889 0.112889,-0.296333 0.04233,-0.776111 0.141111,-1.679221 0.08467,-0.903111 0.225777,-1.834443 0.127,-0.945444 0.296333,-1.79211 0.169334,-0.860777 0.352778,-1.523999 0.02822,-0.112889 0.02822,-0.155222 0,-0.183444 -0.127,-0.282222 -0.141111,-0.09878 -0.296333,-0.09878 -0.141111,0 -0.254,0.08467 -0.127,0.07055 -0.169333,0.211666 -0.155222,0.493889 -0.296333,1.171222 -0.141111,0.677333 -0.254,1.368777 -0.112889,0.677332 -0.169333,1.199443 -0.268111,-1.114777 -0.903111,-1.91911 -0.64911,-0.818443 -1.566332,-1.255888 -0.931332,-0.437444 -2.017887,-0.437444 -0.888999,0 -1.79211,0.324556 -0.282222,0.127 -0.282222,0.380999 0,0.423333 0.409222,0.423333 0.09878,0 0.155222,-0.01411 0.677333,-0.225777 1.481666,-0.225777 1.15711,0 1.947332,0.465666 0.790221,0.465666 1.28411,1.298221 0.479777,0.832555 0.705555,1.91911 0.225777,1.086555 0.254,2.342442 0,0.225778 0.141111,0.338667 0.126999,0.112889 0.282222,0.112889 z"
       id="text14"
       style="font-size:14.1111px;font-family:'Hachi Maru Pop';-inkscape-font-specification:'Hachi Maru Pop';stroke:#000000;stroke-width:0.7"
       aria-label="r" />
    <path
       d="m 8.138629,29.046987 q 1.382888,0 2.384776,-0.508 1.001889,-0.493889 1.53811,-1.425221 0.536222,-0.945444 0.536222,-2.257776 0,-1.213555 -0.550333,-2.102554 -0.550333,-0.888999 -1.495776,-1.368777 -0.945444,-0.493888 -2.130777,-0.493888 -1.199443,0 -2.356553,0.493888 -0.225778,0.09878 -0.225778,0.310444 0,0.09878 0.07056,0.197556 0.127,0.239888 0.409222,0.239888 0.09878,0 0.211666,-0.04233 0.90311,-0.366888 1.820332,-0.366888 1.001888,0 1.777999,0.437444 0.77611,0.423333 1.213554,1.15711 0.423333,0.733777 0.423333,1.679221 0,1.001888 -0.451555,1.721554 -0.451555,0.719666 -1.255888,1.100666 -0.818444,0.381 -1.862665,0.381 -0.747888,0 -1.368777,-0.183445 -0.620888,-0.169333 -1.086555,-0.395111 0.08467,-0.606777 0.127,-1.354665 0.04233,-0.762 0.04233,-1.580443 0,-0.973666 -0.04233,-1.975554 -0.05644,-1.001889 -0.127,-1.947332 -0.08467,-0.945444 -0.183444,-1.735666 -0.02822,-0.197555 -0.141111,-0.282222 -0.127,-0.09878 -0.268111,-0.09878 -0.169333,0 -0.310444,0.127 -0.141111,0.126999 -0.112889,0.352777 0.08467,0.733777 0.155222,1.636888 0.07056,0.90311 0.112889,1.890887 0.04233,0.973666 0.04233,1.933221 0,1.15711 -0.07055,2.173109 -0.07056,1.016 -0.239889,1.707443 -0.01411,0.04233 -0.01411,0.127 0,0.127 0.08467,0.239889 0.08467,0.127 0.239888,0.155222 0.423333,0.04233 0.522111,-0.324555 l 0.02822,-0.169333 q 0.522111,0.268111 1.227666,0.409222 0.691444,0.141111 1.326443,0.141111 z"
       id="text15"
       style="font-size:14.1111px;font-family:'Hachi Maru Pop';-inkscape-font-specification:'Hachi Maru Pop';stroke:#000000;stroke-width:0.7"
       aria-label="d" />
    <path
       style="font-size:7.05556px;font-family:'Hachi Maru Pop';-inkscape-font-specification:'Hachi Maru Pop';stroke:#000000;stroke-width:0.7"
       d="m 87.809756,29.123117 q 0.324555,0 0.592667,-0.218722 0.268111,-0.211667 0.500944,-0.536222 0.402167,-0.564445 0.663223,-1.291168 0.261056,-0.733778 0.486834,-1.559279 0.0071,-0.02117 0.0071,-0.0635 0,-0.0635 -0.04233,-0.119944 -0.04233,-0.0635 -0.119945,-0.07761 -0.197556,-0.02117 -0.261056,0.155222 -0.05645,0.261056 -0.162277,0.606778 -0.112889,0.345722 -0.254001,0.719667 -0.141111,0.366889 -0.289278,0.698501 -0.148166,0.331611 -0.282222,0.557389 -0.183445,0.282222 -0.388056,0.493889 -0.211667,0.211667 -0.472722,0.211667 -0.169334,0 -0.317501,-0.112889 -0.148166,-0.112889 -0.275166,-0.282222 -0.134056,-0.176389 -0.225778,-0.338667 -0.162278,-0.282223 -0.324556,-0.677334 -0.169333,-0.402167 -0.3175,-0.87489 -0.148167,-0.479778 -0.268111,-0.987778 -0.02117,-0.105833 -0.09878,-0.141111 -0.08467,-0.04233 -0.155223,-0.02822 -0.08467,0.0071 -0.134055,0.07761 -0.04939,0.07055 -0.02822,0.169333 0.0635,0.324556 0.183444,0.726723 0.112889,0.395111 0.268111,0.804334 0.148167,0.409222 0.317501,0.762 0.162277,0.352778 0.324555,0.578556 0.239889,0.331611 0.500945,0.536223 0.261056,0.211666 0.5715,0.211666 z m -4.480283,0.23989 q 0.09172,0 0.155222,-0.04939 0.05645,-0.04939 0.05645,-0.162278 v -4.854226 l 1.326445,0.437445 q 0.02117,0.0071 0.04233,0.01411 0.01411,0 0.03528,0 0.07056,0 0.127,-0.04939 0.04939,-0.04939 0.0635,-0.105833 0.0071,-0.02822 0.0071,-0.04939 0,-0.02822 0,-0.04939 0,-0.0635 -0.02822,-0.09878 -0.02822,-0.04233 -0.112889,-0.0635 -0.141112,-0.04939 -0.352778,-0.119944 -0.218723,-0.07761 -0.437445,-0.155223 -0.225778,-0.08467 -0.402167,-0.141111 -0.176389,-0.0635 -0.232834,-0.07761 -0.162277,-0.04233 -0.261055,-0.04233 -0.197556,0 -0.197556,0.204611 v 5.150559 q 0,0.112889 0.07056,0.162278 0.07055,0.04939 0.141111,0.04939 z m -1.827387,-0.07056 q 0.261055,0 0.416278,-0.169334 0.155222,-0.169333 0.155222,-0.388055 0,-0.246945 -0.155222,-0.395112 -0.155223,-0.148166 -0.416278,-0.148166 -0.275167,0 -0.423334,0.155222 -0.148167,0.155222 -0.148167,0.388056 0,0.254 0.155223,0.402167 0.155222,0.155222 0.416278,0.155222 z m -5.305782,0.09172 q 0.825501,0 1.397001,-0.373944 0.564445,-0.373945 0.860779,-1.023057 0.289278,-0.649111 0.289278,-1.474612 0,-0.860778 -0.282223,-1.50989 -0.282222,-0.649111 -0.846667,-1.008945 -0.564445,-0.359833 -1.418168,-0.359833 -0.860778,0 -1.425223,0.366889 -0.564445,0.359833 -0.839611,1.008945 -0.282223,0.649111 -0.282223,1.502834 0,0.839612 0.310445,1.488723 0.303389,0.649112 0.874889,1.016001 0.564445,0.366889 1.361723,0.366889 z m 0,-0.423333 q -0.691445,0 -1.164167,-0.310445 -0.472723,-0.3175 -0.712612,-0.867834 -0.246944,-0.557389 -0.246944,-1.270001 0,-0.740834 0.225778,-1.291167 0.225778,-0.55739 0.6985,-0.860779 0.465667,-0.303389 1.199445,-0.303389 0.719668,0 1.19239,0.303389 0.465667,0.296334 0.6985,0.846668 0.232834,0.550333 0.232834,1.305278 0,0.726723 -0.239889,1.277057 -0.239889,0.550333 -0.712612,0.860778 -0.472722,0.310445 -1.171223,0.310445 z"
       id="text16"
       aria-label="v1.0" />
  </g>
</svg>
