<?xml version="1.0" encoding="UTF-8" standalone="no"?>
<!-- Created with Inkscape (http://www.inkscape.org/) -->

<svg
   width="88.714363mm"
   height="24.995142mm"
   viewBox="0 0 88.714363 24.995142"
   version="1.1"
   id="svg1"
   inkscape:version="1.3 (0e150ed6c4, 2023-07-21)"
   sodipodi:docname="LogoNoVersion2.svg"
   xmlns:inkscape="http://www.inkscape.org/namespaces/inkscape"
   xmlns:sodipodi="http://sodipodi.sourceforge.net/DTD/sodipodi-0.dtd"
   xmlns="http://www.w3.org/2000/svg"
   xmlns:svg="http://www.w3.org/2000/svg">
  <sodipodi:namedview
     id="namedview1"
     pagecolor="#ffffff"
     bordercolor="#000000"
     borderopacity="0.25"
     inkscape:showpageshadow="2"
     inkscape:pageopacity="0.0"
     inkscape:pagecheckerboard="0"
     inkscape:deskcolor="#d1d1d1"
     inkscape:document-units="mm"
     inkscape:zoom="4.1798822"
     inkscape:cx="166.39225"
     inkscape:cy="35.288076"
     inkscape:window-width="2072"
     inkscape:window-height="1237"
     inkscape:window-x="1101"
     inkscape:window-y="112"
     inkscape:window-maximized="0"
     inkscape:current-layer="layer1" />
  <defs
     id="defs1" />
  <g
     inkscape:label="Layer 1"
     inkscape:groupmode="layer"
     id="layer1"
     transform="translate(-4.359639,-4.7390314)">
    <g
       id="text7">
      <path
         d="m 7.6870811,15.065579 q -0.6349995,0 -1.128888,-0.366888 Q 6.0643046,14.345913 5.7115271,13.739136 5.3728607,13.118247 5.1470831,12.356248 4.9213055,11.594249 4.8084167,10.789916 4.709639,9.971472 4.709639,9.2235837 q 0,-0.9172215 0.1552221,-1.9049985 0.1552221,-1.0018881 0.423333,-1.8908875 0.056444,-0.1975554 0.1834443,-0.2681109 0.1269999,-0.070555 0.2539998,-0.070555 0.2116665,0 0.3245553,0.1269999 0.1128888,0.1269999 0.070556,0.3527776 Q 5.8667497,6.6835862 5.7397498,7.6572521 5.626861,8.630918 5.626861,9.477584 q 0,0.860778 0.1128888,1.679221 0.1269999,0.818444 0.3809997,1.481666 0.2681109,0.663222 0.6773328,1.058332 0.423333,0.381 1.0159992,0.381 0.5079996,0 0.9454437,-0.310444 0.4515552,-0.324555 0.8325549,-0.832555 0.3809997,-0.508 0.6632219,-1.072444 0.155222,-0.338666 0.366889,-0.310444 0.211666,0 0.423333,0.296333 0.352777,0.508 0.776109,1.016 0.423333,0.493888 0.874889,0.818443 0.451555,0.324556 0.874888,0.352778 0.423333,0.04233 0.747888,-0.211667 0.324555,-0.268111 0.550333,-0.705555 0.225778,-0.437444 0.366889,-0.973666 0.141112,-0.536221 0.211666,-1.044221 0.127,-0.846666 0.127,-1.7921102 0,-0.9736659 -0.127,-1.9473318 -0.127,-0.987777 -0.366888,-1.8062208 -0.01411,-0.028222 -0.01411,-0.070556 0,-0.042333 0,-0.070555 0,-0.1834443 0.126999,-0.2539998 0.141111,-0.070555 0.296334,-0.070555 0.352777,0 0.423333,0.3527775 0.26811,0.9877771 0.409221,2.0037763 0.155223,1.0018881 0.155223,2.0037762 0,1.1288876 -0.211667,2.1731096 -0.183444,0.846666 -0.536222,1.636887 -0.338666,0.776111 -0.874888,1.28411 -0.522111,0.508 -1.255888,0.508 -0.522111,0 -1.044221,-0.296333 -0.508,-0.282222 -0.987777,-0.761999 -0.465667,-0.465667 -0.874889,-1.030111 -0.620888,0.903111 -1.4252202,1.495777 -0.8043327,0.606777 -1.5804432,0.606777 z"
         id="path17" />
      <path
         d="m 5.7265625,4.7382812 c -0.1494808,0 -0.2978193,0.044145 -0.4257813,0.1152344 -0.186155,0.1034192 -0.2957998,0.2892774 -0.3496093,0.4765625 -1.436e-4,4.997e-4 1.428e-4,0.00145 0,0.00195 C 4.7681387,5.9399602 4.6249555,6.5851591 4.5195312,7.265625 4.4136801,7.939843 4.359375,8.5920574 4.359375,9.2226563 c 0,0.5140004 0.034191,1.0511557 0.1015625,1.6093747 v 0.0039 0.002 c 0.077609,0.55296 0.1940757,1.092261 0.3496094,1.617187 0.1567039,0.528876 0.3548068,1.013109 0.59375,1.451172 l 0.00195,0.0039 0.00195,0.0059 c 0.2555482,0.439542 0.5718462,0.799122 0.9453125,1.066406 0.3861582,0.285678 0.844751,0.433594 1.3339844,0.433594 0.6072371,0 1.2088879,-0.240552 1.7871094,-0.675782 0.4548057,-0.33512 0.8329966,-0.789595 1.2011716,-1.259765 0.208977,0.262954 0.414876,0.53011 0.644532,0.759765 0.33857,0.338571 0.691946,0.61218 1.0625,0.81836 0.391629,0.222276 0.802507,0.34375 1.216796,0.34375 0.56842,0 1.089754,-0.211709 1.496094,-0.605469 0.395377,-0.374567 0.713415,-0.844625 0.955078,-1.398437 0.244199,-0.54763 0.431501,-1.11459 0.558594,-1.701172 v -0.0039 -0.002 c 0.14599,-0.720215 0.21875,-1.467721 0.21875,-2.2421872 0,-0.6847047 -0.05242,-1.368658 -0.158203,-2.0527344 v -0.00391 c -0.09497,-0.682645 -0.232919,-1.3555015 -0.41211,-2.0195312 l -0.002,-0.00391 c -0.035,-0.1711718 -0.116924,-0.341903 -0.259765,-0.4609375 -0.144019,-0.1200158 -0.329934,-0.1699218 -0.50586,-0.1699219 -0.156511,10e-8 -0.313137,0.037428 -0.453125,0.1074219 l -0.0059,0.00391 -0.0078,0.00391 c -0.197235,0.1095755 -0.306641,0.3574822 -0.306641,0.5605469 v 0.070312 c 0,0.067108 0.01007,0.1451383 0.05078,0.2265625 l -0.02148,-0.058594 c 0.153924,0.5251561 0.272797,1.1109072 0.355469,1.7539063 0.08273,0.6342728 0.123046,1.2684512 0.123046,1.9023438 0,0.6146235 -0.04121,1.1946912 -0.123046,1.7402342 v 0.002 0.002 c -0.04497,0.323795 -0.112321,0.656896 -0.203125,1.001954 -0.08834,0.335705 -0.202428,0.6361 -0.339844,0.902343 -0.131575,0.254926 -0.285512,0.44948 -0.458985,0.59375 -0.149388,0.115761 -0.291387,0.156993 -0.49414,0.136719 h -0.0059 l -0.0059,-0.002 c -0.201611,-0.01344 -0.43051,-0.09819 -0.693359,-0.287109 -0.274807,-0.197517 -0.545643,-0.450385 -0.8125,-0.761719 -0.274989,-0.330177 -0.527697,-0.659727 -0.75586,-0.988281 v -0.002 l -0.002,-0.002 c -0.168458,-0.23584 -0.395276,-0.421114 -0.6875,-0.43164 -0.159381,-0.01234 -0.330049,0.03889 -0.443359,0.134765 -0.119806,0.101374 -0.196658,0.227189 -0.261719,0.369141 l 0.00391,-0.01172 C 9.7626501,12.062591 9.5540551,12.402536 9.3125,12.724609 c -0.235644,0.314193 -0.4891678,0.564725 -0.7578125,0.757813 -0.2388979,0.169107 -0.4734984,0.246094 -0.7402344,0.246094 -0.3177455,0 -0.55686,-0.09245 -0.7773437,-0.289063 -0.2277372,-0.221319 -0.428374,-0.525989 -0.5917969,-0.929687 -2.445e-4,-6.04e-4 2.443e-4,-0.0013 0,-0.002 -0.1581127,-0.414138 -0.2782779,-0.881672 -0.359375,-1.404297 -0.07247,-0.527387 -0.109375,-1.068448 -0.109375,-1.6250004 0,-0.5488879 0.037406,-1.143669 0.1113281,-1.78125 0.083013,-0.6348482 0.2082525,-1.3189447 0.375,-2.0507812 v -0.00586 l 0.00195,-0.00781 C 6.5056411,5.4152241 6.4706135,5.1622527 6.3125,4.984375 6.1650773,4.8185245 5.9376733,4.7382812 5.7265625,4.7382812 Z m 0,0.7011719 c 0.071111,0 0.059405,0.00628 0.0625,0.00977 -0.0076,-0.00854 0.00393,-0.028761 -0.011719,0.054687 -0.169793,0.7469882 -0.2989968,1.4498612 -0.3847656,2.1074219 v 0.00391 0.00195 c -0.076596,0.6606389 -0.1152344,1.2813291 -0.1152344,1.8613281 0,0.5891514 0.037706,1.1644814 0.1152344,1.7265624 v 0.002 l 0.00195,0.0039 c 0.087891,0.56641 0.218875,1.083876 0.3984375,1.552734 l 0.00195,0.0039 0.00195,0.002 c 0.1928789,0.477122 0.4420774,0.874841 0.7578125,1.179688 l 0.00391,0.0039 0.00586,0.0039 c 0.3425886,0.30833 0.7798896,0.470703 1.25,0.470703 0.4099623,0 0.8046612,-0.131029 1.1484375,-0.375 v -0.002 c 0.3334283,-0.239651 0.6378012,-0.543109 0.9101563,-0.90625 0.2664441,-0.355259 0.4977731,-0.729921 0.6953121,-1.125 l 0.002,-0.0059 0.0039,-0.0059 c 0.02945,-0.06426 0.0459,-0.08038 0.05859,-0.0957 -0.01136,3.23e-4 0.02537,-0.0035 0.126953,0.138672 0.241013,0.346914 0.505228,0.691821 0.792968,1.03711 l 0.002,0.002 0.002,0.002 c 0.297585,0.347183 0.608279,0.639777 0.935547,0.875 0.336625,0.24195 0.688911,0.388152 1.048828,0.414062 0.358476,0.03473 0.713342,-0.0615 0.99414,-0.28125 l 0.0039,-0.0039 0.0039,-0.002 c 0.257704,-0.212886 0.468217,-0.487983 0.636719,-0.814453 0.16362,-0.317015 0.294726,-0.665665 0.394531,-1.044922 0.09701,-0.368625 0.171603,-0.729659 0.220703,-1.082031 v -0.0039 c 0.08713,-0.582246 0.130859,-1.1952392 0.130859,-1.8398442 0,-0.6643274 -0.04426,-1.3282405 -0.130859,-1.9921876 -0.08666,-0.6740356 -0.211027,-1.2932736 -0.376953,-1.859375 0.02358,-0.0059 0.04595,-0.017578 0.07226,-0.017578 0.05926,0 0.0615,0.00828 0.05859,0.00586 -0.0029,-0.00242 0.009,0.00186 0.02149,0.064453 l 0.002,0.011719 0.0039,0.011719 c 0.174859,0.6442214 0.308346,1.298214 0.400391,1.9609375 V 7.4960937 7.5 c 0.100779,0.6504813 0.152343,1.2993692 0.152343,1.9492188 0,0.7307162 -0.06884,1.4314362 -0.205078,2.1035152 -0.117214,0.539787 -0.288756,1.060643 -0.513672,1.564454 v 0.002 c -0.209891,0.481001 -0.475337,0.867158 -0.794922,1.169922 l -0.002,0.002 -0.002,0.002 c -0.289337,0.281517 -0.603304,0.408203 -1.011719,0.408203 -0.281857,0 -0.566577,-0.07717 -0.871093,-0.25 l -0.002,-0.002 h -0.002 c -0.305954,-0.169975 -0.609716,-0.402685 -0.910156,-0.703125 -0.296695,-0.296695 -0.57526,-0.626032 -0.83789,-0.988281 l -0.291016,-0.402344 -0.28125,0.410156 c -0.394202,0.573385 -0.8412536,1.041849 -1.3437501,1.412109 h -0.00195 l -0.00195,0.002 C 8.5636262,14.55161 8.1136945,14.714844 7.6875,14.714844 c -0.3559253,0 -0.6483036,-0.0951 -0.9199219,-0.296875 l -0.00391,-0.002 -0.00195,-0.002 C 6.4790002,14.21212 6.2311992,13.932389 6.0175781,13.566406 5.8061768,13.177893 5.6261288,12.74087 5.4824219,12.255859 5.3374959,11.766734 5.2291576,11.265355 5.15625,10.748047 5.0919178,10.215009 5.0605469,9.7058392 5.0605469,9.2226563 c 0,-0.5917369 0.049488,-1.2075042 0.1503906,-1.8496094 C 5.3121488,6.7197736 5.44941,6.1050403 5.6230469,5.5292969 L 5.625,5.5253906 v -0.00195 c 0.021604,-0.075614 0.034896,-0.068215 0.017578,-0.058594 0.041371,-0.022984 0.064132,-0.025391 0.083984,-0.025391 z"
         id="path18" />
    </g>
    <g
       id="text8">
      <path
         d="m 22.622776,17.211595 q -0.112888,0.01411 -0.239888,0.01411 -0.112889,0 -0.225778,0 -1.255888,0 -2.243665,-0.536222 -0.987777,-0.52211 -1.552221,-1.453443 -0.564444,-0.931333 -0.564444,-2.130776 0,-1.128888 0.437444,-2.074332 0.451555,-0.959555 1.269999,-1.5945542 0.818444,-0.6349995 1.933221,-0.8043327 0.155222,-0.028222 0.338666,-0.042333 0.183445,-0.014111 0.366889,-0.014111 0.761999,0 1.580443,0.2116665 0.832555,0.1975554 1.396999,0.564444 0.07056,-0.1552221 0.225778,-0.1834443 0.155222,-0.042333 0.253999,-0.014111 0.155223,0.014111 0.239889,0.141111 0.08467,0.1269999 0.08467,0.2963331 -0.01411,0.3245553 -0.02822,0.6349996 0,0.310445 0,0.620889 0,1.580443 0.225777,2.808109 0.239889,1.227665 0.888999,2.144887 0.08467,0.127 0.08467,0.253999 0,0.169334 -0.141111,0.282223 -0.127,0.112888 -0.282222,0.112888 -0.211666,0 -0.352777,-0.183444 -0.141111,-0.197556 -0.282222,-0.437444 -0.127,-0.239889 -0.211667,-0.423333 -0.578555,0.804333 -1.41111,1.241777 -0.832555,0.451554 -1.79211,0.564444 z m -0.282222,-0.818444 q 0.959555,0 1.763888,-0.536222 0.818444,-0.536221 1.326443,-1.467554 -0.211666,-0.790222 -0.310444,-1.834443 -0.09878,-1.044221 -0.08467,-2.173109 Q 24.753552,10.071378 24.287886,9.8597118 23.82222,9.6480453 23.271887,9.5351565 22.721554,9.4222677 22.185332,9.4222677 q -0.352777,0 -0.663221,0.042333 -0.310445,0.042333 -0.578556,0.1552221 -1.072443,0.3951112 -1.707443,1.3264442 -0.620888,0.917221 -0.620888,2.102553 0,1.044222 0.493888,1.79211 0.508,0.747888 1.354666,1.15711 0.846666,0.395111 1.876776,0.395111 z"
         id="path15" />
      <path
         d="m 22.142578,8.2265625 c -0.13127,0 -0.261386,0.00358 -0.392578,0.013672 -0.129076,0.00993 -0.250684,0.024464 -0.365234,0.044922 -8.95e-4,1.358e-4 -0.0011,0.00182 -0.002,0.00195 -0.793736,0.1209825 -1.499888,0.412292 -2.09375,0.8730469 -0.588458,0.4565624 -1.048033,1.0361537 -1.371093,1.7226567 l -0.002,0.002 c -0.313922,0.678476 -0.46875,1.422903 -0.46875,2.220703 0,0.85453 0.20442,1.634656 0.615234,2.3125 0.408175,0.673488 0.97732,1.204697 1.6875,1.580078 0.712382,0.385961 1.520539,0.578125 2.40625,0.578125 h 0.226562 c 0.09696,0 0.190549,-0.0063 0.28125,-0.01758 0.680356,-0.08004 1.321301,-0.280691 1.914063,-0.601563 l 0.0039,-0.002 c 0.445714,-0.23475 0.786931,-0.617937 1.13086,-0.996094 0.0063,0.01204 0.0091,0.02096 0.01563,0.0332 l 0.0039,0.0078 0.0039,0.0059 c 0.09864,0.167682 0.197881,0.321566 0.298828,0.462891 l 0.0039,0.0059 0.0039,0.0059 c 0.145638,0.18933 0.386684,0.318359 0.628906,0.318359 0.184751,0 0.368995,-0.07892 0.505859,-0.197266 0.157081,-0.12921 0.267578,-0.339735 0.267578,-0.546875 0,-0.162447 -0.05626,-0.319749 -0.142578,-0.449218 l -0.002,-0.0039 -0.0039,-0.0039 c -0.401949,-0.567972 -0.678401,-1.233536 -0.830078,-2.009765 -0.145278,-0.791395 -0.220703,-1.70474 -0.220703,-2.740235 v -0.605468 -0.01563 c 0.0092,-0.202338 0.02011,-0.4078713 0.0293,-0.6191411 v -0.00781 -0.00781 c 0,-0.1712243 -0.04826,-0.3458308 -0.144532,-0.4902344 -0.102337,-0.1535077 -0.290002,-0.2551867 -0.472656,-0.28125 -0.132955,-0.029072 -0.259608,-0.02137 -0.380859,0.00977 -0.07656,0.01518 -0.112049,0.098458 -0.179688,0.1425782 -0.378087,-0.2153991 -0.787404,-0.4043357 -1.287109,-0.5234375 -6.57e-4,-1.7e-4 -0.0013,1.697e-4 -0.002,0 C 23.238164,8.301852 22.682363,8.2265625 22.142578,8.2265625 Z m 0,0.6992188 c 0.475592,0 0.974004,0.066654 1.494141,0.2011718 h 0.002 0.0039 c 0.524967,0.1245685 0.952675,0.3001955 1.287109,0.5175782 l 0.341797,0.2226562 0.164063,-0.3613281 h 0.002 c 0.06625,-0.018069 0.09157,-0.00844 0.06641,-0.015625 L 25.535156,9.5 h 0.01563 c 0.01348,0.022006 0.02314,0.042475 0.02344,0.089844 6e-6,9.667e-4 0,9.657e-4 0,0.00195 -0.0092,0.2106134 -0.01818,0.4174981 -0.02734,0.6191411 v 0.0078 0.628906 c 0,1.070294 0.07512,2.026374 0.230469,2.871094 l 0.002,0.002 v 0.002 c 0.168174,0.860656 0.483736,1.624308 0.947265,2.279297 l -0.0059,-0.0078 c 0.02658,0.03986 0.02539,0.05366 0.02539,0.06055 0,0.01567 0.01765,-0.01412 -0.0098,0.0078 l -0.0078,0.0059 -0.0059,0.0059 c -0.03175,0.02822 -0.03215,0.02539 -0.05078,0.02539 -0.03877,0 -0.03393,0.0049 -0.07227,-0.04492 -0.0012,-0.0016 -6.48e-4,-2.56e-4 -0.002,-0.002 -0.08226,-0.115792 -0.165683,-0.246147 -0.25,-0.388671 l -0.0039,-0.0078 c -0.0013,-0.0022 -0.0026,-0.0037 -0.0039,-0.0059 -0.07863,-0.14903 -0.144275,-0.281998 -0.195313,-0.392578 l -0.251953,-0.544922 -0.351562,0.488281 c -0.356795,0.496032 -0.782667,0.870646 -1.289063,1.136719 H 24.25 l -0.002,0.002 c -0.516246,0.279997 -1.068429,0.453133 -1.666016,0.523437 h -0.002 v 0.002 c -0.05923,0.0074 -0.125561,0.0098 -0.197266,0.0098 H 22.15625 c -0.787445,0 -1.472315,-0.164379 -2.076172,-0.492188 l -0.002,-0.002 h -0.002 c -0.606855,-0.320765 -1.071599,-0.757884 -1.416016,-1.326171 -0.341777,-0.563933 -0.513672,-1.204493 -0.513672,-1.949219 0,-0.707383 0.136914,-1.34562 0.40625,-1.927735 0.278918,-0.591716 0.663953,-1.075312 1.166016,-1.4648434 0.496727,-0.3853914 1.079948,-0.6293314 1.771484,-0.734375 l 0.0039,-0.00195 H 21.5 c 0.08971,-0.01631 0.190702,-0.028492 0.302734,-0.037109 0.113402,-0.00872 0.226523,-0.013672 0.339844,-0.013672 z m 0.04297,0.1464843 c -0.249184,0 -0.48639,0.014302 -0.710938,0.044922 -0.231482,0.031565 -0.449999,0.091873 -0.65625,0.1777344 C 20.043165,9.5817138 19.408218,10.073936 18.947266,10.75 h -0.002 c -0.453158,0.669438 -0.679687,1.447497 -0.679687,2.298828 0,0.751327 0.180246,1.423278 0.550781,1.984375 l 0.002,0.002 0.002,0.002 c 0.372777,0.548809 0.87527,0.978158 1.490235,1.275391 l 0.0039,0.002 h 0.002 c 0.613735,0.28641 1.29195,0.427734 2.023438,0.427734 0.704898,0 1.369314,-0.200636 1.958984,-0.59375 0.594507,-0.390068 1.076938,-0.927184 1.439453,-1.591796 l 0.06641,-0.123047 -0.03516,-0.134766 c -0.134662,-0.50274 -0.236357,-1.096291 -0.300781,-1.777344 -0.06459,-0.682818 -0.09129,-1.393729 -0.08203,-2.134765 v -0.138672 l -0.0918,-0.101563 C 25.068957,9.8979196 24.778471,9.6977779 24.433594,9.5410156 24.097204,9.3881111 23.731831,9.2714132 23.341797,9.1914063 22.952989,9.1116507 22.567589,9.0722656 22.185547,9.0722656 Z m 0,0.6992188 c 0.332919,0 0.670657,0.036659 1.015625,0.1074219 0.343742,0.070511 0.656909,0.1695107 0.941406,0.2988277 0.2394,0.108819 0.407086,0.241487 0.550781,0.38086 -0.003,0.697235 0.01653,1.378118 0.07813,2.029297 0.06054,0.639984 0.16376,1.193159 0.289063,1.703125 -0.306681,0.533695 -0.678141,0.965313 -1.148438,1.273437 l -0.002,0.002 c -0.482772,0.321849 -0.995806,0.476563 -1.570312,0.476563 -0.640455,0 -1.21042,-0.120111 -1.72461,-0.359375 l -0.0039,-0.002 c -0.51107,-0.247804 -0.907388,-0.589107 -1.210937,-1.035157 -5.25e-4,-7.71e-4 -0.0014,-0.0012 -0.002,-0.002 -0.286515,-0.435403 -0.433593,-0.956391 -0.433593,-1.595703 0,-0.729109 0.185855,-1.352728 0.560547,-1.90625 0.384647,-0.564149 0.886781,-0.953045 1.539062,-1.1933592 l 0.0078,-0.00391 0.0078,-0.00195 c 0.148634,-0.062583 0.311174,-0.1083954 0.490234,-0.1328125 0.189377,-0.025824 0.39405,-0.039063 0.615235,-0.039063 z"
         id="path16" />
    </g>
    <g
       id="text9">
      <path
         d="m 29.765685,18.818988 q -0.324555,0 -0.409222,-0.352777 -0.254,-1.749776 -0.381,-3.697108 -0.112889,-1.961443 -0.112889,-3.880553 0,-1.15711 0.04233,-2.2295536 0,-0.2257776 0.141111,-0.3104442 0.155222,-0.098778 0.296333,-0.098778 0.183444,0.014111 0.296333,0.141111 0.112889,0.1128888 0.112889,0.3104442 -0.01411,0.3809997 -0.02822,1.1006658 -0.01411,0.7055548 -0.01411,1.4957768 0,0.649111 0,1.28411 0.01411,0.635 0.02822,1.128888 0.02822,0.479778 0.04233,0.719666 0.352777,-0.465666 1.03011,-0.917221 0.691444,-0.465666 1.509888,-0.874888 0.832555,-0.409222 1.636888,-0.719666 0.818443,-0.324556 1.439332,-0.522111 0.08467,-0.02822 0.127,-0.02822 0.169333,0 0.310444,0.141111 0.141111,0.126999 0.141111,0.310444 0,0.112889 -0.08467,0.225777 -0.07055,0.112889 -0.225777,0.155223 -1.255888,0.479777 -2.314221,0.917221 -1.044221,0.423333 -1.80622,0.888999 -0.762,0.451556 -1.143,1.016 0.395111,0.423333 1.044222,0.804332 0.663222,0.381 1.439332,0.719666 0.790222,0.324556 1.594554,0.606778 0.804333,0.282222 1.495777,0.507999 0.296333,0.127 0.296333,0.395111 0,0.05644 -0.02822,0.141111 -0.112889,0.296333 -0.366889,0.296333 -0.04233,0 -0.155222,-0.02822 -0.05644,-0.02822 -0.536222,-0.197555 -0.465666,-0.155223 -1.185332,-0.423333 -0.705555,-0.254 -1.495777,-0.578556 -0.77611,-0.338666 -1.481665,-0.733777 -0.705555,-0.395111 -1.142999,-0.804332 0.07055,0.677332 0.112888,1.142999 0.04233,0.451555 0.08467,0.790221 0.05644,0.352778 0.112889,0.677333 0.02822,0.239889 -0.112889,0.352778 -0.141111,0.126999 -0.310444,0.126999 z"
         id="path13" />
      <path
         d="m 29.341797,7.9003906 c -0.172959,0 -0.334197,0.061135 -0.476563,0.1503907 -0.210659,0.127412 -0.310546,0.3845555 -0.310547,0.6074218 -0.02807,0.7158713 -0.04297,1.4595189 -0.04297,2.2304689 0,1.286268 0.0396,2.586226 0.115234,3.900391 v 0.002 c 0.08521,1.306547 0.212019,2.548033 0.382813,3.724609 l 0.002,0.01758 0.0039,0.01563 c 0.04006,0.166935 0.120292,0.328714 0.257812,0.447266 0.137521,0.118552 0.320597,0.173828 0.492188,0.173828 0.195924,0 0.388367,-0.08658 0.533203,-0.212891 0.191946,-0.158806 0.265411,-0.427583 0.238281,-0.658203 l -0.002,-0.0098 -0.002,-0.0098 c -0.03669,-0.210934 -0.07263,-0.430816 -0.109375,-0.660156 l -0.002,-0.01172 c -0.02722,-0.218844 -0.05449,-0.473757 -0.08203,-0.767578 -0.0096,-0.106014 -0.02728,-0.26662 -0.03906,-0.388672 0.186522,0.128198 0.327491,0.26277 0.548828,0.386719 0.480909,0.269308 0.98617,0.519817 1.513672,0.75 l 0.0039,0.002 h 0.0039 c 0.530995,0.218088 1.033876,0.412664 1.509765,0.583984 h -0.0039 c 0.482213,0.179647 0.880786,0.32224 1.197266,0.427734 0.155473,0.05489 0.277948,0.09747 0.363281,0.128907 0.0867,0.03194 0.160319,0.06551 0.126953,0.04883 l 0.0332,0.01758 0.03711,0.0098 c 0.08525,0.02131 0.134236,0.03711 0.240234,0.03711 0.152722,0 0.316878,-0.05139 0.439453,-0.150391 0.122576,-0.099 0.202686,-0.231513 0.255859,-0.371093 l 0.002,-0.0059 0.002,-0.0078 c 0.02619,-0.07858 0.04687,-0.155993 0.04687,-0.251953 0,-0.307688 -0.228292,-0.597002 -0.507813,-0.716797 l -0.01563,-0.0059 -0.01367,-0.0039 C 35.625861,17.180487 35.12792,17.011647 34.59375,16.824219 34.063292,16.638093 33.538768,16.436717 33.017578,16.222656 32.514214,16.002742 32.048446,15.770776 31.621094,15.525391 l -0.002,-0.002 c -0.289543,-0.170143 -0.480528,-0.345477 -0.681641,-0.521485 0.210379,-0.239464 0.423428,-0.479002 0.785156,-0.693359 l 0.002,-0.002 h 0.002 c 0.487567,-0.297958 1.071699,-0.586711 1.753907,-0.863282 l 0.002,-0.002 h 0.002 c 0.702133,-0.290215 1.469939,-0.59517 2.304687,-0.914062 l -0.0332,0.01172 c 0.162267,-0.04425 0.321282,-0.15115 0.419922,-0.300782 0.08442,-0.117742 0.148438,-0.261732 0.148438,-0.417968 0,-0.20908 -0.09932,-0.421637 -0.251953,-0.5625 -0.143217,-0.140268 -0.341733,-0.240235 -0.548829,-0.240235 -0.105997,0 -0.165236,0.02253 -0.238281,0.04687 -0.423517,0.134877 -0.907369,0.311327 -1.457031,0.529297 -0.545822,0.210752 -1.099271,0.453819 -1.662109,0.730469 h -0.002 v 0.002 c -0.557862,0.278931 -1.074196,0.576835 -1.548828,0.896484 -0.224268,0.149513 -0.348817,0.314594 -0.527343,0.470703 -0.0092,-0.324404 -0.02003,-0.695072 -0.0293,-1.111328 v -0.0078 -1.277344 c 0,-0.524731 0.0063,-1.020524 0.01563,-1.4882812 0.0094,-0.4787012 0.01808,-0.8435832 0.02734,-1.09375 v -0.00781 -0.00586 c 0,-0.1942801 -0.06974,-0.3998929 -0.210937,-0.546875 C 29.757151,8.0087817 29.562522,7.9152661 29.369141,7.9003906 h -0.01367 z m -0.01172,0.7050782 c 0.02171,0.00297 0.03377,0.00284 0.04687,0.017578 l 0.0078,0.00781 0.0059,0.00781 c 0.003,0.00298 0.0113,0.00151 0.01172,0.060547 1.3e-5,0.00184 0,-1.03e-5 0,0.00195 -0.0094,0.2573382 -0.01999,0.6188296 -0.0293,1.09375 -0.0095,0.4729811 -0.01367,0.9730561 -0.01367,1.5019531 v 1.289063 0.0039 c 0.0094,0.423908 0.01791,0.80065 0.02734,1.130859 l 0.002,0.0059 0.06641,1.125 -0.02148,-0.01953 0.04492,0.425782 0.0078,0.140625 0.0059,-0.0078 0.03906,0.375 c 0.04692,0.450509 0.0833,0.830447 0.111328,1.138672 0.02847,0.303737 0.05712,0.570251 0.08594,0.800781 l 0.002,0.0059 v 0.0059 c 0.03689,0.230578 0.07437,0.451114 0.111328,0.664062 0.01016,0.08637 0.0064,0.04451 0.01563,0.03711 l -0.0078,0.0078 -0.0078,0.0059 c -0.04233,0.0381 -0.05078,0.03711 -0.07617,0.03711 -0.04478,0 -0.03627,-0.0049 -0.03516,-0.0039 0.001,8.63e-4 -0.01453,-0.02035 -0.0293,-0.07227 -0.166186,-1.149322 -0.293366,-2.363608 -0.376953,-3.644531 v -0.002 c -0.07481,-1.300418 -0.111328,-2.585523 -0.111328,-3.857422 0,-0.767138 0.01299,-1.5067922 0.04102,-2.216797 l 0.002,-0.00586 v -0.00781 c 0,-0.077602 -0.0057,-0.023938 -0.0293,-0.00977 l 0.0039,-0.00195 0.0039,-0.00195 c 0.05588,-0.035563 0.08047,-0.037907 0.0957,-0.039063 z m 6.193359,3.1132812 c 0.01567,0 0.01792,-0.0055 0.0625,0.03906 l 0.0059,0.0059 0.0078,0.0059 c 0.03179,0.02861 0.02539,0.01823 0.02539,0.05078 0,-0.01225 0.0072,-0.01483 -0.01563,0.01563 l -0.0078,0.01172 -0.0078,0.01172 c 0.0037,-0.0059 0.0188,-0.0071 -0.02148,0.0039 l -0.01758,0.0039 -0.01563,0.0059 c -0.839767,0.32081 -1.613289,0.628832 -2.322265,0.921875 -0.708958,0.287549 -1.327706,0.59154 -1.855469,0.914062 -0.538472,0.319877 -0.96063,0.690446 -1.25,1.119141 l -0.15625,0.230469 0.189453,0.203125 c 0.292904,0.313825 0.668239,0.600235 1.123047,0.867187 l 0.002,0.002 h 0.002 c 0.45444,0.261062 0.94465,0.505926 1.472657,0.736328 l 0.0039,0.002 0.0039,0.002 c 0.532438,0.21868 1.069345,0.423111 1.611328,0.613281 0.527793,0.18519 1.016468,0.35079 1.472656,0.5 0.11559,0.04954 0.08398,0.02247 0.08398,0.07227 0,-0.01562 -0.0032,0.0049 -0.0078,0.02344 -0.01972,0.04708 -0.03737,0.06857 -0.03711,0.06836 2.79e-4,-2.25e-4 0.01661,-0.0039 0,-0.0039 0.03433,0 -0.01425,-0.0059 -0.04883,-0.01172 -0.04355,-0.01894 -0.07805,-0.03338 -0.146485,-0.05859 -0.09204,-0.03391 -0.218132,-0.07802 -0.378906,-0.134766 l -0.002,-0.002 h -0.0039 c -0.304407,-0.10147 -0.696487,-0.24209 -1.173828,-0.419922 h -0.002 l -0.002,-0.002 c -0.463043,-0.166696 -0.95423,-0.356677 -1.474609,-0.570313 l -0.0059,-0.002 C 32.131508,16.722689 31.65145,16.485047 31.193359,16.228516 30.74103,15.975211 30.3813,15.719729 30.117187,15.472656 l -0.402343,-0.376953 0.34375,-0.453125 c 0.20296,-0.267907 0.516625,-0.552099 0.945312,-0.83789 l 0.002,-0.002 c 0.446591,-0.300764 0.936329,-0.583276 1.46875,-0.849609 l 0.002,-0.002 c 0.545606,-0.268097 1.080369,-0.502408 1.605469,-0.705078 l 0.002,-0.002 h 0.002 c 0.540057,-0.214161 1.01252,-0.385287 1.416016,-0.513672 l 0.002,-0.002 h 0.002 c 0.03985,-0.01328 0.06714,-0.0098 0.01758,-0.0098 z"
         id="path14" />
    </g>
    <g
       id="text10">
      <path
         d="m 43.163661,20.268195 q -0.338667,0.09878 -0.677333,0.141111 -0.338667,0.05645 -0.691444,0.05645 -0.917222,0 -1.777999,-0.324555 -0.846666,-0.324556 -1.523999,-0.917222 -0.677332,-0.592666 -1.072443,-1.396999 -0.395111,-0.804333 -0.395111,-1.763887 0,-1.340555 0.592666,-2.370665 0.606777,-1.044222 1.636888,-1.636888 1.044221,-0.592666 2.342442,-0.592666 0.818444,0 1.566333,0.324555 0.761999,0.310444 1.354665,0.874888 0.592666,0.564444 0.931333,1.312333 0.352777,0.747888 0.352777,1.594554 0,0.705555 -0.437444,1.072444 -0.437444,0.352777 -1.171221,0.479777 -0.733777,0.127 -1.608666,0.127 -0.592666,0 -1.326443,-0.04233 -0.719666,-0.04233 -1.425221,-0.112889 -0.691444,-0.08467 -1.199444,-0.155222 -0.197555,-0.02822 -0.282222,-0.141111 -0.08467,-0.127 -0.08467,-0.268111 0,-0.197555 0.127,-0.324555 0.141111,-0.141111 0.366888,-0.112889 0.254,0.05644 0.790222,0.127 0.536222,0.05644 1.171221,0.112889 0.649111,0.04233 1.227666,0.07055 0.592666,0.02822 0.959555,0.02822 1.044221,-0.02822 1.566332,-0.254 0.536222,-0.239888 0.536222,-0.77611 0,-0.578555 -0.296333,-1.128888 -0.296334,-0.550333 -0.804333,-0.987777 -0.493889,-0.451555 -1.100666,-0.705555 -0.592666,-0.268111 -1.213555,-0.268111 -0.790221,-0.02822 -1.481665,0.282222 -0.691444,0.296333 -1.213555,0.832555 -0.507999,0.522111 -0.804332,1.227666 -0.282222,0.691444 -0.282222,1.453443 0,0.733777 0.352777,1.382888 0.352778,0.634999 0.945444,1.114777 0.592666,0.479777 1.312332,0.747888 0.719666,0.268111 1.453443,0.268111 0.493889,0 1.001888,-0.155222 0.04233,-0.01411 0.127,-0.01411 0.169334,0 0.296334,0.112888 0.141111,0.127 0.141111,0.324556 0,0.112889 -0.07056,0.225777 -0.05644,0.112889 -0.211666,0.155222 z"
         id="path11" />
      <path
         d="m 41.597656,11.113281 c -0.91874,0 -1.765327,0.212827 -2.515625,0.638672 h -0.002 c -0.738008,0.424607 -1.332332,1.018004 -1.765625,1.763672 v 0.002 c -0.427838,0.743624 -0.638672,1.599641 -0.638672,2.544922 0,0.687741 0.141996,1.332311 0.429688,1.917969 0.283304,0.576726 0.671026,1.083241 1.15625,1.507812 0.482116,0.421852 1.029057,0.749778 1.630859,0.980469 0.612251,0.230849 1.249581,0.347656 1.902344,0.347656 0.24919,0 0.493491,-0.02116 0.734375,-0.06055 l 0.01367,-0.002 c 0.238237,-0.03051 0.476359,-0.07977 0.71289,-0.148437 8.49e-4,-2.32e-4 0.0011,-0.0017 0.002,-0.002 0.164633,-0.04556 0.331261,-0.159257 0.419922,-0.326172 0.06836,-0.115801 0.117188,-0.250115 0.117188,-0.390625 0,-0.215037 -0.09471,-0.438951 -0.25586,-0.583985 l -0.002,-0.002 c -0.142397,-0.126575 -0.33863,-0.201172 -0.529297,-0.201172 -0.07589,0 -0.141692,-2.95e-4 -0.236328,0.03125 -0.305468,0.09254 -0.60256,0.138672 -0.892578,0.138672 -0.446556,0 -0.886768,-0.08094 -1.330078,-0.246094 -0.445229,-0.165869 -0.8488,-0.397038 -1.214844,-0.693359 -0.362061,-0.293098 -0.64462,-0.627449 -0.857422,-1.009766 -0.01845,-0.03396 -0.01056,-0.07323 -0.02734,-0.107421 0.04938,0.01526 0.08499,0.06516 0.134765,0.07227 h 0.002 c 0.341202,0.04739 0.742739,0.09963 1.205079,0.15625 h 0.0039 0.0039 c 0.475198,0.04752 0.95499,0.08479 1.439453,0.113281 0.494593,0.02853 0.944214,0.04297 1.347656,0.04297 0.600195,0 1.155752,-0.04221 1.667969,-0.130859 0.531329,-0.09196 0.979987,-0.270403 1.330078,-0.552735 l 0.0039,-0.002 0.002,-0.002 c 0.376267,-0.315579 0.5625,-0.799094 0.5625,-1.341797 0,-0.611599 -0.129055,-1.194696 -0.384766,-1.738281 l -0.002,-0.002 c -0.24369,-0.537306 -0.579622,-1.013981 -1.005859,-1.419922 -0.424029,-0.403837 -0.913043,-0.718623 -1.457032,-0.941406 -5.94e-4,-2.58e-4 -0.0014,2.58e-4 -0.002,0 -0.540836,-0.234417 -1.111882,-0.353516 -1.703125,-0.353516 z m 0,0.699219 c 0.499365,0 0.96996,0.09907 1.425781,0.296875 h 0.0039 l 0.0039,0.002 c 0.468722,0.190961 0.882024,0.457954 1.246094,0.804688 0.363316,0.346015 0.645737,0.744281 0.853515,1.203125 l 0.002,0.002 v 0.002 c 0.213444,0.452501 0.320313,0.92948 0.320313,1.445312 0,0.396871 -0.104756,0.629292 -0.310547,0.802735 -0.233078,0.187383 -0.561816,0.329058 -1.007812,0.40625 -0.466152,0.08068 -0.982505,0.121093 -1.548829,0.121093 -0.386777,0 -0.822865,-0.01311 -1.30664,-0.04102 -0.475091,-0.02794 -0.944615,-0.06672 -1.410156,-0.113281 -0.454988,-0.05575 -0.851989,-0.106031 -1.185547,-0.152344 h -0.002 c -0.05806,-0.0091 -0.05478,-0.01595 -0.04492,-0.0059 -0.01109,-0.0207 -0.01953,-0.03826 -0.01953,-0.05664 0,-0.0567 0.0029,-0.05762 0.02344,-0.07813 0.01983,-0.01983 0.0058,-0.02051 0.07617,-0.01172 0.18858,0.04064 0.440565,0.07914 0.789062,0.125 l 0.0039,0.002 h 0.0039 c 0.359704,0.03786 0.752809,0.07551 1.177734,0.113281 h 0.0039 0.0039 c 0.434438,0.02833 0.846528,0.05335 1.234375,0.07227 0.398537,0.01898 0.722996,0.02734 0.976562,0.02734 h 0.0039 0.0059 c 0.71977,-0.01945 1.274092,-0.0991 1.695312,-0.28125 l 0.002,-0.002 h 0.002 c 0.446217,-0.199623 0.742187,-0.621556 0.742187,-1.095703 0,-0.445459 -0.116063,-0.882956 -0.337891,-1.294922 -0.217067,-0.403125 -0.510832,-0.764811 -0.875,-1.080078 l -0.0039,-0.002 c -0.355914,-0.324745 -0.756768,-0.58346 -1.195312,-0.767579 -0.433239,-0.195069 -0.885571,-0.294032 -1.345703,-0.294921 -0.573899,-0.01959 -1.122706,0.08435 -1.63086,0.3125 -0.499211,0.214944 -0.944459,0.518232 -1.322265,0.90625 -0.369896,0.380171 -0.661731,0.828152 -0.875,1.335937 l -0.002,0.002 v 0.002 c -0.205147,0.502611 -0.308593,1.034729 -0.308593,1.585938 0,0.545274 0.134878,1.069424 0.396484,1.550781 l 0.002,0.002 c 0.257421,0.463356 0.601891,0.870801 1.029297,1.216797 0.424177,0.343381 0.897785,0.613076 1.412109,0.804687 0.516244,0.192327 1.042407,0.289063 1.574219,0.289063 0.365926,0 0.736488,-0.05718 1.105469,-0.169922 l 0.0039,-0.002 h 0.0039 c -0.0382,0.01273 -0.02138,0.002 0.01563,0.002 0.03511,0 0.03752,0.0014 0.06445,0.02539 0.02403,0.02123 0.02344,0.0159 0.02344,0.0625 0,0.0023 0.0017,0.01022 -0.01758,0.04102 l -0.0078,0.01367 -0.0078,0.01563 c 0.01194,-0.02388 0.04745,-0.03762 0.0098,-0.02734 l -0.0039,0.002 h -0.002 c -0.208573,0.06084 -0.416269,0.105013 -0.623047,0.130859 h -0.0078 l -0.0059,0.002 c -0.206337,0.03439 -0.418249,0.05078 -0.634765,0.05078 -0.569547,0 -1.117475,-0.09935 -1.652344,-0.300781 h -0.002 C 39.614187,19.612443 39.143224,19.328934 38.722656,18.960937 38.304772,18.595288 37.977885,18.167592 37.734375,17.671875 37.495252,17.18509 37.375,16.654163 37.375,16.0625 c 0,-0.842124 0.184493,-1.565458 0.546875,-2.195312 0.375328,-0.644986 0.871798,-1.142739 1.505859,-1.507813 0.641996,-0.364376 1.357703,-0.546875 2.169922,-0.546875 z m -0.01367,0.847656 h 0.0078 0.0059 c 0.363547,0 0.715067,0.07651 1.06836,0.236328 l 0.0059,0.002 0.0039,0.002 c 0.367572,0.153867 0.699302,0.365701 1,0.640625 l 0.0039,0.0039 0.0039,0.0039 c 0.309171,0.266231 0.548281,0.561207 0.724609,0.888672 0.173282,0.32181 0.253906,0.636944 0.253906,0.962891 0,0.239647 -0.06073,0.335666 -0.326172,0.455078 -0.274764,0.118492 -0.763338,0.206297 -1.433593,0.224609 -0.234982,-1.5e-4 -0.547105,-0.0088 -0.935547,-0.02734 -0.381113,-0.01859 -0.784899,-0.04244 -1.212891,-0.07031 h -0.0078 c -0.415006,-0.03693 -0.797942,-0.07449 -1.148438,-0.111328 -0.3526,-0.0464 -0.613148,-0.08808 -0.761719,-0.121094 l -0.01563,-0.0039 -0.01563,-0.002 c -0.212749,-0.02659 -0.439871,0.05373 -0.607421,0.195312 0.01871,-0.400457 0.07496,-0.787652 0.224609,-1.154297 0.181721,-0.431826 0.423655,-0.80185 0.730469,-1.117187 0.316681,-0.32524 0.681539,-0.573897 1.101562,-0.753906 l 0.002,-0.002 0.0039,-0.002 c 0.411897,-0.184932 0.846789,-0.267049 1.324218,-0.25 z"
         id="path12" />
    </g>
    <g
       id="text11">
      <path
         d="m 47.601435,21.713268 q -0.338666,-0.04233 -0.380999,-0.381 -0.09878,-1.086554 -0.141111,-2.257776 -0.02822,-1.171221 -0.02822,-2.370665 0,-1.312332 0.04233,-2.624664 0.04233,-1.326444 0.127,-2.56822 0.02822,-0.211667 0.141111,-0.296333 0.112889,-0.09878 0.254,-0.09878 0.26811,0 0.352777,0.141111 0.09878,0.127 0.09878,0.310444 -0.08467,1.340555 -0.141111,2.638776 -0.04233,1.298221 -0.04233,2.582331 0,1.904999 0.127,3.795886 0.691444,0.239889 1.523999,0.239889 0.874888,0 1.721554,-0.254 0.860777,-0.254 1.425222,-0.705555 0.52211,-0.409222 0.77611,-1.001888 0.254,-0.606777 0.254,-1.241777 0,-0.832555 -0.423333,-1.594554 -0.409222,-0.762 -1.227666,-1.114777 -0.479777,-0.225778 -1.100666,-0.310444 -0.620888,-0.08467 -1.28411,-0.08467 -0.310444,0 -0.634999,0.01411 -0.310445,0.01411 -0.606778,0.04233 -0.197555,0.04233 -0.310444,-0.08467 -0.112889,-0.141111 -0.141111,-0.282222 0,-0.183445 0.09878,-0.324556 0.112889,-0.141111 0.310444,-0.155222 0.719666,-0.127 1.495777,-0.127 0.747888,0 1.439332,0.141111 0.705555,0.127 1.269999,0.423333 0.649111,0.338667 1.086555,0.903111 0.437444,0.564444 0.663221,1.241777 0.225778,0.663221 0.225778,1.354665 0,0.747889 -0.282222,1.453444 -0.268111,0.705555 -0.832555,1.213554 -0.719666,0.649111 -1.777999,0.973666 -1.044221,0.338667 -2.116665,0.338667 -0.39511,0 -0.790221,-0.04233 -0.381,-0.04233 -0.733777,-0.141111 -0.04233,0.169333 -0.183445,0.211667 -0.141111,0.05644 -0.254,0.04233 z"
         id="path9" />
      <path
         d="m 47.615234,10.765625 c -0.170088,0 -0.340246,0.07251 -0.46875,0.179688 -0.169001,0.132129 -0.247848,0.327596 -0.273437,0.519531 l -0.002,0.01172 v 0.0098 c -0.05675,0.832339 -0.09861,1.693781 -0.126953,2.582031 -0.02834,0.878645 -0.04297,1.756116 -0.04297,2.634766 0,0.802373 0.0085,1.595217 0.02734,2.378906 v 0.0039 l 0.002,0.002 c 0.02843,0.78673 0.07415,1.544219 0.140625,2.27539 l 0.002,0.0059 v 0.0059 c 0.02112,0.168991 0.08913,0.341086 0.216797,0.46875 0.127664,0.127664 0.299758,0.195675 0.46875,0.216797 l 0.228515,0.0293 0.04102,-0.07031 c 0.04363,-0.01013 0.09106,-0.0039 0.132812,-0.01953 0.07622,-0.02437 0.09549,-0.115036 0.15625,-0.169922 0.201909,0.04864 0.404532,0.09356 0.617188,0.117188 v 0.002 h 0.002 c 0.275694,0.02954 0.550267,0.04297 0.826172,0.04297 0.74977,0 1.491057,-0.118164 2.21875,-0.353515 l 0.0059,-0.002 c 0.744156,-0.229054 1.384155,-0.577727 1.904297,-1.046875 0.415012,-0.373511 0.725975,-0.828204 0.923828,-1.347657 0.203022,-0.508848 0.306641,-1.036799 0.306641,-1.578125 0,-0.498411 -0.08208,-0.990105 -0.244141,-1.466796 v -0.002 c -0.16273,-0.48758 -0.40186,-0.937379 -0.716797,-1.343749 -0.321903,-0.41536 -0.726912,-0.750368 -1.201171,-0.998047 h -0.002 c -0.408525,-0.21425 -0.864159,-0.364823 -1.361328,-0.455078 -6.21e-4,-1.27e-4 -0.0013,1.26e-4 -0.002,0 C 50.90992,13.299674 50.406656,13.25 49.886719,13.25 c -0.523686,0 -1.029669,0.04273 -1.519532,0.126953 -5.81e-4,4.2e-5 -0.0014,-4.3e-5 -0.002,0 -0.01782,0.0013 -0.02903,0.02282 -0.04687,0.02539 0.02988,-0.600729 0.05886,-1.198303 0.09766,-1.8125 l 0.002,-0.01172 v -0.0098 c 0,-0.176233 -0.06102,-0.354299 -0.166016,-0.5 -0.143051,-0.220838 -0.402381,-0.302734 -0.636719,-0.302734 z m 0.05273,0.671875 0.01172,0.01758 0.01172,0.01758 c 0.01571,0.0202 0.02539,0.03623 0.02539,0.0957 -0.05592,0.88772 -0.10323,1.762901 -0.140625,2.623047 v 0.002 0.002 c -0.02834,0.869236 -0.04297,1.733831 -0.04297,2.593749 0,1.277776 0.04371,2.549929 0.128906,3.81836 l 0.01563,0.232422 0.21875,0.07617 c 0.50206,0.174184 1.05002,0.257812 1.638672,0.257812 0.616482,0 1.224688,-0.08909 1.820313,-0.267578 0.606392,-0.178936 1.122508,-0.431633 1.541015,-0.765625 C 53.287436,19.834203 53.587249,19.448111 53.779297,19 l 0.002,-0.002 c 0.186126,-0.444633 0.28125,-0.906954 0.28125,-1.376953 0,-0.612919 -0.159718,-1.205579 -0.466797,-1.759766 l -0.002,-0.002 c -0.307088,-0.570488 -0.7825,-1.002678 -1.388672,-1.265625 -0.35631,-0.167147 -0.755553,-0.279611 -1.197266,-0.339844 -0.430456,-0.0587 -0.874989,-0.08789 -1.332031,-0.08789 -0.212265,0 -0.429183,0.006 -0.65039,0.01563 -0.21249,0.0097 -0.421443,0.02358 -0.625,0.04297 l -0.01953,0.002 -0.0059,0.002 c -0.01407,-0.02278 -0.02572,-0.04445 -0.03125,-0.06055 0.004,-0.02528 0.0069,-0.05231 0.01953,-0.07227 0.01,-0.01357 0.0062,-0.01621 0.05273,-0.01953 l 0.01953,-0.002 0.01758,-0.0039 c 0.458572,-0.08093 0.935278,-0.121094 1.433594,-0.121094 0.476579,0 0.932402,0.04564 1.36914,0.134765 h 0.0059 0.0039 c 0.439673,0.07914 0.826594,0.211404 1.167969,0.390625 h 0.002 c 0.390629,0.203807 0.709659,0.46981 0.970703,0.806641 0.267965,0.345761 0.469125,0.72378 0.607422,1.138672 h 0.002 v 0.002 c 0.13856,0.40702 0.207031,0.819321 0.207031,1.242187 0,0.454568 -0.0855,0.89149 -0.257812,1.322266 v 0.0039 l -0.002,0.002 c -0.159678,0.420206 -0.403345,0.774925 -0.740235,1.078125 -0.437957,0.395021 -0.9822,0.694724 -1.646484,0.898438 l -0.002,0.002 h -0.002 c -0.6627,0.21493 -1.331646,0.322266 -2.009766,0.322266 -0.250907,0 -0.500833,-0.01411 -0.751953,-0.04102 -0.236086,-0.02623 -0.461554,-0.06837 -0.677735,-0.128906 l -0.345703,-0.09766 -0.08203,0.324218 c -0.03099,0.0091 -0.0602,0.01567 -0.06055,0.01563 -0.05679,-0.0071 -0.06121,-0.01629 -0.06055,-0.01563 6.65e-4,6.65e-4 -0.0085,-0.0038 -0.01563,-0.06055 -0.06459,-0.712872 -0.110795,-1.453246 -0.138672,-2.222656 v -0.0039 c -0.01868,-0.776683 -0.0293,-1.563808 -0.0293,-2.359375 0,-0.871124 0.01487,-1.742151 0.04297,-2.613281 0.02809,-0.88034 0.07081,-1.731327 0.126953,-2.554688 l -0.0039,0.02149 c 0.01154,-0.08657 0.0314,-0.08166 0.0059,-0.0625 l 0.0098,-0.0078 0.0098,-0.0078 c 0.02087,-0.01826 0.01103,-0.01172 0.02344,-0.01172 0.117337,0 0.08015,0.01639 0.05273,-0.0293 z m 0.597656,3.40625 c 0.08784,0.01391 0.161662,0.08952 0.242187,0.07227 l -0.04102,0.0059 c 0.191553,-0.01824 0.388407,-0.03186 0.589844,-0.04102 0.211532,-0.0092 0.41748,-0.01367 0.61914,-0.01367 0.427254,-1e-6 0.838935,0.02588 1.236328,0.08008 0.384616,0.05245 0.71753,0.148322 1,0.28125 l 0.0039,0.002 0.0059,0.002 c 0.480981,0.207319 0.821143,0.516835 1.058594,0.958984 v 0.002 l 0.002,0.0039 c 0.255941,0.460694 0.378906,0.928114 0.378906,1.423828 0,0.376666 -0.07402,0.743019 -0.226562,1.107422 -0.146606,0.340312 -0.365921,0.623056 -0.669922,0.861328 l -0.002,0.002 c -0.333524,0.266818 -0.766871,0.483301 -1.306641,0.642578 -0.532662,0.159799 -1.071707,0.240234 -1.621094,0.240234 -0.438368,0 -0.819555,-0.08213 -1.185547,-0.185547 -0.07246,-1.163192 -0.115234,-2.328647 -0.115234,-3.5 0,-0.644509 0.01518,-1.295371 0.03125,-1.945312 z"
         id="path10" />
    </g>
    <g
       id="text12">
      <path
         d="m 60.29889,23.696843 q -1.368776,0 -2.384775,-0.564444 -1.001889,-0.564444 -1.566333,-1.552221 -0.550332,-1.001888 -0.550332,-2.31422 0,-1.354666 0.550332,-2.342443 0.550333,-1.001888 1.552221,-1.552221 1.016,-0.550333 2.398887,-0.550333 1.411111,0 2.412999,0.550333 1.015999,0.536222 1.552221,1.53811 0.536221,0.987777 0.536221,2.356554 0,1.340554 -0.550332,2.342442 -0.550333,1.001888 -1.566333,1.53811 -1.001888,0.550333 -2.384776,0.550333 z m 0,-0.888999 q 1.735666,0 2.666998,-0.945444 0.945444,-0.945444 0.945444,-2.596442 0,-1.721555 -0.973666,-2.638776 Q 61.964,15.70996 60.29889,15.70996 q -1.665109,0 -2.638775,0.945444 -0.973666,0.945444 -0.973666,2.610554 0,1.100665 0.465666,1.890887 0.465666,0.790222 1.28411,1.227666 0.818444,0.423333 1.862665,0.423333 z"
         id="path7" />
      <path
         d="m 60.298828,14.470703 c -0.968352,0 -1.830598,0.195188 -2.566406,0.59375 -0.721942,0.39656 -1.292493,0.967862 -1.689453,1.689453 -0.399997,0.717944 -0.595703,1.561214 -0.595703,2.511719 0,0.923812 0.195816,1.757978 0.59375,2.482422 l 0.002,0.0039 v 0.002 c 0.406305,0.711035 0.979713,1.278239 1.699218,1.683594 h 0.002 c 0.73566,0.4087 1.594061,0.609375 2.554687,0.609375 0.966784,0 1.822104,-0.193506 2.548828,-0.591797 l 0.0039,-0.002 c 0.732028,-0.387256 1.307809,-0.952548 1.705079,-1.675781 0.398601,-0.72566 0.59375,-1.570123 0.59375,-2.511719 0,-0.957517 -0.188887,-1.803732 -0.578125,-2.521484 C 64.183646,16.018037 63.609432,15.450117 62.875,15.0625 62.147354,14.664116 61.282779,14.470703 60.298828,14.470703 Z m 0,0.701172 c 0.89524,0 1.63699,0.172354 2.244141,0.505859 l 0.0039,0.002 0.002,0.002 c 0.620232,0.327345 1.079907,0.782832 1.40625,1.392578 v 0.002 h 0.002 c 0.325141,0.598943 0.494141,1.32264 0.494141,2.189453 0,0.845807 -0.172638,1.563638 -0.507813,2.173828 -0.335816,0.611359 -0.803003,1.07078 -1.423828,1.398438 h -0.002 l -0.002,0.002 c -0.608367,0.334173 -1.341301,0.507812 -2.216797,0.507812 -0.864406,0 -1.59584,-0.177593 -2.214844,-0.521484 -0.615106,-0.347091 -1.085828,-0.814751 -1.43164,-1.419922 -0.33399,-0.610239 -0.50586,-1.316966 -0.50586,-2.140625 0,-0.855714 0.174034,-1.572784 0.507813,-2.171875 v -0.002 c 0.336293,-0.612226 0.800294,-1.075465 1.412109,-1.412109 0.618858,-0.335215 1.356927,-0.507813 2.232422,-0.507813 z m 0,0.1875 c -1.176314,0 -2.162164,0.345162 -2.882812,1.044922 -0.722784,0.701834 -1.080079,1.683036 -1.080079,2.861328 10e-7,0.783135 0.167144,1.48031 0.513672,2.068359 0.341637,0.579747 0.823314,1.039455 1.421875,1.359375 h 0.002 l 0.002,0.002 c 0.59958,0.310128 1.279993,0.462891 2.023437,0.462891 1.219556,0 2.216979,-0.342395 2.914063,-1.048828 l 0.002,-0.002 c 0.701031,-0.70218 1.046875,-1.675391 1.046875,-2.841797 0,-1.213686 -0.355322,-2.206157 -1.083985,-2.892578 -0.721593,-0.679763 -1.704568,-1.013672 -2.878906,-1.013672 z m 0,0.701172 c 1.045807,0 1.821811,0.279067 2.398438,0.822265 0.569557,0.53654 0.863281,1.301094 0.863281,2.382813 0,1.033855 -0.283531,1.791344 -0.841797,2.349609 h -0.002 v 0.002 c -0.544605,0.552858 -1.324409,0.839844 -2.417969,0.839844 -0.647272,0 -1.206445,-0.127765 -1.697266,-0.380859 l -0.0039,-0.002 c -0.490788,-0.26315 -0.866013,-0.623067 -1.144531,-1.095703 -0.274359,-0.465579 -0.416016,-1.028474 -0.416016,-1.712891 0,-1.041852 0.291752,-1.800618 0.867188,-2.359375 0.577571,-0.560831 1.350702,-0.845703 2.394531,-0.845703 z"
         id="path8" />
    </g>
    <g
       id="text13">
      <path
         d="m 70.560004,25.671106 q -0.112889,0.01411 -0.239889,0.01411 -0.112889,0 -0.225778,0 -1.255888,0 -2.243665,-0.536222 -0.987777,-0.522111 -1.552221,-1.453443 -0.564444,-0.931333 -0.564444,-2.130776 0,-1.128888 0.437444,-2.074332 0.451556,-0.959555 1.269999,-1.594554 0.818444,-0.635 1.933221,-0.804333 0.155222,-0.02822 0.338667,-0.04233 0.183444,-0.01411 0.366888,-0.01411 0.762,0 1.580443,0.211667 0.832555,0.197555 1.396999,0.564444 0.07056,-0.155222 0.225778,-0.183444 0.155222,-0.04233 0.254,-0.01411 0.155222,0.01411 0.239888,0.141111 0.08467,0.126999 0.08467,0.296333 -0.01411,0.324555 -0.02822,0.634999 0,0.310444 0,0.620889 0,1.580443 0.225777,2.808109 0.239889,1.227665 0.889,2.144887 0.08467,0.127 0.08467,0.254 0,0.169333 -0.141111,0.282222 -0.127,0.112888 -0.282222,0.112888 -0.211666,0 -0.352777,-0.183444 -0.141111,-0.197555 -0.282222,-0.437444 -0.127,-0.239889 -0.211667,-0.423333 -0.578555,0.804333 -1.41111,1.241777 -0.832555,0.451555 -1.792109,0.564444 z m -0.282222,-0.818444 q 0.959554,0 1.763887,-0.536222 0.818444,-0.536222 1.326444,-1.467554 -0.211667,-0.790222 -0.310445,-1.834443 -0.09878,-1.044222 -0.08467,-2.17311 -0.282222,-0.310444 -0.747889,-0.52211 -0.465666,-0.211667 -1.015999,-0.324556 -0.550333,-0.112889 -1.086555,-0.112889 -0.352777,0 -0.663221,0.04233 -0.310444,0.04233 -0.578555,0.155222 -1.072444,0.395111 -1.707443,1.326443 -0.620889,0.917222 -0.620889,2.102554 0,1.044222 0.493889,1.79211 0.507999,0.747888 1.354665,1.15711 0.846666,0.395111 1.876777,0.395111 z"
         id="path5" />
      <path
         d="m 70.080078,16.685547 c -0.131269,0 -0.263341,0.0055 -0.394531,0.01563 -0.129058,0.0099 -0.248745,0.02447 -0.363281,0.04492 -8.95e-4,1.36e-4 -0.0011,0.0018 -0.002,0.002 -0.793736,0.120982 -1.499888,0.410338 -2.09375,0.871094 -0.588457,0.456562 -1.048033,1.036153 -1.371093,1.722656 h -0.002 v 0.002 c -0.313922,0.678477 -0.46875,1.422904 -0.46875,2.220703 0,0.85453 0.20442,1.634656 0.615234,2.3125 0.407436,0.672269 0.975207,1.204809 1.683594,1.580078 5.46e-4,2.97e-4 0.0014,-2.96e-4 0.002,0 8.47e-4,4.49e-4 0.0011,0.0015 0.002,0.002 0.712287,0.385819 1.520702,0.576172 2.40625,0.576172 h 0.226562 c 0.09763,0 0.191917,-0.0062 0.283204,-0.01758 l -0.002,0.002 c 0.680354,-0.08004 1.321299,-0.282643 1.914063,-0.603515 l 0.0039,-0.002 c 0.445714,-0.234749 0.786931,-0.617937 1.13086,-0.996093 0.0063,0.01204 0.0091,0.02096 0.01563,0.0332 l 0.0039,0.0078 0.0039,0.0059 c 0.09864,0.167681 0.197881,0.323518 0.298828,0.464843 l 0.0039,0.0039 0.0039,0.0059 c 0.145638,0.18933 0.386684,0.320313 0.628906,0.320313 0.18475,0 0.368995,-0.07892 0.505859,-0.197266 0.157092,-0.129208 0.267578,-0.341681 0.267578,-0.548828 10e-7,-0.162447 -0.05626,-0.317796 -0.142578,-0.447266 l -0.0039,-0.0039 -0.002,-0.0039 c -0.401145,-0.566835 -0.678201,-1.231627 -0.830078,-2.00586 -0.145685,-0.792166 -0.220703,-1.709132 -0.220703,-2.746093 v -0.605469 -0.01563 c 0.0092,-0.202337 0.01816,-0.407873 0.02734,-0.619141 l 0.002,-0.0078 v -0.0078 c 0,-0.171224 -0.04826,-0.34583 -0.144532,-0.490234 -0.103153,-0.154733 -0.294442,-0.256373 -0.478515,-0.28125 -0.132676,-0.0281 -0.257807,-0.01971 -0.378907,0.01172 -0.07488,0.01548 -0.109532,0.09749 -0.175781,0.140625 -0.378087,-0.2154 -0.787404,-0.404336 -1.287109,-0.523438 -6.57e-4,-1.7e-4 -0.0013,1.7e-4 -0.002,0 -0.57043,-0.147367 -1.126231,-0.222656 -1.666016,-0.222656 z m 0,0.699219 c 0.475592,0 0.972051,0.06665 1.492188,0.201171 h 0.0039 l 0.0039,0.002 c 0.524967,0.124568 0.952675,0.300195 1.287109,0.517578 l 0.339844,0.220703 0.166016,-0.361328 h 0.002 c 0.06625,-0.01807 0.09156,-0.0065 0.06641,-0.01367 l 0.03125,0.0078 0.01563,0.002 c 0.01297,0.0216 0.02315,0.04149 0.02344,0.08789 6e-6,9.67e-4 0,9.66e-4 0,0.002 -0.0092,0.210613 -0.01818,0.417498 -0.02734,0.619141 v 0.0078 0.628907 c 0,1.070294 0.07512,2.026373 0.230469,2.871093 v 0.002 l 0.002,0.002 c 0.168174,0.860655 0.481782,1.626261 0.945312,2.28125 0.01697,0.02844 0.02148,0.04484 0.02148,0.05078 0,0.01567 0.01765,-0.01217 -0.0098,0.0098 l -0.0078,0.0059 -0.0059,0.0059 c -0.03175,0.02822 -0.03215,0.02344 -0.05078,0.02344 -0.04,0 -0.03171,0.0084 -0.07422,-0.04687 -0.08242,-0.115961 -0.165518,-0.24392 -0.25,-0.386719 l -0.0039,-0.0078 c -0.0013,-0.0022 -0.0026,-0.0037 -0.0039,-0.0059 -0.07863,-0.149041 -0.146225,-0.281991 -0.197266,-0.392578 l -0.25,-0.544922 -0.351562,0.486328 c -0.356795,0.496032 -0.782667,0.870647 -1.289063,1.136719 l -0.002,0.002 h -0.002 c -0.516246,0.279998 -1.068429,0.455086 -1.666016,0.525391 h -0.002 -0.002 c -0.05923,0.0074 -0.123608,0.01172 -0.195313,0.01172 H 70.09375 c -0.787445,10e-7 -1.472315,-0.166332 -2.076172,-0.49414 l -0.002,-0.002 h -0.002 c -0.606855,-0.320767 -1.071599,-0.757885 -1.416016,-1.326172 -0.341777,-0.563933 -0.513672,-1.204493 -0.513672,-1.949219 0,-0.706696 0.135481,-1.344124 0.404297,-1.925781 v -0.002 c 0.278961,-0.592243 0.66558,-1.07506 1.167969,-1.464844 0.496727,-0.385392 1.079948,-0.629332 1.771484,-0.734375 h 0.0039 l 0.0059,-0.002 c 0.08971,-0.01631 0.190701,-0.02849 0.302734,-0.03711 0.113402,-0.0087 0.226522,-0.01367 0.339844,-0.01367 z m 0.04297,0.146484 c -0.249183,0 -0.486391,0.01626 -0.710938,0.04687 -0.230678,0.03145 -0.450618,0.08845 -0.65625,0.173828 -0.77573,0.286728 -1.409908,0.780626 -1.871093,1.457031 h -0.002 c -0.453158,0.669439 -0.679687,1.447497 -0.679687,2.298828 0,0.751328 0.180245,1.425232 0.550781,1.986329 l 0.002,0.002 v 0.002 c 0.372776,0.548809 0.877223,0.978157 1.492188,1.27539 h 0.002 l 0.0039,0.002 c 0.613735,0.286409 1.291949,0.427734 2.023438,0.427734 0.704898,0 1.369314,-0.20259 1.958984,-0.595703 0.594507,-0.39007 1.076938,-0.927186 1.439453,-1.591797 l 0.06641,-0.121094 -0.03516,-0.136719 c -0.134662,-0.502739 -0.236357,-1.094338 -0.300781,-1.77539 -0.06459,-0.682819 -0.09325,-1.395682 -0.08398,-2.136719 l 0.002,-0.138672 -0.0918,-0.101562 C 73.006455,18.356905 72.714018,18.156762 72.369141,18 c -0.33639,-0.152905 -0.69981,-0.267649 -1.089844,-0.347656 -0.388808,-0.07976 -0.774208,-0.121094 -1.15625,-0.121094 z m 0,0.701172 c 0.332919,0 0.670657,0.03471 1.015625,0.105469 0.343742,0.07051 0.656909,0.171463 0.941406,0.300781 0.239349,0.108794 0.407096,0.239569 0.550781,0.378906 -0.0031,0.697892 0.01647,1.377543 0.07813,2.029297 0.06062,0.640807 0.163512,1.194622 0.289063,1.705078 -0.306555,0.53304 -0.678539,0.96362 -1.148438,1.271484 v 0.002 h -0.002 c -0.482772,0.321848 -0.995806,0.476562 -1.570312,0.476562 -0.640455,0 -1.21042,-0.120111 -1.72461,-0.359375 l -0.0039,-0.002 c -0.51107,-0.247803 -0.907389,-0.589107 -1.210937,-1.035156 -5.25e-4,-7.71e-4 -0.0014,-0.0012 -0.002,-0.002 -0.286516,-0.435404 -0.433593,-0.956392 -0.433593,-1.595704 0,-0.728421 0.186563,-1.351163 0.560547,-1.904296 0.384646,-0.564149 0.88678,-0.954998 1.539062,-1.195313 l 0.0078,-0.0039 0.0078,-0.002 c 0.148632,-0.06258 0.309224,-0.106445 0.488281,-0.13086 0.189378,-0.02582 0.396002,-0.03906 0.617188,-0.03906 z"
         id="path6" />
    </g>
    <g
       id="text14">
      <path
         d="m 78.008292,26.790915 q -0.183444,0 -0.310444,-0.127 -0.112889,-0.112889 -0.112889,-0.296333 -0.04233,-0.776111 -0.141111,-1.679221 -0.08467,-0.903111 -0.225777,-1.834443 -0.127,-0.945444 -0.296333,-1.79211 -0.169334,-0.860777 -0.352778,-1.523999 -0.02822,-0.112889 -0.02822,-0.155222 0,-0.183444 0.127,-0.282222 0.141111,-0.09878 0.296333,-0.09878 0.141111,0 0.254,0.08467 0.127,0.07055 0.169333,0.211666 0.155222,0.493889 0.296333,1.171222 0.141111,0.677333 0.254,1.368777 0.112889,0.677332 0.169333,1.199443 0.268111,-1.114777 0.903111,-1.91911 0.64911,-0.818443 1.566332,-1.255888 0.931332,-0.437444 2.017887,-0.437444 0.888999,0 1.79211,0.324556 0.282222,0.127 0.282222,0.380999 0,0.423333 -0.409222,0.423333 -0.09878,0 -0.155222,-0.01411 -0.677333,-0.225777 -1.481666,-0.225777 -1.15711,0 -1.947332,0.465666 -0.790221,0.465666 -1.28411,1.298221 -0.479777,0.832555 -0.705555,1.91911 -0.225777,1.086555 -0.254,2.342442 0,0.225778 -0.141111,0.338667 -0.126999,0.112889 -0.282222,0.112889 z"
         id="path3" />
      <path
         d="m 76.964844,18.652344 c -0.177726,0 -0.354581,0.06168 -0.498047,0.162109 l -0.0078,0.0039 -0.0059,0.0059 c -0.167548,0.130315 -0.261719,0.355528 -0.261719,0.558593 0,0.105995 0.0158,0.15499 0.03711,0.240235 l 0.002,0.0039 0.002,0.0039 c 0.119301,0.43132 0.234148,0.930979 0.345703,1.498047 v 0.002 c 0.111275,0.556377 0.209199,1.145916 0.292969,1.769532 v 0.0039 0.002 c 0.09311,0.614572 0.168806,1.219238 0.224609,1.814453 v 0.0039 0.002 c 0.06449,0.589644 0.110749,1.135624 0.138672,1.640625 0,0.194091 0.07451,0.402636 0.216797,0.544922 0.144247,0.144247 0.353575,0.228516 0.55664,0.228516 0.184747,0 0.368991,-0.07891 0.50586,-0.197266 0.178161,-0.146901 0.267578,-0.382995 0.267578,-0.603515 0.01877,-0.815395 0.100943,-1.572945 0.246094,-2.271485 0.144094,-0.693453 0.369147,-1.297862 0.667968,-1.816406 0.301608,-0.50669 0.684106,-0.890543 1.158204,-1.169922 0.462438,-0.272508 1.045076,-0.417969 1.769531,-0.417969 0.503473,10e-7 0.958968,0.06966 1.371094,0.207032 l 0.01172,0.0059 0.01367,0.002 c 0.08423,0.02106 0.157716,0.02539 0.240235,0.02539 0.196752,0 0.409351,-0.0585 0.558593,-0.212891 0.149243,-0.154389 0.201172,-0.363047 0.201172,-0.560547 0,-0.298962 -0.222459,-0.580673 -0.490234,-0.701172 l -0.01172,-0.0059 -0.01367,-0.0039 c -0.636471,-0.228732 -1.274898,-0.345703 -1.910156,-0.345703 -0.771339,0 -1.497721,0.156807 -2.166016,0.470703 v 0.002 h -0.002 c -0.659076,0.314329 -1.225704,0.768789 -1.689453,1.353516 v 0.002 c -0.209606,0.2655 -0.290261,0.630923 -0.443359,0.941406 -0.0038,-0.0232 -0.0059,-0.03903 -0.0098,-0.0625 -0.07607,-0.465914 -0.160736,-0.926222 -0.255859,-1.382813 -0.09551,-0.458433 -0.196999,-0.857986 -0.304688,-1.201171 l -0.002,-0.002 c -0.04962,-0.162832 -0.171367,-0.307829 -0.318359,-0.396484 -0.127848,-0.0887 -0.282354,-0.146484 -0.4375,-0.146484 z m 0,0.699218 c 0.02407,0 0.02371,0.0012 0.04297,0.01563 l 0.01953,0.01367 0.02148,0.01172 c 0.0125,0.0069 -0.0012,-0.01133 0.0039,0.0059 v 0.002 0.002 c 0.09886,0.31454 0.196751,0.695574 0.289063,1.138672 0.09302,0.446518 0.175549,0.897504 0.25,1.353515 0.07442,0.4465 0.131281,0.840324 0.167969,1.179688 l 0.6875,0.04492 c 0.168525,-0.700712 0.448442,-1.289902 0.83789,-1.783204 0.401134,-0.505777 0.876663,-0.887383 1.439453,-1.15625 0.573481,-0.269362 1.191741,-0.404296 1.869141,-0.404296 0.544254,0 1.094823,0.09915 1.65625,0.298828 0.07412,0.03177 0.06836,0.02087 0.06836,0.05664 0,0.08472 -0.01674,0.0875 -0.0039,0.07422 0.01284,-0.01328 0.02138,-0.002 -0.05469,-0.002 -0.04919,0 -0.07929,-0.0062 -0.07031,-0.0039 l 0.02539,0.0078 c -0.490985,-0.163661 -1.022827,-0.242187 -1.591797,-0.242187 -0.818357,0 -1.53381,0.165292 -2.125,0.513672 -0.577938,0.34057 -1.051763,0.819065 -1.408203,1.419921 v 0.002 l -0.002,0.002 c -0.340881,0.591528 -0.587198,1.268152 -0.744141,2.023437 -0.155392,0.747824 -0.242483,1.550302 -0.261719,2.40625 v 0.0039 0.0039 c 0,0.0776 -0.0046,0.0603 -0.0098,0.06445 l -0.0078,0.0059 -0.0059,0.0059 c -0.03175,0.02822 -0.03215,0.02539 -0.05078,0.02539 -0.04153,0 -0.03741,-3.04e-4 -0.0625,-0.02539 -0.0082,-0.0082 -0.0098,0.0017 -0.0098,-0.04883 v -0.0098 l -0.002,-0.0098 c -0.02862,-0.524818 -0.07613,-1.089792 -0.142578,-1.697265 l 0.002,0.0059 c -0.05691,-0.607037 -0.133901,-1.224414 -0.228516,-1.849609 v -0.0059 C 77.479068,22.166014 77.379767,21.564849 77.265625,20.994141 77.15198,20.416448 77.0328,19.904443 76.908203,19.453125 l -0.002,-0.0078 c -0.01171,-0.05489 -0.01563,-0.106544 -0.01563,-0.0625 0,-0.01827 -0.0019,-0.0041 -0.0039,-0.002 0.03056,-0.01817 0.0542,-0.0293 0.07813,-0.0293 z"
         id="path4" />
    </g>
    <g
       id="text15">
      <path
         d="m 89.295006,29.046987 q -1.382888,0 -2.384776,-0.508 -1.001889,-0.493889 -1.53811,-1.425221 -0.536222,-0.945444 -0.536222,-2.257776 0,-1.213555 0.550333,-2.102554 0.550333,-0.888999 1.495776,-1.368777 0.945444,-0.493888 2.130777,-0.493888 1.199443,0 2.356553,0.493888 0.225778,0.09878 0.225778,0.310444 0,0.09878 -0.07056,0.197556 -0.127,0.239888 -0.409222,0.239888 -0.09878,0 -0.211666,-0.04233 -0.90311,-0.366888 -1.820332,-0.366888 -1.001888,0 -1.777999,0.437444 -0.77611,0.423333 -1.213554,1.15711 -0.423333,0.733777 -0.423333,1.679221 0,1.001888 0.451555,1.721554 0.451555,0.719666 1.255888,1.100666 0.818444,0.381 1.862665,0.381 0.747888,0 1.368777,-0.183445 0.620888,-0.169333 1.086555,-0.395111 -0.08467,-0.606777 -0.127,-1.354665 -0.04233,-0.762 -0.04233,-1.580443 0,-0.973666 0.04233,-1.975554 0.05644,-1.001889 0.127,-1.947332 0.08467,-0.945444 0.183444,-1.735666 0.02822,-0.197555 0.141111,-0.282222 0.127,-0.09878 0.268111,-0.09878 0.169333,0 0.310444,0.127 0.141111,0.126999 0.112889,0.352777 -0.08467,0.733777 -0.155222,1.636888 -0.07056,0.90311 -0.112889,1.890887 -0.04233,0.973666 -0.04233,1.933221 0,1.15711 0.07055,2.173109 0.07056,1.016 0.239889,1.707443 0.01411,0.04233 0.01411,0.127 0,0.127 -0.08467,0.239889 -0.08467,0.127 -0.239888,0.155222 -0.423333,0.04233 -0.522111,-0.324555 l -0.02822,-0.169333 q -0.522111,0.268111 -1.227666,0.409222 -0.691444,0.141111 -1.326443,0.141111 z"
         id="path1" />
      <path
         d="m 92.287109,18.296875 c -0.173631,0 -0.34496,0.06762 -0.478515,0.169922 -0.168595,0.126444 -0.250281,0.322266 -0.277344,0.511719 v 0.0039 l -0.002,0.002 c -0.06645,0.531647 -0.126841,1.114337 -0.183594,1.748047 v 0.002 0.0039 c -0.0069,0.093 -0.0128,0.193306 -0.01953,0.28711 -0.75613,-0.298571 -1.525917,-0.484375 -2.3125,-0.484375 -0.838832,0 -1.609468,0.17615 -2.292969,0.533203 -0.682471,0.346888 -1.234039,0.849969 -1.632812,1.49414 -0.404405,0.653268 -0.601563,1.425167 -0.601563,2.28711 0,0.922557 0.190267,1.740898 0.582031,2.43164 v 0.002 c 0.390451,0.678152 0.961497,1.205641 1.683594,1.5625 5.33e-4,2.71e-4 0.0014,-2.7e-4 0.002,0 8.68e-4,4.29e-4 0.0011,0.0015 0.002,0.002 0.725086,0.366823 1.57585,0.542968 2.539063,0.542968 0.449258,0 0.914955,-0.05017 1.396484,-0.148437 0.362862,-0.07272 0.664282,-0.198072 0.966797,-0.322266 0.06049,0.110996 0.105084,0.234506 0.214844,0.302735 0.170648,0.106078 0.368289,0.128599 0.560547,0.109375 h 0.01367 l 0.01563,-0.0039 c 0.181053,-0.03292 0.355808,-0.146963 0.460937,-0.300781 0.09007,-0.124198 0.150391,-0.279277 0.150391,-0.4375 0,-0.07589 -0.0017,-0.143646 -0.0332,-0.238281 l 0.0098,0.02734 C 92.944645,27.951364 92.864439,27.399831 92.818359,26.736328 92.771962,26.068156 92.75,25.352183 92.75,24.587891 c 0,-0.634556 0.01301,-1.273844 0.04102,-1.917969 0.02806,-0.654765 0.06659,-1.281294 0.113281,-1.878906 0.04671,-0.597859 0.09658,-1.137596 0.152344,-1.621094 0.02872,-0.229773 -0.04525,-0.494832 -0.22461,-0.65625 -0.145817,-0.131235 -0.344533,-0.216797 -0.544922,-0.216797 z m 0,0.701172 c 0.02539,0 0.03384,-9.89e-4 0.07617,0.03711 0.0088,0.0079 0.0089,-0.02244 0,0.04883 v 0.002 h -0.002 c -0.05705,0.494431 -0.108942,1.044817 -0.15625,1.650391 -0.04739,0.606533 -0.0849,1.242027 -0.113281,1.904297 -0.02838,0.65343 -0.04297,1.303062 -0.04297,1.947266 0,0.778519 0.0246,1.510773 0.07227,2.197265 0.048,0.691163 0.128412,1.277104 0.248047,1.765625 l 0.0039,0.01563 0.0039,0.01367 c -0.01273,-0.0382 -0.0039,-0.02138 -0.0039,0.01563 0,0.0069 0.005,0.0044 -0.01367,0.0293 l -0.0059,0.0078 -0.0059,0.0078 c -0.06279,0.0023 -0.102565,-0.006 -0.105469,-0.0078 -0.003,-0.0019 -0.01068,-0.0107 -0.02344,-0.05273 l -0.103516,-0.613281 -0.425781,0.21875 C 91.376174,28.34642 90.997584,28.47353 90.552734,28.5625 h -0.002 c -0.440394,0.08988 -0.858453,0.134766 -1.255859,0.134766 -0.879067,0 -1.616569,-0.16141 -2.226563,-0.470704 h -0.002 l -0.002,-0.002 c -0.61188,-0.301631 -1.064874,-0.722771 -1.388672,-1.285156 -0.322634,-0.569552 -0.490234,-1.257501 -0.490234,-2.083984 0,-0.756129 0.168674,-1.385906 0.498047,-1.917969 0.334506,-0.540356 0.780482,-0.947458 1.357422,-1.240234 l 0.002,-0.002 h 0.002 c 0.57709,-0.301464 1.22714,-0.455078 1.96875,-0.455078 0.750188,0 1.48494,0.153898 2.214844,0.464844 1.29e-4,5.5e-5 -1.3e-4,0.0019 0,0.002 l -0.002,0.002 -0.01172,0.01953 c -0.03451,0.06518 -0.01063,0.05469 -0.09961,0.05469 -0.01586,0 -0.04406,-0.005 -0.08789,-0.02148 l 0.0078,0.0039 c -0.640352,-0.260143 -1.293024,-0.392578 -1.951172,-0.392578 -0.716661,0 -1.373029,0.1592 -1.945312,0.480469 -0.567769,0.309692 -1.024568,0.743201 -1.347656,1.285156 l -0.002,0.002 v 0.002 c -0.314736,0.545544 -0.470703,1.172935 -0.470703,1.855469 0,0.720507 0.16596,1.364534 0.50586,1.90625 0.335983,0.535473 0.811973,0.950819 1.402343,1.230469 v 0.002 h 0.002 c 0.597259,0.278034 1.271051,0.414062 2.009765,0.414062 0.527208,0 1.018203,-0.0661 1.46875,-0.199219 0.426845,-0.116892 0.806567,-0.253041 1.138672,-0.414062 l 0.230469,-0.111328 -0.03516,-0.251953 c -0.05483,-0.392931 -0.09722,-0.835394 -0.125,-1.326172 C 91.888181,25.746976 91.875,25.227094 91.875,24.6875 c 0,-0.642756 0.01311,-1.295243 0.04102,-1.957031 v -0.0039 c 0.03734,-0.662509 0.08034,-1.306621 0.126953,-1.93164 v -0.0059 c 0.05579,-0.622313 0.116864,-1.192116 0.18164,-1.710937 v -0.0059 c 0.0094,-0.05038 0.01998,-0.05893 0.0039,-0.04687 l 0.002,-0.002 0.002,-0.002 c 0.03508,-0.02728 0.04228,-0.02344 0.05469,-0.02344 z m -0.453125,3.058594 -0.02539,0.03906 c 0.0058,-0.0081 0.0042,-0.0209 0.0098,-0.0293 0.0031,-0.0055 0.01265,-0.0041 0.01563,-0.0098 z m -2.75,0.01758 c 0.564815,0 1.123707,0.110803 1.6875,0.339843 l 0.0039,0.002 0.0059,0.002 c 0.106682,0.04 0.218136,0.06445 0.333984,0.06445 0.04758,0 0.07184,-0.06131 0.119141,-0.07031 -0.0056,0.09502 -0.01218,0.183517 -0.01758,0.279297 v 0.002 0.0039 c -0.02842,0.672702 -0.04297,1.336052 -0.04297,1.990234 0,0.551662 0.01436,1.084681 0.04297,1.599609 0.02279,0.402674 0.06221,0.754163 0.103515,1.09961 -0.243619,0.104245 -0.492907,0.207938 -0.804687,0.292968 h -0.0039 l -0.0039,0.002 c -0.377303,0.111476 -0.799556,0.167968 -1.269531,0.167968 -0.653579,0 -1.220845,-0.117691 -1.714844,-0.347656 -0.480719,-0.228258 -0.841829,-0.545462 -1.107421,-0.96875 -0.262173,-0.417838 -0.398438,-0.919814 -0.398438,-1.535156 0,-0.575764 0.127256,-1.068413 0.375,-1.5 0.26017,-0.436413 0.613035,-0.774546 1.080078,-1.029297 l 0.002,-0.002 0.002,-0.002 c 0.461287,-0.259998 0.990437,-0.390625 1.607422,-0.390625 z"
         id="path2" />
    </g>
  </g>
</svg>
