%TF.GenerationSoftware,KiCad,Pcbnew,8.0.0-rc2-494-g6bc7bcffef*%
%TF.CreationDate,2024-03-15T23:56:10+00:00*%
%TF.ProjectId,Wakeboard,57616b65-626f-4617-9264-2e6b69636164,rev?*%
%TF.SameCoordinates,Original*%
%TF.FileFunction,Drillmap*%
%TF.FilePolarity,Positive*%
%FSLAX45Y45*%
G04 Gerber Fmt 4.5, Leading zero omitted, Abs format (unit mm)*
G04 Created by KiCad (PCBNEW 8.0.0-rc2-494-g6bc7bcffef) date 2024-03-15 23:56:10*
%MOMM*%
%LPD*%
G01*
G04 APERTURE LIST*
%ADD10C,0.100000*%
%ADD11C,0.200000*%
G04 APERTURE END LIST*
D10*
X14190000Y-4375000D02*
G75*
G02*
X14430000Y-4615000I0J-240000D01*
G01*
X14320000Y-9705000D02*
G75*
G02*
X13920000Y-9705000I-200000J0D01*
G01*
X13920000Y-9705000D02*
G75*
G02*
X14320000Y-9705000I200000J0D01*
G01*
X11580000Y-9705000D02*
G75*
G02*
X11180000Y-9705000I-200000J0D01*
G01*
X11180000Y-9705000D02*
G75*
G02*
X11580000Y-9705000I200000J0D01*
G01*
X11580000Y-4685000D02*
G75*
G02*
X11180000Y-4685000I-200000J0D01*
G01*
X11180000Y-4685000D02*
G75*
G02*
X11580000Y-4685000I200000J0D01*
G01*
X14320000Y-4685000D02*
G75*
G02*
X13920000Y-4685000I-200000J0D01*
G01*
X13920000Y-4685000D02*
G75*
G02*
X14320000Y-4685000I200000J0D01*
G01*
X11070000Y-9775000D02*
X11070000Y-8905000D01*
X11070000Y-8385000D02*
X11069704Y-4614703D01*
X11180000Y-8495000D02*
X11070000Y-8385000D01*
X11180000Y-8795000D02*
X11070000Y-8905000D01*
X11180000Y-8495000D02*
X11180000Y-8795000D01*
X14320000Y-5970000D02*
X14320000Y-6270000D01*
X13520000Y-4850000D02*
X11980000Y-4850000D01*
X14430000Y-4615000D02*
X14430000Y-5860000D01*
X14430000Y-6380000D02*
X14430000Y-9775000D01*
X14430000Y-5860000D02*
X14320000Y-5970000D01*
X11310000Y-10015000D02*
G75*
G02*
X11069996Y-9775000I0J240004D01*
G01*
X11980000Y-4850000D02*
X11980000Y-4375000D01*
X14430000Y-9775000D02*
G75*
G02*
X14190000Y-10015000I-240000J0D01*
G01*
X11069704Y-4614703D02*
G75*
G02*
X11309704Y-4374707I240000J-4D01*
G01*
X11310000Y-10015000D02*
X14190000Y-10015000D01*
X13520000Y-4375000D02*
X14190000Y-4375000D01*
X11980000Y-4375000D02*
X11310000Y-4375000D01*
X13520000Y-4375000D02*
X13520000Y-4850000D01*
X14320000Y-6270000D02*
X14430000Y-6380000D01*
D11*
D10*
X11524800Y-5431980D02*
X11564800Y-5471980D01*
X11564800Y-5431980D02*
X11524800Y-5471980D01*
X11524800Y-6089300D02*
X11564800Y-6129300D01*
X11564800Y-6089300D02*
X11524800Y-6129300D01*
X11580000Y-6270000D02*
X11620000Y-6310000D01*
X11620000Y-6270000D02*
X11580000Y-6310000D01*
X11640000Y-6950000D02*
X11680000Y-6990000D01*
X11680000Y-6950000D02*
X11640000Y-6990000D01*
X11800000Y-9160000D02*
X11840000Y-9200000D01*
X11840000Y-9160000D02*
X11800000Y-9200000D01*
X11840000Y-6110000D02*
X11880000Y-6150000D01*
X11880000Y-6110000D02*
X11840000Y-6150000D01*
X11840000Y-6220000D02*
X11880000Y-6260000D01*
X11880000Y-6220000D02*
X11840000Y-6260000D01*
X11840000Y-6630000D02*
X11880000Y-6670000D01*
X11880000Y-6630000D02*
X11840000Y-6670000D01*
X11900000Y-7670000D02*
X11940000Y-7710000D01*
X11940000Y-7670000D02*
X11900000Y-7710000D01*
X11900000Y-7860000D02*
X11940000Y-7900000D01*
X11940000Y-7860000D02*
X11900000Y-7900000D01*
X11910000Y-8640000D02*
X11950000Y-8680000D01*
X11950000Y-8640000D02*
X11910000Y-8680000D01*
X11926490Y-5015000D02*
X11966490Y-5055000D01*
X11966490Y-5015000D02*
X11926490Y-5055000D01*
X12050000Y-6480000D02*
X12090000Y-6520000D01*
X12090000Y-6480000D02*
X12050000Y-6520000D01*
X12420000Y-7000000D02*
X12460000Y-7040000D01*
X12460000Y-7000000D02*
X12420000Y-7040000D01*
X12440000Y-5460000D02*
X12480000Y-5500000D01*
X12480000Y-5460000D02*
X12440000Y-5500000D01*
X12510000Y-7483419D02*
X12550000Y-7523419D01*
X12550000Y-7483419D02*
X12510000Y-7523419D01*
X12510000Y-7650000D02*
X12550000Y-7690000D01*
X12550000Y-7650000D02*
X12510000Y-7690000D01*
X12510000Y-7815000D02*
X12550000Y-7855000D01*
X12550000Y-7815000D02*
X12510000Y-7855000D01*
X12730000Y-6420000D02*
X12770000Y-6460000D01*
X12770000Y-6420000D02*
X12730000Y-6460000D01*
X12730000Y-9210000D02*
X12770000Y-9250000D01*
X12770000Y-9210000D02*
X12730000Y-9250000D01*
X12814975Y-6480000D02*
X12854975Y-6520000D01*
X12854975Y-6480000D02*
X12814975Y-6520000D01*
X12815000Y-9255000D02*
X12855000Y-9295000D01*
X12855000Y-9255000D02*
X12815000Y-9295000D01*
X12948323Y-6636216D02*
X12988323Y-6676216D01*
X12988323Y-6636216D02*
X12948323Y-6676216D01*
X13000000Y-8265000D02*
X13040000Y-8305000D01*
X13040000Y-8265000D02*
X13000000Y-8305000D01*
X13015380Y-5800210D02*
X13055380Y-5840210D01*
X13055380Y-5800210D02*
X13015380Y-5840210D01*
X13030000Y-9045000D02*
X13070000Y-9085000D01*
X13070000Y-9045000D02*
X13030000Y-9085000D01*
X13070000Y-7285000D02*
X13110000Y-7325000D01*
X13110000Y-7285000D02*
X13070000Y-7325000D01*
X13170000Y-7565000D02*
X13210000Y-7605000D01*
X13210000Y-7565000D02*
X13170000Y-7605000D01*
X13327340Y-5162500D02*
X13367340Y-5202500D01*
X13367340Y-5162500D02*
X13327340Y-5202500D01*
X13401079Y-7708250D02*
X13441079Y-7748250D01*
X13441079Y-7708250D02*
X13401079Y-7748250D01*
X13430000Y-6414650D02*
X13470000Y-6454650D01*
X13470000Y-6414650D02*
X13430000Y-6454650D01*
X13660000Y-9160000D02*
X13700000Y-9200000D01*
X13700000Y-9160000D02*
X13660000Y-9200000D01*
X13790000Y-6930000D02*
X13830000Y-6970000D01*
X13830000Y-6930000D02*
X13790000Y-6970000D01*
X14020000Y-5240000D02*
X14060000Y-5280000D01*
X14060000Y-5240000D02*
X14020000Y-5280000D01*
X14020000Y-8550000D02*
X14060000Y-8590000D01*
X14060000Y-8550000D02*
X14020000Y-8590000D01*
X12348000Y-9489000D02*
G75*
G02*
X12288000Y-9489000I-30000J0D01*
G01*
X12288000Y-9489000D02*
G75*
G02*
X12348000Y-9489000I30000J0D01*
G01*
X12288000Y-9434000D02*
X12288000Y-9544000D01*
X12348000Y-9544000D02*
G75*
G02*
X12288000Y-9544000I-30000J0D01*
G01*
X12348000Y-9544000D02*
X12348000Y-9434000D01*
X12348000Y-9434000D02*
G75*
G03*
X12288000Y-9434000I-30000J0D01*
G01*
X12348000Y-9907000D02*
G75*
G02*
X12288000Y-9907000I-30000J0D01*
G01*
X12288000Y-9907000D02*
G75*
G02*
X12348000Y-9907000I30000J0D01*
G01*
X12288000Y-9877000D02*
X12288000Y-9937000D01*
X12348000Y-9937000D02*
G75*
G02*
X12288000Y-9937000I-30000J0D01*
G01*
X12348000Y-9937000D02*
X12348000Y-9877000D01*
X12348000Y-9877000D02*
G75*
G03*
X12288000Y-9877000I-30000J0D01*
G01*
X13212000Y-9489000D02*
G75*
G02*
X13152000Y-9489000I-30000J0D01*
G01*
X13152000Y-9489000D02*
G75*
G02*
X13212000Y-9489000I30000J0D01*
G01*
X13152000Y-9434000D02*
X13152000Y-9544000D01*
X13212000Y-9544000D02*
G75*
G02*
X13152000Y-9544000I-30000J0D01*
G01*
X13212000Y-9544000D02*
X13212000Y-9434000D01*
X13212000Y-9434000D02*
G75*
G03*
X13152000Y-9434000I-30000J0D01*
G01*
X13212000Y-9907000D02*
G75*
G02*
X13152000Y-9907000I-30000J0D01*
G01*
X13152000Y-9907000D02*
G75*
G02*
X13212000Y-9907000I30000J0D01*
G01*
X13152000Y-9877000D02*
X13152000Y-9937000D01*
X13212000Y-9937000D02*
G75*
G02*
X13152000Y-9937000I-30000J0D01*
G01*
X13212000Y-9937000D02*
X13212000Y-9877000D01*
X13212000Y-9877000D02*
G75*
G03*
X13152000Y-9877000I-30000J0D01*
G01*
D11*
X11325481Y-10331484D02*
X11325481Y-10131484D01*
X11325481Y-10131484D02*
X11373100Y-10131484D01*
X11373100Y-10131484D02*
X11401671Y-10141008D01*
X11401671Y-10141008D02*
X11420719Y-10160055D01*
X11420719Y-10160055D02*
X11430243Y-10179103D01*
X11430243Y-10179103D02*
X11439767Y-10217198D01*
X11439767Y-10217198D02*
X11439767Y-10245770D01*
X11439767Y-10245770D02*
X11430243Y-10283865D01*
X11430243Y-10283865D02*
X11420719Y-10302912D01*
X11420719Y-10302912D02*
X11401671Y-10321960D01*
X11401671Y-10321960D02*
X11373100Y-10331484D01*
X11373100Y-10331484D02*
X11325481Y-10331484D01*
X11525481Y-10331484D02*
X11525481Y-10198150D01*
X11525481Y-10236246D02*
X11535005Y-10217198D01*
X11535005Y-10217198D02*
X11544528Y-10207674D01*
X11544528Y-10207674D02*
X11563576Y-10198150D01*
X11563576Y-10198150D02*
X11582624Y-10198150D01*
X11649290Y-10331484D02*
X11649290Y-10198150D01*
X11649290Y-10131484D02*
X11639767Y-10141008D01*
X11639767Y-10141008D02*
X11649290Y-10150531D01*
X11649290Y-10150531D02*
X11658814Y-10141008D01*
X11658814Y-10141008D02*
X11649290Y-10131484D01*
X11649290Y-10131484D02*
X11649290Y-10150531D01*
X11773100Y-10331484D02*
X11754052Y-10321960D01*
X11754052Y-10321960D02*
X11744528Y-10302912D01*
X11744528Y-10302912D02*
X11744528Y-10131484D01*
X11877862Y-10331484D02*
X11858814Y-10321960D01*
X11858814Y-10321960D02*
X11849290Y-10302912D01*
X11849290Y-10302912D02*
X11849290Y-10131484D01*
X12106433Y-10331484D02*
X12106433Y-10131484D01*
X12106433Y-10131484D02*
X12173100Y-10274341D01*
X12173100Y-10274341D02*
X12239767Y-10131484D01*
X12239767Y-10131484D02*
X12239767Y-10331484D01*
X12420719Y-10331484D02*
X12420719Y-10226722D01*
X12420719Y-10226722D02*
X12411195Y-10207674D01*
X12411195Y-10207674D02*
X12392148Y-10198150D01*
X12392148Y-10198150D02*
X12354052Y-10198150D01*
X12354052Y-10198150D02*
X12335005Y-10207674D01*
X12420719Y-10321960D02*
X12401671Y-10331484D01*
X12401671Y-10331484D02*
X12354052Y-10331484D01*
X12354052Y-10331484D02*
X12335005Y-10321960D01*
X12335005Y-10321960D02*
X12325481Y-10302912D01*
X12325481Y-10302912D02*
X12325481Y-10283865D01*
X12325481Y-10283865D02*
X12335005Y-10264817D01*
X12335005Y-10264817D02*
X12354052Y-10255293D01*
X12354052Y-10255293D02*
X12401671Y-10255293D01*
X12401671Y-10255293D02*
X12420719Y-10245770D01*
X12515957Y-10198150D02*
X12515957Y-10398150D01*
X12515957Y-10207674D02*
X12535005Y-10198150D01*
X12535005Y-10198150D02*
X12573100Y-10198150D01*
X12573100Y-10198150D02*
X12592148Y-10207674D01*
X12592148Y-10207674D02*
X12601671Y-10217198D01*
X12601671Y-10217198D02*
X12611195Y-10236246D01*
X12611195Y-10236246D02*
X12611195Y-10293389D01*
X12611195Y-10293389D02*
X12601671Y-10312436D01*
X12601671Y-10312436D02*
X12592148Y-10321960D01*
X12592148Y-10321960D02*
X12573100Y-10331484D01*
X12573100Y-10331484D02*
X12535005Y-10331484D01*
X12535005Y-10331484D02*
X12515957Y-10321960D01*
X12696909Y-10312436D02*
X12706433Y-10321960D01*
X12706433Y-10321960D02*
X12696909Y-10331484D01*
X12696909Y-10331484D02*
X12687386Y-10321960D01*
X12687386Y-10321960D02*
X12696909Y-10312436D01*
X12696909Y-10312436D02*
X12696909Y-10331484D01*
X12696909Y-10207674D02*
X12706433Y-10217198D01*
X12706433Y-10217198D02*
X12696909Y-10226722D01*
X12696909Y-10226722D02*
X12687386Y-10217198D01*
X12687386Y-10217198D02*
X12696909Y-10207674D01*
X12696909Y-10207674D02*
X12696909Y-10226722D01*
D10*
X11024704Y-10640000D02*
X11064704Y-10680000D01*
X11064704Y-10640000D02*
X11024704Y-10680000D01*
D11*
X11363576Y-10551484D02*
X11382624Y-10551484D01*
X11382624Y-10551484D02*
X11401671Y-10561008D01*
X11401671Y-10561008D02*
X11411195Y-10570531D01*
X11411195Y-10570531D02*
X11420719Y-10589579D01*
X11420719Y-10589579D02*
X11430243Y-10627674D01*
X11430243Y-10627674D02*
X11430243Y-10675293D01*
X11430243Y-10675293D02*
X11420719Y-10713389D01*
X11420719Y-10713389D02*
X11411195Y-10732436D01*
X11411195Y-10732436D02*
X11401671Y-10741960D01*
X11401671Y-10741960D02*
X11382624Y-10751484D01*
X11382624Y-10751484D02*
X11363576Y-10751484D01*
X11363576Y-10751484D02*
X11344528Y-10741960D01*
X11344528Y-10741960D02*
X11335005Y-10732436D01*
X11335005Y-10732436D02*
X11325481Y-10713389D01*
X11325481Y-10713389D02*
X11315957Y-10675293D01*
X11315957Y-10675293D02*
X11315957Y-10627674D01*
X11315957Y-10627674D02*
X11325481Y-10589579D01*
X11325481Y-10589579D02*
X11335005Y-10570531D01*
X11335005Y-10570531D02*
X11344528Y-10561008D01*
X11344528Y-10561008D02*
X11363576Y-10551484D01*
X11515957Y-10732436D02*
X11525481Y-10741960D01*
X11525481Y-10741960D02*
X11515957Y-10751484D01*
X11515957Y-10751484D02*
X11506433Y-10741960D01*
X11506433Y-10741960D02*
X11515957Y-10732436D01*
X11515957Y-10732436D02*
X11515957Y-10751484D01*
X11696909Y-10618150D02*
X11696909Y-10751484D01*
X11649290Y-10541960D02*
X11601671Y-10684817D01*
X11601671Y-10684817D02*
X11725481Y-10684817D01*
X11839767Y-10551484D02*
X11858814Y-10551484D01*
X11858814Y-10551484D02*
X11877862Y-10561008D01*
X11877862Y-10561008D02*
X11887386Y-10570531D01*
X11887386Y-10570531D02*
X11896909Y-10589579D01*
X11896909Y-10589579D02*
X11906433Y-10627674D01*
X11906433Y-10627674D02*
X11906433Y-10675293D01*
X11906433Y-10675293D02*
X11896909Y-10713389D01*
X11896909Y-10713389D02*
X11887386Y-10732436D01*
X11887386Y-10732436D02*
X11877862Y-10741960D01*
X11877862Y-10741960D02*
X11858814Y-10751484D01*
X11858814Y-10751484D02*
X11839767Y-10751484D01*
X11839767Y-10751484D02*
X11820719Y-10741960D01*
X11820719Y-10741960D02*
X11811195Y-10732436D01*
X11811195Y-10732436D02*
X11801671Y-10713389D01*
X11801671Y-10713389D02*
X11792148Y-10675293D01*
X11792148Y-10675293D02*
X11792148Y-10627674D01*
X11792148Y-10627674D02*
X11801671Y-10589579D01*
X11801671Y-10589579D02*
X11811195Y-10570531D01*
X11811195Y-10570531D02*
X11820719Y-10561008D01*
X11820719Y-10561008D02*
X11839767Y-10551484D01*
X12030243Y-10551484D02*
X12049290Y-10551484D01*
X12049290Y-10551484D02*
X12068338Y-10561008D01*
X12068338Y-10561008D02*
X12077862Y-10570531D01*
X12077862Y-10570531D02*
X12087386Y-10589579D01*
X12087386Y-10589579D02*
X12096909Y-10627674D01*
X12096909Y-10627674D02*
X12096909Y-10675293D01*
X12096909Y-10675293D02*
X12087386Y-10713389D01*
X12087386Y-10713389D02*
X12077862Y-10732436D01*
X12077862Y-10732436D02*
X12068338Y-10741960D01*
X12068338Y-10741960D02*
X12049290Y-10751484D01*
X12049290Y-10751484D02*
X12030243Y-10751484D01*
X12030243Y-10751484D02*
X12011195Y-10741960D01*
X12011195Y-10741960D02*
X12001671Y-10732436D01*
X12001671Y-10732436D02*
X11992148Y-10713389D01*
X11992148Y-10713389D02*
X11982624Y-10675293D01*
X11982624Y-10675293D02*
X11982624Y-10627674D01*
X11982624Y-10627674D02*
X11992148Y-10589579D01*
X11992148Y-10589579D02*
X12001671Y-10570531D01*
X12001671Y-10570531D02*
X12011195Y-10561008D01*
X12011195Y-10561008D02*
X12030243Y-10551484D01*
X12182624Y-10751484D02*
X12182624Y-10618150D01*
X12182624Y-10637198D02*
X12192148Y-10627674D01*
X12192148Y-10627674D02*
X12211195Y-10618150D01*
X12211195Y-10618150D02*
X12239767Y-10618150D01*
X12239767Y-10618150D02*
X12258814Y-10627674D01*
X12258814Y-10627674D02*
X12268338Y-10646722D01*
X12268338Y-10646722D02*
X12268338Y-10751484D01*
X12268338Y-10646722D02*
X12277862Y-10627674D01*
X12277862Y-10627674D02*
X12296909Y-10618150D01*
X12296909Y-10618150D02*
X12325481Y-10618150D01*
X12325481Y-10618150D02*
X12344529Y-10627674D01*
X12344529Y-10627674D02*
X12354052Y-10646722D01*
X12354052Y-10646722D02*
X12354052Y-10751484D01*
X12449290Y-10751484D02*
X12449290Y-10618150D01*
X12449290Y-10637198D02*
X12458814Y-10627674D01*
X12458814Y-10627674D02*
X12477862Y-10618150D01*
X12477862Y-10618150D02*
X12506433Y-10618150D01*
X12506433Y-10618150D02*
X12525481Y-10627674D01*
X12525481Y-10627674D02*
X12535005Y-10646722D01*
X12535005Y-10646722D02*
X12535005Y-10751484D01*
X12535005Y-10646722D02*
X12544529Y-10627674D01*
X12544529Y-10627674D02*
X12563576Y-10618150D01*
X12563576Y-10618150D02*
X12592148Y-10618150D01*
X12592148Y-10618150D02*
X12611195Y-10627674D01*
X12611195Y-10627674D02*
X12620719Y-10646722D01*
X12620719Y-10646722D02*
X12620719Y-10751484D01*
X13011195Y-10541960D02*
X12839767Y-10799103D01*
X13268338Y-10551484D02*
X13287386Y-10551484D01*
X13287386Y-10551484D02*
X13306433Y-10561008D01*
X13306433Y-10561008D02*
X13315957Y-10570531D01*
X13315957Y-10570531D02*
X13325481Y-10589579D01*
X13325481Y-10589579D02*
X13335005Y-10627674D01*
X13335005Y-10627674D02*
X13335005Y-10675293D01*
X13335005Y-10675293D02*
X13325481Y-10713389D01*
X13325481Y-10713389D02*
X13315957Y-10732436D01*
X13315957Y-10732436D02*
X13306433Y-10741960D01*
X13306433Y-10741960D02*
X13287386Y-10751484D01*
X13287386Y-10751484D02*
X13268338Y-10751484D01*
X13268338Y-10751484D02*
X13249291Y-10741960D01*
X13249291Y-10741960D02*
X13239767Y-10732436D01*
X13239767Y-10732436D02*
X13230243Y-10713389D01*
X13230243Y-10713389D02*
X13220719Y-10675293D01*
X13220719Y-10675293D02*
X13220719Y-10627674D01*
X13220719Y-10627674D02*
X13230243Y-10589579D01*
X13230243Y-10589579D02*
X13239767Y-10570531D01*
X13239767Y-10570531D02*
X13249291Y-10561008D01*
X13249291Y-10561008D02*
X13268338Y-10551484D01*
X13420719Y-10732436D02*
X13430243Y-10741960D01*
X13430243Y-10741960D02*
X13420719Y-10751484D01*
X13420719Y-10751484D02*
X13411195Y-10741960D01*
X13411195Y-10741960D02*
X13420719Y-10732436D01*
X13420719Y-10732436D02*
X13420719Y-10751484D01*
X13554052Y-10551484D02*
X13573100Y-10551484D01*
X13573100Y-10551484D02*
X13592148Y-10561008D01*
X13592148Y-10561008D02*
X13601672Y-10570531D01*
X13601672Y-10570531D02*
X13611195Y-10589579D01*
X13611195Y-10589579D02*
X13620719Y-10627674D01*
X13620719Y-10627674D02*
X13620719Y-10675293D01*
X13620719Y-10675293D02*
X13611195Y-10713389D01*
X13611195Y-10713389D02*
X13601672Y-10732436D01*
X13601672Y-10732436D02*
X13592148Y-10741960D01*
X13592148Y-10741960D02*
X13573100Y-10751484D01*
X13573100Y-10751484D02*
X13554052Y-10751484D01*
X13554052Y-10751484D02*
X13535005Y-10741960D01*
X13535005Y-10741960D02*
X13525481Y-10732436D01*
X13525481Y-10732436D02*
X13515957Y-10713389D01*
X13515957Y-10713389D02*
X13506433Y-10675293D01*
X13506433Y-10675293D02*
X13506433Y-10627674D01*
X13506433Y-10627674D02*
X13515957Y-10589579D01*
X13515957Y-10589579D02*
X13525481Y-10570531D01*
X13525481Y-10570531D02*
X13535005Y-10561008D01*
X13535005Y-10561008D02*
X13554052Y-10551484D01*
X13811195Y-10751484D02*
X13696910Y-10751484D01*
X13754052Y-10751484D02*
X13754052Y-10551484D01*
X13754052Y-10551484D02*
X13735005Y-10580055D01*
X13735005Y-10580055D02*
X13715957Y-10599103D01*
X13715957Y-10599103D02*
X13696910Y-10608627D01*
X13992148Y-10551484D02*
X13896910Y-10551484D01*
X13896910Y-10551484D02*
X13887386Y-10646722D01*
X13887386Y-10646722D02*
X13896910Y-10637198D01*
X13896910Y-10637198D02*
X13915957Y-10627674D01*
X13915957Y-10627674D02*
X13963576Y-10627674D01*
X13963576Y-10627674D02*
X13982624Y-10637198D01*
X13982624Y-10637198D02*
X13992148Y-10646722D01*
X13992148Y-10646722D02*
X14001672Y-10665770D01*
X14001672Y-10665770D02*
X14001672Y-10713389D01*
X14001672Y-10713389D02*
X13992148Y-10732436D01*
X13992148Y-10732436D02*
X13982624Y-10741960D01*
X13982624Y-10741960D02*
X13963576Y-10751484D01*
X13963576Y-10751484D02*
X13915957Y-10751484D01*
X13915957Y-10751484D02*
X13896910Y-10741960D01*
X13896910Y-10741960D02*
X13887386Y-10732436D01*
X14068338Y-10551484D02*
X14201672Y-10551484D01*
X14201672Y-10551484D02*
X14115957Y-10751484D01*
X14268338Y-10551484D02*
X14268338Y-10589579D01*
X14344529Y-10551484D02*
X14344529Y-10589579D01*
X14639767Y-10827674D02*
X14630243Y-10818150D01*
X14630243Y-10818150D02*
X14611195Y-10789579D01*
X14611195Y-10789579D02*
X14601672Y-10770531D01*
X14601672Y-10770531D02*
X14592148Y-10741960D01*
X14592148Y-10741960D02*
X14582624Y-10694341D01*
X14582624Y-10694341D02*
X14582624Y-10656246D01*
X14582624Y-10656246D02*
X14592148Y-10608627D01*
X14592148Y-10608627D02*
X14601672Y-10580055D01*
X14601672Y-10580055D02*
X14611195Y-10561008D01*
X14611195Y-10561008D02*
X14630243Y-10532436D01*
X14630243Y-10532436D02*
X14639767Y-10522912D01*
X14696910Y-10551484D02*
X14820719Y-10551484D01*
X14820719Y-10551484D02*
X14754053Y-10627674D01*
X14754053Y-10627674D02*
X14782624Y-10627674D01*
X14782624Y-10627674D02*
X14801672Y-10637198D01*
X14801672Y-10637198D02*
X14811195Y-10646722D01*
X14811195Y-10646722D02*
X14820719Y-10665770D01*
X14820719Y-10665770D02*
X14820719Y-10713389D01*
X14820719Y-10713389D02*
X14811195Y-10732436D01*
X14811195Y-10732436D02*
X14801672Y-10741960D01*
X14801672Y-10741960D02*
X14782624Y-10751484D01*
X14782624Y-10751484D02*
X14725481Y-10751484D01*
X14725481Y-10751484D02*
X14706434Y-10741960D01*
X14706434Y-10741960D02*
X14696910Y-10732436D01*
X15001672Y-10551484D02*
X14906434Y-10551484D01*
X14906434Y-10551484D02*
X14896910Y-10646722D01*
X14896910Y-10646722D02*
X14906434Y-10637198D01*
X14906434Y-10637198D02*
X14925481Y-10627674D01*
X14925481Y-10627674D02*
X14973100Y-10627674D01*
X14973100Y-10627674D02*
X14992148Y-10637198D01*
X14992148Y-10637198D02*
X15001672Y-10646722D01*
X15001672Y-10646722D02*
X15011195Y-10665770D01*
X15011195Y-10665770D02*
X15011195Y-10713389D01*
X15011195Y-10713389D02*
X15001672Y-10732436D01*
X15001672Y-10732436D02*
X14992148Y-10741960D01*
X14992148Y-10741960D02*
X14973100Y-10751484D01*
X14973100Y-10751484D02*
X14925481Y-10751484D01*
X14925481Y-10751484D02*
X14906434Y-10741960D01*
X14906434Y-10741960D02*
X14896910Y-10732436D01*
X15249291Y-10751484D02*
X15249291Y-10551484D01*
X15335005Y-10751484D02*
X15335005Y-10646722D01*
X15335005Y-10646722D02*
X15325481Y-10627674D01*
X15325481Y-10627674D02*
X15306434Y-10618150D01*
X15306434Y-10618150D02*
X15277862Y-10618150D01*
X15277862Y-10618150D02*
X15258815Y-10627674D01*
X15258815Y-10627674D02*
X15249291Y-10637198D01*
X15458815Y-10751484D02*
X15439767Y-10741960D01*
X15439767Y-10741960D02*
X15430243Y-10732436D01*
X15430243Y-10732436D02*
X15420719Y-10713389D01*
X15420719Y-10713389D02*
X15420719Y-10656246D01*
X15420719Y-10656246D02*
X15430243Y-10637198D01*
X15430243Y-10637198D02*
X15439767Y-10627674D01*
X15439767Y-10627674D02*
X15458815Y-10618150D01*
X15458815Y-10618150D02*
X15487386Y-10618150D01*
X15487386Y-10618150D02*
X15506434Y-10627674D01*
X15506434Y-10627674D02*
X15515957Y-10637198D01*
X15515957Y-10637198D02*
X15525481Y-10656246D01*
X15525481Y-10656246D02*
X15525481Y-10713389D01*
X15525481Y-10713389D02*
X15515957Y-10732436D01*
X15515957Y-10732436D02*
X15506434Y-10741960D01*
X15506434Y-10741960D02*
X15487386Y-10751484D01*
X15487386Y-10751484D02*
X15458815Y-10751484D01*
X15639767Y-10751484D02*
X15620719Y-10741960D01*
X15620719Y-10741960D02*
X15611196Y-10722912D01*
X15611196Y-10722912D02*
X15611196Y-10551484D01*
X15792148Y-10741960D02*
X15773100Y-10751484D01*
X15773100Y-10751484D02*
X15735005Y-10751484D01*
X15735005Y-10751484D02*
X15715957Y-10741960D01*
X15715957Y-10741960D02*
X15706434Y-10722912D01*
X15706434Y-10722912D02*
X15706434Y-10646722D01*
X15706434Y-10646722D02*
X15715957Y-10627674D01*
X15715957Y-10627674D02*
X15735005Y-10618150D01*
X15735005Y-10618150D02*
X15773100Y-10618150D01*
X15773100Y-10618150D02*
X15792148Y-10627674D01*
X15792148Y-10627674D02*
X15801672Y-10646722D01*
X15801672Y-10646722D02*
X15801672Y-10665770D01*
X15801672Y-10665770D02*
X15706434Y-10684817D01*
X15877862Y-10741960D02*
X15896910Y-10751484D01*
X15896910Y-10751484D02*
X15935005Y-10751484D01*
X15935005Y-10751484D02*
X15954053Y-10741960D01*
X15954053Y-10741960D02*
X15963577Y-10722912D01*
X15963577Y-10722912D02*
X15963577Y-10713389D01*
X15963577Y-10713389D02*
X15954053Y-10694341D01*
X15954053Y-10694341D02*
X15935005Y-10684817D01*
X15935005Y-10684817D02*
X15906434Y-10684817D01*
X15906434Y-10684817D02*
X15887386Y-10675293D01*
X15887386Y-10675293D02*
X15877862Y-10656246D01*
X15877862Y-10656246D02*
X15877862Y-10646722D01*
X15877862Y-10646722D02*
X15887386Y-10627674D01*
X15887386Y-10627674D02*
X15906434Y-10618150D01*
X15906434Y-10618150D02*
X15935005Y-10618150D01*
X15935005Y-10618150D02*
X15954053Y-10627674D01*
X16030243Y-10827674D02*
X16039767Y-10818150D01*
X16039767Y-10818150D02*
X16058815Y-10789579D01*
X16058815Y-10789579D02*
X16068338Y-10770531D01*
X16068338Y-10770531D02*
X16077862Y-10741960D01*
X16077862Y-10741960D02*
X16087386Y-10694341D01*
X16087386Y-10694341D02*
X16087386Y-10656246D01*
X16087386Y-10656246D02*
X16077862Y-10608627D01*
X16077862Y-10608627D02*
X16068338Y-10580055D01*
X16068338Y-10580055D02*
X16058815Y-10561008D01*
X16058815Y-10561008D02*
X16039767Y-10532436D01*
X16039767Y-10532436D02*
X16030243Y-10522912D01*
D10*
X11064704Y-10924000D02*
G75*
G02*
X11004704Y-10924000I-30000J0D01*
G01*
X11004704Y-10924000D02*
G75*
G02*
X11064704Y-10924000I30000J0D01*
G01*
D11*
X11363576Y-10815484D02*
X11382624Y-10815484D01*
X11382624Y-10815484D02*
X11401671Y-10825008D01*
X11401671Y-10825008D02*
X11411195Y-10834531D01*
X11411195Y-10834531D02*
X11420719Y-10853579D01*
X11420719Y-10853579D02*
X11430243Y-10891674D01*
X11430243Y-10891674D02*
X11430243Y-10939293D01*
X11430243Y-10939293D02*
X11420719Y-10977389D01*
X11420719Y-10977389D02*
X11411195Y-10996436D01*
X11411195Y-10996436D02*
X11401671Y-11005960D01*
X11401671Y-11005960D02*
X11382624Y-11015484D01*
X11382624Y-11015484D02*
X11363576Y-11015484D01*
X11363576Y-11015484D02*
X11344528Y-11005960D01*
X11344528Y-11005960D02*
X11335005Y-10996436D01*
X11335005Y-10996436D02*
X11325481Y-10977389D01*
X11325481Y-10977389D02*
X11315957Y-10939293D01*
X11315957Y-10939293D02*
X11315957Y-10891674D01*
X11315957Y-10891674D02*
X11325481Y-10853579D01*
X11325481Y-10853579D02*
X11335005Y-10834531D01*
X11335005Y-10834531D02*
X11344528Y-10825008D01*
X11344528Y-10825008D02*
X11363576Y-10815484D01*
X11515957Y-10996436D02*
X11525481Y-11005960D01*
X11525481Y-11005960D02*
X11515957Y-11015484D01*
X11515957Y-11015484D02*
X11506433Y-11005960D01*
X11506433Y-11005960D02*
X11515957Y-10996436D01*
X11515957Y-10996436D02*
X11515957Y-11015484D01*
X11696909Y-10815484D02*
X11658814Y-10815484D01*
X11658814Y-10815484D02*
X11639767Y-10825008D01*
X11639767Y-10825008D02*
X11630243Y-10834531D01*
X11630243Y-10834531D02*
X11611195Y-10863103D01*
X11611195Y-10863103D02*
X11601671Y-10901198D01*
X11601671Y-10901198D02*
X11601671Y-10977389D01*
X11601671Y-10977389D02*
X11611195Y-10996436D01*
X11611195Y-10996436D02*
X11620719Y-11005960D01*
X11620719Y-11005960D02*
X11639767Y-11015484D01*
X11639767Y-11015484D02*
X11677862Y-11015484D01*
X11677862Y-11015484D02*
X11696909Y-11005960D01*
X11696909Y-11005960D02*
X11706433Y-10996436D01*
X11706433Y-10996436D02*
X11715957Y-10977389D01*
X11715957Y-10977389D02*
X11715957Y-10929770D01*
X11715957Y-10929770D02*
X11706433Y-10910722D01*
X11706433Y-10910722D02*
X11696909Y-10901198D01*
X11696909Y-10901198D02*
X11677862Y-10891674D01*
X11677862Y-10891674D02*
X11639767Y-10891674D01*
X11639767Y-10891674D02*
X11620719Y-10901198D01*
X11620719Y-10901198D02*
X11611195Y-10910722D01*
X11611195Y-10910722D02*
X11601671Y-10929770D01*
X11839767Y-10815484D02*
X11858814Y-10815484D01*
X11858814Y-10815484D02*
X11877862Y-10825008D01*
X11877862Y-10825008D02*
X11887386Y-10834531D01*
X11887386Y-10834531D02*
X11896909Y-10853579D01*
X11896909Y-10853579D02*
X11906433Y-10891674D01*
X11906433Y-10891674D02*
X11906433Y-10939293D01*
X11906433Y-10939293D02*
X11896909Y-10977389D01*
X11896909Y-10977389D02*
X11887386Y-10996436D01*
X11887386Y-10996436D02*
X11877862Y-11005960D01*
X11877862Y-11005960D02*
X11858814Y-11015484D01*
X11858814Y-11015484D02*
X11839767Y-11015484D01*
X11839767Y-11015484D02*
X11820719Y-11005960D01*
X11820719Y-11005960D02*
X11811195Y-10996436D01*
X11811195Y-10996436D02*
X11801671Y-10977389D01*
X11801671Y-10977389D02*
X11792148Y-10939293D01*
X11792148Y-10939293D02*
X11792148Y-10891674D01*
X11792148Y-10891674D02*
X11801671Y-10853579D01*
X11801671Y-10853579D02*
X11811195Y-10834531D01*
X11811195Y-10834531D02*
X11820719Y-10825008D01*
X11820719Y-10825008D02*
X11839767Y-10815484D01*
X12030243Y-10815484D02*
X12049290Y-10815484D01*
X12049290Y-10815484D02*
X12068338Y-10825008D01*
X12068338Y-10825008D02*
X12077862Y-10834531D01*
X12077862Y-10834531D02*
X12087386Y-10853579D01*
X12087386Y-10853579D02*
X12096909Y-10891674D01*
X12096909Y-10891674D02*
X12096909Y-10939293D01*
X12096909Y-10939293D02*
X12087386Y-10977389D01*
X12087386Y-10977389D02*
X12077862Y-10996436D01*
X12077862Y-10996436D02*
X12068338Y-11005960D01*
X12068338Y-11005960D02*
X12049290Y-11015484D01*
X12049290Y-11015484D02*
X12030243Y-11015484D01*
X12030243Y-11015484D02*
X12011195Y-11005960D01*
X12011195Y-11005960D02*
X12001671Y-10996436D01*
X12001671Y-10996436D02*
X11992148Y-10977389D01*
X11992148Y-10977389D02*
X11982624Y-10939293D01*
X11982624Y-10939293D02*
X11982624Y-10891674D01*
X11982624Y-10891674D02*
X11992148Y-10853579D01*
X11992148Y-10853579D02*
X12001671Y-10834531D01*
X12001671Y-10834531D02*
X12011195Y-10825008D01*
X12011195Y-10825008D02*
X12030243Y-10815484D01*
X12182624Y-11015484D02*
X12182624Y-10882150D01*
X12182624Y-10901198D02*
X12192148Y-10891674D01*
X12192148Y-10891674D02*
X12211195Y-10882150D01*
X12211195Y-10882150D02*
X12239767Y-10882150D01*
X12239767Y-10882150D02*
X12258814Y-10891674D01*
X12258814Y-10891674D02*
X12268338Y-10910722D01*
X12268338Y-10910722D02*
X12268338Y-11015484D01*
X12268338Y-10910722D02*
X12277862Y-10891674D01*
X12277862Y-10891674D02*
X12296909Y-10882150D01*
X12296909Y-10882150D02*
X12325481Y-10882150D01*
X12325481Y-10882150D02*
X12344529Y-10891674D01*
X12344529Y-10891674D02*
X12354052Y-10910722D01*
X12354052Y-10910722D02*
X12354052Y-11015484D01*
X12449290Y-11015484D02*
X12449290Y-10882150D01*
X12449290Y-10901198D02*
X12458814Y-10891674D01*
X12458814Y-10891674D02*
X12477862Y-10882150D01*
X12477862Y-10882150D02*
X12506433Y-10882150D01*
X12506433Y-10882150D02*
X12525481Y-10891674D01*
X12525481Y-10891674D02*
X12535005Y-10910722D01*
X12535005Y-10910722D02*
X12535005Y-11015484D01*
X12535005Y-10910722D02*
X12544529Y-10891674D01*
X12544529Y-10891674D02*
X12563576Y-10882150D01*
X12563576Y-10882150D02*
X12592148Y-10882150D01*
X12592148Y-10882150D02*
X12611195Y-10891674D01*
X12611195Y-10891674D02*
X12620719Y-10910722D01*
X12620719Y-10910722D02*
X12620719Y-11015484D01*
X13011195Y-10805960D02*
X12839767Y-11063103D01*
X13268338Y-10815484D02*
X13287386Y-10815484D01*
X13287386Y-10815484D02*
X13306433Y-10825008D01*
X13306433Y-10825008D02*
X13315957Y-10834531D01*
X13315957Y-10834531D02*
X13325481Y-10853579D01*
X13325481Y-10853579D02*
X13335005Y-10891674D01*
X13335005Y-10891674D02*
X13335005Y-10939293D01*
X13335005Y-10939293D02*
X13325481Y-10977389D01*
X13325481Y-10977389D02*
X13315957Y-10996436D01*
X13315957Y-10996436D02*
X13306433Y-11005960D01*
X13306433Y-11005960D02*
X13287386Y-11015484D01*
X13287386Y-11015484D02*
X13268338Y-11015484D01*
X13268338Y-11015484D02*
X13249291Y-11005960D01*
X13249291Y-11005960D02*
X13239767Y-10996436D01*
X13239767Y-10996436D02*
X13230243Y-10977389D01*
X13230243Y-10977389D02*
X13220719Y-10939293D01*
X13220719Y-10939293D02*
X13220719Y-10891674D01*
X13220719Y-10891674D02*
X13230243Y-10853579D01*
X13230243Y-10853579D02*
X13239767Y-10834531D01*
X13239767Y-10834531D02*
X13249291Y-10825008D01*
X13249291Y-10825008D02*
X13268338Y-10815484D01*
X13420719Y-10996436D02*
X13430243Y-11005960D01*
X13430243Y-11005960D02*
X13420719Y-11015484D01*
X13420719Y-11015484D02*
X13411195Y-11005960D01*
X13411195Y-11005960D02*
X13420719Y-10996436D01*
X13420719Y-10996436D02*
X13420719Y-11015484D01*
X13554052Y-10815484D02*
X13573100Y-10815484D01*
X13573100Y-10815484D02*
X13592148Y-10825008D01*
X13592148Y-10825008D02*
X13601672Y-10834531D01*
X13601672Y-10834531D02*
X13611195Y-10853579D01*
X13611195Y-10853579D02*
X13620719Y-10891674D01*
X13620719Y-10891674D02*
X13620719Y-10939293D01*
X13620719Y-10939293D02*
X13611195Y-10977389D01*
X13611195Y-10977389D02*
X13601672Y-10996436D01*
X13601672Y-10996436D02*
X13592148Y-11005960D01*
X13592148Y-11005960D02*
X13573100Y-11015484D01*
X13573100Y-11015484D02*
X13554052Y-11015484D01*
X13554052Y-11015484D02*
X13535005Y-11005960D01*
X13535005Y-11005960D02*
X13525481Y-10996436D01*
X13525481Y-10996436D02*
X13515957Y-10977389D01*
X13515957Y-10977389D02*
X13506433Y-10939293D01*
X13506433Y-10939293D02*
X13506433Y-10891674D01*
X13506433Y-10891674D02*
X13515957Y-10853579D01*
X13515957Y-10853579D02*
X13525481Y-10834531D01*
X13525481Y-10834531D02*
X13535005Y-10825008D01*
X13535005Y-10825008D02*
X13554052Y-10815484D01*
X13696910Y-10834531D02*
X13706433Y-10825008D01*
X13706433Y-10825008D02*
X13725481Y-10815484D01*
X13725481Y-10815484D02*
X13773100Y-10815484D01*
X13773100Y-10815484D02*
X13792148Y-10825008D01*
X13792148Y-10825008D02*
X13801672Y-10834531D01*
X13801672Y-10834531D02*
X13811195Y-10853579D01*
X13811195Y-10853579D02*
X13811195Y-10872627D01*
X13811195Y-10872627D02*
X13801672Y-10901198D01*
X13801672Y-10901198D02*
X13687386Y-11015484D01*
X13687386Y-11015484D02*
X13811195Y-11015484D01*
X13877862Y-10815484D02*
X14001672Y-10815484D01*
X14001672Y-10815484D02*
X13935005Y-10891674D01*
X13935005Y-10891674D02*
X13963576Y-10891674D01*
X13963576Y-10891674D02*
X13982624Y-10901198D01*
X13982624Y-10901198D02*
X13992148Y-10910722D01*
X13992148Y-10910722D02*
X14001672Y-10929770D01*
X14001672Y-10929770D02*
X14001672Y-10977389D01*
X14001672Y-10977389D02*
X13992148Y-10996436D01*
X13992148Y-10996436D02*
X13982624Y-11005960D01*
X13982624Y-11005960D02*
X13963576Y-11015484D01*
X13963576Y-11015484D02*
X13906433Y-11015484D01*
X13906433Y-11015484D02*
X13887386Y-11005960D01*
X13887386Y-11005960D02*
X13877862Y-10996436D01*
X14173100Y-10815484D02*
X14135005Y-10815484D01*
X14135005Y-10815484D02*
X14115957Y-10825008D01*
X14115957Y-10825008D02*
X14106433Y-10834531D01*
X14106433Y-10834531D02*
X14087386Y-10863103D01*
X14087386Y-10863103D02*
X14077862Y-10901198D01*
X14077862Y-10901198D02*
X14077862Y-10977389D01*
X14077862Y-10977389D02*
X14087386Y-10996436D01*
X14087386Y-10996436D02*
X14096910Y-11005960D01*
X14096910Y-11005960D02*
X14115957Y-11015484D01*
X14115957Y-11015484D02*
X14154053Y-11015484D01*
X14154053Y-11015484D02*
X14173100Y-11005960D01*
X14173100Y-11005960D02*
X14182624Y-10996436D01*
X14182624Y-10996436D02*
X14192148Y-10977389D01*
X14192148Y-10977389D02*
X14192148Y-10929770D01*
X14192148Y-10929770D02*
X14182624Y-10910722D01*
X14182624Y-10910722D02*
X14173100Y-10901198D01*
X14173100Y-10901198D02*
X14154053Y-10891674D01*
X14154053Y-10891674D02*
X14115957Y-10891674D01*
X14115957Y-10891674D02*
X14096910Y-10901198D01*
X14096910Y-10901198D02*
X14087386Y-10910722D01*
X14087386Y-10910722D02*
X14077862Y-10929770D01*
X14268338Y-10815484D02*
X14268338Y-10853579D01*
X14344529Y-10815484D02*
X14344529Y-10853579D01*
X14639767Y-11091674D02*
X14630243Y-11082150D01*
X14630243Y-11082150D02*
X14611195Y-11053579D01*
X14611195Y-11053579D02*
X14601672Y-11034531D01*
X14601672Y-11034531D02*
X14592148Y-11005960D01*
X14592148Y-11005960D02*
X14582624Y-10958341D01*
X14582624Y-10958341D02*
X14582624Y-10920246D01*
X14582624Y-10920246D02*
X14592148Y-10872627D01*
X14592148Y-10872627D02*
X14601672Y-10844055D01*
X14601672Y-10844055D02*
X14611195Y-10825008D01*
X14611195Y-10825008D02*
X14630243Y-10796436D01*
X14630243Y-10796436D02*
X14639767Y-10786912D01*
X14754053Y-10815484D02*
X14773100Y-10815484D01*
X14773100Y-10815484D02*
X14792148Y-10825008D01*
X14792148Y-10825008D02*
X14801672Y-10834531D01*
X14801672Y-10834531D02*
X14811195Y-10853579D01*
X14811195Y-10853579D02*
X14820719Y-10891674D01*
X14820719Y-10891674D02*
X14820719Y-10939293D01*
X14820719Y-10939293D02*
X14811195Y-10977389D01*
X14811195Y-10977389D02*
X14801672Y-10996436D01*
X14801672Y-10996436D02*
X14792148Y-11005960D01*
X14792148Y-11005960D02*
X14773100Y-11015484D01*
X14773100Y-11015484D02*
X14754053Y-11015484D01*
X14754053Y-11015484D02*
X14735005Y-11005960D01*
X14735005Y-11005960D02*
X14725481Y-10996436D01*
X14725481Y-10996436D02*
X14715957Y-10977389D01*
X14715957Y-10977389D02*
X14706434Y-10939293D01*
X14706434Y-10939293D02*
X14706434Y-10891674D01*
X14706434Y-10891674D02*
X14715957Y-10853579D01*
X14715957Y-10853579D02*
X14725481Y-10834531D01*
X14725481Y-10834531D02*
X14735005Y-10825008D01*
X14735005Y-10825008D02*
X14754053Y-10815484D01*
X15058815Y-11015484D02*
X15058815Y-10815484D01*
X15144529Y-11015484D02*
X15144529Y-10910722D01*
X15144529Y-10910722D02*
X15135005Y-10891674D01*
X15135005Y-10891674D02*
X15115957Y-10882150D01*
X15115957Y-10882150D02*
X15087386Y-10882150D01*
X15087386Y-10882150D02*
X15068338Y-10891674D01*
X15068338Y-10891674D02*
X15058815Y-10901198D01*
X15268338Y-11015484D02*
X15249291Y-11005960D01*
X15249291Y-11005960D02*
X15239767Y-10996436D01*
X15239767Y-10996436D02*
X15230243Y-10977389D01*
X15230243Y-10977389D02*
X15230243Y-10920246D01*
X15230243Y-10920246D02*
X15239767Y-10901198D01*
X15239767Y-10901198D02*
X15249291Y-10891674D01*
X15249291Y-10891674D02*
X15268338Y-10882150D01*
X15268338Y-10882150D02*
X15296910Y-10882150D01*
X15296910Y-10882150D02*
X15315957Y-10891674D01*
X15315957Y-10891674D02*
X15325481Y-10901198D01*
X15325481Y-10901198D02*
X15335005Y-10920246D01*
X15335005Y-10920246D02*
X15335005Y-10977389D01*
X15335005Y-10977389D02*
X15325481Y-10996436D01*
X15325481Y-10996436D02*
X15315957Y-11005960D01*
X15315957Y-11005960D02*
X15296910Y-11015484D01*
X15296910Y-11015484D02*
X15268338Y-11015484D01*
X15449291Y-11015484D02*
X15430243Y-11005960D01*
X15430243Y-11005960D02*
X15420719Y-10986912D01*
X15420719Y-10986912D02*
X15420719Y-10815484D01*
X15601672Y-11005960D02*
X15582624Y-11015484D01*
X15582624Y-11015484D02*
X15544529Y-11015484D01*
X15544529Y-11015484D02*
X15525481Y-11005960D01*
X15525481Y-11005960D02*
X15515957Y-10986912D01*
X15515957Y-10986912D02*
X15515957Y-10910722D01*
X15515957Y-10910722D02*
X15525481Y-10891674D01*
X15525481Y-10891674D02*
X15544529Y-10882150D01*
X15544529Y-10882150D02*
X15582624Y-10882150D01*
X15582624Y-10882150D02*
X15601672Y-10891674D01*
X15601672Y-10891674D02*
X15611196Y-10910722D01*
X15611196Y-10910722D02*
X15611196Y-10929770D01*
X15611196Y-10929770D02*
X15515957Y-10948817D01*
X15687386Y-11005960D02*
X15706434Y-11015484D01*
X15706434Y-11015484D02*
X15744529Y-11015484D01*
X15744529Y-11015484D02*
X15763577Y-11005960D01*
X15763577Y-11005960D02*
X15773100Y-10986912D01*
X15773100Y-10986912D02*
X15773100Y-10977389D01*
X15773100Y-10977389D02*
X15763577Y-10958341D01*
X15763577Y-10958341D02*
X15744529Y-10948817D01*
X15744529Y-10948817D02*
X15715957Y-10948817D01*
X15715957Y-10948817D02*
X15696910Y-10939293D01*
X15696910Y-10939293D02*
X15687386Y-10920246D01*
X15687386Y-10920246D02*
X15687386Y-10910722D01*
X15687386Y-10910722D02*
X15696910Y-10891674D01*
X15696910Y-10891674D02*
X15715957Y-10882150D01*
X15715957Y-10882150D02*
X15744529Y-10882150D01*
X15744529Y-10882150D02*
X15763577Y-10891674D01*
X16011196Y-10939293D02*
X16163577Y-10939293D01*
X16087386Y-11015484D02*
X16087386Y-10863103D01*
X16496910Y-10882150D02*
X16496910Y-11015484D01*
X16449291Y-10805960D02*
X16401672Y-10948817D01*
X16401672Y-10948817D02*
X16525481Y-10948817D01*
X16744529Y-11005960D02*
X16763577Y-11015484D01*
X16763577Y-11015484D02*
X16801672Y-11015484D01*
X16801672Y-11015484D02*
X16820720Y-11005960D01*
X16820720Y-11005960D02*
X16830243Y-10986912D01*
X16830243Y-10986912D02*
X16830243Y-10977389D01*
X16830243Y-10977389D02*
X16820720Y-10958341D01*
X16820720Y-10958341D02*
X16801672Y-10948817D01*
X16801672Y-10948817D02*
X16773100Y-10948817D01*
X16773100Y-10948817D02*
X16754053Y-10939293D01*
X16754053Y-10939293D02*
X16744529Y-10920246D01*
X16744529Y-10920246D02*
X16744529Y-10910722D01*
X16744529Y-10910722D02*
X16754053Y-10891674D01*
X16754053Y-10891674D02*
X16773100Y-10882150D01*
X16773100Y-10882150D02*
X16801672Y-10882150D01*
X16801672Y-10882150D02*
X16820720Y-10891674D01*
X16944529Y-11015484D02*
X16925482Y-11005960D01*
X16925482Y-11005960D02*
X16915958Y-10986912D01*
X16915958Y-10986912D02*
X16915958Y-10815484D01*
X17049291Y-11015484D02*
X17030243Y-11005960D01*
X17030243Y-11005960D02*
X17020720Y-10996436D01*
X17020720Y-10996436D02*
X17011196Y-10977389D01*
X17011196Y-10977389D02*
X17011196Y-10920246D01*
X17011196Y-10920246D02*
X17020720Y-10901198D01*
X17020720Y-10901198D02*
X17030243Y-10891674D01*
X17030243Y-10891674D02*
X17049291Y-10882150D01*
X17049291Y-10882150D02*
X17077863Y-10882150D01*
X17077863Y-10882150D02*
X17096910Y-10891674D01*
X17096910Y-10891674D02*
X17106434Y-10901198D01*
X17106434Y-10901198D02*
X17115958Y-10920246D01*
X17115958Y-10920246D02*
X17115958Y-10977389D01*
X17115958Y-10977389D02*
X17106434Y-10996436D01*
X17106434Y-10996436D02*
X17096910Y-11005960D01*
X17096910Y-11005960D02*
X17077863Y-11015484D01*
X17077863Y-11015484D02*
X17049291Y-11015484D01*
X17173101Y-10882150D02*
X17249291Y-10882150D01*
X17201672Y-10815484D02*
X17201672Y-10986912D01*
X17201672Y-10986912D02*
X17211196Y-11005960D01*
X17211196Y-11005960D02*
X17230243Y-11015484D01*
X17230243Y-11015484D02*
X17249291Y-11015484D01*
X17306434Y-11005960D02*
X17325482Y-11015484D01*
X17325482Y-11015484D02*
X17363577Y-11015484D01*
X17363577Y-11015484D02*
X17382624Y-11005960D01*
X17382624Y-11005960D02*
X17392148Y-10986912D01*
X17392148Y-10986912D02*
X17392148Y-10977389D01*
X17392148Y-10977389D02*
X17382624Y-10958341D01*
X17382624Y-10958341D02*
X17363577Y-10948817D01*
X17363577Y-10948817D02*
X17335005Y-10948817D01*
X17335005Y-10948817D02*
X17315958Y-10939293D01*
X17315958Y-10939293D02*
X17306434Y-10920246D01*
X17306434Y-10920246D02*
X17306434Y-10910722D01*
X17306434Y-10910722D02*
X17315958Y-10891674D01*
X17315958Y-10891674D02*
X17335005Y-10882150D01*
X17335005Y-10882150D02*
X17363577Y-10882150D01*
X17363577Y-10882150D02*
X17382624Y-10891674D01*
X17458815Y-11091674D02*
X17468339Y-11082150D01*
X17468339Y-11082150D02*
X17487386Y-11053579D01*
X17487386Y-11053579D02*
X17496910Y-11034531D01*
X17496910Y-11034531D02*
X17506434Y-11005960D01*
X17506434Y-11005960D02*
X17515958Y-10958341D01*
X17515958Y-10958341D02*
X17515958Y-10920246D01*
X17515958Y-10920246D02*
X17506434Y-10872627D01*
X17506434Y-10872627D02*
X17496910Y-10844055D01*
X17496910Y-10844055D02*
X17487386Y-10825008D01*
X17487386Y-10825008D02*
X17468339Y-10796436D01*
X17468339Y-10796436D02*
X17458815Y-10786912D01*
M02*
