M48
; DRILL file {KiCad 8.0.0-rc2-494-g6bc7bcffef} date 2024-03-15T23:56:09+0000
; FORMAT={-:-/ absolute / metric / decimal}
; #@! TF.CreationDate,2024-03-15T23:56:09+00:00
; #@! TF.GenerationSoftware,Kicad,Pcbnew,8.0.0-rc2-494-g6bc7bcffef
; #@! TF.FileFunction,Plated,1,2,PTH
FMAT,2
METRIC
; #@! TA.AperFunction,Plated,PTH,ViaDrill
T1C0.400
; #@! TA.AperFunction,Plated,PTH,ComponentDrill
T2C0.600
%
G90
G05
T1
X115.448Y-54.52
X115.448Y-61.093
X116.0Y-62.9
X116.6Y-69.7
X118.2Y-91.8
X118.6Y-61.3
X118.6Y-62.4
X118.6Y-66.5
X119.2Y-76.9
X119.2Y-78.8
X119.3Y-86.6
X119.465Y-50.35
X120.7Y-65.0
X124.4Y-70.2
X124.6Y-54.8
X125.3Y-75.034
X125.3Y-76.7
X125.3Y-78.35
X127.5Y-64.4
X127.5Y-92.3
X128.35Y-65.0
X128.35Y-92.75
X129.683Y-66.562
X130.2Y-82.85
X130.354Y-58.202
X130.5Y-90.65
X130.9Y-73.05
X131.9Y-75.85
X133.473Y-51.825
X134.211Y-77.282
X134.5Y-64.346
X136.8Y-91.8
X138.1Y-69.5
X140.4Y-52.6
X140.4Y-85.7
T2
X123.18Y-94.34G85X123.18Y-95.44
G05
X123.18Y-98.77G85X123.18Y-99.37
G05
X131.82Y-94.34G85X131.82Y-95.44
G05
X131.82Y-98.77G85X131.82Y-99.37
G05
M30
