M48
; DRILL file {KiCad 8.0.0-rc2-494-g6bc7bcffef} date 2024-02-15T01:57:23+0000
; FORMAT={-:-/ absolute / metric / decimal}
; #@! TF.CreationDate,2024-02-15T01:57:23+00:00
; #@! TF.GenerationSoftware,Kicad,Pcbnew,8.0.0-rc2-494-g6bc7bcffef
; #@! TF.FileFunction,Plated,1,2,PTH
FMAT,2
METRIC
; #@! TA.AperFunction,Plated,PTH,ViaDrill
T1C0.400
; #@! TA.AperFunction,Plated,PTH,ComponentDrill
T2C0.600
%
G90
G05
T1
X115.448Y-54.97
X115.448Y-61.543
X115.5Y-80.572
X116.45Y-64.374
X117.767Y-70.465
X118.469Y-74.975
X118.8Y-61.6
X118.8Y-63.1
X118.8Y-66.9
X119.0Y-94.35
X119.465Y-50.8
X120.7Y-65.45
X122.757Y-91.376
X124.4Y-70.65
X124.485Y-82.165
X125.3Y-75.484
X125.3Y-78.8
X126.05Y-87.897
X127.25Y-94.953
X127.5Y-64.8
X128.248Y-95.372
X128.35Y-65.29
X129.683Y-67.012
X130.354Y-58.652
X130.9Y-73.5
X131.9Y-76.3
X133.337Y-92.44
X133.473Y-52.275
X134.211Y-77.732
X134.5Y-64.796
X136.0Y-94.545
X138.55Y-68.933
X138.55Y-90.491
X139.7Y-52.856
T2
X123.18Y-97.095G85X123.18Y-98.195
G05
X123.18Y-101.525G85X123.18Y-102.125
G05
X131.82Y-97.095G85X131.82Y-98.195
G05
X131.82Y-101.525G85X131.82Y-102.125
G05
M30
