G04 #@! TF.GenerationSoftware,KiCad,Pcbnew,8.0.0-rc2-494-g6bc7bcffef*
G04 #@! TF.CreationDate,2024-02-15T01:57:03+00:00*
G04 #@! TF.ProjectId,Wakeboard,57616b65-626f-4617-9264-2e6b69636164,rev?*
G04 #@! TF.SameCoordinates,Original*
G04 #@! TF.FileFunction,Profile,NP*
%FSLAX46Y46*%
G04 Gerber Fmt 4.6, Leading zero omitted, Abs format (unit mm)*
G04 Created by KiCad (PCBNEW 8.0.0-rc2-494-g6bc7bcffef) date 2024-02-15 01:57:03*
%MOMM*%
%LPD*%
G01*
G04 APERTURE LIST*
G04 #@! TA.AperFunction,Profile*
%ADD10C,0.100000*%
G04 #@! TD*
G04 APERTURE END LIST*
D10*
X142800000Y-99200000D02*
X142799658Y-48253044D01*
X139001951Y-44450343D02*
G75*
G02*
X142799657Y-48253044I-1951J-3799657D01*
G01*
X141000000Y-99200000D02*
G75*
G02*
X137000000Y-99200000I-2000000J0D01*
G01*
X137000000Y-99200000D02*
G75*
G02*
X141000000Y-99200000I2000000J0D01*
G01*
X119800000Y-44447000D02*
X116000000Y-44449828D01*
X135200000Y-48900000D02*
X119800000Y-48900000D01*
X139001951Y-44450342D02*
X135200000Y-44447000D01*
X119800000Y-48900000D02*
X119800000Y-44447000D01*
X116000000Y-103000000D02*
G75*
G02*
X112200000Y-99200000I0J3800000D01*
G01*
X112199829Y-48247938D02*
X112200000Y-99200000D01*
X116000000Y-103000000D02*
X139000000Y-103000000D01*
X118000000Y-48250000D02*
G75*
G02*
X114000000Y-48250000I-2000000J0D01*
G01*
X114000000Y-48250000D02*
G75*
G02*
X118000000Y-48250000I2000000J0D01*
G01*
X118000000Y-99200000D02*
G75*
G02*
X114000000Y-99200000I-2000000J0D01*
G01*
X114000000Y-99200000D02*
G75*
G02*
X118000000Y-99200000I2000000J0D01*
G01*
X112199830Y-48247938D02*
G75*
G02*
X116000000Y-44449829I3800170J-2062D01*
G01*
X142800000Y-99200000D02*
G75*
G02*
X139000000Y-103000000I-3800000J0D01*
G01*
X141000000Y-48250000D02*
G75*
G02*
X137000000Y-48250000I-2000000J0D01*
G01*
X137000000Y-48250000D02*
G75*
G02*
X141000000Y-48250000I2000000J0D01*
G01*
X135200000Y-44447000D02*
X135200000Y-48900000D01*
M02*
