G04 #@! TF.GenerationSoftware,KiCad,Pcbnew,8.0.0-rc2-494-g6bc7bcffef*
G04 #@! TF.CreationDate,2024-02-15T01:57:03+00:00*
G04 #@! TF.ProjectId,Wakeboard,57616b65-626f-4617-9264-2e6b69636164,rev?*
G04 #@! TF.SameCoordinates,Original*
G04 #@! TF.FileFunction,Copper,L2,Bot*
G04 #@! TF.FilePolarity,Positive*
%FSLAX46Y46*%
G04 Gerber Fmt 4.6, Leading zero omitted, Abs format (unit mm)*
G04 Created by KiCad (PCBNEW 8.0.0-rc2-494-g6bc7bcffef) date 2024-02-15 01:57:03*
%MOMM*%
%LPD*%
G01*
G04 APERTURE LIST*
G04 #@! TA.AperFunction,ComponentPad*
%ADD10O,1.000000X2.100000*%
G04 #@! TD*
G04 #@! TA.AperFunction,ComponentPad*
%ADD11O,1.000000X1.600000*%
G04 #@! TD*
G04 #@! TA.AperFunction,ViaPad*
%ADD12C,0.800000*%
G04 #@! TD*
G04 #@! TA.AperFunction,Conductor*
%ADD13C,0.400000*%
G04 #@! TD*
G04 #@! TA.AperFunction,Conductor*
%ADD14C,0.300000*%
G04 #@! TD*
G04 APERTURE END LIST*
D10*
X123180000Y-97645000D03*
D11*
X123180000Y-101825000D03*
D10*
X131820000Y-97645000D03*
D11*
X131820000Y-101825000D03*
D12*
X133337300Y-92440000D03*
X115448000Y-61543000D03*
X122757200Y-91375500D03*
X124485300Y-82164700D03*
X133473400Y-52275000D03*
X138550000Y-90491400D03*
X131900000Y-76300000D03*
X138550000Y-68933500D03*
X115500000Y-80572500D03*
X124400000Y-70650000D03*
X134210794Y-77732498D03*
X134500000Y-64796500D03*
X119000000Y-94350000D03*
X136000000Y-94544750D03*
X139700000Y-52855600D03*
X126050000Y-87896600D03*
X129683228Y-67012164D03*
X115448000Y-54969800D03*
X125300000Y-75484188D03*
X118469200Y-74974600D03*
X130900000Y-73500000D03*
X120700000Y-65450000D03*
X117766700Y-70465000D03*
X119464900Y-50800000D03*
X125300000Y-78800000D03*
X130353800Y-58652100D03*
X128248401Y-95372396D03*
X128350000Y-65290000D03*
X127250131Y-94952771D03*
X127500000Y-64800000D03*
X118800000Y-61600000D03*
X116450209Y-64374266D03*
X118800000Y-66900000D03*
X118800000Y-63100000D03*
D13*
X128350000Y-65290000D02*
X128350000Y-95270797D01*
X128350000Y-95270797D02*
X128248401Y-95372396D01*
X127500000Y-94702902D02*
X127250131Y-94952771D01*
X127500000Y-64800000D02*
X127500000Y-94702902D01*
D14*
X116450209Y-63949791D02*
X118800000Y-61600000D01*
X116450209Y-64374266D02*
X116450209Y-63949791D01*
X118800000Y-63100000D02*
X118800000Y-66900000D01*
G04 #@! TA.AperFunction,Conductor*
G36*
X114299748Y-49319685D02*
G01*
X114337024Y-49356960D01*
X114396872Y-49450085D01*
X114396878Y-49450092D01*
X114583978Y-49666019D01*
X114583980Y-49666021D01*
X114799907Y-49853121D01*
X114799914Y-49853127D01*
X115040273Y-50007597D01*
X115040289Y-50007606D01*
X115300173Y-50126291D01*
X115300177Y-50126292D01*
X115300179Y-50126293D01*
X115574326Y-50206790D01*
X115857139Y-50247452D01*
X116142858Y-50247452D01*
X116142861Y-50247452D01*
X116425674Y-50206790D01*
X116699821Y-50126293D01*
X116699824Y-50126291D01*
X116699826Y-50126291D01*
X116959710Y-50007606D01*
X116959714Y-50007603D01*
X116959722Y-50007600D01*
X117200086Y-49853127D01*
X117416020Y-49666020D01*
X117603127Y-49450086D01*
X117662976Y-49356960D01*
X117715780Y-49311205D01*
X117767291Y-49300000D01*
X137232709Y-49300000D01*
X137299748Y-49319685D01*
X137337024Y-49356960D01*
X137396872Y-49450085D01*
X137396878Y-49450092D01*
X137583978Y-49666019D01*
X137583980Y-49666021D01*
X137799907Y-49853121D01*
X137799914Y-49853127D01*
X138040273Y-50007597D01*
X138040289Y-50007606D01*
X138300173Y-50126291D01*
X138300177Y-50126292D01*
X138300179Y-50126293D01*
X138574326Y-50206790D01*
X138857139Y-50247452D01*
X139142858Y-50247452D01*
X139142861Y-50247452D01*
X139425674Y-50206790D01*
X139699821Y-50126293D01*
X139699824Y-50126291D01*
X139699826Y-50126291D01*
X139959710Y-50007606D01*
X139959714Y-50007603D01*
X139959722Y-50007600D01*
X140200086Y-49853127D01*
X140416020Y-49666020D01*
X140603127Y-49450086D01*
X140662976Y-49356960D01*
X140715780Y-49311205D01*
X140767291Y-49300000D01*
X142675666Y-49300000D01*
X142742705Y-49319685D01*
X142788460Y-49372489D01*
X142799665Y-49423998D01*
X142799714Y-56598985D01*
X142799999Y-99199218D01*
X142799988Y-99200841D01*
X142797470Y-99393319D01*
X142796802Y-99404659D01*
X142756469Y-99788402D01*
X142754438Y-99801221D01*
X142674388Y-100177828D01*
X142671029Y-100190365D01*
X142552048Y-100556550D01*
X142547397Y-100568667D01*
X142390790Y-100920413D01*
X142384897Y-100931978D01*
X142192383Y-101265421D01*
X142185314Y-101276307D01*
X141959001Y-101587799D01*
X141950833Y-101597885D01*
X141693198Y-101884020D01*
X141684020Y-101893198D01*
X141397885Y-102150833D01*
X141387799Y-102159001D01*
X141076307Y-102385314D01*
X141065421Y-102392383D01*
X140731978Y-102584897D01*
X140720413Y-102590790D01*
X140368667Y-102747397D01*
X140356550Y-102752048D01*
X139990365Y-102871029D01*
X139977828Y-102874388D01*
X139601221Y-102954438D01*
X139588402Y-102956469D01*
X139204659Y-102996802D01*
X139193320Y-102997470D01*
X139007366Y-102999903D01*
X139000839Y-102999989D01*
X138999219Y-103000000D01*
X132658577Y-103000000D01*
X132591538Y-102980315D01*
X132545783Y-102927511D01*
X132535839Y-102858353D01*
X132564864Y-102794797D01*
X132570896Y-102788319D01*
X132596748Y-102762466D01*
X132596751Y-102762462D01*
X132706185Y-102598684D01*
X132706192Y-102598671D01*
X132781569Y-102416693D01*
X132781572Y-102416681D01*
X132819999Y-102223495D01*
X132820000Y-102223492D01*
X132820000Y-102075000D01*
X132120000Y-102075000D01*
X132120000Y-101575000D01*
X132820000Y-101575000D01*
X132820000Y-101426508D01*
X132819999Y-101426504D01*
X132781572Y-101233318D01*
X132781569Y-101233306D01*
X132706192Y-101051328D01*
X132706185Y-101051315D01*
X132596751Y-100887537D01*
X132596748Y-100887533D01*
X132457466Y-100748251D01*
X132457462Y-100748248D01*
X132293684Y-100638814D01*
X132293671Y-100638807D01*
X132111691Y-100563429D01*
X132111683Y-100563427D01*
X132070000Y-100555135D01*
X132070000Y-101358011D01*
X132060060Y-101340795D01*
X132004205Y-101284940D01*
X131935796Y-101245444D01*
X131859496Y-101225000D01*
X131780504Y-101225000D01*
X131704204Y-101245444D01*
X131635795Y-101284940D01*
X131579940Y-101340795D01*
X131570000Y-101358011D01*
X131570000Y-100555136D01*
X131569999Y-100555135D01*
X131528316Y-100563427D01*
X131528308Y-100563429D01*
X131346328Y-100638807D01*
X131346315Y-100638814D01*
X131182537Y-100748248D01*
X131182533Y-100748251D01*
X131043251Y-100887533D01*
X131043248Y-100887537D01*
X130933814Y-101051315D01*
X130933807Y-101051328D01*
X130858430Y-101233306D01*
X130858427Y-101233318D01*
X130820000Y-101426504D01*
X130820000Y-101575000D01*
X131520000Y-101575000D01*
X131520000Y-102075000D01*
X130820000Y-102075000D01*
X130820000Y-102223495D01*
X130858427Y-102416681D01*
X130858430Y-102416693D01*
X130933807Y-102598671D01*
X130933814Y-102598684D01*
X131043248Y-102762462D01*
X131043251Y-102762466D01*
X131069104Y-102788319D01*
X131102589Y-102849642D01*
X131097605Y-102919334D01*
X131055733Y-102975267D01*
X130990269Y-102999684D01*
X130981423Y-103000000D01*
X124018577Y-103000000D01*
X123951538Y-102980315D01*
X123905783Y-102927511D01*
X123895839Y-102858353D01*
X123924864Y-102794797D01*
X123930896Y-102788319D01*
X123956748Y-102762466D01*
X123956751Y-102762462D01*
X124066185Y-102598684D01*
X124066192Y-102598671D01*
X124141569Y-102416693D01*
X124141572Y-102416681D01*
X124179999Y-102223495D01*
X124180000Y-102223492D01*
X124180000Y-102075000D01*
X123480000Y-102075000D01*
X123480000Y-101575000D01*
X124180000Y-101575000D01*
X124180000Y-101426508D01*
X124179999Y-101426504D01*
X124141572Y-101233318D01*
X124141569Y-101233306D01*
X124066192Y-101051328D01*
X124066185Y-101051315D01*
X123956751Y-100887537D01*
X123956748Y-100887533D01*
X123817466Y-100748251D01*
X123817462Y-100748248D01*
X123653684Y-100638814D01*
X123653671Y-100638807D01*
X123471691Y-100563429D01*
X123471683Y-100563427D01*
X123430000Y-100555135D01*
X123430000Y-101358011D01*
X123420060Y-101340795D01*
X123364205Y-101284940D01*
X123295796Y-101245444D01*
X123219496Y-101225000D01*
X123140504Y-101225000D01*
X123064204Y-101245444D01*
X122995795Y-101284940D01*
X122939940Y-101340795D01*
X122930000Y-101358011D01*
X122930000Y-100555136D01*
X122929999Y-100555135D01*
X122888316Y-100563427D01*
X122888308Y-100563429D01*
X122706328Y-100638807D01*
X122706315Y-100638814D01*
X122542537Y-100748248D01*
X122542533Y-100748251D01*
X122403251Y-100887533D01*
X122403248Y-100887537D01*
X122293814Y-101051315D01*
X122293807Y-101051328D01*
X122218430Y-101233306D01*
X122218427Y-101233318D01*
X122180000Y-101426504D01*
X122180000Y-101575000D01*
X122880000Y-101575000D01*
X122880000Y-102075000D01*
X122180000Y-102075000D01*
X122180000Y-102223495D01*
X122218427Y-102416681D01*
X122218430Y-102416693D01*
X122293807Y-102598671D01*
X122293814Y-102598684D01*
X122403248Y-102762462D01*
X122403251Y-102762466D01*
X122429104Y-102788319D01*
X122462589Y-102849642D01*
X122457605Y-102919334D01*
X122415733Y-102975267D01*
X122350269Y-102999684D01*
X122341423Y-103000000D01*
X116000781Y-103000000D01*
X115999160Y-102999989D01*
X115992460Y-102999901D01*
X115806679Y-102997470D01*
X115795340Y-102996802D01*
X115411597Y-102956469D01*
X115398778Y-102954438D01*
X115022171Y-102874388D01*
X115009634Y-102871029D01*
X114643449Y-102752048D01*
X114631332Y-102747397D01*
X114279586Y-102590790D01*
X114268021Y-102584897D01*
X113934578Y-102392383D01*
X113923699Y-102385319D01*
X113612200Y-102159001D01*
X113602114Y-102150833D01*
X113315979Y-101893198D01*
X113306801Y-101884020D01*
X113049166Y-101597885D01*
X113040998Y-101587799D01*
X112923810Y-101426504D01*
X112814677Y-101276295D01*
X112807616Y-101265421D01*
X112615098Y-100931970D01*
X112609213Y-100920421D01*
X112452602Y-100568667D01*
X112447951Y-100556550D01*
X112328970Y-100190365D01*
X112325611Y-100177828D01*
X112321763Y-100159726D01*
X112245560Y-99801215D01*
X112243530Y-99788402D01*
X112203196Y-99404649D01*
X112202529Y-99393331D01*
X112201869Y-99342861D01*
X114002548Y-99342861D01*
X114011433Y-99404659D01*
X114043209Y-99625669D01*
X114043211Y-99625679D01*
X114123708Y-99899826D01*
X114242393Y-100159710D01*
X114242402Y-100159726D01*
X114396872Y-100400085D01*
X114396878Y-100400092D01*
X114583978Y-100616019D01*
X114583980Y-100616021D01*
X114799907Y-100803121D01*
X114799914Y-100803127D01*
X115040273Y-100957597D01*
X115040289Y-100957606D01*
X115300173Y-101076291D01*
X115300177Y-101076292D01*
X115300179Y-101076293D01*
X115574326Y-101156790D01*
X115857139Y-101197452D01*
X116142858Y-101197452D01*
X116142861Y-101197452D01*
X116425674Y-101156790D01*
X116699821Y-101076293D01*
X116699824Y-101076291D01*
X116699826Y-101076291D01*
X116959710Y-100957606D01*
X116959714Y-100957603D01*
X116959722Y-100957600D01*
X117200086Y-100803127D01*
X117416020Y-100616020D01*
X117603127Y-100400086D01*
X117757600Y-100159722D01*
X117757603Y-100159714D01*
X117757606Y-100159710D01*
X117876291Y-99899826D01*
X117876291Y-99899824D01*
X117876293Y-99899821D01*
X117956790Y-99625674D01*
X117997452Y-99342861D01*
X137002548Y-99342861D01*
X137011433Y-99404659D01*
X137043209Y-99625669D01*
X137043211Y-99625679D01*
X137123708Y-99899826D01*
X137242393Y-100159710D01*
X137242402Y-100159726D01*
X137396872Y-100400085D01*
X137396878Y-100400092D01*
X137583978Y-100616019D01*
X137583980Y-100616021D01*
X137799907Y-100803121D01*
X137799914Y-100803127D01*
X138040273Y-100957597D01*
X138040289Y-100957606D01*
X138300173Y-101076291D01*
X138300177Y-101076292D01*
X138300179Y-101076293D01*
X138574326Y-101156790D01*
X138857139Y-101197452D01*
X139142858Y-101197452D01*
X139142861Y-101197452D01*
X139425674Y-101156790D01*
X139699821Y-101076293D01*
X139699824Y-101076291D01*
X139699826Y-101076291D01*
X139959710Y-100957606D01*
X139959714Y-100957603D01*
X139959722Y-100957600D01*
X140200086Y-100803127D01*
X140416020Y-100616020D01*
X140603127Y-100400086D01*
X140757600Y-100159722D01*
X140757603Y-100159714D01*
X140757606Y-100159710D01*
X140876291Y-99899826D01*
X140876291Y-99899824D01*
X140876293Y-99899821D01*
X140956790Y-99625674D01*
X140997452Y-99342861D01*
X141000000Y-99200000D01*
X140997452Y-99057139D01*
X140956790Y-98774326D01*
X140876293Y-98500179D01*
X140876292Y-98500177D01*
X140876291Y-98500173D01*
X140757606Y-98240289D01*
X140757597Y-98240273D01*
X140603127Y-97999914D01*
X140603121Y-97999907D01*
X140416021Y-97783980D01*
X140416019Y-97783978D01*
X140200092Y-97596878D01*
X140200085Y-97596872D01*
X139959726Y-97442402D01*
X139959710Y-97442393D01*
X139699826Y-97323708D01*
X139425679Y-97243211D01*
X139425669Y-97243209D01*
X139285865Y-97223108D01*
X139142861Y-97202548D01*
X139142859Y-97202548D01*
X138857140Y-97202548D01*
X138857139Y-97202548D01*
X138785636Y-97212828D01*
X138574330Y-97243209D01*
X138574320Y-97243211D01*
X138300173Y-97323708D01*
X138040289Y-97442393D01*
X138040273Y-97442402D01*
X137799914Y-97596872D01*
X137799907Y-97596878D01*
X137583980Y-97783978D01*
X137583978Y-97783980D01*
X137396878Y-97999907D01*
X137396872Y-97999914D01*
X137242402Y-98240273D01*
X137242393Y-98240289D01*
X137123708Y-98500173D01*
X137043211Y-98774320D01*
X137043209Y-98774330D01*
X137014825Y-98971748D01*
X137002548Y-99057139D01*
X137002548Y-99342861D01*
X117997452Y-99342861D01*
X118000000Y-99200000D01*
X117997452Y-99057139D01*
X117956790Y-98774326D01*
X117876293Y-98500179D01*
X117876292Y-98500177D01*
X117876291Y-98500173D01*
X117781904Y-98293495D01*
X122180000Y-98293495D01*
X122218427Y-98486681D01*
X122218430Y-98486693D01*
X122293807Y-98668671D01*
X122293814Y-98668684D01*
X122403248Y-98832462D01*
X122403251Y-98832466D01*
X122542533Y-98971748D01*
X122542537Y-98971751D01*
X122706315Y-99081185D01*
X122706328Y-99081192D01*
X122888308Y-99156569D01*
X122930000Y-99164862D01*
X122930000Y-98361988D01*
X122939940Y-98379205D01*
X122995795Y-98435060D01*
X123064204Y-98474556D01*
X123140504Y-98495000D01*
X123219496Y-98495000D01*
X123295796Y-98474556D01*
X123364205Y-98435060D01*
X123420060Y-98379205D01*
X123430000Y-98361988D01*
X123430000Y-99164862D01*
X123471690Y-99156569D01*
X123471692Y-99156569D01*
X123653671Y-99081192D01*
X123653684Y-99081185D01*
X123817462Y-98971751D01*
X123817466Y-98971748D01*
X123956748Y-98832466D01*
X123956751Y-98832462D01*
X124066185Y-98668684D01*
X124066186Y-98668682D01*
X124070129Y-98659163D01*
X124113968Y-98604757D01*
X124180261Y-98582689D01*
X124247961Y-98599965D01*
X124253400Y-98603647D01*
X124256634Y-98605514D01*
X124256635Y-98605515D01*
X124387865Y-98681281D01*
X124534234Y-98720500D01*
X124534236Y-98720500D01*
X124685764Y-98720500D01*
X124685766Y-98720500D01*
X124832135Y-98681281D01*
X124963365Y-98605515D01*
X125070515Y-98498365D01*
X125146281Y-98367135D01*
X125185500Y-98220766D01*
X125185500Y-98220765D01*
X129814500Y-98220765D01*
X129853719Y-98367136D01*
X129891602Y-98432750D01*
X129929485Y-98498365D01*
X130036635Y-98605515D01*
X130167865Y-98681281D01*
X130314234Y-98720500D01*
X130314236Y-98720500D01*
X130465764Y-98720500D01*
X130465766Y-98720500D01*
X130612135Y-98681281D01*
X130743365Y-98605515D01*
X130743366Y-98605513D01*
X130750403Y-98601451D01*
X130751676Y-98603656D01*
X130804956Y-98583043D01*
X130873405Y-98597063D01*
X130923407Y-98645864D01*
X130929867Y-98659157D01*
X130933809Y-98668674D01*
X130933814Y-98668684D01*
X131043248Y-98832462D01*
X131043251Y-98832466D01*
X131182533Y-98971748D01*
X131182537Y-98971751D01*
X131346315Y-99081185D01*
X131346328Y-99081192D01*
X131528308Y-99156569D01*
X131570000Y-99164862D01*
X131570000Y-98361988D01*
X131579940Y-98379205D01*
X131635795Y-98435060D01*
X131704204Y-98474556D01*
X131780504Y-98495000D01*
X131859496Y-98495000D01*
X131935796Y-98474556D01*
X132004205Y-98435060D01*
X132060060Y-98379205D01*
X132070000Y-98361988D01*
X132070000Y-99164862D01*
X132111690Y-99156569D01*
X132111692Y-99156569D01*
X132293671Y-99081192D01*
X132293684Y-99081185D01*
X132457462Y-98971751D01*
X132457466Y-98971748D01*
X132596748Y-98832466D01*
X132596751Y-98832462D01*
X132706185Y-98668684D01*
X132706192Y-98668671D01*
X132781569Y-98486693D01*
X132781572Y-98486681D01*
X132819999Y-98293495D01*
X132820000Y-98293492D01*
X132820000Y-97895000D01*
X132120000Y-97895000D01*
X132120000Y-97395000D01*
X132820000Y-97395000D01*
X132820000Y-96996508D01*
X132819999Y-96996504D01*
X132781572Y-96803318D01*
X132781569Y-96803306D01*
X132706192Y-96621328D01*
X132706185Y-96621315D01*
X132596751Y-96457537D01*
X132596748Y-96457533D01*
X132457466Y-96318251D01*
X132457462Y-96318248D01*
X132293684Y-96208814D01*
X132293671Y-96208807D01*
X132111691Y-96133429D01*
X132111683Y-96133427D01*
X132070000Y-96125135D01*
X132070000Y-96928011D01*
X132060060Y-96910795D01*
X132004205Y-96854940D01*
X131935796Y-96815444D01*
X131859496Y-96795000D01*
X131780504Y-96795000D01*
X131704204Y-96815444D01*
X131635795Y-96854940D01*
X131579940Y-96910795D01*
X131570000Y-96928011D01*
X131570000Y-96125136D01*
X131569999Y-96125135D01*
X131528316Y-96133427D01*
X131528308Y-96133429D01*
X131346328Y-96208807D01*
X131346315Y-96208814D01*
X131182537Y-96318248D01*
X131182533Y-96318251D01*
X131043251Y-96457533D01*
X131043248Y-96457537D01*
X130933814Y-96621315D01*
X130933807Y-96621328D01*
X130858430Y-96803306D01*
X130858427Y-96803318D01*
X130820000Y-96996504D01*
X130820000Y-97513955D01*
X130800315Y-97580994D01*
X130747511Y-97626749D01*
X130678353Y-97636693D01*
X130634000Y-97621342D01*
X130612138Y-97608720D01*
X130612135Y-97608719D01*
X130465766Y-97569500D01*
X130314234Y-97569500D01*
X130167863Y-97608719D01*
X130036635Y-97684485D01*
X130036632Y-97684487D01*
X129929487Y-97791632D01*
X129929485Y-97791635D01*
X129853719Y-97922863D01*
X129814500Y-98069234D01*
X129814500Y-98220765D01*
X125185500Y-98220765D01*
X125185500Y-98069234D01*
X125146281Y-97922865D01*
X125070515Y-97791635D01*
X124963365Y-97684485D01*
X124853999Y-97621342D01*
X124832136Y-97608719D01*
X124758950Y-97589109D01*
X124685766Y-97569500D01*
X124534234Y-97569500D01*
X124387865Y-97608719D01*
X124387864Y-97608719D01*
X124387862Y-97608720D01*
X124387861Y-97608720D01*
X124366000Y-97621342D01*
X124298099Y-97637815D01*
X124232073Y-97614962D01*
X124188882Y-97560041D01*
X124180000Y-97513955D01*
X124180000Y-96996508D01*
X124179999Y-96996504D01*
X124141572Y-96803318D01*
X124141569Y-96803306D01*
X124066192Y-96621328D01*
X124066185Y-96621315D01*
X123956751Y-96457537D01*
X123956748Y-96457533D01*
X123817466Y-96318251D01*
X123817462Y-96318248D01*
X123653684Y-96208814D01*
X123653671Y-96208807D01*
X123471691Y-96133429D01*
X123471683Y-96133427D01*
X123430000Y-96125135D01*
X123430000Y-96928011D01*
X123420060Y-96910795D01*
X123364205Y-96854940D01*
X123295796Y-96815444D01*
X123219496Y-96795000D01*
X123140504Y-96795000D01*
X123064204Y-96815444D01*
X122995795Y-96854940D01*
X122939940Y-96910795D01*
X122930000Y-96928011D01*
X122930000Y-96125136D01*
X122929999Y-96125135D01*
X122888316Y-96133427D01*
X122888308Y-96133429D01*
X122706328Y-96208807D01*
X122706315Y-96208814D01*
X122542537Y-96318248D01*
X122542533Y-96318251D01*
X122403251Y-96457533D01*
X122403248Y-96457537D01*
X122293814Y-96621315D01*
X122293807Y-96621328D01*
X122218430Y-96803306D01*
X122218427Y-96803318D01*
X122180000Y-96996504D01*
X122180000Y-97395000D01*
X122880000Y-97395000D01*
X122880000Y-97895000D01*
X122180000Y-97895000D01*
X122180000Y-98293495D01*
X117781904Y-98293495D01*
X117757606Y-98240289D01*
X117757597Y-98240273D01*
X117603127Y-97999914D01*
X117603121Y-97999907D01*
X117416021Y-97783980D01*
X117416019Y-97783978D01*
X117200092Y-97596878D01*
X117200085Y-97596872D01*
X116959726Y-97442402D01*
X116959710Y-97442393D01*
X116699826Y-97323708D01*
X116425679Y-97243211D01*
X116425669Y-97243209D01*
X116285865Y-97223108D01*
X116142861Y-97202548D01*
X116142859Y-97202548D01*
X115857140Y-97202548D01*
X115857139Y-97202548D01*
X115785636Y-97212828D01*
X115574330Y-97243209D01*
X115574320Y-97243211D01*
X115300173Y-97323708D01*
X115040289Y-97442393D01*
X115040273Y-97442402D01*
X114799914Y-97596872D01*
X114799907Y-97596878D01*
X114583980Y-97783978D01*
X114583978Y-97783980D01*
X114396878Y-97999907D01*
X114396872Y-97999914D01*
X114242402Y-98240273D01*
X114242393Y-98240289D01*
X114123708Y-98500173D01*
X114043211Y-98774320D01*
X114043209Y-98774330D01*
X114014825Y-98971748D01*
X114002548Y-99057139D01*
X114002548Y-99342861D01*
X112201869Y-99342861D01*
X112200008Y-99200681D01*
X112199999Y-99199365D01*
X112199985Y-94952771D01*
X126344671Y-94952771D01*
X126364457Y-95141027D01*
X126364458Y-95141030D01*
X126422949Y-95321048D01*
X126422952Y-95321055D01*
X126517598Y-95484987D01*
X126585730Y-95560655D01*
X126644260Y-95625659D01*
X126797396Y-95736919D01*
X126797401Y-95736922D01*
X126970323Y-95813913D01*
X126970328Y-95813915D01*
X127155485Y-95853271D01*
X127155486Y-95853271D01*
X127344776Y-95853271D01*
X127344777Y-95853271D01*
X127382643Y-95845222D01*
X127452308Y-95850537D01*
X127508042Y-95892674D01*
X127515811Y-95904513D01*
X127515868Y-95904612D01*
X127642530Y-96045284D01*
X127795666Y-96156544D01*
X127795671Y-96156547D01*
X127968593Y-96233538D01*
X127968598Y-96233540D01*
X128153755Y-96272896D01*
X128153756Y-96272896D01*
X128343045Y-96272896D01*
X128343047Y-96272896D01*
X128528204Y-96233540D01*
X128701131Y-96156547D01*
X128854272Y-96045284D01*
X128980934Y-95904612D01*
X129075580Y-95740680D01*
X129134075Y-95560652D01*
X129153861Y-95372396D01*
X129134075Y-95184140D01*
X129075580Y-95004112D01*
X129067111Y-94989443D01*
X129050500Y-94927446D01*
X129050500Y-65905391D01*
X129070185Y-65838352D01*
X129082352Y-65822417D01*
X129082533Y-65822216D01*
X129177179Y-65658284D01*
X129235674Y-65478256D01*
X129255460Y-65290000D01*
X129235674Y-65101744D01*
X129177179Y-64921716D01*
X129082533Y-64757784D01*
X128955871Y-64617112D01*
X128948477Y-64611740D01*
X128802734Y-64505851D01*
X128802729Y-64505848D01*
X128629807Y-64428857D01*
X128629802Y-64428855D01*
X128484001Y-64397865D01*
X128444646Y-64389500D01*
X128444645Y-64389500D01*
X128374397Y-64389500D01*
X128307358Y-64369815D01*
X128267010Y-64327500D01*
X128232533Y-64267784D01*
X128105871Y-64127112D01*
X128076615Y-64105856D01*
X127952734Y-64015851D01*
X127952729Y-64015848D01*
X127779807Y-63938857D01*
X127779802Y-63938855D01*
X127634001Y-63907865D01*
X127594646Y-63899500D01*
X127405354Y-63899500D01*
X127372897Y-63906398D01*
X127220197Y-63938855D01*
X127220192Y-63938857D01*
X127047270Y-64015848D01*
X127047265Y-64015851D01*
X126894129Y-64127111D01*
X126767466Y-64267785D01*
X126672821Y-64431715D01*
X126672818Y-64431722D01*
X126630319Y-64562522D01*
X126614326Y-64611744D01*
X126594540Y-64800000D01*
X126614326Y-64988256D01*
X126614327Y-64988259D01*
X126672818Y-65168277D01*
X126672821Y-65168284D01*
X126767466Y-65332215D01*
X126767648Y-65332417D01*
X126767716Y-65332559D01*
X126771285Y-65337471D01*
X126770386Y-65338123D01*
X126797879Y-65395408D01*
X126799500Y-65415391D01*
X126799500Y-94103913D01*
X126779815Y-94170952D01*
X126748386Y-94204231D01*
X126644258Y-94279884D01*
X126517597Y-94420556D01*
X126422952Y-94584486D01*
X126422949Y-94584493D01*
X126364458Y-94764511D01*
X126364457Y-94764515D01*
X126344671Y-94952771D01*
X112199985Y-94952771D01*
X112199883Y-64374266D01*
X115544749Y-64374266D01*
X115564535Y-64562522D01*
X115564536Y-64562525D01*
X115623027Y-64742543D01*
X115623030Y-64742550D01*
X115717676Y-64906482D01*
X115791306Y-64988256D01*
X115844338Y-65047154D01*
X115997474Y-65158414D01*
X115997479Y-65158417D01*
X116170401Y-65235408D01*
X116170406Y-65235410D01*
X116355563Y-65274766D01*
X116355564Y-65274766D01*
X116544853Y-65274766D01*
X116544855Y-65274766D01*
X116730012Y-65235410D01*
X116902939Y-65158417D01*
X117056080Y-65047154D01*
X117182742Y-64906482D01*
X117277388Y-64742550D01*
X117335883Y-64562522D01*
X117355669Y-64374266D01*
X117335883Y-64186010D01*
X117309837Y-64105853D01*
X117307842Y-64036015D01*
X117340086Y-63979858D01*
X117814207Y-63505737D01*
X117875528Y-63472254D01*
X117945220Y-63477238D01*
X118001153Y-63519110D01*
X118009266Y-63531409D01*
X118067466Y-63632214D01*
X118067467Y-63632216D01*
X118117649Y-63687948D01*
X118147880Y-63750940D01*
X118149500Y-63770921D01*
X118149500Y-66229078D01*
X118129815Y-66296117D01*
X118117650Y-66312050D01*
X118067466Y-66367785D01*
X117972821Y-66531715D01*
X117972818Y-66531722D01*
X117914327Y-66711740D01*
X117914326Y-66711744D01*
X117894540Y-66900000D01*
X117914326Y-67088256D01*
X117914327Y-67088259D01*
X117972818Y-67268277D01*
X117972821Y-67268284D01*
X118067467Y-67432216D01*
X118194129Y-67572888D01*
X118347265Y-67684148D01*
X118347270Y-67684151D01*
X118520192Y-67761142D01*
X118520197Y-67761144D01*
X118705354Y-67800500D01*
X118705355Y-67800500D01*
X118894644Y-67800500D01*
X118894646Y-67800500D01*
X119079803Y-67761144D01*
X119252730Y-67684151D01*
X119405871Y-67572888D01*
X119532533Y-67432216D01*
X119627179Y-67268284D01*
X119685674Y-67088256D01*
X119705460Y-66900000D01*
X119685674Y-66711744D01*
X119627179Y-66531716D01*
X119532533Y-66367784D01*
X119482350Y-66312050D01*
X119452120Y-66249058D01*
X119450500Y-66229078D01*
X119450500Y-63770921D01*
X119470185Y-63703882D01*
X119482351Y-63687948D01*
X119532533Y-63632216D01*
X119627179Y-63468284D01*
X119685674Y-63288256D01*
X119705460Y-63100000D01*
X119685674Y-62911744D01*
X119627179Y-62731716D01*
X119532533Y-62567784D01*
X119411146Y-62432971D01*
X119380917Y-62369981D01*
X119389542Y-62300646D01*
X119411147Y-62267028D01*
X119532533Y-62132216D01*
X119627179Y-61968284D01*
X119685674Y-61788256D01*
X119705460Y-61600000D01*
X119685674Y-61411744D01*
X119627179Y-61231716D01*
X119532533Y-61067784D01*
X119405871Y-60927112D01*
X119405870Y-60927111D01*
X119252734Y-60815851D01*
X119252729Y-60815848D01*
X119079807Y-60738857D01*
X119079802Y-60738855D01*
X118934001Y-60707865D01*
X118894646Y-60699500D01*
X118705354Y-60699500D01*
X118672897Y-60706398D01*
X118520197Y-60738855D01*
X118520192Y-60738857D01*
X118347270Y-60815848D01*
X118347265Y-60815851D01*
X118194129Y-60927111D01*
X118067466Y-61067785D01*
X117972821Y-61231715D01*
X117972818Y-61231722D01*
X117914327Y-61411739D01*
X117914326Y-61411741D01*
X117900831Y-61540142D01*
X117874246Y-61604757D01*
X117865191Y-61614861D01*
X115944935Y-63535117D01*
X115944932Y-63535122D01*
X115880059Y-63632214D01*
X115880058Y-63632215D01*
X115880057Y-63632214D01*
X115873744Y-63641662D01*
X115873744Y-63641663D01*
X115861140Y-63672089D01*
X115838732Y-63707603D01*
X115824579Y-63723322D01*
X115717676Y-63842050D01*
X115717674Y-63842051D01*
X115717673Y-63842054D01*
X115623030Y-64005981D01*
X115623027Y-64005988D01*
X115583672Y-64127112D01*
X115564535Y-64186010D01*
X115544749Y-64374266D01*
X112199883Y-64374266D01*
X112199833Y-49423998D01*
X112219517Y-49356961D01*
X112272321Y-49311206D01*
X112323833Y-49300000D01*
X114232709Y-49300000D01*
X114299748Y-49319685D01*
G37*
G04 #@! TD.AperFunction*
M02*
