%TF.GenerationSoftware,KiCad,Pcbnew,8.0.0-rc2-494-g6bc7bcffef*%
%TF.CreationDate,2024-03-15T23:56:10+00:00*%
%TF.ProjectId,Wakeboard,57616b65-626f-4617-9264-2e6b69636164,rev?*%
%TF.SameCoordinates,Original*%
%TF.FileFunction,Drillmap*%
%TF.FilePolarity,Positive*%
%FSLAX45Y45*%
G04 Gerber Fmt 4.5, Leading zero omitted, Abs format (unit mm)*
G04 Created by KiCad (PCBNEW 8.0.0-rc2-494-g6bc7bcffef) date 2024-03-15 23:56:10*
%MOMM*%
%LPD*%
G01*
G04 APERTURE LIST*
%ADD10C,0.100000*%
%ADD11C,0.200000*%
G04 APERTURE END LIST*
D10*
X14190000Y-4375000D02*
G75*
G02*
X14430000Y-4615000I0J-240000D01*
G01*
X14320000Y-9705000D02*
G75*
G02*
X13920000Y-9705000I-200000J0D01*
G01*
X13920000Y-9705000D02*
G75*
G02*
X14320000Y-9705000I200000J0D01*
G01*
X11580000Y-9705000D02*
G75*
G02*
X11180000Y-9705000I-200000J0D01*
G01*
X11180000Y-9705000D02*
G75*
G02*
X11580000Y-9705000I200000J0D01*
G01*
X11580000Y-4685000D02*
G75*
G02*
X11180000Y-4685000I-200000J0D01*
G01*
X11180000Y-4685000D02*
G75*
G02*
X11580000Y-4685000I200000J0D01*
G01*
X14320000Y-4685000D02*
G75*
G02*
X13920000Y-4685000I-200000J0D01*
G01*
X13920000Y-4685000D02*
G75*
G02*
X14320000Y-4685000I200000J0D01*
G01*
X11070000Y-9775000D02*
X11070000Y-8905000D01*
X11070000Y-8385000D02*
X11069704Y-4614703D01*
X11180000Y-8495000D02*
X11070000Y-8385000D01*
X11180000Y-8795000D02*
X11070000Y-8905000D01*
X11180000Y-8495000D02*
X11180000Y-8795000D01*
X14320000Y-5970000D02*
X14320000Y-6270000D01*
X13520000Y-4850000D02*
X11980000Y-4850000D01*
X14430000Y-4615000D02*
X14430000Y-5860000D01*
X14430000Y-6380000D02*
X14430000Y-9775000D01*
X14430000Y-5860000D02*
X14320000Y-5970000D01*
X11310000Y-10015000D02*
G75*
G02*
X11069996Y-9775000I0J240004D01*
G01*
X11980000Y-4850000D02*
X11980000Y-4375000D01*
X14430000Y-9775000D02*
G75*
G02*
X14190000Y-10015000I-240000J0D01*
G01*
X11069704Y-4614703D02*
G75*
G02*
X11309704Y-4374707I240000J-4D01*
G01*
X11310000Y-10015000D02*
X14190000Y-10015000D01*
X13520000Y-4375000D02*
X14190000Y-4375000D01*
X11980000Y-4375000D02*
X11310000Y-4375000D01*
X13520000Y-4375000D02*
X13520000Y-4850000D01*
X14320000Y-6270000D02*
X14430000Y-6380000D01*
D11*
D10*
X12428500Y-9506500D02*
X12493500Y-9571500D01*
X12493500Y-9506500D02*
X12428500Y-9571500D01*
X13006500Y-9506500D02*
X13071500Y-9571500D01*
X13071500Y-9506500D02*
X13006500Y-9571500D01*
D11*
X11325481Y-10331484D02*
X11325481Y-10131484D01*
X11325481Y-10131484D02*
X11373100Y-10131484D01*
X11373100Y-10131484D02*
X11401671Y-10141008D01*
X11401671Y-10141008D02*
X11420719Y-10160055D01*
X11420719Y-10160055D02*
X11430243Y-10179103D01*
X11430243Y-10179103D02*
X11439767Y-10217198D01*
X11439767Y-10217198D02*
X11439767Y-10245770D01*
X11439767Y-10245770D02*
X11430243Y-10283865D01*
X11430243Y-10283865D02*
X11420719Y-10302912D01*
X11420719Y-10302912D02*
X11401671Y-10321960D01*
X11401671Y-10321960D02*
X11373100Y-10331484D01*
X11373100Y-10331484D02*
X11325481Y-10331484D01*
X11525481Y-10331484D02*
X11525481Y-10198150D01*
X11525481Y-10236246D02*
X11535005Y-10217198D01*
X11535005Y-10217198D02*
X11544528Y-10207674D01*
X11544528Y-10207674D02*
X11563576Y-10198150D01*
X11563576Y-10198150D02*
X11582624Y-10198150D01*
X11649290Y-10331484D02*
X11649290Y-10198150D01*
X11649290Y-10131484D02*
X11639767Y-10141008D01*
X11639767Y-10141008D02*
X11649290Y-10150531D01*
X11649290Y-10150531D02*
X11658814Y-10141008D01*
X11658814Y-10141008D02*
X11649290Y-10131484D01*
X11649290Y-10131484D02*
X11649290Y-10150531D01*
X11773100Y-10331484D02*
X11754052Y-10321960D01*
X11754052Y-10321960D02*
X11744528Y-10302912D01*
X11744528Y-10302912D02*
X11744528Y-10131484D01*
X11877862Y-10331484D02*
X11858814Y-10321960D01*
X11858814Y-10321960D02*
X11849290Y-10302912D01*
X11849290Y-10302912D02*
X11849290Y-10131484D01*
X12106433Y-10331484D02*
X12106433Y-10131484D01*
X12106433Y-10131484D02*
X12173100Y-10274341D01*
X12173100Y-10274341D02*
X12239767Y-10131484D01*
X12239767Y-10131484D02*
X12239767Y-10331484D01*
X12420719Y-10331484D02*
X12420719Y-10226722D01*
X12420719Y-10226722D02*
X12411195Y-10207674D01*
X12411195Y-10207674D02*
X12392148Y-10198150D01*
X12392148Y-10198150D02*
X12354052Y-10198150D01*
X12354052Y-10198150D02*
X12335005Y-10207674D01*
X12420719Y-10321960D02*
X12401671Y-10331484D01*
X12401671Y-10331484D02*
X12354052Y-10331484D01*
X12354052Y-10331484D02*
X12335005Y-10321960D01*
X12335005Y-10321960D02*
X12325481Y-10302912D01*
X12325481Y-10302912D02*
X12325481Y-10283865D01*
X12325481Y-10283865D02*
X12335005Y-10264817D01*
X12335005Y-10264817D02*
X12354052Y-10255293D01*
X12354052Y-10255293D02*
X12401671Y-10255293D01*
X12401671Y-10255293D02*
X12420719Y-10245770D01*
X12515957Y-10198150D02*
X12515957Y-10398150D01*
X12515957Y-10207674D02*
X12535005Y-10198150D01*
X12535005Y-10198150D02*
X12573100Y-10198150D01*
X12573100Y-10198150D02*
X12592148Y-10207674D01*
X12592148Y-10207674D02*
X12601671Y-10217198D01*
X12601671Y-10217198D02*
X12611195Y-10236246D01*
X12611195Y-10236246D02*
X12611195Y-10293389D01*
X12611195Y-10293389D02*
X12601671Y-10312436D01*
X12601671Y-10312436D02*
X12592148Y-10321960D01*
X12592148Y-10321960D02*
X12573100Y-10331484D01*
X12573100Y-10331484D02*
X12535005Y-10331484D01*
X12535005Y-10331484D02*
X12515957Y-10321960D01*
X12696909Y-10312436D02*
X12706433Y-10321960D01*
X12706433Y-10321960D02*
X12696909Y-10331484D01*
X12696909Y-10331484D02*
X12687386Y-10321960D01*
X12687386Y-10321960D02*
X12696909Y-10312436D01*
X12696909Y-10312436D02*
X12696909Y-10331484D01*
X12696909Y-10207674D02*
X12706433Y-10217198D01*
X12706433Y-10217198D02*
X12696909Y-10226722D01*
X12696909Y-10226722D02*
X12687386Y-10217198D01*
X12687386Y-10217198D02*
X12696909Y-10207674D01*
X12696909Y-10207674D02*
X12696909Y-10226722D01*
D10*
X10999704Y-10627500D02*
X11064704Y-10692500D01*
X11064704Y-10627500D02*
X10999704Y-10692500D01*
D11*
X11363576Y-10551484D02*
X11382624Y-10551484D01*
X11382624Y-10551484D02*
X11401671Y-10561008D01*
X11401671Y-10561008D02*
X11411195Y-10570531D01*
X11411195Y-10570531D02*
X11420719Y-10589579D01*
X11420719Y-10589579D02*
X11430243Y-10627674D01*
X11430243Y-10627674D02*
X11430243Y-10675293D01*
X11430243Y-10675293D02*
X11420719Y-10713389D01*
X11420719Y-10713389D02*
X11411195Y-10732436D01*
X11411195Y-10732436D02*
X11401671Y-10741960D01*
X11401671Y-10741960D02*
X11382624Y-10751484D01*
X11382624Y-10751484D02*
X11363576Y-10751484D01*
X11363576Y-10751484D02*
X11344528Y-10741960D01*
X11344528Y-10741960D02*
X11335005Y-10732436D01*
X11335005Y-10732436D02*
X11325481Y-10713389D01*
X11325481Y-10713389D02*
X11315957Y-10675293D01*
X11315957Y-10675293D02*
X11315957Y-10627674D01*
X11315957Y-10627674D02*
X11325481Y-10589579D01*
X11325481Y-10589579D02*
X11335005Y-10570531D01*
X11335005Y-10570531D02*
X11344528Y-10561008D01*
X11344528Y-10561008D02*
X11363576Y-10551484D01*
X11515957Y-10732436D02*
X11525481Y-10741960D01*
X11525481Y-10741960D02*
X11515957Y-10751484D01*
X11515957Y-10751484D02*
X11506433Y-10741960D01*
X11506433Y-10741960D02*
X11515957Y-10732436D01*
X11515957Y-10732436D02*
X11515957Y-10751484D01*
X11696909Y-10551484D02*
X11658814Y-10551484D01*
X11658814Y-10551484D02*
X11639767Y-10561008D01*
X11639767Y-10561008D02*
X11630243Y-10570531D01*
X11630243Y-10570531D02*
X11611195Y-10599103D01*
X11611195Y-10599103D02*
X11601671Y-10637198D01*
X11601671Y-10637198D02*
X11601671Y-10713389D01*
X11601671Y-10713389D02*
X11611195Y-10732436D01*
X11611195Y-10732436D02*
X11620719Y-10741960D01*
X11620719Y-10741960D02*
X11639767Y-10751484D01*
X11639767Y-10751484D02*
X11677862Y-10751484D01*
X11677862Y-10751484D02*
X11696909Y-10741960D01*
X11696909Y-10741960D02*
X11706433Y-10732436D01*
X11706433Y-10732436D02*
X11715957Y-10713389D01*
X11715957Y-10713389D02*
X11715957Y-10665770D01*
X11715957Y-10665770D02*
X11706433Y-10646722D01*
X11706433Y-10646722D02*
X11696909Y-10637198D01*
X11696909Y-10637198D02*
X11677862Y-10627674D01*
X11677862Y-10627674D02*
X11639767Y-10627674D01*
X11639767Y-10627674D02*
X11620719Y-10637198D01*
X11620719Y-10637198D02*
X11611195Y-10646722D01*
X11611195Y-10646722D02*
X11601671Y-10665770D01*
X11896909Y-10551484D02*
X11801671Y-10551484D01*
X11801671Y-10551484D02*
X11792148Y-10646722D01*
X11792148Y-10646722D02*
X11801671Y-10637198D01*
X11801671Y-10637198D02*
X11820719Y-10627674D01*
X11820719Y-10627674D02*
X11868338Y-10627674D01*
X11868338Y-10627674D02*
X11887386Y-10637198D01*
X11887386Y-10637198D02*
X11896909Y-10646722D01*
X11896909Y-10646722D02*
X11906433Y-10665770D01*
X11906433Y-10665770D02*
X11906433Y-10713389D01*
X11906433Y-10713389D02*
X11896909Y-10732436D01*
X11896909Y-10732436D02*
X11887386Y-10741960D01*
X11887386Y-10741960D02*
X11868338Y-10751484D01*
X11868338Y-10751484D02*
X11820719Y-10751484D01*
X11820719Y-10751484D02*
X11801671Y-10741960D01*
X11801671Y-10741960D02*
X11792148Y-10732436D01*
X12030243Y-10551484D02*
X12049290Y-10551484D01*
X12049290Y-10551484D02*
X12068338Y-10561008D01*
X12068338Y-10561008D02*
X12077862Y-10570531D01*
X12077862Y-10570531D02*
X12087386Y-10589579D01*
X12087386Y-10589579D02*
X12096909Y-10627674D01*
X12096909Y-10627674D02*
X12096909Y-10675293D01*
X12096909Y-10675293D02*
X12087386Y-10713389D01*
X12087386Y-10713389D02*
X12077862Y-10732436D01*
X12077862Y-10732436D02*
X12068338Y-10741960D01*
X12068338Y-10741960D02*
X12049290Y-10751484D01*
X12049290Y-10751484D02*
X12030243Y-10751484D01*
X12030243Y-10751484D02*
X12011195Y-10741960D01*
X12011195Y-10741960D02*
X12001671Y-10732436D01*
X12001671Y-10732436D02*
X11992148Y-10713389D01*
X11992148Y-10713389D02*
X11982624Y-10675293D01*
X11982624Y-10675293D02*
X11982624Y-10627674D01*
X11982624Y-10627674D02*
X11992148Y-10589579D01*
X11992148Y-10589579D02*
X12001671Y-10570531D01*
X12001671Y-10570531D02*
X12011195Y-10561008D01*
X12011195Y-10561008D02*
X12030243Y-10551484D01*
X12182624Y-10751484D02*
X12182624Y-10618150D01*
X12182624Y-10637198D02*
X12192148Y-10627674D01*
X12192148Y-10627674D02*
X12211195Y-10618150D01*
X12211195Y-10618150D02*
X12239767Y-10618150D01*
X12239767Y-10618150D02*
X12258814Y-10627674D01*
X12258814Y-10627674D02*
X12268338Y-10646722D01*
X12268338Y-10646722D02*
X12268338Y-10751484D01*
X12268338Y-10646722D02*
X12277862Y-10627674D01*
X12277862Y-10627674D02*
X12296909Y-10618150D01*
X12296909Y-10618150D02*
X12325481Y-10618150D01*
X12325481Y-10618150D02*
X12344529Y-10627674D01*
X12344529Y-10627674D02*
X12354052Y-10646722D01*
X12354052Y-10646722D02*
X12354052Y-10751484D01*
X12449290Y-10751484D02*
X12449290Y-10618150D01*
X12449290Y-10637198D02*
X12458814Y-10627674D01*
X12458814Y-10627674D02*
X12477862Y-10618150D01*
X12477862Y-10618150D02*
X12506433Y-10618150D01*
X12506433Y-10618150D02*
X12525481Y-10627674D01*
X12525481Y-10627674D02*
X12535005Y-10646722D01*
X12535005Y-10646722D02*
X12535005Y-10751484D01*
X12535005Y-10646722D02*
X12544529Y-10627674D01*
X12544529Y-10627674D02*
X12563576Y-10618150D01*
X12563576Y-10618150D02*
X12592148Y-10618150D01*
X12592148Y-10618150D02*
X12611195Y-10627674D01*
X12611195Y-10627674D02*
X12620719Y-10646722D01*
X12620719Y-10646722D02*
X12620719Y-10751484D01*
X13011195Y-10541960D02*
X12839767Y-10799103D01*
X13268338Y-10551484D02*
X13287386Y-10551484D01*
X13287386Y-10551484D02*
X13306433Y-10561008D01*
X13306433Y-10561008D02*
X13315957Y-10570531D01*
X13315957Y-10570531D02*
X13325481Y-10589579D01*
X13325481Y-10589579D02*
X13335005Y-10627674D01*
X13335005Y-10627674D02*
X13335005Y-10675293D01*
X13335005Y-10675293D02*
X13325481Y-10713389D01*
X13325481Y-10713389D02*
X13315957Y-10732436D01*
X13315957Y-10732436D02*
X13306433Y-10741960D01*
X13306433Y-10741960D02*
X13287386Y-10751484D01*
X13287386Y-10751484D02*
X13268338Y-10751484D01*
X13268338Y-10751484D02*
X13249291Y-10741960D01*
X13249291Y-10741960D02*
X13239767Y-10732436D01*
X13239767Y-10732436D02*
X13230243Y-10713389D01*
X13230243Y-10713389D02*
X13220719Y-10675293D01*
X13220719Y-10675293D02*
X13220719Y-10627674D01*
X13220719Y-10627674D02*
X13230243Y-10589579D01*
X13230243Y-10589579D02*
X13239767Y-10570531D01*
X13239767Y-10570531D02*
X13249291Y-10561008D01*
X13249291Y-10561008D02*
X13268338Y-10551484D01*
X13420719Y-10732436D02*
X13430243Y-10741960D01*
X13430243Y-10741960D02*
X13420719Y-10751484D01*
X13420719Y-10751484D02*
X13411195Y-10741960D01*
X13411195Y-10741960D02*
X13420719Y-10732436D01*
X13420719Y-10732436D02*
X13420719Y-10751484D01*
X13554052Y-10551484D02*
X13573100Y-10551484D01*
X13573100Y-10551484D02*
X13592148Y-10561008D01*
X13592148Y-10561008D02*
X13601672Y-10570531D01*
X13601672Y-10570531D02*
X13611195Y-10589579D01*
X13611195Y-10589579D02*
X13620719Y-10627674D01*
X13620719Y-10627674D02*
X13620719Y-10675293D01*
X13620719Y-10675293D02*
X13611195Y-10713389D01*
X13611195Y-10713389D02*
X13601672Y-10732436D01*
X13601672Y-10732436D02*
X13592148Y-10741960D01*
X13592148Y-10741960D02*
X13573100Y-10751484D01*
X13573100Y-10751484D02*
X13554052Y-10751484D01*
X13554052Y-10751484D02*
X13535005Y-10741960D01*
X13535005Y-10741960D02*
X13525481Y-10732436D01*
X13525481Y-10732436D02*
X13515957Y-10713389D01*
X13515957Y-10713389D02*
X13506433Y-10675293D01*
X13506433Y-10675293D02*
X13506433Y-10627674D01*
X13506433Y-10627674D02*
X13515957Y-10589579D01*
X13515957Y-10589579D02*
X13525481Y-10570531D01*
X13525481Y-10570531D02*
X13535005Y-10561008D01*
X13535005Y-10561008D02*
X13554052Y-10551484D01*
X13696910Y-10570531D02*
X13706433Y-10561008D01*
X13706433Y-10561008D02*
X13725481Y-10551484D01*
X13725481Y-10551484D02*
X13773100Y-10551484D01*
X13773100Y-10551484D02*
X13792148Y-10561008D01*
X13792148Y-10561008D02*
X13801672Y-10570531D01*
X13801672Y-10570531D02*
X13811195Y-10589579D01*
X13811195Y-10589579D02*
X13811195Y-10608627D01*
X13811195Y-10608627D02*
X13801672Y-10637198D01*
X13801672Y-10637198D02*
X13687386Y-10751484D01*
X13687386Y-10751484D02*
X13811195Y-10751484D01*
X13992148Y-10551484D02*
X13896910Y-10551484D01*
X13896910Y-10551484D02*
X13887386Y-10646722D01*
X13887386Y-10646722D02*
X13896910Y-10637198D01*
X13896910Y-10637198D02*
X13915957Y-10627674D01*
X13915957Y-10627674D02*
X13963576Y-10627674D01*
X13963576Y-10627674D02*
X13982624Y-10637198D01*
X13982624Y-10637198D02*
X13992148Y-10646722D01*
X13992148Y-10646722D02*
X14001672Y-10665770D01*
X14001672Y-10665770D02*
X14001672Y-10713389D01*
X14001672Y-10713389D02*
X13992148Y-10732436D01*
X13992148Y-10732436D02*
X13982624Y-10741960D01*
X13982624Y-10741960D02*
X13963576Y-10751484D01*
X13963576Y-10751484D02*
X13915957Y-10751484D01*
X13915957Y-10751484D02*
X13896910Y-10741960D01*
X13896910Y-10741960D02*
X13887386Y-10732436D01*
X14173100Y-10551484D02*
X14135005Y-10551484D01*
X14135005Y-10551484D02*
X14115957Y-10561008D01*
X14115957Y-10561008D02*
X14106433Y-10570531D01*
X14106433Y-10570531D02*
X14087386Y-10599103D01*
X14087386Y-10599103D02*
X14077862Y-10637198D01*
X14077862Y-10637198D02*
X14077862Y-10713389D01*
X14077862Y-10713389D02*
X14087386Y-10732436D01*
X14087386Y-10732436D02*
X14096910Y-10741960D01*
X14096910Y-10741960D02*
X14115957Y-10751484D01*
X14115957Y-10751484D02*
X14154053Y-10751484D01*
X14154053Y-10751484D02*
X14173100Y-10741960D01*
X14173100Y-10741960D02*
X14182624Y-10732436D01*
X14182624Y-10732436D02*
X14192148Y-10713389D01*
X14192148Y-10713389D02*
X14192148Y-10665770D01*
X14192148Y-10665770D02*
X14182624Y-10646722D01*
X14182624Y-10646722D02*
X14173100Y-10637198D01*
X14173100Y-10637198D02*
X14154053Y-10627674D01*
X14154053Y-10627674D02*
X14115957Y-10627674D01*
X14115957Y-10627674D02*
X14096910Y-10637198D01*
X14096910Y-10637198D02*
X14087386Y-10646722D01*
X14087386Y-10646722D02*
X14077862Y-10665770D01*
X14268338Y-10551484D02*
X14268338Y-10589579D01*
X14344529Y-10551484D02*
X14344529Y-10589579D01*
X14639767Y-10827674D02*
X14630243Y-10818150D01*
X14630243Y-10818150D02*
X14611195Y-10789579D01*
X14611195Y-10789579D02*
X14601672Y-10770531D01*
X14601672Y-10770531D02*
X14592148Y-10741960D01*
X14592148Y-10741960D02*
X14582624Y-10694341D01*
X14582624Y-10694341D02*
X14582624Y-10656246D01*
X14582624Y-10656246D02*
X14592148Y-10608627D01*
X14592148Y-10608627D02*
X14601672Y-10580055D01*
X14601672Y-10580055D02*
X14611195Y-10561008D01*
X14611195Y-10561008D02*
X14630243Y-10532436D01*
X14630243Y-10532436D02*
X14639767Y-10522912D01*
X14706434Y-10570531D02*
X14715957Y-10561008D01*
X14715957Y-10561008D02*
X14735005Y-10551484D01*
X14735005Y-10551484D02*
X14782624Y-10551484D01*
X14782624Y-10551484D02*
X14801672Y-10561008D01*
X14801672Y-10561008D02*
X14811195Y-10570531D01*
X14811195Y-10570531D02*
X14820719Y-10589579D01*
X14820719Y-10589579D02*
X14820719Y-10608627D01*
X14820719Y-10608627D02*
X14811195Y-10637198D01*
X14811195Y-10637198D02*
X14696910Y-10751484D01*
X14696910Y-10751484D02*
X14820719Y-10751484D01*
X15058815Y-10751484D02*
X15058815Y-10551484D01*
X15144529Y-10751484D02*
X15144529Y-10646722D01*
X15144529Y-10646722D02*
X15135005Y-10627674D01*
X15135005Y-10627674D02*
X15115957Y-10618150D01*
X15115957Y-10618150D02*
X15087386Y-10618150D01*
X15087386Y-10618150D02*
X15068338Y-10627674D01*
X15068338Y-10627674D02*
X15058815Y-10637198D01*
X15268338Y-10751484D02*
X15249291Y-10741960D01*
X15249291Y-10741960D02*
X15239767Y-10732436D01*
X15239767Y-10732436D02*
X15230243Y-10713389D01*
X15230243Y-10713389D02*
X15230243Y-10656246D01*
X15230243Y-10656246D02*
X15239767Y-10637198D01*
X15239767Y-10637198D02*
X15249291Y-10627674D01*
X15249291Y-10627674D02*
X15268338Y-10618150D01*
X15268338Y-10618150D02*
X15296910Y-10618150D01*
X15296910Y-10618150D02*
X15315957Y-10627674D01*
X15315957Y-10627674D02*
X15325481Y-10637198D01*
X15325481Y-10637198D02*
X15335005Y-10656246D01*
X15335005Y-10656246D02*
X15335005Y-10713389D01*
X15335005Y-10713389D02*
X15325481Y-10732436D01*
X15325481Y-10732436D02*
X15315957Y-10741960D01*
X15315957Y-10741960D02*
X15296910Y-10751484D01*
X15296910Y-10751484D02*
X15268338Y-10751484D01*
X15449291Y-10751484D02*
X15430243Y-10741960D01*
X15430243Y-10741960D02*
X15420719Y-10722912D01*
X15420719Y-10722912D02*
X15420719Y-10551484D01*
X15601672Y-10741960D02*
X15582624Y-10751484D01*
X15582624Y-10751484D02*
X15544529Y-10751484D01*
X15544529Y-10751484D02*
X15525481Y-10741960D01*
X15525481Y-10741960D02*
X15515957Y-10722912D01*
X15515957Y-10722912D02*
X15515957Y-10646722D01*
X15515957Y-10646722D02*
X15525481Y-10627674D01*
X15525481Y-10627674D02*
X15544529Y-10618150D01*
X15544529Y-10618150D02*
X15582624Y-10618150D01*
X15582624Y-10618150D02*
X15601672Y-10627674D01*
X15601672Y-10627674D02*
X15611196Y-10646722D01*
X15611196Y-10646722D02*
X15611196Y-10665770D01*
X15611196Y-10665770D02*
X15515957Y-10684817D01*
X15687386Y-10741960D02*
X15706434Y-10751484D01*
X15706434Y-10751484D02*
X15744529Y-10751484D01*
X15744529Y-10751484D02*
X15763577Y-10741960D01*
X15763577Y-10741960D02*
X15773100Y-10722912D01*
X15773100Y-10722912D02*
X15773100Y-10713389D01*
X15773100Y-10713389D02*
X15763577Y-10694341D01*
X15763577Y-10694341D02*
X15744529Y-10684817D01*
X15744529Y-10684817D02*
X15715957Y-10684817D01*
X15715957Y-10684817D02*
X15696910Y-10675293D01*
X15696910Y-10675293D02*
X15687386Y-10656246D01*
X15687386Y-10656246D02*
X15687386Y-10646722D01*
X15687386Y-10646722D02*
X15696910Y-10627674D01*
X15696910Y-10627674D02*
X15715957Y-10618150D01*
X15715957Y-10618150D02*
X15744529Y-10618150D01*
X15744529Y-10618150D02*
X15763577Y-10627674D01*
X15839767Y-10827674D02*
X15849291Y-10818150D01*
X15849291Y-10818150D02*
X15868338Y-10789579D01*
X15868338Y-10789579D02*
X15877862Y-10770531D01*
X15877862Y-10770531D02*
X15887386Y-10741960D01*
X15887386Y-10741960D02*
X15896910Y-10694341D01*
X15896910Y-10694341D02*
X15896910Y-10656246D01*
X15896910Y-10656246D02*
X15887386Y-10608627D01*
X15887386Y-10608627D02*
X15877862Y-10580055D01*
X15877862Y-10580055D02*
X15868338Y-10561008D01*
X15868338Y-10561008D02*
X15849291Y-10532436D01*
X15849291Y-10532436D02*
X15839767Y-10522912D01*
X16201672Y-10827674D02*
X16192148Y-10818150D01*
X16192148Y-10818150D02*
X16173100Y-10789579D01*
X16173100Y-10789579D02*
X16163577Y-10770531D01*
X16163577Y-10770531D02*
X16154053Y-10741960D01*
X16154053Y-10741960D02*
X16144529Y-10694341D01*
X16144529Y-10694341D02*
X16144529Y-10656246D01*
X16144529Y-10656246D02*
X16154053Y-10608627D01*
X16154053Y-10608627D02*
X16163577Y-10580055D01*
X16163577Y-10580055D02*
X16173100Y-10561008D01*
X16173100Y-10561008D02*
X16192148Y-10532436D01*
X16192148Y-10532436D02*
X16201672Y-10522912D01*
X16277862Y-10618150D02*
X16277862Y-10751484D01*
X16277862Y-10637198D02*
X16287386Y-10627674D01*
X16287386Y-10627674D02*
X16306434Y-10618150D01*
X16306434Y-10618150D02*
X16335005Y-10618150D01*
X16335005Y-10618150D02*
X16354053Y-10627674D01*
X16354053Y-10627674D02*
X16363577Y-10646722D01*
X16363577Y-10646722D02*
X16363577Y-10751484D01*
X16487386Y-10751484D02*
X16468338Y-10741960D01*
X16468338Y-10741960D02*
X16458815Y-10732436D01*
X16458815Y-10732436D02*
X16449291Y-10713389D01*
X16449291Y-10713389D02*
X16449291Y-10656246D01*
X16449291Y-10656246D02*
X16458815Y-10637198D01*
X16458815Y-10637198D02*
X16468338Y-10627674D01*
X16468338Y-10627674D02*
X16487386Y-10618150D01*
X16487386Y-10618150D02*
X16515958Y-10618150D01*
X16515958Y-10618150D02*
X16535005Y-10627674D01*
X16535005Y-10627674D02*
X16544529Y-10637198D01*
X16544529Y-10637198D02*
X16554053Y-10656246D01*
X16554053Y-10656246D02*
X16554053Y-10713389D01*
X16554053Y-10713389D02*
X16544529Y-10732436D01*
X16544529Y-10732436D02*
X16535005Y-10741960D01*
X16535005Y-10741960D02*
X16515958Y-10751484D01*
X16515958Y-10751484D02*
X16487386Y-10751484D01*
X16611196Y-10618150D02*
X16687386Y-10618150D01*
X16639767Y-10551484D02*
X16639767Y-10722912D01*
X16639767Y-10722912D02*
X16649291Y-10741960D01*
X16649291Y-10741960D02*
X16668338Y-10751484D01*
X16668338Y-10751484D02*
X16687386Y-10751484D01*
X16906434Y-10618150D02*
X16906434Y-10818150D01*
X16906434Y-10627674D02*
X16925481Y-10618150D01*
X16925481Y-10618150D02*
X16963577Y-10618150D01*
X16963577Y-10618150D02*
X16982624Y-10627674D01*
X16982624Y-10627674D02*
X16992148Y-10637198D01*
X16992148Y-10637198D02*
X17001672Y-10656246D01*
X17001672Y-10656246D02*
X17001672Y-10713389D01*
X17001672Y-10713389D02*
X16992148Y-10732436D01*
X16992148Y-10732436D02*
X16982624Y-10741960D01*
X16982624Y-10741960D02*
X16963577Y-10751484D01*
X16963577Y-10751484D02*
X16925481Y-10751484D01*
X16925481Y-10751484D02*
X16906434Y-10741960D01*
X17115958Y-10751484D02*
X17096910Y-10741960D01*
X17096910Y-10741960D02*
X17087386Y-10722912D01*
X17087386Y-10722912D02*
X17087386Y-10551484D01*
X17277862Y-10751484D02*
X17277862Y-10646722D01*
X17277862Y-10646722D02*
X17268339Y-10627674D01*
X17268339Y-10627674D02*
X17249291Y-10618150D01*
X17249291Y-10618150D02*
X17211196Y-10618150D01*
X17211196Y-10618150D02*
X17192148Y-10627674D01*
X17277862Y-10741960D02*
X17258815Y-10751484D01*
X17258815Y-10751484D02*
X17211196Y-10751484D01*
X17211196Y-10751484D02*
X17192148Y-10741960D01*
X17192148Y-10741960D02*
X17182624Y-10722912D01*
X17182624Y-10722912D02*
X17182624Y-10703865D01*
X17182624Y-10703865D02*
X17192148Y-10684817D01*
X17192148Y-10684817D02*
X17211196Y-10675293D01*
X17211196Y-10675293D02*
X17258815Y-10675293D01*
X17258815Y-10675293D02*
X17277862Y-10665770D01*
X17344529Y-10618150D02*
X17420720Y-10618150D01*
X17373101Y-10551484D02*
X17373101Y-10722912D01*
X17373101Y-10722912D02*
X17382624Y-10741960D01*
X17382624Y-10741960D02*
X17401672Y-10751484D01*
X17401672Y-10751484D02*
X17420720Y-10751484D01*
X17563577Y-10741960D02*
X17544529Y-10751484D01*
X17544529Y-10751484D02*
X17506434Y-10751484D01*
X17506434Y-10751484D02*
X17487386Y-10741960D01*
X17487386Y-10741960D02*
X17477862Y-10722912D01*
X17477862Y-10722912D02*
X17477862Y-10646722D01*
X17477862Y-10646722D02*
X17487386Y-10627674D01*
X17487386Y-10627674D02*
X17506434Y-10618150D01*
X17506434Y-10618150D02*
X17544529Y-10618150D01*
X17544529Y-10618150D02*
X17563577Y-10627674D01*
X17563577Y-10627674D02*
X17573101Y-10646722D01*
X17573101Y-10646722D02*
X17573101Y-10665770D01*
X17573101Y-10665770D02*
X17477862Y-10684817D01*
X17744529Y-10751484D02*
X17744529Y-10551484D01*
X17744529Y-10741960D02*
X17725482Y-10751484D01*
X17725482Y-10751484D02*
X17687386Y-10751484D01*
X17687386Y-10751484D02*
X17668339Y-10741960D01*
X17668339Y-10741960D02*
X17658815Y-10732436D01*
X17658815Y-10732436D02*
X17649291Y-10713389D01*
X17649291Y-10713389D02*
X17649291Y-10656246D01*
X17649291Y-10656246D02*
X17658815Y-10637198D01*
X17658815Y-10637198D02*
X17668339Y-10627674D01*
X17668339Y-10627674D02*
X17687386Y-10618150D01*
X17687386Y-10618150D02*
X17725482Y-10618150D01*
X17725482Y-10618150D02*
X17744529Y-10627674D01*
X17820720Y-10827674D02*
X17830243Y-10818150D01*
X17830243Y-10818150D02*
X17849291Y-10789579D01*
X17849291Y-10789579D02*
X17858815Y-10770531D01*
X17858815Y-10770531D02*
X17868339Y-10741960D01*
X17868339Y-10741960D02*
X17877862Y-10694341D01*
X17877862Y-10694341D02*
X17877862Y-10656246D01*
X17877862Y-10656246D02*
X17868339Y-10608627D01*
X17868339Y-10608627D02*
X17858815Y-10580055D01*
X17858815Y-10580055D02*
X17849291Y-10561008D01*
X17849291Y-10561008D02*
X17830243Y-10532436D01*
X17830243Y-10532436D02*
X17820720Y-10522912D01*
M02*
