G04 #@! TF.GenerationSoftware,KiCad,Pcbnew,8.0.0-rc2-494-g6bc7bcffef*
G04 #@! TF.CreationDate,2024-02-15T01:57:03+00:00*
G04 #@! TF.ProjectId,Wakeboard,57616b65-626f-4617-9264-2e6b69636164,rev?*
G04 #@! TF.SameCoordinates,Original*
G04 #@! TF.FileFunction,Legend,Top*
G04 #@! TF.FilePolarity,Positive*
%FSLAX46Y46*%
G04 Gerber Fmt 4.6, Leading zero omitted, Abs format (unit mm)*
G04 Created by KiCad (PCBNEW 8.0.0-rc2-494-g6bc7bcffef) date 2024-02-15 01:57:03*
%MOMM*%
%LPD*%
G01*
G04 APERTURE LIST*
G04 Aperture macros list*
%AMRoundRect*
0 Rectangle with rounded corners*
0 $1 Rounding radius*
0 $2 $3 $4 $5 $6 $7 $8 $9 X,Y pos of 4 corners*
0 Add a 4 corners polygon primitive as box body*
4,1,4,$2,$3,$4,$5,$6,$7,$8,$9,$2,$3,0*
0 Add four circle primitives for the rounded corners*
1,1,$1+$1,$2,$3*
1,1,$1+$1,$4,$5*
1,1,$1+$1,$6,$7*
1,1,$1+$1,$8,$9*
0 Add four rect primitives between the rounded corners*
20,1,$1+$1,$2,$3,$4,$5,0*
20,1,$1+$1,$4,$5,$6,$7,0*
20,1,$1+$1,$6,$7,$8,$9,0*
20,1,$1+$1,$8,$9,$2,$3,0*%
%AMOutline5P*
0 Free polygon, 5 corners , with rotation*
0 The origin of the aperture is its center*
0 number of corners: always 5*
0 $1 to $10 corner X, Y*
0 $11 Rotation angle, in degrees counterclockwise*
0 create outline with 5 corners*
4,1,5,$1,$2,$3,$4,$5,$6,$7,$8,$9,$10,$1,$2,$11*%
%AMOutline6P*
0 Free polygon, 6 corners , with rotation*
0 The origin of the aperture is its center*
0 number of corners: always 6*
0 $1 to $12 corner X, Y*
0 $13 Rotation angle, in degrees counterclockwise*
0 create outline with 6 corners*
4,1,6,$1,$2,$3,$4,$5,$6,$7,$8,$9,$10,$11,$12,$1,$2,$13*%
%AMOutline7P*
0 Free polygon, 7 corners , with rotation*
0 The origin of the aperture is its center*
0 number of corners: always 7*
0 $1 to $14 corner X, Y*
0 $15 Rotation angle, in degrees counterclockwise*
0 create outline with 7 corners*
4,1,7,$1,$2,$3,$4,$5,$6,$7,$8,$9,$10,$11,$12,$13,$14,$1,$2,$15*%
%AMOutline8P*
0 Free polygon, 8 corners , with rotation*
0 The origin of the aperture is its center*
0 number of corners: always 8*
0 $1 to $16 corner X, Y*
0 $17 Rotation angle, in degrees counterclockwise*
0 create outline with 8 corners*
4,1,8,$1,$2,$3,$4,$5,$6,$7,$8,$9,$10,$11,$12,$13,$14,$15,$16,$1,$2,$17*%
G04 Aperture macros list end*
%ADD10C,0.300000*%
%ADD11C,0.150000*%
%ADD12C,0.158750*%
%ADD13C,0.120000*%
%ADD14C,0.250000*%
%ADD15C,0.200000*%
%ADD16RoundRect,0.250000X-0.450000X0.262500X-0.450000X-0.262500X0.450000X-0.262500X0.450000X0.262500X0*%
%ADD17C,1.500000*%
%ADD18RoundRect,0.250000X-0.262500X-0.450000X0.262500X-0.450000X0.262500X0.450000X-0.262500X0.450000X0*%
%ADD19R,0.800000X0.400000*%
%ADD20R,0.400000X0.800000*%
%ADD21Outline5P,-0.600000X0.204000X-0.204000X0.600000X0.600000X0.600000X0.600000X-0.600000X-0.600000X-0.600000X0.000000*%
%ADD22R,1.200000X1.200000*%
%ADD23R,0.800000X0.800000*%
%ADD24R,1.250000X0.700000*%
%ADD25C,0.650000*%
%ADD26RoundRect,0.150000X-0.150000X-0.500000X0.150000X-0.500000X0.150000X0.500000X-0.150000X0.500000X0*%
%ADD27RoundRect,0.075000X-0.075000X-0.575000X0.075000X-0.575000X0.075000X0.575000X-0.075000X0.575000X0*%
%ADD28O,1.000000X2.100000*%
%ADD29O,1.000000X1.600000*%
%ADD30R,1.360000X1.230000*%
%ADD31RoundRect,0.250000X-0.250000X-0.475000X0.250000X-0.475000X0.250000X0.475000X-0.250000X0.475000X0*%
%ADD32RoundRect,0.250000X0.250000X0.475000X-0.250000X0.475000X-0.250000X-0.475000X0.250000X-0.475000X0*%
%ADD33RoundRect,0.250000X-0.650000X1.000000X-0.650000X-1.000000X0.650000X-1.000000X0.650000X1.000000X0*%
%ADD34R,1.050000X0.530000*%
%ADD35R,3.800000X1.000000*%
%ADD36R,3.400000X1.500000*%
%ADD37R,0.900000X0.700000*%
%ADD38RoundRect,0.250000X0.262500X0.450000X-0.262500X0.450000X-0.262500X-0.450000X0.262500X-0.450000X0*%
%ADD39R,1.000000X1.400000*%
%ADD40R,0.490000X1.160000*%
%ADD41R,0.490000X1.180000*%
%ADD42O,0.280000X0.800000*%
%ADD43O,0.800000X0.280000*%
G04 APERTURE END LIST*
D10*
X121329400Y-93245489D02*
X121329400Y-92102632D01*
X120854510Y-87629400D02*
X121997368Y-87629400D01*
X121425939Y-88200828D02*
X121425939Y-87057971D01*
D11*
X134754819Y-97066666D02*
X134278628Y-97399999D01*
X134754819Y-97638094D02*
X133754819Y-97638094D01*
X133754819Y-97638094D02*
X133754819Y-97257142D01*
X133754819Y-97257142D02*
X133802438Y-97161904D01*
X133802438Y-97161904D02*
X133850057Y-97114285D01*
X133850057Y-97114285D02*
X133945295Y-97066666D01*
X133945295Y-97066666D02*
X134088152Y-97066666D01*
X134088152Y-97066666D02*
X134183390Y-97114285D01*
X134183390Y-97114285D02*
X134231009Y-97161904D01*
X134231009Y-97161904D02*
X134278628Y-97257142D01*
X134278628Y-97257142D02*
X134278628Y-97638094D01*
X133754819Y-96733332D02*
X133754819Y-96114285D01*
X133754819Y-96114285D02*
X134135771Y-96447618D01*
X134135771Y-96447618D02*
X134135771Y-96304761D01*
X134135771Y-96304761D02*
X134183390Y-96209523D01*
X134183390Y-96209523D02*
X134231009Y-96161904D01*
X134231009Y-96161904D02*
X134326247Y-96114285D01*
X134326247Y-96114285D02*
X134564342Y-96114285D01*
X134564342Y-96114285D02*
X134659580Y-96161904D01*
X134659580Y-96161904D02*
X134707200Y-96209523D01*
X134707200Y-96209523D02*
X134754819Y-96304761D01*
X134754819Y-96304761D02*
X134754819Y-96590475D01*
X134754819Y-96590475D02*
X134707200Y-96685713D01*
X134707200Y-96685713D02*
X134659580Y-96733332D01*
D12*
X120208095Y-73659271D02*
X119603333Y-73659271D01*
X119603333Y-73659271D02*
X119542857Y-74264033D01*
X119542857Y-74264033D02*
X119603333Y-74203556D01*
X119603333Y-74203556D02*
X119724286Y-74143080D01*
X119724286Y-74143080D02*
X120026667Y-74143080D01*
X120026667Y-74143080D02*
X120147619Y-74203556D01*
X120147619Y-74203556D02*
X120208095Y-74264033D01*
X120208095Y-74264033D02*
X120268572Y-74384985D01*
X120268572Y-74384985D02*
X120268572Y-74687366D01*
X120268572Y-74687366D02*
X120208095Y-74808318D01*
X120208095Y-74808318D02*
X120147619Y-74868795D01*
X120147619Y-74868795D02*
X120026667Y-74929271D01*
X120026667Y-74929271D02*
X119724286Y-74929271D01*
X119724286Y-74929271D02*
X119603333Y-74868795D01*
X119603333Y-74868795D02*
X119542857Y-74808318D01*
X120631429Y-73659271D02*
X121054762Y-74929271D01*
X121054762Y-74929271D02*
X121478096Y-73659271D01*
D11*
X113583333Y-78954819D02*
X113250000Y-78478628D01*
X113011905Y-78954819D02*
X113011905Y-77954819D01*
X113011905Y-77954819D02*
X113392857Y-77954819D01*
X113392857Y-77954819D02*
X113488095Y-78002438D01*
X113488095Y-78002438D02*
X113535714Y-78050057D01*
X113535714Y-78050057D02*
X113583333Y-78145295D01*
X113583333Y-78145295D02*
X113583333Y-78288152D01*
X113583333Y-78288152D02*
X113535714Y-78383390D01*
X113535714Y-78383390D02*
X113488095Y-78431009D01*
X113488095Y-78431009D02*
X113392857Y-78478628D01*
X113392857Y-78478628D02*
X113011905Y-78478628D01*
X114488095Y-77954819D02*
X114011905Y-77954819D01*
X114011905Y-77954819D02*
X113964286Y-78431009D01*
X113964286Y-78431009D02*
X114011905Y-78383390D01*
X114011905Y-78383390D02*
X114107143Y-78335771D01*
X114107143Y-78335771D02*
X114345238Y-78335771D01*
X114345238Y-78335771D02*
X114440476Y-78383390D01*
X114440476Y-78383390D02*
X114488095Y-78431009D01*
X114488095Y-78431009D02*
X114535714Y-78526247D01*
X114535714Y-78526247D02*
X114535714Y-78764342D01*
X114535714Y-78764342D02*
X114488095Y-78859580D01*
X114488095Y-78859580D02*
X114440476Y-78907200D01*
X114440476Y-78907200D02*
X114345238Y-78954819D01*
X114345238Y-78954819D02*
X114107143Y-78954819D01*
X114107143Y-78954819D02*
X114011905Y-78907200D01*
X114011905Y-78907200D02*
X113964286Y-78859580D01*
X134135120Y-92793305D02*
X133658929Y-93126638D01*
X134135120Y-93364733D02*
X133135120Y-93364733D01*
X133135120Y-93364733D02*
X133135120Y-92983781D01*
X133135120Y-92983781D02*
X133182739Y-92888543D01*
X133182739Y-92888543D02*
X133230358Y-92840924D01*
X133230358Y-92840924D02*
X133325596Y-92793305D01*
X133325596Y-92793305D02*
X133468453Y-92793305D01*
X133468453Y-92793305D02*
X133563691Y-92840924D01*
X133563691Y-92840924D02*
X133611310Y-92888543D01*
X133611310Y-92888543D02*
X133658929Y-92983781D01*
X133658929Y-92983781D02*
X133658929Y-93364733D01*
X134135120Y-91840924D02*
X134135120Y-92412352D01*
X134135120Y-92126638D02*
X133135120Y-92126638D01*
X133135120Y-92126638D02*
X133277977Y-92221876D01*
X133277977Y-92221876D02*
X133373215Y-92317114D01*
X133373215Y-92317114D02*
X133420834Y-92412352D01*
X133230358Y-91459971D02*
X133182739Y-91412352D01*
X133182739Y-91412352D02*
X133135120Y-91317114D01*
X133135120Y-91317114D02*
X133135120Y-91079019D01*
X133135120Y-91079019D02*
X133182739Y-90983781D01*
X133182739Y-90983781D02*
X133230358Y-90936162D01*
X133230358Y-90936162D02*
X133325596Y-90888543D01*
X133325596Y-90888543D02*
X133420834Y-90888543D01*
X133420834Y-90888543D02*
X133563691Y-90936162D01*
X133563691Y-90936162D02*
X134135120Y-91507590D01*
X134135120Y-91507590D02*
X134135120Y-90888543D01*
X131509480Y-80260111D02*
X131414242Y-80212492D01*
X131414242Y-80212492D02*
X131319004Y-80117254D01*
X131319004Y-80117254D02*
X131176147Y-79974396D01*
X131176147Y-79974396D02*
X131080909Y-79926777D01*
X131080909Y-79926777D02*
X130985671Y-79926777D01*
X131033290Y-80164873D02*
X130938052Y-80117254D01*
X130938052Y-80117254D02*
X130842814Y-80022015D01*
X130842814Y-80022015D02*
X130795195Y-79831539D01*
X130795195Y-79831539D02*
X130795195Y-79498206D01*
X130795195Y-79498206D02*
X130842814Y-79307730D01*
X130842814Y-79307730D02*
X130938052Y-79212492D01*
X130938052Y-79212492D02*
X131033290Y-79164873D01*
X131033290Y-79164873D02*
X131223766Y-79164873D01*
X131223766Y-79164873D02*
X131319004Y-79212492D01*
X131319004Y-79212492D02*
X131414242Y-79307730D01*
X131414242Y-79307730D02*
X131461861Y-79498206D01*
X131461861Y-79498206D02*
X131461861Y-79831539D01*
X131461861Y-79831539D02*
X131414242Y-80022015D01*
X131414242Y-80022015D02*
X131319004Y-80117254D01*
X131319004Y-80117254D02*
X131223766Y-80164873D01*
X131223766Y-80164873D02*
X131033290Y-80164873D01*
X132414242Y-80164873D02*
X131842814Y-80164873D01*
X132128528Y-80164873D02*
X132128528Y-79164873D01*
X132128528Y-79164873D02*
X132033290Y-79307730D01*
X132033290Y-79307730D02*
X131938052Y-79402968D01*
X131938052Y-79402968D02*
X131842814Y-79450587D01*
X127166666Y-99754819D02*
X127166666Y-100469104D01*
X127166666Y-100469104D02*
X127119047Y-100611961D01*
X127119047Y-100611961D02*
X127023809Y-100707200D01*
X127023809Y-100707200D02*
X126880952Y-100754819D01*
X126880952Y-100754819D02*
X126785714Y-100754819D01*
X127595238Y-99850057D02*
X127642857Y-99802438D01*
X127642857Y-99802438D02*
X127738095Y-99754819D01*
X127738095Y-99754819D02*
X127976190Y-99754819D01*
X127976190Y-99754819D02*
X128071428Y-99802438D01*
X128071428Y-99802438D02*
X128119047Y-99850057D01*
X128119047Y-99850057D02*
X128166666Y-99945295D01*
X128166666Y-99945295D02*
X128166666Y-100040533D01*
X128166666Y-100040533D02*
X128119047Y-100183390D01*
X128119047Y-100183390D02*
X127547619Y-100754819D01*
X127547619Y-100754819D02*
X128166666Y-100754819D01*
X122383333Y-77704819D02*
X122050000Y-77228628D01*
X121811905Y-77704819D02*
X121811905Y-76704819D01*
X121811905Y-76704819D02*
X122192857Y-76704819D01*
X122192857Y-76704819D02*
X122288095Y-76752438D01*
X122288095Y-76752438D02*
X122335714Y-76800057D01*
X122335714Y-76800057D02*
X122383333Y-76895295D01*
X122383333Y-76895295D02*
X122383333Y-77038152D01*
X122383333Y-77038152D02*
X122335714Y-77133390D01*
X122335714Y-77133390D02*
X122288095Y-77181009D01*
X122288095Y-77181009D02*
X122192857Y-77228628D01*
X122192857Y-77228628D02*
X121811905Y-77228628D01*
X122764286Y-76800057D02*
X122811905Y-76752438D01*
X122811905Y-76752438D02*
X122907143Y-76704819D01*
X122907143Y-76704819D02*
X123145238Y-76704819D01*
X123145238Y-76704819D02*
X123240476Y-76752438D01*
X123240476Y-76752438D02*
X123288095Y-76800057D01*
X123288095Y-76800057D02*
X123335714Y-76895295D01*
X123335714Y-76895295D02*
X123335714Y-76990533D01*
X123335714Y-76990533D02*
X123288095Y-77133390D01*
X123288095Y-77133390D02*
X122716667Y-77704819D01*
X122716667Y-77704819D02*
X123335714Y-77704819D01*
D12*
X114726429Y-71614033D02*
X114907857Y-71674509D01*
X114907857Y-71674509D02*
X114968334Y-71734985D01*
X114968334Y-71734985D02*
X115028810Y-71855937D01*
X115028810Y-71855937D02*
X115028810Y-72037366D01*
X115028810Y-72037366D02*
X114968334Y-72158318D01*
X114968334Y-72158318D02*
X114907857Y-72218795D01*
X114907857Y-72218795D02*
X114786905Y-72279271D01*
X114786905Y-72279271D02*
X114303095Y-72279271D01*
X114303095Y-72279271D02*
X114303095Y-71009271D01*
X114303095Y-71009271D02*
X114726429Y-71009271D01*
X114726429Y-71009271D02*
X114847381Y-71069747D01*
X114847381Y-71069747D02*
X114907857Y-71130223D01*
X114907857Y-71130223D02*
X114968334Y-71251175D01*
X114968334Y-71251175D02*
X114968334Y-71372128D01*
X114968334Y-71372128D02*
X114907857Y-71493080D01*
X114907857Y-71493080D02*
X114847381Y-71553556D01*
X114847381Y-71553556D02*
X114726429Y-71614033D01*
X114726429Y-71614033D02*
X114303095Y-71614033D01*
X115815000Y-71009271D02*
X116056905Y-71009271D01*
X116056905Y-71009271D02*
X116177857Y-71069747D01*
X116177857Y-71069747D02*
X116298810Y-71190699D01*
X116298810Y-71190699D02*
X116359286Y-71432604D01*
X116359286Y-71432604D02*
X116359286Y-71855937D01*
X116359286Y-71855937D02*
X116298810Y-72097842D01*
X116298810Y-72097842D02*
X116177857Y-72218795D01*
X116177857Y-72218795D02*
X116056905Y-72279271D01*
X116056905Y-72279271D02*
X115815000Y-72279271D01*
X115815000Y-72279271D02*
X115694048Y-72218795D01*
X115694048Y-72218795D02*
X115573095Y-72097842D01*
X115573095Y-72097842D02*
X115512619Y-71855937D01*
X115512619Y-71855937D02*
X115512619Y-71432604D01*
X115512619Y-71432604D02*
X115573095Y-71190699D01*
X115573095Y-71190699D02*
X115694048Y-71069747D01*
X115694048Y-71069747D02*
X115815000Y-71009271D01*
X117145476Y-71009271D02*
X117387381Y-71009271D01*
X117387381Y-71009271D02*
X117508333Y-71069747D01*
X117508333Y-71069747D02*
X117629286Y-71190699D01*
X117629286Y-71190699D02*
X117689762Y-71432604D01*
X117689762Y-71432604D02*
X117689762Y-71855937D01*
X117689762Y-71855937D02*
X117629286Y-72097842D01*
X117629286Y-72097842D02*
X117508333Y-72218795D01*
X117508333Y-72218795D02*
X117387381Y-72279271D01*
X117387381Y-72279271D02*
X117145476Y-72279271D01*
X117145476Y-72279271D02*
X117024524Y-72218795D01*
X117024524Y-72218795D02*
X116903571Y-72097842D01*
X116903571Y-72097842D02*
X116843095Y-71855937D01*
X116843095Y-71855937D02*
X116843095Y-71432604D01*
X116843095Y-71432604D02*
X116903571Y-71190699D01*
X116903571Y-71190699D02*
X117024524Y-71069747D01*
X117024524Y-71069747D02*
X117145476Y-71009271D01*
X118052619Y-71009271D02*
X118778333Y-71009271D01*
X118415476Y-72279271D02*
X118415476Y-71009271D01*
D11*
X122383333Y-81829580D02*
X122335714Y-81877200D01*
X122335714Y-81877200D02*
X122192857Y-81924819D01*
X122192857Y-81924819D02*
X122097619Y-81924819D01*
X122097619Y-81924819D02*
X121954762Y-81877200D01*
X121954762Y-81877200D02*
X121859524Y-81781961D01*
X121859524Y-81781961D02*
X121811905Y-81686723D01*
X121811905Y-81686723D02*
X121764286Y-81496247D01*
X121764286Y-81496247D02*
X121764286Y-81353390D01*
X121764286Y-81353390D02*
X121811905Y-81162914D01*
X121811905Y-81162914D02*
X121859524Y-81067676D01*
X121859524Y-81067676D02*
X121954762Y-80972438D01*
X121954762Y-80972438D02*
X122097619Y-80924819D01*
X122097619Y-80924819D02*
X122192857Y-80924819D01*
X122192857Y-80924819D02*
X122335714Y-80972438D01*
X122335714Y-80972438D02*
X122383333Y-81020057D01*
X123335714Y-81924819D02*
X122764286Y-81924819D01*
X123050000Y-81924819D02*
X123050000Y-80924819D01*
X123050000Y-80924819D02*
X122954762Y-81067676D01*
X122954762Y-81067676D02*
X122859524Y-81162914D01*
X122859524Y-81162914D02*
X122764286Y-81210533D01*
X113733333Y-60709580D02*
X113685714Y-60757200D01*
X113685714Y-60757200D02*
X113542857Y-60804819D01*
X113542857Y-60804819D02*
X113447619Y-60804819D01*
X113447619Y-60804819D02*
X113304762Y-60757200D01*
X113304762Y-60757200D02*
X113209524Y-60661961D01*
X113209524Y-60661961D02*
X113161905Y-60566723D01*
X113161905Y-60566723D02*
X113114286Y-60376247D01*
X113114286Y-60376247D02*
X113114286Y-60233390D01*
X113114286Y-60233390D02*
X113161905Y-60042914D01*
X113161905Y-60042914D02*
X113209524Y-59947676D01*
X113209524Y-59947676D02*
X113304762Y-59852438D01*
X113304762Y-59852438D02*
X113447619Y-59804819D01*
X113447619Y-59804819D02*
X113542857Y-59804819D01*
X113542857Y-59804819D02*
X113685714Y-59852438D01*
X113685714Y-59852438D02*
X113733333Y-59900057D01*
X114114286Y-59900057D02*
X114161905Y-59852438D01*
X114161905Y-59852438D02*
X114257143Y-59804819D01*
X114257143Y-59804819D02*
X114495238Y-59804819D01*
X114495238Y-59804819D02*
X114590476Y-59852438D01*
X114590476Y-59852438D02*
X114638095Y-59900057D01*
X114638095Y-59900057D02*
X114685714Y-59995295D01*
X114685714Y-59995295D02*
X114685714Y-60090533D01*
X114685714Y-60090533D02*
X114638095Y-60233390D01*
X114638095Y-60233390D02*
X114066667Y-60804819D01*
X114066667Y-60804819D02*
X114685714Y-60804819D01*
X113733333Y-57309580D02*
X113685714Y-57357200D01*
X113685714Y-57357200D02*
X113542857Y-57404819D01*
X113542857Y-57404819D02*
X113447619Y-57404819D01*
X113447619Y-57404819D02*
X113304762Y-57357200D01*
X113304762Y-57357200D02*
X113209524Y-57261961D01*
X113209524Y-57261961D02*
X113161905Y-57166723D01*
X113161905Y-57166723D02*
X113114286Y-56976247D01*
X113114286Y-56976247D02*
X113114286Y-56833390D01*
X113114286Y-56833390D02*
X113161905Y-56642914D01*
X113161905Y-56642914D02*
X113209524Y-56547676D01*
X113209524Y-56547676D02*
X113304762Y-56452438D01*
X113304762Y-56452438D02*
X113447619Y-56404819D01*
X113447619Y-56404819D02*
X113542857Y-56404819D01*
X113542857Y-56404819D02*
X113685714Y-56452438D01*
X113685714Y-56452438D02*
X113733333Y-56500057D01*
X114066667Y-56404819D02*
X114685714Y-56404819D01*
X114685714Y-56404819D02*
X114352381Y-56785771D01*
X114352381Y-56785771D02*
X114495238Y-56785771D01*
X114495238Y-56785771D02*
X114590476Y-56833390D01*
X114590476Y-56833390D02*
X114638095Y-56881009D01*
X114638095Y-56881009D02*
X114685714Y-56976247D01*
X114685714Y-56976247D02*
X114685714Y-57214342D01*
X114685714Y-57214342D02*
X114638095Y-57309580D01*
X114638095Y-57309580D02*
X114590476Y-57357200D01*
X114590476Y-57357200D02*
X114495238Y-57404819D01*
X114495238Y-57404819D02*
X114209524Y-57404819D01*
X114209524Y-57404819D02*
X114114286Y-57357200D01*
X114114286Y-57357200D02*
X114066667Y-57309580D01*
D12*
X136655476Y-72379271D02*
X136232142Y-71774509D01*
X135929761Y-72379271D02*
X135929761Y-71109271D01*
X135929761Y-71109271D02*
X136413571Y-71109271D01*
X136413571Y-71109271D02*
X136534523Y-71169747D01*
X136534523Y-71169747D02*
X136595000Y-71230223D01*
X136595000Y-71230223D02*
X136655476Y-71351175D01*
X136655476Y-71351175D02*
X136655476Y-71532604D01*
X136655476Y-71532604D02*
X136595000Y-71653556D01*
X136595000Y-71653556D02*
X136534523Y-71714033D01*
X136534523Y-71714033D02*
X136413571Y-71774509D01*
X136413571Y-71774509D02*
X135929761Y-71774509D01*
X137199761Y-71714033D02*
X137623095Y-71714033D01*
X137804523Y-72379271D02*
X137199761Y-72379271D01*
X137199761Y-72379271D02*
X137199761Y-71109271D01*
X137199761Y-71109271D02*
X137804523Y-71109271D01*
X138288333Y-72318795D02*
X138469762Y-72379271D01*
X138469762Y-72379271D02*
X138772143Y-72379271D01*
X138772143Y-72379271D02*
X138893095Y-72318795D01*
X138893095Y-72318795D02*
X138953571Y-72258318D01*
X138953571Y-72258318D02*
X139014048Y-72137366D01*
X139014048Y-72137366D02*
X139014048Y-72016414D01*
X139014048Y-72016414D02*
X138953571Y-71895461D01*
X138953571Y-71895461D02*
X138893095Y-71834985D01*
X138893095Y-71834985D02*
X138772143Y-71774509D01*
X138772143Y-71774509D02*
X138530238Y-71714033D01*
X138530238Y-71714033D02*
X138409286Y-71653556D01*
X138409286Y-71653556D02*
X138348809Y-71593080D01*
X138348809Y-71593080D02*
X138288333Y-71472128D01*
X138288333Y-71472128D02*
X138288333Y-71351175D01*
X138288333Y-71351175D02*
X138348809Y-71230223D01*
X138348809Y-71230223D02*
X138409286Y-71169747D01*
X138409286Y-71169747D02*
X138530238Y-71109271D01*
X138530238Y-71109271D02*
X138832619Y-71109271D01*
X138832619Y-71109271D02*
X139014048Y-71169747D01*
X139558333Y-71714033D02*
X139981667Y-71714033D01*
X140163095Y-72379271D02*
X139558333Y-72379271D01*
X139558333Y-72379271D02*
X139558333Y-71109271D01*
X139558333Y-71109271D02*
X140163095Y-71109271D01*
X140525953Y-71109271D02*
X141251667Y-71109271D01*
X140888810Y-72379271D02*
X140888810Y-71109271D01*
D11*
X117754819Y-96216666D02*
X117278628Y-96549999D01*
X117754819Y-96788094D02*
X116754819Y-96788094D01*
X116754819Y-96788094D02*
X116754819Y-96407142D01*
X116754819Y-96407142D02*
X116802438Y-96311904D01*
X116802438Y-96311904D02*
X116850057Y-96264285D01*
X116850057Y-96264285D02*
X116945295Y-96216666D01*
X116945295Y-96216666D02*
X117088152Y-96216666D01*
X117088152Y-96216666D02*
X117183390Y-96264285D01*
X117183390Y-96264285D02*
X117231009Y-96311904D01*
X117231009Y-96311904D02*
X117278628Y-96407142D01*
X117278628Y-96407142D02*
X117278628Y-96788094D01*
X117088152Y-95359523D02*
X117754819Y-95359523D01*
X116707200Y-95597618D02*
X117421485Y-95835713D01*
X117421485Y-95835713D02*
X117421485Y-95216666D01*
X139702192Y-83738609D02*
X139702192Y-82738609D01*
X139702192Y-82738609D02*
X139940287Y-82738609D01*
X139940287Y-82738609D02*
X140083144Y-82786228D01*
X140083144Y-82786228D02*
X140178382Y-82881466D01*
X140178382Y-82881466D02*
X140226001Y-82976704D01*
X140226001Y-82976704D02*
X140273620Y-83167180D01*
X140273620Y-83167180D02*
X140273620Y-83310037D01*
X140273620Y-83310037D02*
X140226001Y-83500513D01*
X140226001Y-83500513D02*
X140178382Y-83595751D01*
X140178382Y-83595751D02*
X140083144Y-83690990D01*
X140083144Y-83690990D02*
X139940287Y-83738609D01*
X139940287Y-83738609D02*
X139702192Y-83738609D01*
X141226001Y-83738609D02*
X140654573Y-83738609D01*
X140940287Y-83738609D02*
X140940287Y-82738609D01*
X140940287Y-82738609D02*
X140845049Y-82881466D01*
X140845049Y-82881466D02*
X140749811Y-82976704D01*
X140749811Y-82976704D02*
X140654573Y-83024323D01*
X123504095Y-72456819D02*
X123504095Y-73266342D01*
X123504095Y-73266342D02*
X123551714Y-73361580D01*
X123551714Y-73361580D02*
X123599333Y-73409200D01*
X123599333Y-73409200D02*
X123694571Y-73456819D01*
X123694571Y-73456819D02*
X123885047Y-73456819D01*
X123885047Y-73456819D02*
X123980285Y-73409200D01*
X123980285Y-73409200D02*
X124027904Y-73361580D01*
X124027904Y-73361580D02*
X124075523Y-73266342D01*
X124075523Y-73266342D02*
X124075523Y-72456819D01*
X125075523Y-73456819D02*
X124504095Y-73456819D01*
X124789809Y-73456819D02*
X124789809Y-72456819D01*
X124789809Y-72456819D02*
X124694571Y-72599676D01*
X124694571Y-72599676D02*
X124599333Y-72694914D01*
X124599333Y-72694914D02*
X124504095Y-72742533D01*
X116809580Y-90790476D02*
X116857200Y-90838095D01*
X116857200Y-90838095D02*
X116904819Y-90980952D01*
X116904819Y-90980952D02*
X116904819Y-91076190D01*
X116904819Y-91076190D02*
X116857200Y-91219047D01*
X116857200Y-91219047D02*
X116761961Y-91314285D01*
X116761961Y-91314285D02*
X116666723Y-91361904D01*
X116666723Y-91361904D02*
X116476247Y-91409523D01*
X116476247Y-91409523D02*
X116333390Y-91409523D01*
X116333390Y-91409523D02*
X116142914Y-91361904D01*
X116142914Y-91361904D02*
X116047676Y-91314285D01*
X116047676Y-91314285D02*
X115952438Y-91219047D01*
X115952438Y-91219047D02*
X115904819Y-91076190D01*
X115904819Y-91076190D02*
X115904819Y-90980952D01*
X115904819Y-90980952D02*
X115952438Y-90838095D01*
X115952438Y-90838095D02*
X116000057Y-90790476D01*
X116904819Y-90361904D02*
X115904819Y-90361904D01*
X115904819Y-90361904D02*
X116904819Y-89790476D01*
X116904819Y-89790476D02*
X115904819Y-89790476D01*
X116904819Y-88790476D02*
X116904819Y-89361904D01*
X116904819Y-89076190D02*
X115904819Y-89076190D01*
X115904819Y-89076190D02*
X116047676Y-89171428D01*
X116047676Y-89171428D02*
X116142914Y-89266666D01*
X116142914Y-89266666D02*
X116190533Y-89361904D01*
X130494378Y-65734800D02*
X130018188Y-65734800D01*
X130018188Y-65734800D02*
X130018188Y-64734800D01*
X130827712Y-65210990D02*
X131161045Y-65210990D01*
X131303902Y-65734800D02*
X130827712Y-65734800D01*
X130827712Y-65734800D02*
X130827712Y-64734800D01*
X130827712Y-64734800D02*
X131303902Y-64734800D01*
X131732474Y-65734800D02*
X131732474Y-64734800D01*
X131732474Y-64734800D02*
X131970569Y-64734800D01*
X131970569Y-64734800D02*
X132113426Y-64782419D01*
X132113426Y-64782419D02*
X132208664Y-64877657D01*
X132208664Y-64877657D02*
X132256283Y-64972895D01*
X132256283Y-64972895D02*
X132303902Y-65163371D01*
X132303902Y-65163371D02*
X132303902Y-65306228D01*
X132303902Y-65306228D02*
X132256283Y-65496704D01*
X132256283Y-65496704D02*
X132208664Y-65591942D01*
X132208664Y-65591942D02*
X132113426Y-65687181D01*
X132113426Y-65687181D02*
X131970569Y-65734800D01*
X131970569Y-65734800D02*
X131732474Y-65734800D01*
X132684855Y-64830038D02*
X132732474Y-64782419D01*
X132732474Y-64782419D02*
X132827712Y-64734800D01*
X132827712Y-64734800D02*
X133065807Y-64734800D01*
X133065807Y-64734800D02*
X133161045Y-64782419D01*
X133161045Y-64782419D02*
X133208664Y-64830038D01*
X133208664Y-64830038D02*
X133256283Y-64925276D01*
X133256283Y-64925276D02*
X133256283Y-65020514D01*
X133256283Y-65020514D02*
X133208664Y-65163371D01*
X133208664Y-65163371D02*
X132637236Y-65734800D01*
X132637236Y-65734800D02*
X133256283Y-65734800D01*
X127774430Y-74159580D02*
X127726811Y-74207200D01*
X127726811Y-74207200D02*
X127583954Y-74254819D01*
X127583954Y-74254819D02*
X127488716Y-74254819D01*
X127488716Y-74254819D02*
X127345859Y-74207200D01*
X127345859Y-74207200D02*
X127250621Y-74111961D01*
X127250621Y-74111961D02*
X127203002Y-74016723D01*
X127203002Y-74016723D02*
X127155383Y-73826247D01*
X127155383Y-73826247D02*
X127155383Y-73683390D01*
X127155383Y-73683390D02*
X127203002Y-73492914D01*
X127203002Y-73492914D02*
X127250621Y-73397676D01*
X127250621Y-73397676D02*
X127345859Y-73302438D01*
X127345859Y-73302438D02*
X127488716Y-73254819D01*
X127488716Y-73254819D02*
X127583954Y-73254819D01*
X127583954Y-73254819D02*
X127726811Y-73302438D01*
X127726811Y-73302438D02*
X127774430Y-73350057D01*
X128345859Y-73683390D02*
X128250621Y-73635771D01*
X128250621Y-73635771D02*
X128203002Y-73588152D01*
X128203002Y-73588152D02*
X128155383Y-73492914D01*
X128155383Y-73492914D02*
X128155383Y-73445295D01*
X128155383Y-73445295D02*
X128203002Y-73350057D01*
X128203002Y-73350057D02*
X128250621Y-73302438D01*
X128250621Y-73302438D02*
X128345859Y-73254819D01*
X128345859Y-73254819D02*
X128536335Y-73254819D01*
X128536335Y-73254819D02*
X128631573Y-73302438D01*
X128631573Y-73302438D02*
X128679192Y-73350057D01*
X128679192Y-73350057D02*
X128726811Y-73445295D01*
X128726811Y-73445295D02*
X128726811Y-73492914D01*
X128726811Y-73492914D02*
X128679192Y-73588152D01*
X128679192Y-73588152D02*
X128631573Y-73635771D01*
X128631573Y-73635771D02*
X128536335Y-73683390D01*
X128536335Y-73683390D02*
X128345859Y-73683390D01*
X128345859Y-73683390D02*
X128250621Y-73731009D01*
X128250621Y-73731009D02*
X128203002Y-73778628D01*
X128203002Y-73778628D02*
X128155383Y-73873866D01*
X128155383Y-73873866D02*
X128155383Y-74064342D01*
X128155383Y-74064342D02*
X128203002Y-74159580D01*
X128203002Y-74159580D02*
X128250621Y-74207200D01*
X128250621Y-74207200D02*
X128345859Y-74254819D01*
X128345859Y-74254819D02*
X128536335Y-74254819D01*
X128536335Y-74254819D02*
X128631573Y-74207200D01*
X128631573Y-74207200D02*
X128679192Y-74159580D01*
X128679192Y-74159580D02*
X128726811Y-74064342D01*
X128726811Y-74064342D02*
X128726811Y-73873866D01*
X128726811Y-73873866D02*
X128679192Y-73778628D01*
X128679192Y-73778628D02*
X128631573Y-73731009D01*
X128631573Y-73731009D02*
X128536335Y-73683390D01*
X130729886Y-84705911D02*
X130396553Y-84229720D01*
X130158458Y-84705911D02*
X130158458Y-83705911D01*
X130158458Y-83705911D02*
X130539410Y-83705911D01*
X130539410Y-83705911D02*
X130634648Y-83753530D01*
X130634648Y-83753530D02*
X130682267Y-83801149D01*
X130682267Y-83801149D02*
X130729886Y-83896387D01*
X130729886Y-83896387D02*
X130729886Y-84039244D01*
X130729886Y-84039244D02*
X130682267Y-84134482D01*
X130682267Y-84134482D02*
X130634648Y-84182101D01*
X130634648Y-84182101D02*
X130539410Y-84229720D01*
X130539410Y-84229720D02*
X130158458Y-84229720D01*
X131682267Y-84705911D02*
X131110839Y-84705911D01*
X131396553Y-84705911D02*
X131396553Y-83705911D01*
X131396553Y-83705911D02*
X131301315Y-83848768D01*
X131301315Y-83848768D02*
X131206077Y-83944006D01*
X131206077Y-83944006D02*
X131110839Y-83991625D01*
X132634648Y-84705911D02*
X132063220Y-84705911D01*
X132348934Y-84705911D02*
X132348934Y-83705911D01*
X132348934Y-83705911D02*
X132253696Y-83848768D01*
X132253696Y-83848768D02*
X132158458Y-83944006D01*
X132158458Y-83944006D02*
X132063220Y-83991625D01*
X130272880Y-87754819D02*
X129796690Y-87754819D01*
X129796690Y-87754819D02*
X129796690Y-86754819D01*
X130606214Y-87231009D02*
X130939547Y-87231009D01*
X131082404Y-87754819D02*
X130606214Y-87754819D01*
X130606214Y-87754819D02*
X130606214Y-86754819D01*
X130606214Y-86754819D02*
X131082404Y-86754819D01*
X131510976Y-87754819D02*
X131510976Y-86754819D01*
X131510976Y-86754819D02*
X131749071Y-86754819D01*
X131749071Y-86754819D02*
X131891928Y-86802438D01*
X131891928Y-86802438D02*
X131987166Y-86897676D01*
X131987166Y-86897676D02*
X132034785Y-86992914D01*
X132034785Y-86992914D02*
X132082404Y-87183390D01*
X132082404Y-87183390D02*
X132082404Y-87326247D01*
X132082404Y-87326247D02*
X132034785Y-87516723D01*
X132034785Y-87516723D02*
X131987166Y-87611961D01*
X131987166Y-87611961D02*
X131891928Y-87707200D01*
X131891928Y-87707200D02*
X131749071Y-87754819D01*
X131749071Y-87754819D02*
X131510976Y-87754819D01*
X133034785Y-87754819D02*
X132463357Y-87754819D01*
X132749071Y-87754819D02*
X132749071Y-86754819D01*
X132749071Y-86754819D02*
X132653833Y-86897676D01*
X132653833Y-86897676D02*
X132558595Y-86992914D01*
X132558595Y-86992914D02*
X132463357Y-87040533D01*
X113583333Y-82309580D02*
X113535714Y-82357200D01*
X113535714Y-82357200D02*
X113392857Y-82404819D01*
X113392857Y-82404819D02*
X113297619Y-82404819D01*
X113297619Y-82404819D02*
X113154762Y-82357200D01*
X113154762Y-82357200D02*
X113059524Y-82261961D01*
X113059524Y-82261961D02*
X113011905Y-82166723D01*
X113011905Y-82166723D02*
X112964286Y-81976247D01*
X112964286Y-81976247D02*
X112964286Y-81833390D01*
X112964286Y-81833390D02*
X113011905Y-81642914D01*
X113011905Y-81642914D02*
X113059524Y-81547676D01*
X113059524Y-81547676D02*
X113154762Y-81452438D01*
X113154762Y-81452438D02*
X113297619Y-81404819D01*
X113297619Y-81404819D02*
X113392857Y-81404819D01*
X113392857Y-81404819D02*
X113535714Y-81452438D01*
X113535714Y-81452438D02*
X113583333Y-81500057D01*
X114440476Y-81404819D02*
X114250000Y-81404819D01*
X114250000Y-81404819D02*
X114154762Y-81452438D01*
X114154762Y-81452438D02*
X114107143Y-81500057D01*
X114107143Y-81500057D02*
X114011905Y-81642914D01*
X114011905Y-81642914D02*
X113964286Y-81833390D01*
X113964286Y-81833390D02*
X113964286Y-82214342D01*
X113964286Y-82214342D02*
X114011905Y-82309580D01*
X114011905Y-82309580D02*
X114059524Y-82357200D01*
X114059524Y-82357200D02*
X114154762Y-82404819D01*
X114154762Y-82404819D02*
X114345238Y-82404819D01*
X114345238Y-82404819D02*
X114440476Y-82357200D01*
X114440476Y-82357200D02*
X114488095Y-82309580D01*
X114488095Y-82309580D02*
X114535714Y-82214342D01*
X114535714Y-82214342D02*
X114535714Y-81976247D01*
X114535714Y-81976247D02*
X114488095Y-81881009D01*
X114488095Y-81881009D02*
X114440476Y-81833390D01*
X114440476Y-81833390D02*
X114345238Y-81785771D01*
X114345238Y-81785771D02*
X114154762Y-81785771D01*
X114154762Y-81785771D02*
X114059524Y-81833390D01*
X114059524Y-81833390D02*
X114011905Y-81881009D01*
X114011905Y-81881009D02*
X113964286Y-81976247D01*
X140621774Y-54650409D02*
X140574155Y-54698029D01*
X140574155Y-54698029D02*
X140431298Y-54745648D01*
X140431298Y-54745648D02*
X140336060Y-54745648D01*
X140336060Y-54745648D02*
X140193203Y-54698029D01*
X140193203Y-54698029D02*
X140097965Y-54602790D01*
X140097965Y-54602790D02*
X140050346Y-54507552D01*
X140050346Y-54507552D02*
X140002727Y-54317076D01*
X140002727Y-54317076D02*
X140002727Y-54174219D01*
X140002727Y-54174219D02*
X140050346Y-53983743D01*
X140050346Y-53983743D02*
X140097965Y-53888505D01*
X140097965Y-53888505D02*
X140193203Y-53793267D01*
X140193203Y-53793267D02*
X140336060Y-53745648D01*
X140336060Y-53745648D02*
X140431298Y-53745648D01*
X140431298Y-53745648D02*
X140574155Y-53793267D01*
X140574155Y-53793267D02*
X140621774Y-53840886D01*
X141526536Y-53745648D02*
X141050346Y-53745648D01*
X141050346Y-53745648D02*
X141002727Y-54221838D01*
X141002727Y-54221838D02*
X141050346Y-54174219D01*
X141050346Y-54174219D02*
X141145584Y-54126600D01*
X141145584Y-54126600D02*
X141383679Y-54126600D01*
X141383679Y-54126600D02*
X141478917Y-54174219D01*
X141478917Y-54174219D02*
X141526536Y-54221838D01*
X141526536Y-54221838D02*
X141574155Y-54317076D01*
X141574155Y-54317076D02*
X141574155Y-54555171D01*
X141574155Y-54555171D02*
X141526536Y-54650409D01*
X141526536Y-54650409D02*
X141478917Y-54698029D01*
X141478917Y-54698029D02*
X141383679Y-54745648D01*
X141383679Y-54745648D02*
X141145584Y-54745648D01*
X141145584Y-54745648D02*
X141050346Y-54698029D01*
X141050346Y-54698029D02*
X141002727Y-54650409D01*
X125288095Y-87004819D02*
X125288095Y-87814342D01*
X125288095Y-87814342D02*
X125335714Y-87909580D01*
X125335714Y-87909580D02*
X125383333Y-87957200D01*
X125383333Y-87957200D02*
X125478571Y-88004819D01*
X125478571Y-88004819D02*
X125669047Y-88004819D01*
X125669047Y-88004819D02*
X125764285Y-87957200D01*
X125764285Y-87957200D02*
X125811904Y-87909580D01*
X125811904Y-87909580D02*
X125859523Y-87814342D01*
X125859523Y-87814342D02*
X125859523Y-87004819D01*
X126764285Y-87338152D02*
X126764285Y-88004819D01*
X126526190Y-86957200D02*
X126288095Y-87671485D01*
X126288095Y-87671485D02*
X126907142Y-87671485D01*
X113633333Y-75554819D02*
X113300000Y-75078628D01*
X113061905Y-75554819D02*
X113061905Y-74554819D01*
X113061905Y-74554819D02*
X113442857Y-74554819D01*
X113442857Y-74554819D02*
X113538095Y-74602438D01*
X113538095Y-74602438D02*
X113585714Y-74650057D01*
X113585714Y-74650057D02*
X113633333Y-74745295D01*
X113633333Y-74745295D02*
X113633333Y-74888152D01*
X113633333Y-74888152D02*
X113585714Y-74983390D01*
X113585714Y-74983390D02*
X113538095Y-75031009D01*
X113538095Y-75031009D02*
X113442857Y-75078628D01*
X113442857Y-75078628D02*
X113061905Y-75078628D01*
X114490476Y-74554819D02*
X114300000Y-74554819D01*
X114300000Y-74554819D02*
X114204762Y-74602438D01*
X114204762Y-74602438D02*
X114157143Y-74650057D01*
X114157143Y-74650057D02*
X114061905Y-74792914D01*
X114061905Y-74792914D02*
X114014286Y-74983390D01*
X114014286Y-74983390D02*
X114014286Y-75364342D01*
X114014286Y-75364342D02*
X114061905Y-75459580D01*
X114061905Y-75459580D02*
X114109524Y-75507200D01*
X114109524Y-75507200D02*
X114204762Y-75554819D01*
X114204762Y-75554819D02*
X114395238Y-75554819D01*
X114395238Y-75554819D02*
X114490476Y-75507200D01*
X114490476Y-75507200D02*
X114538095Y-75459580D01*
X114538095Y-75459580D02*
X114585714Y-75364342D01*
X114585714Y-75364342D02*
X114585714Y-75126247D01*
X114585714Y-75126247D02*
X114538095Y-75031009D01*
X114538095Y-75031009D02*
X114490476Y-74983390D01*
X114490476Y-74983390D02*
X114395238Y-74935771D01*
X114395238Y-74935771D02*
X114204762Y-74935771D01*
X114204762Y-74935771D02*
X114109524Y-74983390D01*
X114109524Y-74983390D02*
X114061905Y-75031009D01*
X114061905Y-75031009D02*
X114014286Y-75126247D01*
D12*
X124025238Y-65809271D02*
X124811429Y-65809271D01*
X124811429Y-65809271D02*
X124388095Y-66293080D01*
X124388095Y-66293080D02*
X124569524Y-66293080D01*
X124569524Y-66293080D02*
X124690476Y-66353556D01*
X124690476Y-66353556D02*
X124750952Y-66414033D01*
X124750952Y-66414033D02*
X124811429Y-66534985D01*
X124811429Y-66534985D02*
X124811429Y-66837366D01*
X124811429Y-66837366D02*
X124750952Y-66958318D01*
X124750952Y-66958318D02*
X124690476Y-67018795D01*
X124690476Y-67018795D02*
X124569524Y-67079271D01*
X124569524Y-67079271D02*
X124206667Y-67079271D01*
X124206667Y-67079271D02*
X124085714Y-67018795D01*
X124085714Y-67018795D02*
X124025238Y-66958318D01*
X125355714Y-66958318D02*
X125416191Y-67018795D01*
X125416191Y-67018795D02*
X125355714Y-67079271D01*
X125355714Y-67079271D02*
X125295238Y-67018795D01*
X125295238Y-67018795D02*
X125355714Y-66958318D01*
X125355714Y-66958318D02*
X125355714Y-67079271D01*
X125839524Y-65809271D02*
X126625715Y-65809271D01*
X126625715Y-65809271D02*
X126202381Y-66293080D01*
X126202381Y-66293080D02*
X126383810Y-66293080D01*
X126383810Y-66293080D02*
X126504762Y-66353556D01*
X126504762Y-66353556D02*
X126565238Y-66414033D01*
X126565238Y-66414033D02*
X126625715Y-66534985D01*
X126625715Y-66534985D02*
X126625715Y-66837366D01*
X126625715Y-66837366D02*
X126565238Y-66958318D01*
X126565238Y-66958318D02*
X126504762Y-67018795D01*
X126504762Y-67018795D02*
X126383810Y-67079271D01*
X126383810Y-67079271D02*
X126020953Y-67079271D01*
X126020953Y-67079271D02*
X125900000Y-67018795D01*
X125900000Y-67018795D02*
X125839524Y-66958318D01*
X126988572Y-65809271D02*
X127411905Y-67079271D01*
X127411905Y-67079271D02*
X127835239Y-65809271D01*
D11*
X127733333Y-77559580D02*
X127685714Y-77607200D01*
X127685714Y-77607200D02*
X127542857Y-77654819D01*
X127542857Y-77654819D02*
X127447619Y-77654819D01*
X127447619Y-77654819D02*
X127304762Y-77607200D01*
X127304762Y-77607200D02*
X127209524Y-77511961D01*
X127209524Y-77511961D02*
X127161905Y-77416723D01*
X127161905Y-77416723D02*
X127114286Y-77226247D01*
X127114286Y-77226247D02*
X127114286Y-77083390D01*
X127114286Y-77083390D02*
X127161905Y-76892914D01*
X127161905Y-76892914D02*
X127209524Y-76797676D01*
X127209524Y-76797676D02*
X127304762Y-76702438D01*
X127304762Y-76702438D02*
X127447619Y-76654819D01*
X127447619Y-76654819D02*
X127542857Y-76654819D01*
X127542857Y-76654819D02*
X127685714Y-76702438D01*
X127685714Y-76702438D02*
X127733333Y-76750057D01*
X128066667Y-76654819D02*
X128733333Y-76654819D01*
X128733333Y-76654819D02*
X128304762Y-77654819D01*
X131652809Y-70198045D02*
X131319476Y-69721854D01*
X131081381Y-70198045D02*
X131081381Y-69198045D01*
X131081381Y-69198045D02*
X131462333Y-69198045D01*
X131462333Y-69198045D02*
X131557571Y-69245664D01*
X131557571Y-69245664D02*
X131605190Y-69293283D01*
X131605190Y-69293283D02*
X131652809Y-69388521D01*
X131652809Y-69388521D02*
X131652809Y-69531378D01*
X131652809Y-69531378D02*
X131605190Y-69626616D01*
X131605190Y-69626616D02*
X131557571Y-69674235D01*
X131557571Y-69674235D02*
X131462333Y-69721854D01*
X131462333Y-69721854D02*
X131081381Y-69721854D01*
X132224238Y-69626616D02*
X132129000Y-69578997D01*
X132129000Y-69578997D02*
X132081381Y-69531378D01*
X132081381Y-69531378D02*
X132033762Y-69436140D01*
X132033762Y-69436140D02*
X132033762Y-69388521D01*
X132033762Y-69388521D02*
X132081381Y-69293283D01*
X132081381Y-69293283D02*
X132129000Y-69245664D01*
X132129000Y-69245664D02*
X132224238Y-69198045D01*
X132224238Y-69198045D02*
X132414714Y-69198045D01*
X132414714Y-69198045D02*
X132509952Y-69245664D01*
X132509952Y-69245664D02*
X132557571Y-69293283D01*
X132557571Y-69293283D02*
X132605190Y-69388521D01*
X132605190Y-69388521D02*
X132605190Y-69436140D01*
X132605190Y-69436140D02*
X132557571Y-69531378D01*
X132557571Y-69531378D02*
X132509952Y-69578997D01*
X132509952Y-69578997D02*
X132414714Y-69626616D01*
X132414714Y-69626616D02*
X132224238Y-69626616D01*
X132224238Y-69626616D02*
X132129000Y-69674235D01*
X132129000Y-69674235D02*
X132081381Y-69721854D01*
X132081381Y-69721854D02*
X132033762Y-69817092D01*
X132033762Y-69817092D02*
X132033762Y-70007568D01*
X132033762Y-70007568D02*
X132081381Y-70102806D01*
X132081381Y-70102806D02*
X132129000Y-70150426D01*
X132129000Y-70150426D02*
X132224238Y-70198045D01*
X132224238Y-70198045D02*
X132414714Y-70198045D01*
X132414714Y-70198045D02*
X132509952Y-70150426D01*
X132509952Y-70150426D02*
X132557571Y-70102806D01*
X132557571Y-70102806D02*
X132605190Y-70007568D01*
X132605190Y-70007568D02*
X132605190Y-69817092D01*
X132605190Y-69817092D02*
X132557571Y-69721854D01*
X132557571Y-69721854D02*
X132509952Y-69674235D01*
X132509952Y-69674235D02*
X132414714Y-69626616D01*
X140599271Y-57498659D02*
X140265938Y-57022468D01*
X140027843Y-57498659D02*
X140027843Y-56498659D01*
X140027843Y-56498659D02*
X140408795Y-56498659D01*
X140408795Y-56498659D02*
X140504033Y-56546278D01*
X140504033Y-56546278D02*
X140551652Y-56593897D01*
X140551652Y-56593897D02*
X140599271Y-56689135D01*
X140599271Y-56689135D02*
X140599271Y-56831992D01*
X140599271Y-56831992D02*
X140551652Y-56927230D01*
X140551652Y-56927230D02*
X140504033Y-56974849D01*
X140504033Y-56974849D02*
X140408795Y-57022468D01*
X140408795Y-57022468D02*
X140027843Y-57022468D01*
X140932605Y-56498659D02*
X141599271Y-56498659D01*
X141599271Y-56498659D02*
X141170700Y-57498659D01*
X113733333Y-53909580D02*
X113685714Y-53957200D01*
X113685714Y-53957200D02*
X113542857Y-54004819D01*
X113542857Y-54004819D02*
X113447619Y-54004819D01*
X113447619Y-54004819D02*
X113304762Y-53957200D01*
X113304762Y-53957200D02*
X113209524Y-53861961D01*
X113209524Y-53861961D02*
X113161905Y-53766723D01*
X113161905Y-53766723D02*
X113114286Y-53576247D01*
X113114286Y-53576247D02*
X113114286Y-53433390D01*
X113114286Y-53433390D02*
X113161905Y-53242914D01*
X113161905Y-53242914D02*
X113209524Y-53147676D01*
X113209524Y-53147676D02*
X113304762Y-53052438D01*
X113304762Y-53052438D02*
X113447619Y-53004819D01*
X113447619Y-53004819D02*
X113542857Y-53004819D01*
X113542857Y-53004819D02*
X113685714Y-53052438D01*
X113685714Y-53052438D02*
X113733333Y-53100057D01*
X114590476Y-53338152D02*
X114590476Y-54004819D01*
X114352381Y-52957200D02*
X114114286Y-53671485D01*
X114114286Y-53671485D02*
X114733333Y-53671485D01*
X133975617Y-77094128D02*
X134785140Y-77094128D01*
X134785140Y-77094128D02*
X134880378Y-77046509D01*
X134880378Y-77046509D02*
X134927998Y-76998890D01*
X134927998Y-76998890D02*
X134975617Y-76903652D01*
X134975617Y-76903652D02*
X134975617Y-76713176D01*
X134975617Y-76713176D02*
X134927998Y-76617938D01*
X134927998Y-76617938D02*
X134880378Y-76570319D01*
X134880378Y-76570319D02*
X134785140Y-76522700D01*
X134785140Y-76522700D02*
X133975617Y-76522700D01*
X133975617Y-76141747D02*
X133975617Y-75522700D01*
X133975617Y-75522700D02*
X134356569Y-75856033D01*
X134356569Y-75856033D02*
X134356569Y-75713176D01*
X134356569Y-75713176D02*
X134404188Y-75617938D01*
X134404188Y-75617938D02*
X134451807Y-75570319D01*
X134451807Y-75570319D02*
X134547045Y-75522700D01*
X134547045Y-75522700D02*
X134785140Y-75522700D01*
X134785140Y-75522700D02*
X134880378Y-75570319D01*
X134880378Y-75570319D02*
X134927998Y-75617938D01*
X134927998Y-75617938D02*
X134975617Y-75713176D01*
X134975617Y-75713176D02*
X134975617Y-75998890D01*
X134975617Y-75998890D02*
X134927998Y-76094128D01*
X134927998Y-76094128D02*
X134880378Y-76141747D01*
X140161103Y-75354818D02*
X139827770Y-74878627D01*
X139589675Y-75354818D02*
X139589675Y-74354818D01*
X139589675Y-74354818D02*
X139970627Y-74354818D01*
X139970627Y-74354818D02*
X140065865Y-74402437D01*
X140065865Y-74402437D02*
X140113484Y-74450056D01*
X140113484Y-74450056D02*
X140161103Y-74545294D01*
X140161103Y-74545294D02*
X140161103Y-74688151D01*
X140161103Y-74688151D02*
X140113484Y-74783389D01*
X140113484Y-74783389D02*
X140065865Y-74831008D01*
X140065865Y-74831008D02*
X139970627Y-74878627D01*
X139970627Y-74878627D02*
X139589675Y-74878627D01*
X140637294Y-75354818D02*
X140827770Y-75354818D01*
X140827770Y-75354818D02*
X140923008Y-75307199D01*
X140923008Y-75307199D02*
X140970627Y-75259579D01*
X140970627Y-75259579D02*
X141065865Y-75116722D01*
X141065865Y-75116722D02*
X141113484Y-74926246D01*
X141113484Y-74926246D02*
X141113484Y-74545294D01*
X141113484Y-74545294D02*
X141065865Y-74450056D01*
X141065865Y-74450056D02*
X141018246Y-74402437D01*
X141018246Y-74402437D02*
X140923008Y-74354818D01*
X140923008Y-74354818D02*
X140732532Y-74354818D01*
X140732532Y-74354818D02*
X140637294Y-74402437D01*
X140637294Y-74402437D02*
X140589675Y-74450056D01*
X140589675Y-74450056D02*
X140542056Y-74545294D01*
X140542056Y-74545294D02*
X140542056Y-74783389D01*
X140542056Y-74783389D02*
X140589675Y-74878627D01*
X140589675Y-74878627D02*
X140637294Y-74926246D01*
X140637294Y-74926246D02*
X140732532Y-74973865D01*
X140732532Y-74973865D02*
X140923008Y-74973865D01*
X140923008Y-74973865D02*
X141018246Y-74926246D01*
X141018246Y-74926246D02*
X141065865Y-74878627D01*
X141065865Y-74878627D02*
X141113484Y-74783389D01*
X140217487Y-78215216D02*
X139884154Y-77739025D01*
X139646059Y-78215216D02*
X139646059Y-77215216D01*
X139646059Y-77215216D02*
X140027011Y-77215216D01*
X140027011Y-77215216D02*
X140122249Y-77262835D01*
X140122249Y-77262835D02*
X140169868Y-77310454D01*
X140169868Y-77310454D02*
X140217487Y-77405692D01*
X140217487Y-77405692D02*
X140217487Y-77548549D01*
X140217487Y-77548549D02*
X140169868Y-77643787D01*
X140169868Y-77643787D02*
X140122249Y-77691406D01*
X140122249Y-77691406D02*
X140027011Y-77739025D01*
X140027011Y-77739025D02*
X139646059Y-77739025D01*
X141169868Y-78215216D02*
X140598440Y-78215216D01*
X140884154Y-78215216D02*
X140884154Y-77215216D01*
X140884154Y-77215216D02*
X140788916Y-77358073D01*
X140788916Y-77358073D02*
X140693678Y-77453311D01*
X140693678Y-77453311D02*
X140598440Y-77500930D01*
X141788916Y-77215216D02*
X141884154Y-77215216D01*
X141884154Y-77215216D02*
X141979392Y-77262835D01*
X141979392Y-77262835D02*
X142027011Y-77310454D01*
X142027011Y-77310454D02*
X142074630Y-77405692D01*
X142074630Y-77405692D02*
X142122249Y-77596168D01*
X142122249Y-77596168D02*
X142122249Y-77834263D01*
X142122249Y-77834263D02*
X142074630Y-78024739D01*
X142074630Y-78024739D02*
X142027011Y-78119977D01*
X142027011Y-78119977D02*
X141979392Y-78167597D01*
X141979392Y-78167597D02*
X141884154Y-78215216D01*
X141884154Y-78215216D02*
X141788916Y-78215216D01*
X141788916Y-78215216D02*
X141693678Y-78167597D01*
X141693678Y-78167597D02*
X141646059Y-78119977D01*
X141646059Y-78119977D02*
X141598440Y-78024739D01*
X141598440Y-78024739D02*
X141550821Y-77834263D01*
X141550821Y-77834263D02*
X141550821Y-77596168D01*
X141550821Y-77596168D02*
X141598440Y-77405692D01*
X141598440Y-77405692D02*
X141646059Y-77310454D01*
X141646059Y-77310454D02*
X141693678Y-77262835D01*
X141693678Y-77262835D02*
X141788916Y-77215216D01*
X137470833Y-90604819D02*
X137137500Y-90128628D01*
X136899405Y-90604819D02*
X136899405Y-89604819D01*
X136899405Y-89604819D02*
X137280357Y-89604819D01*
X137280357Y-89604819D02*
X137375595Y-89652438D01*
X137375595Y-89652438D02*
X137423214Y-89700057D01*
X137423214Y-89700057D02*
X137470833Y-89795295D01*
X137470833Y-89795295D02*
X137470833Y-89938152D01*
X137470833Y-89938152D02*
X137423214Y-90033390D01*
X137423214Y-90033390D02*
X137375595Y-90081009D01*
X137375595Y-90081009D02*
X137280357Y-90128628D01*
X137280357Y-90128628D02*
X136899405Y-90128628D01*
X138423214Y-90604819D02*
X137851786Y-90604819D01*
X138137500Y-90604819D02*
X138137500Y-89604819D01*
X138137500Y-89604819D02*
X138042262Y-89747676D01*
X138042262Y-89747676D02*
X137947024Y-89842914D01*
X137947024Y-89842914D02*
X137851786Y-89890533D01*
D13*
X135265000Y-96735436D02*
X135265000Y-97189564D01*
X136735000Y-96735436D02*
X136735000Y-97189564D01*
X121650000Y-72300000D02*
G75*
G02*
X119750000Y-72300000I-950000J0D01*
G01*
X119750000Y-72300000D02*
G75*
G02*
X121650000Y-72300000I950000J0D01*
G01*
X116172936Y-77765000D02*
X116627064Y-77765000D01*
X116172936Y-79235000D02*
X116627064Y-79235000D01*
X131072936Y-91415000D02*
X131527064Y-91415000D01*
X131072936Y-92885000D02*
X131527064Y-92885000D01*
D11*
X130870000Y-80470000D02*
X130870000Y-81510000D01*
X130870000Y-83530000D02*
X130870000Y-82490000D01*
X132330000Y-80470000D02*
X130870000Y-80470000D01*
X132330000Y-81540000D02*
X132330000Y-82460000D01*
X132330000Y-83530000D02*
X130870000Y-83530000D01*
D13*
X122800000Y-98970000D02*
X122800000Y-100750000D01*
X124700000Y-96050000D02*
X123900000Y-96050000D01*
X132200000Y-98970000D02*
X132200000Y-100750000D01*
X122322936Y-78165000D02*
X122777064Y-78165000D01*
X122322936Y-79635000D02*
X122777064Y-79635000D01*
D11*
X114910000Y-65970000D02*
X114910000Y-70030000D01*
X114910000Y-70030000D02*
X115570000Y-70030000D01*
X117990000Y-65970000D02*
X117990000Y-70030000D01*
X117990000Y-70030000D02*
X117330000Y-70030000D01*
D14*
X117350000Y-68000000D02*
G75*
G02*
X115550000Y-68000000I-900000J0D01*
G01*
X115550000Y-68000000D02*
G75*
G02*
X117350000Y-68000000I900000J0D01*
G01*
D13*
X122288748Y-82415000D02*
X122811252Y-82415000D01*
X122288748Y-83885000D02*
X122811252Y-83885000D01*
X116659252Y-59463000D02*
X116136748Y-59463000D01*
X116659252Y-60933000D02*
X116136748Y-60933000D01*
X116659252Y-56161000D02*
X116136748Y-56161000D01*
X116659252Y-57631000D02*
X116136748Y-57631000D01*
D11*
X137010000Y-65970000D02*
X137010000Y-70030000D01*
X137010000Y-70030000D02*
X137670000Y-70030000D01*
X140090000Y-65970000D02*
X140090000Y-70030000D01*
X140090000Y-70030000D02*
X139430000Y-70030000D01*
D14*
X139450000Y-68000000D02*
G75*
G02*
X137650000Y-68000000I-900000J0D01*
G01*
X137650000Y-68000000D02*
G75*
G02*
X139450000Y-68000000I900000J0D01*
G01*
D13*
X118265000Y-96735436D02*
X118265000Y-97189564D01*
X119735000Y-96735436D02*
X119735000Y-97189564D01*
X136050000Y-79790000D02*
X136050000Y-85300000D01*
X139350000Y-79790000D02*
X136050000Y-79790000D01*
X139350000Y-79790000D02*
X139350000Y-85300000D01*
D11*
X123500000Y-69100000D02*
X125300000Y-69100000D01*
X123500000Y-72200000D02*
X125300000Y-72200000D01*
X125300000Y-71110000D02*
X125300000Y-70190000D01*
D10*
X123250000Y-68980000D02*
G75*
G02*
X122950000Y-68980000I-150000J0D01*
G01*
X122950000Y-68980000D02*
G75*
G02*
X123250000Y-68980000I150000J0D01*
G01*
D14*
X112920000Y-92500000D02*
X112920000Y-87700000D01*
X118940000Y-87100000D02*
X120520000Y-87100000D01*
X118940000Y-88370000D02*
X118940000Y-87100000D01*
X118950000Y-90370000D02*
X118950000Y-89830000D01*
X118950000Y-93100000D02*
X118950000Y-91830000D01*
X120520000Y-86150000D02*
X116300000Y-86150000D01*
X120520000Y-87100000D02*
X120520000Y-86150000D01*
X120520000Y-93100000D02*
X118950000Y-93100000D01*
X120520000Y-94050000D02*
X116300000Y-94050000D01*
X120520000Y-94050000D02*
X120520000Y-93100000D01*
X130350000Y-66000000D02*
X130350000Y-66010000D01*
D11*
X130650000Y-68250000D02*
X132650000Y-68250000D01*
X131400000Y-66400000D02*
X131400000Y-67850000D01*
X131400000Y-66400000D02*
X131550000Y-66400000D01*
X131550000Y-66400000D02*
X131550000Y-67800000D01*
X131550000Y-67800000D02*
X131550000Y-67850000D01*
X131550000Y-67850000D02*
X131400000Y-67850000D01*
X132650000Y-66050000D02*
X130650000Y-66050000D01*
D13*
X128202349Y-74749188D02*
X127679845Y-74749188D01*
X128202349Y-76219188D02*
X127679845Y-76219188D01*
X131577064Y-85015000D02*
X131122936Y-85015000D01*
X131577064Y-86485000D02*
X131122936Y-86485000D01*
D14*
X129190000Y-88400000D02*
X129570000Y-88020000D01*
X129190000Y-89670000D02*
X129190000Y-88400000D01*
X129570000Y-88020000D02*
X131090000Y-88020000D01*
X129600000Y-90080000D02*
X129190000Y-89670000D01*
X131070000Y-90080000D02*
X129600000Y-90080000D01*
X131110000Y-89040000D02*
X131210000Y-89140000D01*
X131210000Y-88940000D02*
X131110000Y-89040000D01*
X131210000Y-89140000D02*
X131610000Y-89540000D01*
X131610000Y-88540000D02*
X131210000Y-88940000D01*
X131610000Y-88540000D02*
X131610000Y-89540000D01*
X131860000Y-90060000D02*
X133410000Y-90060000D01*
X133410000Y-88020000D02*
X131860000Y-88020000D01*
X133410000Y-90060000D02*
X133410000Y-88020000D01*
D13*
X116711252Y-81215000D02*
X116188748Y-81215000D01*
X116711252Y-82685000D02*
X116188748Y-82685000D01*
X137938748Y-53565000D02*
X138461252Y-53565000D01*
X137938748Y-55035000D02*
X138461252Y-55035000D01*
D11*
X124520000Y-89400000D02*
X124520000Y-91100000D01*
X125570000Y-91100000D02*
X126530000Y-91100000D01*
X127580000Y-89400000D02*
X127580000Y-91100000D01*
D10*
X127850000Y-89110000D02*
G75*
G02*
X127550000Y-89110000I-150000J0D01*
G01*
X127550000Y-89110000D02*
G75*
G02*
X127850000Y-89110000I150000J0D01*
G01*
D13*
X116627064Y-74365000D02*
X116172936Y-74365000D01*
X116627064Y-75835000D02*
X116172936Y-75835000D01*
X123550000Y-66500000D02*
G75*
G02*
X121650000Y-66500000I-950000J0D01*
G01*
X121650000Y-66500000D02*
G75*
G02*
X123550000Y-66500000I950000J0D01*
G01*
X128170154Y-78116495D02*
X127647650Y-78116495D01*
X128170154Y-79586495D02*
X127647650Y-79586495D01*
X132027064Y-70465000D02*
X131572936Y-70465000D01*
X132027064Y-71935000D02*
X131572936Y-71935000D01*
X137972936Y-56265000D02*
X138427064Y-56265000D01*
X137972936Y-57735000D02*
X138427064Y-57735000D01*
X116659252Y-52859000D02*
X116136748Y-52859000D01*
X116659252Y-54329000D02*
X116136748Y-54329000D01*
D15*
X130097500Y-74602498D02*
X130377500Y-74602498D01*
X130097500Y-75302498D02*
X130097500Y-74602498D01*
X130097500Y-78052498D02*
X130097500Y-77352498D01*
X130377500Y-78052498D02*
X130097500Y-78052498D01*
X133277500Y-78052498D02*
X133547500Y-78052498D01*
X133547500Y-74602498D02*
X133277500Y-74602498D01*
X133547500Y-75302498D02*
X133547500Y-74602498D01*
X133547500Y-78052498D02*
X133547500Y-77352498D01*
D14*
X130247501Y-78382498D02*
G75*
G02*
X130247499Y-78382498I-1J0D01*
G01*
X130247499Y-78382498D02*
G75*
G02*
X130247501Y-78382498I1J0D01*
G01*
D13*
X137535436Y-74165000D02*
X137989564Y-74165000D01*
X137535436Y-75635000D02*
X137989564Y-75635000D01*
X137572936Y-76965000D02*
X138027064Y-76965000D01*
X137572936Y-78435000D02*
X138027064Y-78435000D01*
X137410436Y-91065000D02*
X137864564Y-91065000D01*
X137410436Y-92535000D02*
X137864564Y-92535000D01*
%LPC*%
D16*
X136000000Y-96050000D03*
X136000000Y-97875000D03*
D17*
X120700000Y-72300000D03*
D18*
X115487500Y-78500000D03*
X117312500Y-78500000D03*
D19*
X120500000Y-50800000D03*
X120500000Y-51650000D03*
X120500000Y-52500000D03*
X120500000Y-53350000D03*
X120500000Y-54200000D03*
X120500000Y-55050000D03*
X120500000Y-55900000D03*
X120500000Y-56750000D03*
X120500000Y-57600000D03*
X120500000Y-58450000D03*
X120500000Y-59300000D03*
X120500000Y-60150000D03*
X120500000Y-61000000D03*
X120500000Y-61850000D03*
X120500000Y-62700000D03*
D20*
X121550000Y-63750000D03*
X122400000Y-63750000D03*
X123250000Y-63750000D03*
X124100000Y-63750000D03*
X124950000Y-63750000D03*
X125800000Y-63750000D03*
X126650000Y-63750000D03*
X127500000Y-63750000D03*
X128350000Y-63750000D03*
X129200000Y-63750000D03*
X130050000Y-63750000D03*
X130900000Y-63750000D03*
X131750000Y-63750000D03*
X132600000Y-63750000D03*
X133450000Y-63750000D03*
D19*
X134500000Y-62700000D03*
X134500000Y-61850000D03*
X134500000Y-61000000D03*
X134500000Y-60150000D03*
X134500000Y-59300000D03*
X134500000Y-58450000D03*
X134500000Y-57600000D03*
X134500000Y-56750000D03*
X134500000Y-55900000D03*
X134500000Y-55050000D03*
X134500000Y-54200000D03*
X134500000Y-53350000D03*
X134500000Y-52500000D03*
X134500000Y-51650000D03*
X134500000Y-50800000D03*
D20*
X133450000Y-49750000D03*
X132600000Y-49750000D03*
X131750000Y-49750000D03*
X130900000Y-49750000D03*
X130050000Y-49750000D03*
X129200000Y-49750000D03*
X128350000Y-49750000D03*
X127500000Y-49750000D03*
X126650000Y-49750000D03*
X125800000Y-49750000D03*
X124950000Y-49750000D03*
X124100000Y-49750000D03*
X123250000Y-49750000D03*
X122400000Y-49750000D03*
X121550000Y-49750000D03*
D21*
X125850000Y-55100000D03*
D22*
X125850000Y-56750000D03*
X125850000Y-58400000D03*
X127500000Y-55100000D03*
X127500000Y-56750000D03*
X127500000Y-58400000D03*
X129150000Y-55100000D03*
X129150000Y-56750000D03*
X129150000Y-58400000D03*
D23*
X120500000Y-49750000D03*
X120500000Y-63750000D03*
X134500000Y-63750000D03*
X134500000Y-49750000D03*
D18*
X130387500Y-92150000D03*
X132212500Y-92150000D03*
D24*
X132600000Y-82950000D03*
X132600000Y-81050000D03*
X130600000Y-82000000D03*
D25*
X124610000Y-98145000D03*
X130390000Y-98145000D03*
D26*
X124300000Y-97005000D03*
X125100000Y-97005000D03*
D27*
X126250000Y-97005000D03*
X127250000Y-97005000D03*
X127750000Y-97005000D03*
X128750000Y-97005000D03*
D26*
X129900000Y-97005000D03*
X130700000Y-97005000D03*
X130700000Y-97005000D03*
X129900000Y-97005000D03*
D27*
X129250000Y-97005000D03*
X128250000Y-97005000D03*
X126750000Y-97005000D03*
X125750000Y-97005000D03*
D26*
X125100000Y-97005000D03*
X124300000Y-97005000D03*
D28*
X123180000Y-97645000D03*
D29*
X123180000Y-101825000D03*
D28*
X131820000Y-97645000D03*
D29*
X131820000Y-101825000D03*
D18*
X121637500Y-78900000D03*
X123462500Y-78900000D03*
D30*
X116450000Y-70180000D03*
X116450000Y-65820000D03*
D31*
X121600000Y-83150000D03*
X123500000Y-83150000D03*
D32*
X117348000Y-60198000D03*
X115448000Y-60198000D03*
X117348000Y-56896000D03*
X115448000Y-56896000D03*
D30*
X138550000Y-70180000D03*
X138550000Y-65820000D03*
D16*
X119000000Y-96050000D03*
X119000000Y-97875000D03*
D33*
X137700000Y-81300000D03*
X137700000Y-85300000D03*
D34*
X123250000Y-69700000D03*
X123250000Y-70650000D03*
X123250000Y-71600000D03*
X125550000Y-71600000D03*
X125550000Y-69700000D03*
D35*
X120230000Y-89100000D03*
X120230000Y-91100000D03*
D36*
X114370000Y-93450000D03*
X114370000Y-86750000D03*
D37*
X130730000Y-66600000D03*
X130730000Y-67700000D03*
X132570000Y-67700000D03*
X132570000Y-66600000D03*
D32*
X128891097Y-75484188D03*
X126991097Y-75484188D03*
D38*
X132262500Y-85750000D03*
X130437500Y-85750000D03*
D39*
X132460000Y-89040000D03*
X130360000Y-89040000D03*
D32*
X117400000Y-81950000D03*
X115500000Y-81950000D03*
D31*
X137250000Y-54300000D03*
X139150000Y-54300000D03*
D40*
X127000000Y-89100000D03*
X126050000Y-89100000D03*
X125100000Y-89100000D03*
D41*
X125100000Y-91400000D03*
X127000000Y-91400000D03*
D38*
X117312500Y-75100000D03*
X115487500Y-75100000D03*
D17*
X122600000Y-66500000D03*
D32*
X128858902Y-78851495D03*
X126958902Y-78851495D03*
D38*
X132712500Y-71200000D03*
X130887500Y-71200000D03*
D18*
X137287500Y-57000000D03*
X139112500Y-57000000D03*
D32*
X117348000Y-53594000D03*
X115448000Y-53594000D03*
D42*
X130827500Y-77732498D03*
X131327500Y-77732498D03*
X131827500Y-77732498D03*
X132327500Y-77732498D03*
X132827500Y-77732498D03*
D43*
X133227500Y-76832498D03*
X133227500Y-76332498D03*
X133227500Y-75832498D03*
D42*
X132827500Y-74932498D03*
X132327500Y-74932498D03*
X131827500Y-74932498D03*
X131327500Y-74932498D03*
X130827500Y-74932498D03*
D43*
X130427500Y-75832498D03*
X130427500Y-76332498D03*
X130427500Y-76832498D03*
D18*
X136850000Y-74900000D03*
X138675000Y-74900000D03*
X136887500Y-77700000D03*
X138712500Y-77700000D03*
X136725000Y-91800000D03*
X138550000Y-91800000D03*
%LPD*%
M02*
