G04 #@! TF.GenerationSoftware,KiCad,Pcbnew,8.0.0-rc2-494-g6bc7bcffef*
G04 #@! TF.CreationDate,2024-03-15T23:56:00+00:00*
G04 #@! TF.ProjectId,Wakeboard,57616b65-626f-4617-9264-2e6b69636164,rev?*
G04 #@! TF.SameCoordinates,Original*
G04 #@! TF.FileFunction,Paste,Top*
G04 #@! TF.FilePolarity,Positive*
%FSLAX46Y46*%
G04 Gerber Fmt 4.6, Leading zero omitted, Abs format (unit mm)*
G04 Created by KiCad (PCBNEW 8.0.0-rc2-494-g6bc7bcffef) date 2024-03-15 23:56:00*
%MOMM*%
%LPD*%
G01*
G04 APERTURE LIST*
G04 Aperture macros list*
%AMRoundRect*
0 Rectangle with rounded corners*
0 $1 Rounding radius*
0 $2 $3 $4 $5 $6 $7 $8 $9 X,Y pos of 4 corners*
0 Add a 4 corners polygon primitive as box body*
4,1,4,$2,$3,$4,$5,$6,$7,$8,$9,$2,$3,0*
0 Add four circle primitives for the rounded corners*
1,1,$1+$1,$2,$3*
1,1,$1+$1,$4,$5*
1,1,$1+$1,$6,$7*
1,1,$1+$1,$8,$9*
0 Add four rect primitives between the rounded corners*
20,1,$1+$1,$2,$3,$4,$5,0*
20,1,$1+$1,$4,$5,$6,$7,0*
20,1,$1+$1,$6,$7,$8,$9,0*
20,1,$1+$1,$8,$9,$2,$3,0*%
%AMOutline5P*
0 Free polygon, 5 corners , with rotation*
0 The origin of the aperture is its center*
0 number of corners: always 5*
0 $1 to $10 corner X, Y*
0 $11 Rotation angle, in degrees counterclockwise*
0 create outline with 5 corners*
4,1,5,$1,$2,$3,$4,$5,$6,$7,$8,$9,$10,$1,$2,$11*%
%AMOutline6P*
0 Free polygon, 6 corners , with rotation*
0 The origin of the aperture is its center*
0 number of corners: always 6*
0 $1 to $12 corner X, Y*
0 $13 Rotation angle, in degrees counterclockwise*
0 create outline with 6 corners*
4,1,6,$1,$2,$3,$4,$5,$6,$7,$8,$9,$10,$11,$12,$1,$2,$13*%
%AMOutline7P*
0 Free polygon, 7 corners , with rotation*
0 The origin of the aperture is its center*
0 number of corners: always 7*
0 $1 to $14 corner X, Y*
0 $15 Rotation angle, in degrees counterclockwise*
0 create outline with 7 corners*
4,1,7,$1,$2,$3,$4,$5,$6,$7,$8,$9,$10,$11,$12,$13,$14,$1,$2,$15*%
%AMOutline8P*
0 Free polygon, 8 corners , with rotation*
0 The origin of the aperture is its center*
0 number of corners: always 8*
0 $1 to $16 corner X, Y*
0 $17 Rotation angle, in degrees counterclockwise*
0 create outline with 8 corners*
4,1,8,$1,$2,$3,$4,$5,$6,$7,$8,$9,$10,$11,$12,$13,$14,$15,$16,$1,$2,$17*%
G04 Aperture macros list end*
%ADD10RoundRect,0.250000X-0.450000X0.262500X-0.450000X-0.262500X0.450000X-0.262500X0.450000X0.262500X0*%
%ADD11R,0.800000X0.400000*%
%ADD12R,0.400000X0.800000*%
%ADD13Outline5P,-0.600000X0.204000X-0.204000X0.600000X0.600000X0.600000X0.600000X-0.600000X-0.600000X-0.600000X0.000000*%
%ADD14R,1.200000X1.200000*%
%ADD15R,0.800000X0.800000*%
%ADD16R,1.250000X0.700000*%
%ADD17RoundRect,0.150000X-0.150000X-0.500000X0.150000X-0.500000X0.150000X0.500000X-0.150000X0.500000X0*%
%ADD18RoundRect,0.075000X-0.075000X-0.575000X0.075000X-0.575000X0.075000X0.575000X-0.075000X0.575000X0*%
%ADD19RoundRect,0.250000X-0.262500X-0.450000X0.262500X-0.450000X0.262500X0.450000X-0.262500X0.450000X0*%
%ADD20R,1.360000X1.230000*%
%ADD21RoundRect,0.250000X-0.250000X-0.475000X0.250000X-0.475000X0.250000X0.475000X-0.250000X0.475000X0*%
%ADD22RoundRect,0.250000X0.250000X0.475000X-0.250000X0.475000X-0.250000X-0.475000X0.250000X-0.475000X0*%
%ADD23RoundRect,0.250000X-1.000000X-0.650000X1.000000X-0.650000X1.000000X0.650000X-1.000000X0.650000X0*%
%ADD24R,1.050000X0.530000*%
%ADD25R,3.800000X1.000000*%
%ADD26R,3.400000X1.500000*%
%ADD27R,0.900000X0.700000*%
%ADD28RoundRect,0.250000X0.262500X0.450000X-0.262500X0.450000X-0.262500X-0.450000X0.262500X-0.450000X0*%
%ADD29R,1.000000X1.400000*%
%ADD30R,0.490000X1.160000*%
%ADD31R,0.490000X1.180000*%
%ADD32RoundRect,0.250000X0.450000X-0.262500X0.450000X0.262500X-0.450000X0.262500X-0.450000X-0.262500X0*%
%ADD33O,0.280000X0.800000*%
%ADD34O,0.800000X0.280000*%
G04 APERTURE END LIST*
D10*
X136800000Y-93087500D03*
X136800000Y-94912500D03*
X115100000Y-74050000D03*
X115100000Y-75875000D03*
D11*
X120500000Y-50350000D03*
X120500000Y-51200000D03*
X120500000Y-52050000D03*
X120500000Y-52900000D03*
X120500000Y-53750000D03*
X120500000Y-54600000D03*
X120500000Y-55450000D03*
X120500000Y-56300000D03*
X120500000Y-57150000D03*
X120500000Y-58000000D03*
X120500000Y-58850000D03*
X120500000Y-59700000D03*
X120500000Y-60550000D03*
X120500000Y-61400000D03*
X120500000Y-62250000D03*
D12*
X121550000Y-63300000D03*
X122400000Y-63300000D03*
X123250000Y-63300000D03*
X124100000Y-63300000D03*
X124950000Y-63300000D03*
X125800000Y-63300000D03*
X126650000Y-63300000D03*
X127500000Y-63300000D03*
X128350000Y-63300000D03*
X129200000Y-63300000D03*
X130050000Y-63300000D03*
X130900000Y-63300000D03*
X131750000Y-63300000D03*
X132600000Y-63300000D03*
X133450000Y-63300000D03*
D11*
X134500000Y-62250000D03*
X134500000Y-61400000D03*
X134500000Y-60550000D03*
X134500000Y-59700000D03*
X134500000Y-58850000D03*
X134500000Y-58000000D03*
X134500000Y-57150000D03*
X134500000Y-56300000D03*
X134500000Y-55450000D03*
X134500000Y-54600000D03*
X134500000Y-53750000D03*
X134500000Y-52900000D03*
X134500000Y-52050000D03*
X134500000Y-51200000D03*
X134500000Y-50350000D03*
D12*
X133450000Y-49300000D03*
X132600000Y-49300000D03*
X131750000Y-49300000D03*
X130900000Y-49300000D03*
X130050000Y-49300000D03*
X129200000Y-49300000D03*
X128350000Y-49300000D03*
X127500000Y-49300000D03*
X126650000Y-49300000D03*
X125800000Y-49300000D03*
X124950000Y-49300000D03*
X124100000Y-49300000D03*
X123250000Y-49300000D03*
X122400000Y-49300000D03*
X121550000Y-49300000D03*
D13*
X125850000Y-54650000D03*
D14*
X125850000Y-56300000D03*
X125850000Y-57950000D03*
X127500000Y-54650000D03*
X127500000Y-56300000D03*
X127500000Y-57950000D03*
X129150000Y-54650000D03*
X129150000Y-56300000D03*
X129150000Y-57950000D03*
D15*
X120500000Y-49300000D03*
X120500000Y-63300000D03*
X134500000Y-63300000D03*
X134500000Y-49300000D03*
D10*
X128800000Y-88187500D03*
X128800000Y-90012500D03*
D16*
X133200000Y-82600000D03*
X133200000Y-80700000D03*
X131200000Y-81650000D03*
D17*
X124300000Y-94250000D03*
X125100000Y-94250000D03*
D18*
X126250000Y-94250000D03*
X127250000Y-94250000D03*
X127750000Y-94250000D03*
X128750000Y-94250000D03*
D17*
X129900000Y-94250000D03*
X130700000Y-94250000D03*
X130700000Y-94250000D03*
X129900000Y-94250000D03*
D18*
X129250000Y-94250000D03*
X128250000Y-94250000D03*
X126750000Y-94250000D03*
X125750000Y-94250000D03*
D17*
X125100000Y-94250000D03*
X124300000Y-94250000D03*
D19*
X121637500Y-74800000D03*
X123462500Y-74800000D03*
D20*
X115400000Y-69180000D03*
X115400000Y-64820000D03*
D21*
X121600000Y-78800000D03*
X123500000Y-78800000D03*
D22*
X117348000Y-59748000D03*
X115448000Y-59748000D03*
X117348000Y-56446000D03*
X115448000Y-56446000D03*
D20*
X139600000Y-69180000D03*
X139600000Y-64820000D03*
D10*
X118200000Y-93087500D03*
X118200000Y-94912500D03*
D23*
X136000000Y-80700000D03*
X140000000Y-80700000D03*
D24*
X123250000Y-69250000D03*
X123250000Y-70200000D03*
X123250000Y-71150000D03*
X125550000Y-71150000D03*
X125550000Y-69250000D03*
D25*
X123930000Y-85450000D03*
X123930000Y-87450000D03*
D26*
X118070000Y-89800000D03*
X118070000Y-83100000D03*
D27*
X130730000Y-66150000D03*
X130730000Y-67250000D03*
X132570000Y-67250000D03*
X132570000Y-66150000D03*
D22*
X128891097Y-75034188D03*
X126991097Y-75034188D03*
D28*
X133012500Y-85700000D03*
X131187500Y-85700000D03*
D29*
X133250000Y-89000000D03*
X131150000Y-89000000D03*
D21*
X115350000Y-78800000D03*
X117250000Y-78800000D03*
X137650000Y-53850000D03*
X139550000Y-53850000D03*
D30*
X128750000Y-83750000D03*
X127800000Y-83750000D03*
X126850000Y-83750000D03*
D31*
X126850000Y-86050000D03*
X128750000Y-86050000D03*
D32*
X117700000Y-75875000D03*
X117700000Y-74050000D03*
D22*
X128858902Y-78401495D03*
X126958902Y-78401495D03*
D28*
X132712500Y-70750000D03*
X130887500Y-70750000D03*
D19*
X137687500Y-56550000D03*
X139512500Y-56550000D03*
D22*
X117348000Y-53144000D03*
X115448000Y-53144000D03*
D33*
X130827500Y-77282498D03*
X131327500Y-77282498D03*
X131827500Y-77282498D03*
X132327500Y-77282498D03*
X132827500Y-77282498D03*
D34*
X133227500Y-76382498D03*
X133227500Y-75882498D03*
X133227500Y-75382498D03*
D33*
X132827500Y-74482498D03*
X132327500Y-74482498D03*
X131827500Y-74482498D03*
X131327500Y-74482498D03*
X130827500Y-74482498D03*
D34*
X130427500Y-75382498D03*
X130427500Y-75882498D03*
X130427500Y-76382498D03*
D19*
X136850000Y-74450000D03*
X138675000Y-74450000D03*
X136887500Y-77250000D03*
X138712500Y-77250000D03*
X138550000Y-85700000D03*
X136725000Y-85700000D03*
M02*
