G04 #@! TF.GenerationSoftware,KiCad,Pcbnew,8.0.0-rc2-494-g6bc7bcffef*
G04 #@! TF.CreationDate,2024-03-15T23:56:00+00:00*
G04 #@! TF.ProjectId,Wakeboard,57616b65-626f-4617-9264-2e6b69636164,rev?*
G04 #@! TF.SameCoordinates,Original*
G04 #@! TF.FileFunction,Legend,Top*
G04 #@! TF.FilePolarity,Positive*
%FSLAX46Y46*%
G04 Gerber Fmt 4.6, Leading zero omitted, Abs format (unit mm)*
G04 Created by KiCad (PCBNEW 8.0.0-rc2-494-g6bc7bcffef) date 2024-03-15 23:56:00*
%MOMM*%
%LPD*%
G01*
G04 APERTURE LIST*
G04 Aperture macros list*
%AMRoundRect*
0 Rectangle with rounded corners*
0 $1 Rounding radius*
0 $2 $3 $4 $5 $6 $7 $8 $9 X,Y pos of 4 corners*
0 Add a 4 corners polygon primitive as box body*
4,1,4,$2,$3,$4,$5,$6,$7,$8,$9,$2,$3,0*
0 Add four circle primitives for the rounded corners*
1,1,$1+$1,$2,$3*
1,1,$1+$1,$4,$5*
1,1,$1+$1,$6,$7*
1,1,$1+$1,$8,$9*
0 Add four rect primitives between the rounded corners*
20,1,$1+$1,$2,$3,$4,$5,0*
20,1,$1+$1,$4,$5,$6,$7,0*
20,1,$1+$1,$6,$7,$8,$9,0*
20,1,$1+$1,$8,$9,$2,$3,0*%
%AMOutline5P*
0 Free polygon, 5 corners , with rotation*
0 The origin of the aperture is its center*
0 number of corners: always 5*
0 $1 to $10 corner X, Y*
0 $11 Rotation angle, in degrees counterclockwise*
0 create outline with 5 corners*
4,1,5,$1,$2,$3,$4,$5,$6,$7,$8,$9,$10,$1,$2,$11*%
%AMOutline6P*
0 Free polygon, 6 corners , with rotation*
0 The origin of the aperture is its center*
0 number of corners: always 6*
0 $1 to $12 corner X, Y*
0 $13 Rotation angle, in degrees counterclockwise*
0 create outline with 6 corners*
4,1,6,$1,$2,$3,$4,$5,$6,$7,$8,$9,$10,$11,$12,$1,$2,$13*%
%AMOutline7P*
0 Free polygon, 7 corners , with rotation*
0 The origin of the aperture is its center*
0 number of corners: always 7*
0 $1 to $14 corner X, Y*
0 $15 Rotation angle, in degrees counterclockwise*
0 create outline with 7 corners*
4,1,7,$1,$2,$3,$4,$5,$6,$7,$8,$9,$10,$11,$12,$13,$14,$1,$2,$15*%
%AMOutline8P*
0 Free polygon, 8 corners , with rotation*
0 The origin of the aperture is its center*
0 number of corners: always 8*
0 $1 to $16 corner X, Y*
0 $17 Rotation angle, in degrees counterclockwise*
0 create outline with 8 corners*
4,1,8,$1,$2,$3,$4,$5,$6,$7,$8,$9,$10,$11,$12,$13,$14,$15,$16,$1,$2,$17*%
G04 Aperture macros list end*
%ADD10C,0.300000*%
%ADD11C,0.150000*%
%ADD12C,0.158750*%
%ADD13C,0.120000*%
%ADD14C,0.250000*%
%ADD15C,0.200000*%
%ADD16C,1.500000*%
%ADD17RoundRect,0.250000X-0.450000X0.262500X-0.450000X-0.262500X0.450000X-0.262500X0.450000X0.262500X0*%
%ADD18R,0.800000X0.400000*%
%ADD19R,0.400000X0.800000*%
%ADD20Outline5P,-0.600000X0.204000X-0.204000X0.600000X0.600000X0.600000X0.600000X-0.600000X-0.600000X-0.600000X0.000000*%
%ADD21R,1.200000X1.200000*%
%ADD22R,0.800000X0.800000*%
%ADD23R,1.250000X0.700000*%
%ADD24C,0.650000*%
%ADD25RoundRect,0.150000X-0.150000X-0.500000X0.150000X-0.500000X0.150000X0.500000X-0.150000X0.500000X0*%
%ADD26RoundRect,0.075000X-0.075000X-0.575000X0.075000X-0.575000X0.075000X0.575000X-0.075000X0.575000X0*%
%ADD27O,1.000000X2.100000*%
%ADD28O,1.000000X1.600000*%
%ADD29RoundRect,0.250000X-0.262500X-0.450000X0.262500X-0.450000X0.262500X0.450000X-0.262500X0.450000X0*%
%ADD30R,1.360000X1.230000*%
%ADD31RoundRect,0.250000X-0.250000X-0.475000X0.250000X-0.475000X0.250000X0.475000X-0.250000X0.475000X0*%
%ADD32RoundRect,0.250000X0.250000X0.475000X-0.250000X0.475000X-0.250000X-0.475000X0.250000X-0.475000X0*%
%ADD33RoundRect,0.250000X-1.000000X-0.650000X1.000000X-0.650000X1.000000X0.650000X-1.000000X0.650000X0*%
%ADD34R,1.050000X0.530000*%
%ADD35R,3.800000X1.000000*%
%ADD36R,3.400000X1.500000*%
%ADD37R,0.900000X0.700000*%
%ADD38RoundRect,0.250000X0.262500X0.450000X-0.262500X0.450000X-0.262500X-0.450000X0.262500X-0.450000X0*%
%ADD39R,1.000000X1.400000*%
%ADD40R,0.490000X1.160000*%
%ADD41R,0.490000X1.180000*%
%ADD42RoundRect,0.250000X0.450000X-0.262500X0.450000X0.262500X-0.450000X0.262500X-0.450000X-0.262500X0*%
%ADD43O,0.280000X0.800000*%
%ADD44O,0.800000X0.280000*%
G04 APERTURE END LIST*
D10*
X125329400Y-90445489D02*
X125329400Y-89302632D01*
X124784513Y-82959634D02*
X125927371Y-82959634D01*
X125355942Y-83531062D02*
X125355942Y-82388205D01*
D11*
X138533333Y-94454819D02*
X138200000Y-93978628D01*
X137961905Y-94454819D02*
X137961905Y-93454819D01*
X137961905Y-93454819D02*
X138342857Y-93454819D01*
X138342857Y-93454819D02*
X138438095Y-93502438D01*
X138438095Y-93502438D02*
X138485714Y-93550057D01*
X138485714Y-93550057D02*
X138533333Y-93645295D01*
X138533333Y-93645295D02*
X138533333Y-93788152D01*
X138533333Y-93788152D02*
X138485714Y-93883390D01*
X138485714Y-93883390D02*
X138438095Y-93931009D01*
X138438095Y-93931009D02*
X138342857Y-93978628D01*
X138342857Y-93978628D02*
X137961905Y-93978628D01*
X138866667Y-93454819D02*
X139485714Y-93454819D01*
X139485714Y-93454819D02*
X139152381Y-93835771D01*
X139152381Y-93835771D02*
X139295238Y-93835771D01*
X139295238Y-93835771D02*
X139390476Y-93883390D01*
X139390476Y-93883390D02*
X139438095Y-93931009D01*
X139438095Y-93931009D02*
X139485714Y-94026247D01*
X139485714Y-94026247D02*
X139485714Y-94264342D01*
X139485714Y-94264342D02*
X139438095Y-94359580D01*
X139438095Y-94359580D02*
X139390476Y-94407200D01*
X139390476Y-94407200D02*
X139295238Y-94454819D01*
X139295238Y-94454819D02*
X139009524Y-94454819D01*
X139009524Y-94454819D02*
X138914286Y-94407200D01*
X138914286Y-94407200D02*
X138866667Y-94359580D01*
X114054819Y-75166666D02*
X113578628Y-75499999D01*
X114054819Y-75738094D02*
X113054819Y-75738094D01*
X113054819Y-75738094D02*
X113054819Y-75357142D01*
X113054819Y-75357142D02*
X113102438Y-75261904D01*
X113102438Y-75261904D02*
X113150057Y-75214285D01*
X113150057Y-75214285D02*
X113245295Y-75166666D01*
X113245295Y-75166666D02*
X113388152Y-75166666D01*
X113388152Y-75166666D02*
X113483390Y-75214285D01*
X113483390Y-75214285D02*
X113531009Y-75261904D01*
X113531009Y-75261904D02*
X113578628Y-75357142D01*
X113578628Y-75357142D02*
X113578628Y-75738094D01*
X113054819Y-74261904D02*
X113054819Y-74738094D01*
X113054819Y-74738094D02*
X113531009Y-74785713D01*
X113531009Y-74785713D02*
X113483390Y-74738094D01*
X113483390Y-74738094D02*
X113435771Y-74642856D01*
X113435771Y-74642856D02*
X113435771Y-74404761D01*
X113435771Y-74404761D02*
X113483390Y-74309523D01*
X113483390Y-74309523D02*
X113531009Y-74261904D01*
X113531009Y-74261904D02*
X113626247Y-74214285D01*
X113626247Y-74214285D02*
X113864342Y-74214285D01*
X113864342Y-74214285D02*
X113959580Y-74261904D01*
X113959580Y-74261904D02*
X114007200Y-74309523D01*
X114007200Y-74309523D02*
X114054819Y-74404761D01*
X114054819Y-74404761D02*
X114054819Y-74642856D01*
X114054819Y-74642856D02*
X114007200Y-74738094D01*
X114007200Y-74738094D02*
X113959580Y-74785713D01*
X127654819Y-89730357D02*
X127178628Y-90063690D01*
X127654819Y-90301785D02*
X126654819Y-90301785D01*
X126654819Y-90301785D02*
X126654819Y-89920833D01*
X126654819Y-89920833D02*
X126702438Y-89825595D01*
X126702438Y-89825595D02*
X126750057Y-89777976D01*
X126750057Y-89777976D02*
X126845295Y-89730357D01*
X126845295Y-89730357D02*
X126988152Y-89730357D01*
X126988152Y-89730357D02*
X127083390Y-89777976D01*
X127083390Y-89777976D02*
X127131009Y-89825595D01*
X127131009Y-89825595D02*
X127178628Y-89920833D01*
X127178628Y-89920833D02*
X127178628Y-90301785D01*
X127654819Y-88777976D02*
X127654819Y-89349404D01*
X127654819Y-89063690D02*
X126654819Y-89063690D01*
X126654819Y-89063690D02*
X126797676Y-89158928D01*
X126797676Y-89158928D02*
X126892914Y-89254166D01*
X126892914Y-89254166D02*
X126940533Y-89349404D01*
X126750057Y-88397023D02*
X126702438Y-88349404D01*
X126702438Y-88349404D02*
X126654819Y-88254166D01*
X126654819Y-88254166D02*
X126654819Y-88016071D01*
X126654819Y-88016071D02*
X126702438Y-87920833D01*
X126702438Y-87920833D02*
X126750057Y-87873214D01*
X126750057Y-87873214D02*
X126845295Y-87825595D01*
X126845295Y-87825595D02*
X126940533Y-87825595D01*
X126940533Y-87825595D02*
X127083390Y-87873214D01*
X127083390Y-87873214D02*
X127654819Y-88444642D01*
X127654819Y-88444642D02*
X127654819Y-87825595D01*
X132109480Y-79910111D02*
X132014242Y-79862492D01*
X132014242Y-79862492D02*
X131919004Y-79767254D01*
X131919004Y-79767254D02*
X131776147Y-79624396D01*
X131776147Y-79624396D02*
X131680909Y-79576777D01*
X131680909Y-79576777D02*
X131585671Y-79576777D01*
X131633290Y-79814873D02*
X131538052Y-79767254D01*
X131538052Y-79767254D02*
X131442814Y-79672015D01*
X131442814Y-79672015D02*
X131395195Y-79481539D01*
X131395195Y-79481539D02*
X131395195Y-79148206D01*
X131395195Y-79148206D02*
X131442814Y-78957730D01*
X131442814Y-78957730D02*
X131538052Y-78862492D01*
X131538052Y-78862492D02*
X131633290Y-78814873D01*
X131633290Y-78814873D02*
X131823766Y-78814873D01*
X131823766Y-78814873D02*
X131919004Y-78862492D01*
X131919004Y-78862492D02*
X132014242Y-78957730D01*
X132014242Y-78957730D02*
X132061861Y-79148206D01*
X132061861Y-79148206D02*
X132061861Y-79481539D01*
X132061861Y-79481539D02*
X132014242Y-79672015D01*
X132014242Y-79672015D02*
X131919004Y-79767254D01*
X131919004Y-79767254D02*
X131823766Y-79814873D01*
X131823766Y-79814873D02*
X131633290Y-79814873D01*
X133014242Y-79814873D02*
X132442814Y-79814873D01*
X132728528Y-79814873D02*
X132728528Y-78814873D01*
X132728528Y-78814873D02*
X132633290Y-78957730D01*
X132633290Y-78957730D02*
X132538052Y-79052968D01*
X132538052Y-79052968D02*
X132442814Y-79100587D01*
X127166666Y-96999819D02*
X127166666Y-97714104D01*
X127166666Y-97714104D02*
X127119047Y-97856961D01*
X127119047Y-97856961D02*
X127023809Y-97952200D01*
X127023809Y-97952200D02*
X126880952Y-97999819D01*
X126880952Y-97999819D02*
X126785714Y-97999819D01*
X127595238Y-97095057D02*
X127642857Y-97047438D01*
X127642857Y-97047438D02*
X127738095Y-96999819D01*
X127738095Y-96999819D02*
X127976190Y-96999819D01*
X127976190Y-96999819D02*
X128071428Y-97047438D01*
X128071428Y-97047438D02*
X128119047Y-97095057D01*
X128119047Y-97095057D02*
X128166666Y-97190295D01*
X128166666Y-97190295D02*
X128166666Y-97285533D01*
X128166666Y-97285533D02*
X128119047Y-97428390D01*
X128119047Y-97428390D02*
X127547619Y-97999819D01*
X127547619Y-97999819D02*
X128166666Y-97999819D01*
X122383333Y-73604819D02*
X122050000Y-73128628D01*
X121811905Y-73604819D02*
X121811905Y-72604819D01*
X121811905Y-72604819D02*
X122192857Y-72604819D01*
X122192857Y-72604819D02*
X122288095Y-72652438D01*
X122288095Y-72652438D02*
X122335714Y-72700057D01*
X122335714Y-72700057D02*
X122383333Y-72795295D01*
X122383333Y-72795295D02*
X122383333Y-72938152D01*
X122383333Y-72938152D02*
X122335714Y-73033390D01*
X122335714Y-73033390D02*
X122288095Y-73081009D01*
X122288095Y-73081009D02*
X122192857Y-73128628D01*
X122192857Y-73128628D02*
X121811905Y-73128628D01*
X122764286Y-72700057D02*
X122811905Y-72652438D01*
X122811905Y-72652438D02*
X122907143Y-72604819D01*
X122907143Y-72604819D02*
X123145238Y-72604819D01*
X123145238Y-72604819D02*
X123240476Y-72652438D01*
X123240476Y-72652438D02*
X123288095Y-72700057D01*
X123288095Y-72700057D02*
X123335714Y-72795295D01*
X123335714Y-72795295D02*
X123335714Y-72890533D01*
X123335714Y-72890533D02*
X123288095Y-73033390D01*
X123288095Y-73033390D02*
X122716667Y-73604819D01*
X122716667Y-73604819D02*
X123335714Y-73604819D01*
D12*
X113676429Y-70614033D02*
X113857857Y-70674509D01*
X113857857Y-70674509D02*
X113918334Y-70734985D01*
X113918334Y-70734985D02*
X113978810Y-70855937D01*
X113978810Y-70855937D02*
X113978810Y-71037366D01*
X113978810Y-71037366D02*
X113918334Y-71158318D01*
X113918334Y-71158318D02*
X113857857Y-71218795D01*
X113857857Y-71218795D02*
X113736905Y-71279271D01*
X113736905Y-71279271D02*
X113253095Y-71279271D01*
X113253095Y-71279271D02*
X113253095Y-70009271D01*
X113253095Y-70009271D02*
X113676429Y-70009271D01*
X113676429Y-70009271D02*
X113797381Y-70069747D01*
X113797381Y-70069747D02*
X113857857Y-70130223D01*
X113857857Y-70130223D02*
X113918334Y-70251175D01*
X113918334Y-70251175D02*
X113918334Y-70372128D01*
X113918334Y-70372128D02*
X113857857Y-70493080D01*
X113857857Y-70493080D02*
X113797381Y-70553556D01*
X113797381Y-70553556D02*
X113676429Y-70614033D01*
X113676429Y-70614033D02*
X113253095Y-70614033D01*
X114765000Y-70009271D02*
X115006905Y-70009271D01*
X115006905Y-70009271D02*
X115127857Y-70069747D01*
X115127857Y-70069747D02*
X115248810Y-70190699D01*
X115248810Y-70190699D02*
X115309286Y-70432604D01*
X115309286Y-70432604D02*
X115309286Y-70855937D01*
X115309286Y-70855937D02*
X115248810Y-71097842D01*
X115248810Y-71097842D02*
X115127857Y-71218795D01*
X115127857Y-71218795D02*
X115006905Y-71279271D01*
X115006905Y-71279271D02*
X114765000Y-71279271D01*
X114765000Y-71279271D02*
X114644048Y-71218795D01*
X114644048Y-71218795D02*
X114523095Y-71097842D01*
X114523095Y-71097842D02*
X114462619Y-70855937D01*
X114462619Y-70855937D02*
X114462619Y-70432604D01*
X114462619Y-70432604D02*
X114523095Y-70190699D01*
X114523095Y-70190699D02*
X114644048Y-70069747D01*
X114644048Y-70069747D02*
X114765000Y-70009271D01*
X116095476Y-70009271D02*
X116337381Y-70009271D01*
X116337381Y-70009271D02*
X116458333Y-70069747D01*
X116458333Y-70069747D02*
X116579286Y-70190699D01*
X116579286Y-70190699D02*
X116639762Y-70432604D01*
X116639762Y-70432604D02*
X116639762Y-70855937D01*
X116639762Y-70855937D02*
X116579286Y-71097842D01*
X116579286Y-71097842D02*
X116458333Y-71218795D01*
X116458333Y-71218795D02*
X116337381Y-71279271D01*
X116337381Y-71279271D02*
X116095476Y-71279271D01*
X116095476Y-71279271D02*
X115974524Y-71218795D01*
X115974524Y-71218795D02*
X115853571Y-71097842D01*
X115853571Y-71097842D02*
X115793095Y-70855937D01*
X115793095Y-70855937D02*
X115793095Y-70432604D01*
X115793095Y-70432604D02*
X115853571Y-70190699D01*
X115853571Y-70190699D02*
X115974524Y-70069747D01*
X115974524Y-70069747D02*
X116095476Y-70009271D01*
X117002619Y-70009271D02*
X117728333Y-70009271D01*
X117365476Y-71279271D02*
X117365476Y-70009271D01*
D11*
X122383333Y-77479580D02*
X122335714Y-77527200D01*
X122335714Y-77527200D02*
X122192857Y-77574819D01*
X122192857Y-77574819D02*
X122097619Y-77574819D01*
X122097619Y-77574819D02*
X121954762Y-77527200D01*
X121954762Y-77527200D02*
X121859524Y-77431961D01*
X121859524Y-77431961D02*
X121811905Y-77336723D01*
X121811905Y-77336723D02*
X121764286Y-77146247D01*
X121764286Y-77146247D02*
X121764286Y-77003390D01*
X121764286Y-77003390D02*
X121811905Y-76812914D01*
X121811905Y-76812914D02*
X121859524Y-76717676D01*
X121859524Y-76717676D02*
X121954762Y-76622438D01*
X121954762Y-76622438D02*
X122097619Y-76574819D01*
X122097619Y-76574819D02*
X122192857Y-76574819D01*
X122192857Y-76574819D02*
X122335714Y-76622438D01*
X122335714Y-76622438D02*
X122383333Y-76670057D01*
X123335714Y-77574819D02*
X122764286Y-77574819D01*
X123050000Y-77574819D02*
X123050000Y-76574819D01*
X123050000Y-76574819D02*
X122954762Y-76717676D01*
X122954762Y-76717676D02*
X122859524Y-76812914D01*
X122859524Y-76812914D02*
X122764286Y-76860533D01*
X113733333Y-60259580D02*
X113685714Y-60307200D01*
X113685714Y-60307200D02*
X113542857Y-60354819D01*
X113542857Y-60354819D02*
X113447619Y-60354819D01*
X113447619Y-60354819D02*
X113304762Y-60307200D01*
X113304762Y-60307200D02*
X113209524Y-60211961D01*
X113209524Y-60211961D02*
X113161905Y-60116723D01*
X113161905Y-60116723D02*
X113114286Y-59926247D01*
X113114286Y-59926247D02*
X113114286Y-59783390D01*
X113114286Y-59783390D02*
X113161905Y-59592914D01*
X113161905Y-59592914D02*
X113209524Y-59497676D01*
X113209524Y-59497676D02*
X113304762Y-59402438D01*
X113304762Y-59402438D02*
X113447619Y-59354819D01*
X113447619Y-59354819D02*
X113542857Y-59354819D01*
X113542857Y-59354819D02*
X113685714Y-59402438D01*
X113685714Y-59402438D02*
X113733333Y-59450057D01*
X114114286Y-59450057D02*
X114161905Y-59402438D01*
X114161905Y-59402438D02*
X114257143Y-59354819D01*
X114257143Y-59354819D02*
X114495238Y-59354819D01*
X114495238Y-59354819D02*
X114590476Y-59402438D01*
X114590476Y-59402438D02*
X114638095Y-59450057D01*
X114638095Y-59450057D02*
X114685714Y-59545295D01*
X114685714Y-59545295D02*
X114685714Y-59640533D01*
X114685714Y-59640533D02*
X114638095Y-59783390D01*
X114638095Y-59783390D02*
X114066667Y-60354819D01*
X114066667Y-60354819D02*
X114685714Y-60354819D01*
X113733333Y-56859580D02*
X113685714Y-56907200D01*
X113685714Y-56907200D02*
X113542857Y-56954819D01*
X113542857Y-56954819D02*
X113447619Y-56954819D01*
X113447619Y-56954819D02*
X113304762Y-56907200D01*
X113304762Y-56907200D02*
X113209524Y-56811961D01*
X113209524Y-56811961D02*
X113161905Y-56716723D01*
X113161905Y-56716723D02*
X113114286Y-56526247D01*
X113114286Y-56526247D02*
X113114286Y-56383390D01*
X113114286Y-56383390D02*
X113161905Y-56192914D01*
X113161905Y-56192914D02*
X113209524Y-56097676D01*
X113209524Y-56097676D02*
X113304762Y-56002438D01*
X113304762Y-56002438D02*
X113447619Y-55954819D01*
X113447619Y-55954819D02*
X113542857Y-55954819D01*
X113542857Y-55954819D02*
X113685714Y-56002438D01*
X113685714Y-56002438D02*
X113733333Y-56050057D01*
X114066667Y-55954819D02*
X114685714Y-55954819D01*
X114685714Y-55954819D02*
X114352381Y-56335771D01*
X114352381Y-56335771D02*
X114495238Y-56335771D01*
X114495238Y-56335771D02*
X114590476Y-56383390D01*
X114590476Y-56383390D02*
X114638095Y-56431009D01*
X114638095Y-56431009D02*
X114685714Y-56526247D01*
X114685714Y-56526247D02*
X114685714Y-56764342D01*
X114685714Y-56764342D02*
X114638095Y-56859580D01*
X114638095Y-56859580D02*
X114590476Y-56907200D01*
X114590476Y-56907200D02*
X114495238Y-56954819D01*
X114495238Y-56954819D02*
X114209524Y-56954819D01*
X114209524Y-56954819D02*
X114114286Y-56907200D01*
X114114286Y-56907200D02*
X114066667Y-56859580D01*
D12*
X137705476Y-71379271D02*
X137282142Y-70774509D01*
X136979761Y-71379271D02*
X136979761Y-70109271D01*
X136979761Y-70109271D02*
X137463571Y-70109271D01*
X137463571Y-70109271D02*
X137584523Y-70169747D01*
X137584523Y-70169747D02*
X137645000Y-70230223D01*
X137645000Y-70230223D02*
X137705476Y-70351175D01*
X137705476Y-70351175D02*
X137705476Y-70532604D01*
X137705476Y-70532604D02*
X137645000Y-70653556D01*
X137645000Y-70653556D02*
X137584523Y-70714033D01*
X137584523Y-70714033D02*
X137463571Y-70774509D01*
X137463571Y-70774509D02*
X136979761Y-70774509D01*
X138249761Y-70714033D02*
X138673095Y-70714033D01*
X138854523Y-71379271D02*
X138249761Y-71379271D01*
X138249761Y-71379271D02*
X138249761Y-70109271D01*
X138249761Y-70109271D02*
X138854523Y-70109271D01*
X139338333Y-71318795D02*
X139519762Y-71379271D01*
X139519762Y-71379271D02*
X139822143Y-71379271D01*
X139822143Y-71379271D02*
X139943095Y-71318795D01*
X139943095Y-71318795D02*
X140003571Y-71258318D01*
X140003571Y-71258318D02*
X140064048Y-71137366D01*
X140064048Y-71137366D02*
X140064048Y-71016414D01*
X140064048Y-71016414D02*
X140003571Y-70895461D01*
X140003571Y-70895461D02*
X139943095Y-70834985D01*
X139943095Y-70834985D02*
X139822143Y-70774509D01*
X139822143Y-70774509D02*
X139580238Y-70714033D01*
X139580238Y-70714033D02*
X139459286Y-70653556D01*
X139459286Y-70653556D02*
X139398809Y-70593080D01*
X139398809Y-70593080D02*
X139338333Y-70472128D01*
X139338333Y-70472128D02*
X139338333Y-70351175D01*
X139338333Y-70351175D02*
X139398809Y-70230223D01*
X139398809Y-70230223D02*
X139459286Y-70169747D01*
X139459286Y-70169747D02*
X139580238Y-70109271D01*
X139580238Y-70109271D02*
X139882619Y-70109271D01*
X139882619Y-70109271D02*
X140064048Y-70169747D01*
X140608333Y-70714033D02*
X141031667Y-70714033D01*
X141213095Y-71379271D02*
X140608333Y-71379271D01*
X140608333Y-71379271D02*
X140608333Y-70109271D01*
X140608333Y-70109271D02*
X141213095Y-70109271D01*
X141575953Y-70109271D02*
X142301667Y-70109271D01*
X141938810Y-71379271D02*
X141938810Y-70109271D01*
D11*
X116033334Y-94454818D02*
X115700001Y-93978627D01*
X115461906Y-94454818D02*
X115461906Y-93454818D01*
X115461906Y-93454818D02*
X115842858Y-93454818D01*
X115842858Y-93454818D02*
X115938096Y-93502437D01*
X115938096Y-93502437D02*
X115985715Y-93550056D01*
X115985715Y-93550056D02*
X116033334Y-93645294D01*
X116033334Y-93645294D02*
X116033334Y-93788151D01*
X116033334Y-93788151D02*
X115985715Y-93883389D01*
X115985715Y-93883389D02*
X115938096Y-93931008D01*
X115938096Y-93931008D02*
X115842858Y-93978627D01*
X115842858Y-93978627D02*
X115461906Y-93978627D01*
X116890477Y-93788151D02*
X116890477Y-94454818D01*
X116652382Y-93407199D02*
X116414287Y-94121484D01*
X116414287Y-94121484D02*
X117033334Y-94121484D01*
X141661906Y-81154818D02*
X141661906Y-80154818D01*
X141661906Y-80154818D02*
X141900001Y-80154818D01*
X141900001Y-80154818D02*
X142042858Y-80202437D01*
X142042858Y-80202437D02*
X142138096Y-80297675D01*
X142138096Y-80297675D02*
X142185715Y-80392913D01*
X142185715Y-80392913D02*
X142233334Y-80583389D01*
X142233334Y-80583389D02*
X142233334Y-80726246D01*
X142233334Y-80726246D02*
X142185715Y-80916722D01*
X142185715Y-80916722D02*
X142138096Y-81011960D01*
X142138096Y-81011960D02*
X142042858Y-81107199D01*
X142042858Y-81107199D02*
X141900001Y-81154818D01*
X141900001Y-81154818D02*
X141661906Y-81154818D01*
X143185715Y-81154818D02*
X142614287Y-81154818D01*
X142900001Y-81154818D02*
X142900001Y-80154818D01*
X142900001Y-80154818D02*
X142804763Y-80297675D01*
X142804763Y-80297675D02*
X142709525Y-80392913D01*
X142709525Y-80392913D02*
X142614287Y-80440532D01*
X125838095Y-69654819D02*
X125838095Y-70464342D01*
X125838095Y-70464342D02*
X125885714Y-70559580D01*
X125885714Y-70559580D02*
X125933333Y-70607200D01*
X125933333Y-70607200D02*
X126028571Y-70654819D01*
X126028571Y-70654819D02*
X126219047Y-70654819D01*
X126219047Y-70654819D02*
X126314285Y-70607200D01*
X126314285Y-70607200D02*
X126361904Y-70559580D01*
X126361904Y-70559580D02*
X126409523Y-70464342D01*
X126409523Y-70464342D02*
X126409523Y-69654819D01*
X127409523Y-70654819D02*
X126838095Y-70654819D01*
X127123809Y-70654819D02*
X127123809Y-69654819D01*
X127123809Y-69654819D02*
X127028571Y-69797676D01*
X127028571Y-69797676D02*
X126933333Y-69892914D01*
X126933333Y-69892914D02*
X126838095Y-69940533D01*
X120509580Y-87140476D02*
X120557200Y-87188095D01*
X120557200Y-87188095D02*
X120604819Y-87330952D01*
X120604819Y-87330952D02*
X120604819Y-87426190D01*
X120604819Y-87426190D02*
X120557200Y-87569047D01*
X120557200Y-87569047D02*
X120461961Y-87664285D01*
X120461961Y-87664285D02*
X120366723Y-87711904D01*
X120366723Y-87711904D02*
X120176247Y-87759523D01*
X120176247Y-87759523D02*
X120033390Y-87759523D01*
X120033390Y-87759523D02*
X119842914Y-87711904D01*
X119842914Y-87711904D02*
X119747676Y-87664285D01*
X119747676Y-87664285D02*
X119652438Y-87569047D01*
X119652438Y-87569047D02*
X119604819Y-87426190D01*
X119604819Y-87426190D02*
X119604819Y-87330952D01*
X119604819Y-87330952D02*
X119652438Y-87188095D01*
X119652438Y-87188095D02*
X119700057Y-87140476D01*
X120604819Y-86711904D02*
X119604819Y-86711904D01*
X119604819Y-86711904D02*
X120604819Y-86140476D01*
X120604819Y-86140476D02*
X119604819Y-86140476D01*
X120604819Y-85140476D02*
X120604819Y-85711904D01*
X120604819Y-85426190D02*
X119604819Y-85426190D01*
X119604819Y-85426190D02*
X119747676Y-85521428D01*
X119747676Y-85521428D02*
X119842914Y-85616666D01*
X119842914Y-85616666D02*
X119890533Y-85711904D01*
X130494378Y-65284800D02*
X130018188Y-65284800D01*
X130018188Y-65284800D02*
X130018188Y-64284800D01*
X130827712Y-64760990D02*
X131161045Y-64760990D01*
X131303902Y-65284800D02*
X130827712Y-65284800D01*
X130827712Y-65284800D02*
X130827712Y-64284800D01*
X130827712Y-64284800D02*
X131303902Y-64284800D01*
X131732474Y-65284800D02*
X131732474Y-64284800D01*
X131732474Y-64284800D02*
X131970569Y-64284800D01*
X131970569Y-64284800D02*
X132113426Y-64332419D01*
X132113426Y-64332419D02*
X132208664Y-64427657D01*
X132208664Y-64427657D02*
X132256283Y-64522895D01*
X132256283Y-64522895D02*
X132303902Y-64713371D01*
X132303902Y-64713371D02*
X132303902Y-64856228D01*
X132303902Y-64856228D02*
X132256283Y-65046704D01*
X132256283Y-65046704D02*
X132208664Y-65141942D01*
X132208664Y-65141942D02*
X132113426Y-65237181D01*
X132113426Y-65237181D02*
X131970569Y-65284800D01*
X131970569Y-65284800D02*
X131732474Y-65284800D01*
X132684855Y-64380038D02*
X132732474Y-64332419D01*
X132732474Y-64332419D02*
X132827712Y-64284800D01*
X132827712Y-64284800D02*
X133065807Y-64284800D01*
X133065807Y-64284800D02*
X133161045Y-64332419D01*
X133161045Y-64332419D02*
X133208664Y-64380038D01*
X133208664Y-64380038D02*
X133256283Y-64475276D01*
X133256283Y-64475276D02*
X133256283Y-64570514D01*
X133256283Y-64570514D02*
X133208664Y-64713371D01*
X133208664Y-64713371D02*
X132637236Y-65284800D01*
X132637236Y-65284800D02*
X133256283Y-65284800D01*
X127774430Y-73709580D02*
X127726811Y-73757200D01*
X127726811Y-73757200D02*
X127583954Y-73804819D01*
X127583954Y-73804819D02*
X127488716Y-73804819D01*
X127488716Y-73804819D02*
X127345859Y-73757200D01*
X127345859Y-73757200D02*
X127250621Y-73661961D01*
X127250621Y-73661961D02*
X127203002Y-73566723D01*
X127203002Y-73566723D02*
X127155383Y-73376247D01*
X127155383Y-73376247D02*
X127155383Y-73233390D01*
X127155383Y-73233390D02*
X127203002Y-73042914D01*
X127203002Y-73042914D02*
X127250621Y-72947676D01*
X127250621Y-72947676D02*
X127345859Y-72852438D01*
X127345859Y-72852438D02*
X127488716Y-72804819D01*
X127488716Y-72804819D02*
X127583954Y-72804819D01*
X127583954Y-72804819D02*
X127726811Y-72852438D01*
X127726811Y-72852438D02*
X127774430Y-72900057D01*
X128345859Y-73233390D02*
X128250621Y-73185771D01*
X128250621Y-73185771D02*
X128203002Y-73138152D01*
X128203002Y-73138152D02*
X128155383Y-73042914D01*
X128155383Y-73042914D02*
X128155383Y-72995295D01*
X128155383Y-72995295D02*
X128203002Y-72900057D01*
X128203002Y-72900057D02*
X128250621Y-72852438D01*
X128250621Y-72852438D02*
X128345859Y-72804819D01*
X128345859Y-72804819D02*
X128536335Y-72804819D01*
X128536335Y-72804819D02*
X128631573Y-72852438D01*
X128631573Y-72852438D02*
X128679192Y-72900057D01*
X128679192Y-72900057D02*
X128726811Y-72995295D01*
X128726811Y-72995295D02*
X128726811Y-73042914D01*
X128726811Y-73042914D02*
X128679192Y-73138152D01*
X128679192Y-73138152D02*
X128631573Y-73185771D01*
X128631573Y-73185771D02*
X128536335Y-73233390D01*
X128536335Y-73233390D02*
X128345859Y-73233390D01*
X128345859Y-73233390D02*
X128250621Y-73281009D01*
X128250621Y-73281009D02*
X128203002Y-73328628D01*
X128203002Y-73328628D02*
X128155383Y-73423866D01*
X128155383Y-73423866D02*
X128155383Y-73614342D01*
X128155383Y-73614342D02*
X128203002Y-73709580D01*
X128203002Y-73709580D02*
X128250621Y-73757200D01*
X128250621Y-73757200D02*
X128345859Y-73804819D01*
X128345859Y-73804819D02*
X128536335Y-73804819D01*
X128536335Y-73804819D02*
X128631573Y-73757200D01*
X128631573Y-73757200D02*
X128679192Y-73709580D01*
X128679192Y-73709580D02*
X128726811Y-73614342D01*
X128726811Y-73614342D02*
X128726811Y-73423866D01*
X128726811Y-73423866D02*
X128679192Y-73328628D01*
X128679192Y-73328628D02*
X128631573Y-73281009D01*
X128631573Y-73281009D02*
X128536335Y-73233390D01*
X131479886Y-84655911D02*
X131146553Y-84179720D01*
X130908458Y-84655911D02*
X130908458Y-83655911D01*
X130908458Y-83655911D02*
X131289410Y-83655911D01*
X131289410Y-83655911D02*
X131384648Y-83703530D01*
X131384648Y-83703530D02*
X131432267Y-83751149D01*
X131432267Y-83751149D02*
X131479886Y-83846387D01*
X131479886Y-83846387D02*
X131479886Y-83989244D01*
X131479886Y-83989244D02*
X131432267Y-84084482D01*
X131432267Y-84084482D02*
X131384648Y-84132101D01*
X131384648Y-84132101D02*
X131289410Y-84179720D01*
X131289410Y-84179720D02*
X130908458Y-84179720D01*
X132432267Y-84655911D02*
X131860839Y-84655911D01*
X132146553Y-84655911D02*
X132146553Y-83655911D01*
X132146553Y-83655911D02*
X132051315Y-83798768D01*
X132051315Y-83798768D02*
X131956077Y-83894006D01*
X131956077Y-83894006D02*
X131860839Y-83941625D01*
X133384648Y-84655911D02*
X132813220Y-84655911D01*
X133098934Y-84655911D02*
X133098934Y-83655911D01*
X133098934Y-83655911D02*
X133003696Y-83798768D01*
X133003696Y-83798768D02*
X132908458Y-83894006D01*
X132908458Y-83894006D02*
X132813220Y-83941625D01*
X131062880Y-87714819D02*
X130586690Y-87714819D01*
X130586690Y-87714819D02*
X130586690Y-86714819D01*
X131396214Y-87191009D02*
X131729547Y-87191009D01*
X131872404Y-87714819D02*
X131396214Y-87714819D01*
X131396214Y-87714819D02*
X131396214Y-86714819D01*
X131396214Y-86714819D02*
X131872404Y-86714819D01*
X132300976Y-87714819D02*
X132300976Y-86714819D01*
X132300976Y-86714819D02*
X132539071Y-86714819D01*
X132539071Y-86714819D02*
X132681928Y-86762438D01*
X132681928Y-86762438D02*
X132777166Y-86857676D01*
X132777166Y-86857676D02*
X132824785Y-86952914D01*
X132824785Y-86952914D02*
X132872404Y-87143390D01*
X132872404Y-87143390D02*
X132872404Y-87286247D01*
X132872404Y-87286247D02*
X132824785Y-87476723D01*
X132824785Y-87476723D02*
X132777166Y-87571961D01*
X132777166Y-87571961D02*
X132681928Y-87667200D01*
X132681928Y-87667200D02*
X132539071Y-87714819D01*
X132539071Y-87714819D02*
X132300976Y-87714819D01*
X133824785Y-87714819D02*
X133253357Y-87714819D01*
X133539071Y-87714819D02*
X133539071Y-86714819D01*
X133539071Y-86714819D02*
X133443833Y-86857676D01*
X133443833Y-86857676D02*
X133348595Y-86952914D01*
X133348595Y-86952914D02*
X133253357Y-87000533D01*
X118833333Y-79159580D02*
X118785714Y-79207200D01*
X118785714Y-79207200D02*
X118642857Y-79254819D01*
X118642857Y-79254819D02*
X118547619Y-79254819D01*
X118547619Y-79254819D02*
X118404762Y-79207200D01*
X118404762Y-79207200D02*
X118309524Y-79111961D01*
X118309524Y-79111961D02*
X118261905Y-79016723D01*
X118261905Y-79016723D02*
X118214286Y-78826247D01*
X118214286Y-78826247D02*
X118214286Y-78683390D01*
X118214286Y-78683390D02*
X118261905Y-78492914D01*
X118261905Y-78492914D02*
X118309524Y-78397676D01*
X118309524Y-78397676D02*
X118404762Y-78302438D01*
X118404762Y-78302438D02*
X118547619Y-78254819D01*
X118547619Y-78254819D02*
X118642857Y-78254819D01*
X118642857Y-78254819D02*
X118785714Y-78302438D01*
X118785714Y-78302438D02*
X118833333Y-78350057D01*
X119690476Y-78254819D02*
X119500000Y-78254819D01*
X119500000Y-78254819D02*
X119404762Y-78302438D01*
X119404762Y-78302438D02*
X119357143Y-78350057D01*
X119357143Y-78350057D02*
X119261905Y-78492914D01*
X119261905Y-78492914D02*
X119214286Y-78683390D01*
X119214286Y-78683390D02*
X119214286Y-79064342D01*
X119214286Y-79064342D02*
X119261905Y-79159580D01*
X119261905Y-79159580D02*
X119309524Y-79207200D01*
X119309524Y-79207200D02*
X119404762Y-79254819D01*
X119404762Y-79254819D02*
X119595238Y-79254819D01*
X119595238Y-79254819D02*
X119690476Y-79207200D01*
X119690476Y-79207200D02*
X119738095Y-79159580D01*
X119738095Y-79159580D02*
X119785714Y-79064342D01*
X119785714Y-79064342D02*
X119785714Y-78826247D01*
X119785714Y-78826247D02*
X119738095Y-78731009D01*
X119738095Y-78731009D02*
X119690476Y-78683390D01*
X119690476Y-78683390D02*
X119595238Y-78635771D01*
X119595238Y-78635771D02*
X119404762Y-78635771D01*
X119404762Y-78635771D02*
X119309524Y-78683390D01*
X119309524Y-78683390D02*
X119261905Y-78731009D01*
X119261905Y-78731009D02*
X119214286Y-78826247D01*
X141021774Y-54200409D02*
X140974155Y-54248029D01*
X140974155Y-54248029D02*
X140831298Y-54295648D01*
X140831298Y-54295648D02*
X140736060Y-54295648D01*
X140736060Y-54295648D02*
X140593203Y-54248029D01*
X140593203Y-54248029D02*
X140497965Y-54152790D01*
X140497965Y-54152790D02*
X140450346Y-54057552D01*
X140450346Y-54057552D02*
X140402727Y-53867076D01*
X140402727Y-53867076D02*
X140402727Y-53724219D01*
X140402727Y-53724219D02*
X140450346Y-53533743D01*
X140450346Y-53533743D02*
X140497965Y-53438505D01*
X140497965Y-53438505D02*
X140593203Y-53343267D01*
X140593203Y-53343267D02*
X140736060Y-53295648D01*
X140736060Y-53295648D02*
X140831298Y-53295648D01*
X140831298Y-53295648D02*
X140974155Y-53343267D01*
X140974155Y-53343267D02*
X141021774Y-53390886D01*
X141926536Y-53295648D02*
X141450346Y-53295648D01*
X141450346Y-53295648D02*
X141402727Y-53771838D01*
X141402727Y-53771838D02*
X141450346Y-53724219D01*
X141450346Y-53724219D02*
X141545584Y-53676600D01*
X141545584Y-53676600D02*
X141783679Y-53676600D01*
X141783679Y-53676600D02*
X141878917Y-53724219D01*
X141878917Y-53724219D02*
X141926536Y-53771838D01*
X141926536Y-53771838D02*
X141974155Y-53867076D01*
X141974155Y-53867076D02*
X141974155Y-54105171D01*
X141974155Y-54105171D02*
X141926536Y-54200409D01*
X141926536Y-54200409D02*
X141878917Y-54248029D01*
X141878917Y-54248029D02*
X141783679Y-54295648D01*
X141783679Y-54295648D02*
X141545584Y-54295648D01*
X141545584Y-54295648D02*
X141450346Y-54248029D01*
X141450346Y-54248029D02*
X141402727Y-54200409D01*
X127038095Y-81654819D02*
X127038095Y-82464342D01*
X127038095Y-82464342D02*
X127085714Y-82559580D01*
X127085714Y-82559580D02*
X127133333Y-82607200D01*
X127133333Y-82607200D02*
X127228571Y-82654819D01*
X127228571Y-82654819D02*
X127419047Y-82654819D01*
X127419047Y-82654819D02*
X127514285Y-82607200D01*
X127514285Y-82607200D02*
X127561904Y-82559580D01*
X127561904Y-82559580D02*
X127609523Y-82464342D01*
X127609523Y-82464342D02*
X127609523Y-81654819D01*
X128514285Y-81988152D02*
X128514285Y-82654819D01*
X128276190Y-81607200D02*
X128038095Y-82321485D01*
X128038095Y-82321485D02*
X128657142Y-82321485D01*
X119754819Y-75166666D02*
X119278628Y-75499999D01*
X119754819Y-75738094D02*
X118754819Y-75738094D01*
X118754819Y-75738094D02*
X118754819Y-75357142D01*
X118754819Y-75357142D02*
X118802438Y-75261904D01*
X118802438Y-75261904D02*
X118850057Y-75214285D01*
X118850057Y-75214285D02*
X118945295Y-75166666D01*
X118945295Y-75166666D02*
X119088152Y-75166666D01*
X119088152Y-75166666D02*
X119183390Y-75214285D01*
X119183390Y-75214285D02*
X119231009Y-75261904D01*
X119231009Y-75261904D02*
X119278628Y-75357142D01*
X119278628Y-75357142D02*
X119278628Y-75738094D01*
X118754819Y-74309523D02*
X118754819Y-74499999D01*
X118754819Y-74499999D02*
X118802438Y-74595237D01*
X118802438Y-74595237D02*
X118850057Y-74642856D01*
X118850057Y-74642856D02*
X118992914Y-74738094D01*
X118992914Y-74738094D02*
X119183390Y-74785713D01*
X119183390Y-74785713D02*
X119564342Y-74785713D01*
X119564342Y-74785713D02*
X119659580Y-74738094D01*
X119659580Y-74738094D02*
X119707200Y-74690475D01*
X119707200Y-74690475D02*
X119754819Y-74595237D01*
X119754819Y-74595237D02*
X119754819Y-74404761D01*
X119754819Y-74404761D02*
X119707200Y-74309523D01*
X119707200Y-74309523D02*
X119659580Y-74261904D01*
X119659580Y-74261904D02*
X119564342Y-74214285D01*
X119564342Y-74214285D02*
X119326247Y-74214285D01*
X119326247Y-74214285D02*
X119231009Y-74261904D01*
X119231009Y-74261904D02*
X119183390Y-74309523D01*
X119183390Y-74309523D02*
X119135771Y-74404761D01*
X119135771Y-74404761D02*
X119135771Y-74595237D01*
X119135771Y-74595237D02*
X119183390Y-74690475D01*
X119183390Y-74690475D02*
X119231009Y-74738094D01*
X119231009Y-74738094D02*
X119326247Y-74785713D01*
X127733333Y-77109580D02*
X127685714Y-77157200D01*
X127685714Y-77157200D02*
X127542857Y-77204819D01*
X127542857Y-77204819D02*
X127447619Y-77204819D01*
X127447619Y-77204819D02*
X127304762Y-77157200D01*
X127304762Y-77157200D02*
X127209524Y-77061961D01*
X127209524Y-77061961D02*
X127161905Y-76966723D01*
X127161905Y-76966723D02*
X127114286Y-76776247D01*
X127114286Y-76776247D02*
X127114286Y-76633390D01*
X127114286Y-76633390D02*
X127161905Y-76442914D01*
X127161905Y-76442914D02*
X127209524Y-76347676D01*
X127209524Y-76347676D02*
X127304762Y-76252438D01*
X127304762Y-76252438D02*
X127447619Y-76204819D01*
X127447619Y-76204819D02*
X127542857Y-76204819D01*
X127542857Y-76204819D02*
X127685714Y-76252438D01*
X127685714Y-76252438D02*
X127733333Y-76300057D01*
X128066667Y-76204819D02*
X128733333Y-76204819D01*
X128733333Y-76204819D02*
X128304762Y-77204819D01*
X131652809Y-69748045D02*
X131319476Y-69271854D01*
X131081381Y-69748045D02*
X131081381Y-68748045D01*
X131081381Y-68748045D02*
X131462333Y-68748045D01*
X131462333Y-68748045D02*
X131557571Y-68795664D01*
X131557571Y-68795664D02*
X131605190Y-68843283D01*
X131605190Y-68843283D02*
X131652809Y-68938521D01*
X131652809Y-68938521D02*
X131652809Y-69081378D01*
X131652809Y-69081378D02*
X131605190Y-69176616D01*
X131605190Y-69176616D02*
X131557571Y-69224235D01*
X131557571Y-69224235D02*
X131462333Y-69271854D01*
X131462333Y-69271854D02*
X131081381Y-69271854D01*
X132224238Y-69176616D02*
X132129000Y-69128997D01*
X132129000Y-69128997D02*
X132081381Y-69081378D01*
X132081381Y-69081378D02*
X132033762Y-68986140D01*
X132033762Y-68986140D02*
X132033762Y-68938521D01*
X132033762Y-68938521D02*
X132081381Y-68843283D01*
X132081381Y-68843283D02*
X132129000Y-68795664D01*
X132129000Y-68795664D02*
X132224238Y-68748045D01*
X132224238Y-68748045D02*
X132414714Y-68748045D01*
X132414714Y-68748045D02*
X132509952Y-68795664D01*
X132509952Y-68795664D02*
X132557571Y-68843283D01*
X132557571Y-68843283D02*
X132605190Y-68938521D01*
X132605190Y-68938521D02*
X132605190Y-68986140D01*
X132605190Y-68986140D02*
X132557571Y-69081378D01*
X132557571Y-69081378D02*
X132509952Y-69128997D01*
X132509952Y-69128997D02*
X132414714Y-69176616D01*
X132414714Y-69176616D02*
X132224238Y-69176616D01*
X132224238Y-69176616D02*
X132129000Y-69224235D01*
X132129000Y-69224235D02*
X132081381Y-69271854D01*
X132081381Y-69271854D02*
X132033762Y-69367092D01*
X132033762Y-69367092D02*
X132033762Y-69557568D01*
X132033762Y-69557568D02*
X132081381Y-69652806D01*
X132081381Y-69652806D02*
X132129000Y-69700426D01*
X132129000Y-69700426D02*
X132224238Y-69748045D01*
X132224238Y-69748045D02*
X132414714Y-69748045D01*
X132414714Y-69748045D02*
X132509952Y-69700426D01*
X132509952Y-69700426D02*
X132557571Y-69652806D01*
X132557571Y-69652806D02*
X132605190Y-69557568D01*
X132605190Y-69557568D02*
X132605190Y-69367092D01*
X132605190Y-69367092D02*
X132557571Y-69271854D01*
X132557571Y-69271854D02*
X132509952Y-69224235D01*
X132509952Y-69224235D02*
X132414714Y-69176616D01*
X140999271Y-57048659D02*
X140665938Y-56572468D01*
X140427843Y-57048659D02*
X140427843Y-56048659D01*
X140427843Y-56048659D02*
X140808795Y-56048659D01*
X140808795Y-56048659D02*
X140904033Y-56096278D01*
X140904033Y-56096278D02*
X140951652Y-56143897D01*
X140951652Y-56143897D02*
X140999271Y-56239135D01*
X140999271Y-56239135D02*
X140999271Y-56381992D01*
X140999271Y-56381992D02*
X140951652Y-56477230D01*
X140951652Y-56477230D02*
X140904033Y-56524849D01*
X140904033Y-56524849D02*
X140808795Y-56572468D01*
X140808795Y-56572468D02*
X140427843Y-56572468D01*
X141332605Y-56048659D02*
X141999271Y-56048659D01*
X141999271Y-56048659D02*
X141570700Y-57048659D01*
X113733333Y-53459580D02*
X113685714Y-53507200D01*
X113685714Y-53507200D02*
X113542857Y-53554819D01*
X113542857Y-53554819D02*
X113447619Y-53554819D01*
X113447619Y-53554819D02*
X113304762Y-53507200D01*
X113304762Y-53507200D02*
X113209524Y-53411961D01*
X113209524Y-53411961D02*
X113161905Y-53316723D01*
X113161905Y-53316723D02*
X113114286Y-53126247D01*
X113114286Y-53126247D02*
X113114286Y-52983390D01*
X113114286Y-52983390D02*
X113161905Y-52792914D01*
X113161905Y-52792914D02*
X113209524Y-52697676D01*
X113209524Y-52697676D02*
X113304762Y-52602438D01*
X113304762Y-52602438D02*
X113447619Y-52554819D01*
X113447619Y-52554819D02*
X113542857Y-52554819D01*
X113542857Y-52554819D02*
X113685714Y-52602438D01*
X113685714Y-52602438D02*
X113733333Y-52650057D01*
X114590476Y-52888152D02*
X114590476Y-53554819D01*
X114352381Y-52507200D02*
X114114286Y-53221485D01*
X114114286Y-53221485D02*
X114733333Y-53221485D01*
X133938095Y-75337043D02*
X133938095Y-76146566D01*
X133938095Y-76146566D02*
X133985714Y-76241804D01*
X133985714Y-76241804D02*
X134033333Y-76289424D01*
X134033333Y-76289424D02*
X134128571Y-76337043D01*
X134128571Y-76337043D02*
X134319047Y-76337043D01*
X134319047Y-76337043D02*
X134414285Y-76289424D01*
X134414285Y-76289424D02*
X134461904Y-76241804D01*
X134461904Y-76241804D02*
X134509523Y-76146566D01*
X134509523Y-76146566D02*
X134509523Y-75337043D01*
X134890476Y-75337043D02*
X135509523Y-75337043D01*
X135509523Y-75337043D02*
X135176190Y-75717995D01*
X135176190Y-75717995D02*
X135319047Y-75717995D01*
X135319047Y-75717995D02*
X135414285Y-75765614D01*
X135414285Y-75765614D02*
X135461904Y-75813233D01*
X135461904Y-75813233D02*
X135509523Y-75908471D01*
X135509523Y-75908471D02*
X135509523Y-76146566D01*
X135509523Y-76146566D02*
X135461904Y-76241804D01*
X135461904Y-76241804D02*
X135414285Y-76289424D01*
X135414285Y-76289424D02*
X135319047Y-76337043D01*
X135319047Y-76337043D02*
X135033333Y-76337043D01*
X135033333Y-76337043D02*
X134938095Y-76289424D01*
X134938095Y-76289424D02*
X134890476Y-76241804D01*
X140161103Y-74904818D02*
X139827770Y-74428627D01*
X139589675Y-74904818D02*
X139589675Y-73904818D01*
X139589675Y-73904818D02*
X139970627Y-73904818D01*
X139970627Y-73904818D02*
X140065865Y-73952437D01*
X140065865Y-73952437D02*
X140113484Y-74000056D01*
X140113484Y-74000056D02*
X140161103Y-74095294D01*
X140161103Y-74095294D02*
X140161103Y-74238151D01*
X140161103Y-74238151D02*
X140113484Y-74333389D01*
X140113484Y-74333389D02*
X140065865Y-74381008D01*
X140065865Y-74381008D02*
X139970627Y-74428627D01*
X139970627Y-74428627D02*
X139589675Y-74428627D01*
X140637294Y-74904818D02*
X140827770Y-74904818D01*
X140827770Y-74904818D02*
X140923008Y-74857199D01*
X140923008Y-74857199D02*
X140970627Y-74809579D01*
X140970627Y-74809579D02*
X141065865Y-74666722D01*
X141065865Y-74666722D02*
X141113484Y-74476246D01*
X141113484Y-74476246D02*
X141113484Y-74095294D01*
X141113484Y-74095294D02*
X141065865Y-74000056D01*
X141065865Y-74000056D02*
X141018246Y-73952437D01*
X141018246Y-73952437D02*
X140923008Y-73904818D01*
X140923008Y-73904818D02*
X140732532Y-73904818D01*
X140732532Y-73904818D02*
X140637294Y-73952437D01*
X140637294Y-73952437D02*
X140589675Y-74000056D01*
X140589675Y-74000056D02*
X140542056Y-74095294D01*
X140542056Y-74095294D02*
X140542056Y-74333389D01*
X140542056Y-74333389D02*
X140589675Y-74428627D01*
X140589675Y-74428627D02*
X140637294Y-74476246D01*
X140637294Y-74476246D02*
X140732532Y-74523865D01*
X140732532Y-74523865D02*
X140923008Y-74523865D01*
X140923008Y-74523865D02*
X141018246Y-74476246D01*
X141018246Y-74476246D02*
X141065865Y-74428627D01*
X141065865Y-74428627D02*
X141113484Y-74333389D01*
X140217487Y-77765216D02*
X139884154Y-77289025D01*
X139646059Y-77765216D02*
X139646059Y-76765216D01*
X139646059Y-76765216D02*
X140027011Y-76765216D01*
X140027011Y-76765216D02*
X140122249Y-76812835D01*
X140122249Y-76812835D02*
X140169868Y-76860454D01*
X140169868Y-76860454D02*
X140217487Y-76955692D01*
X140217487Y-76955692D02*
X140217487Y-77098549D01*
X140217487Y-77098549D02*
X140169868Y-77193787D01*
X140169868Y-77193787D02*
X140122249Y-77241406D01*
X140122249Y-77241406D02*
X140027011Y-77289025D01*
X140027011Y-77289025D02*
X139646059Y-77289025D01*
X141169868Y-77765216D02*
X140598440Y-77765216D01*
X140884154Y-77765216D02*
X140884154Y-76765216D01*
X140884154Y-76765216D02*
X140788916Y-76908073D01*
X140788916Y-76908073D02*
X140693678Y-77003311D01*
X140693678Y-77003311D02*
X140598440Y-77050930D01*
X141788916Y-76765216D02*
X141884154Y-76765216D01*
X141884154Y-76765216D02*
X141979392Y-76812835D01*
X141979392Y-76812835D02*
X142027011Y-76860454D01*
X142027011Y-76860454D02*
X142074630Y-76955692D01*
X142074630Y-76955692D02*
X142122249Y-77146168D01*
X142122249Y-77146168D02*
X142122249Y-77384263D01*
X142122249Y-77384263D02*
X142074630Y-77574739D01*
X142074630Y-77574739D02*
X142027011Y-77669977D01*
X142027011Y-77669977D02*
X141979392Y-77717597D01*
X141979392Y-77717597D02*
X141884154Y-77765216D01*
X141884154Y-77765216D02*
X141788916Y-77765216D01*
X141788916Y-77765216D02*
X141693678Y-77717597D01*
X141693678Y-77717597D02*
X141646059Y-77669977D01*
X141646059Y-77669977D02*
X141598440Y-77574739D01*
X141598440Y-77574739D02*
X141550821Y-77384263D01*
X141550821Y-77384263D02*
X141550821Y-77146168D01*
X141550821Y-77146168D02*
X141598440Y-76955692D01*
X141598440Y-76955692D02*
X141646059Y-76860454D01*
X141646059Y-76860454D02*
X141693678Y-76812835D01*
X141693678Y-76812835D02*
X141788916Y-76765216D01*
X138433333Y-84454819D02*
X138100000Y-83978628D01*
X137861905Y-84454819D02*
X137861905Y-83454819D01*
X137861905Y-83454819D02*
X138242857Y-83454819D01*
X138242857Y-83454819D02*
X138338095Y-83502438D01*
X138338095Y-83502438D02*
X138385714Y-83550057D01*
X138385714Y-83550057D02*
X138433333Y-83645295D01*
X138433333Y-83645295D02*
X138433333Y-83788152D01*
X138433333Y-83788152D02*
X138385714Y-83883390D01*
X138385714Y-83883390D02*
X138338095Y-83931009D01*
X138338095Y-83931009D02*
X138242857Y-83978628D01*
X138242857Y-83978628D02*
X137861905Y-83978628D01*
X139385714Y-84454819D02*
X138814286Y-84454819D01*
X139100000Y-84454819D02*
X139100000Y-83454819D01*
X139100000Y-83454819D02*
X139004762Y-83597676D01*
X139004762Y-83597676D02*
X138909524Y-83692914D01*
X138909524Y-83692914D02*
X138814286Y-83740533D01*
D13*
X139400000Y-90300000D02*
G75*
G02*
X137500000Y-90300000I-950000J0D01*
G01*
X137500000Y-90300000D02*
G75*
G02*
X139400000Y-90300000I950000J0D01*
G01*
X136065000Y-93772936D02*
X136065000Y-94227064D01*
X137535000Y-93772936D02*
X137535000Y-94227064D01*
X120750000Y-69300000D02*
G75*
G02*
X118850000Y-69300000I-950000J0D01*
G01*
X118850000Y-69300000D02*
G75*
G02*
X120750000Y-69300000I950000J0D01*
G01*
X114365000Y-74735436D02*
X114365000Y-75189564D01*
X115835000Y-74735436D02*
X115835000Y-75189564D01*
X129535000Y-88872936D02*
X129535000Y-89327064D01*
X128065000Y-88872936D02*
X128065000Y-89327064D01*
D11*
X131470000Y-80120000D02*
X131470000Y-81160000D01*
X131470000Y-83180000D02*
X131470000Y-82140000D01*
X132930000Y-80120000D02*
X131470000Y-80120000D01*
X132930000Y-81190000D02*
X132930000Y-82110000D01*
X132930000Y-83180000D02*
X131470000Y-83180000D01*
D13*
X122800000Y-96215000D02*
X122800000Y-97995000D01*
X124700000Y-93295000D02*
X123900000Y-93295000D01*
X132200000Y-96215000D02*
X132200000Y-97995000D01*
X122322936Y-74065000D02*
X122777064Y-74065000D01*
X122322936Y-75535000D02*
X122777064Y-75535000D01*
D11*
X113860000Y-64970000D02*
X113860000Y-69030000D01*
X113860000Y-69030000D02*
X114520000Y-69030000D01*
X116940000Y-64970000D02*
X116940000Y-69030000D01*
X116940000Y-69030000D02*
X116280000Y-69030000D01*
D14*
X116300000Y-67000000D02*
G75*
G02*
X114500000Y-67000000I-900000J0D01*
G01*
X114500000Y-67000000D02*
G75*
G02*
X116300000Y-67000000I900000J0D01*
G01*
D13*
X122288748Y-78065000D02*
X122811252Y-78065000D01*
X122288748Y-79535000D02*
X122811252Y-79535000D01*
X116659252Y-59013000D02*
X116136748Y-59013000D01*
X116659252Y-60483000D02*
X116136748Y-60483000D01*
X116659252Y-55711000D02*
X116136748Y-55711000D01*
X116659252Y-57181000D02*
X116136748Y-57181000D01*
D11*
X138060000Y-64970000D02*
X138060000Y-69030000D01*
X138060000Y-69030000D02*
X138720000Y-69030000D01*
X141140000Y-64970000D02*
X141140000Y-69030000D01*
X141140000Y-69030000D02*
X140480000Y-69030000D01*
D14*
X140500000Y-67000000D02*
G75*
G02*
X138700000Y-67000000I-900000J0D01*
G01*
X138700000Y-67000000D02*
G75*
G02*
X140500000Y-67000000I900000J0D01*
G01*
D13*
X117465000Y-93772936D02*
X117465000Y-94227064D01*
X118935000Y-93772936D02*
X118935000Y-94227064D01*
X134490000Y-82350000D02*
X140000000Y-82350000D01*
X134490000Y-79050000D02*
X134490000Y-82350000D01*
X134490000Y-79050000D02*
X140000000Y-79050000D01*
D11*
X123500000Y-68650000D02*
X125300000Y-68650000D01*
X123500000Y-71750000D02*
X125300000Y-71750000D01*
X125300000Y-70660000D02*
X125300000Y-69740000D01*
D10*
X123250000Y-68530000D02*
G75*
G02*
X122950000Y-68530000I-150000J0D01*
G01*
X122950000Y-68530000D02*
G75*
G02*
X123250000Y-68530000I150000J0D01*
G01*
D14*
X116620000Y-88850000D02*
X116620000Y-84050000D01*
X122640000Y-83450000D02*
X124220000Y-83450000D01*
X122640000Y-84720000D02*
X122640000Y-83450000D01*
X122650000Y-86720000D02*
X122650000Y-86180000D01*
X122650000Y-89450000D02*
X122650000Y-88180000D01*
X124220000Y-82500000D02*
X120000000Y-82500000D01*
X124220000Y-83450000D02*
X124220000Y-82500000D01*
X124220000Y-89450000D02*
X122650000Y-89450000D01*
X124220000Y-90400000D02*
X120000000Y-90400000D01*
X124220000Y-90400000D02*
X124220000Y-89450000D01*
X130350000Y-65550000D02*
X130350000Y-65560000D01*
D11*
X130650000Y-67800000D02*
X132650000Y-67800000D01*
X131400000Y-65950000D02*
X131400000Y-67400000D01*
X131400000Y-65950000D02*
X131550000Y-65950000D01*
X131550000Y-65950000D02*
X131550000Y-67350000D01*
X131550000Y-67350000D02*
X131550000Y-67400000D01*
X131550000Y-67400000D02*
X131400000Y-67400000D01*
X132650000Y-65600000D02*
X130650000Y-65600000D01*
D13*
X128202349Y-74299188D02*
X127679845Y-74299188D01*
X128202349Y-75769188D02*
X127679845Y-75769188D01*
X132327064Y-84965000D02*
X131872936Y-84965000D01*
X132327064Y-86435000D02*
X131872936Y-86435000D01*
D14*
X129980000Y-88360000D02*
X130360000Y-87980000D01*
X129980000Y-89630000D02*
X129980000Y-88360000D01*
X130360000Y-87980000D02*
X131880000Y-87980000D01*
X130390000Y-90040000D02*
X129980000Y-89630000D01*
X131860000Y-90040000D02*
X130390000Y-90040000D01*
X131900000Y-89000000D02*
X132000000Y-89100000D01*
X132000000Y-88900000D02*
X131900000Y-89000000D01*
X132000000Y-89100000D02*
X132400000Y-89500000D01*
X132400000Y-88500000D02*
X132000000Y-88900000D01*
X132400000Y-88500000D02*
X132400000Y-89500000D01*
X132650000Y-90020000D02*
X134200000Y-90020000D01*
X134200000Y-87980000D02*
X132650000Y-87980000D01*
X134200000Y-90020000D02*
X134200000Y-87980000D01*
D13*
X116038748Y-78065000D02*
X116561252Y-78065000D01*
X116038748Y-79535000D02*
X116561252Y-79535000D01*
X138338748Y-53115000D02*
X138861252Y-53115000D01*
X138338748Y-54585000D02*
X138861252Y-54585000D01*
D11*
X126270000Y-84050000D02*
X126270000Y-85750000D01*
X127320000Y-85750000D02*
X128280000Y-85750000D01*
X129330000Y-84050000D02*
X129330000Y-85750000D01*
D10*
X129600000Y-83760000D02*
G75*
G02*
X129300000Y-83760000I-150000J0D01*
G01*
X129300000Y-83760000D02*
G75*
G02*
X129600000Y-83760000I150000J0D01*
G01*
D13*
X116965000Y-75189564D02*
X116965000Y-74735436D01*
X118435000Y-75189564D02*
X118435000Y-74735436D01*
X123550000Y-66050000D02*
G75*
G02*
X121650000Y-66050000I-950000J0D01*
G01*
X121650000Y-66050000D02*
G75*
G02*
X123550000Y-66050000I950000J0D01*
G01*
X128170154Y-77666495D02*
X127647650Y-77666495D01*
X128170154Y-79136495D02*
X127647650Y-79136495D01*
X132027064Y-70015000D02*
X131572936Y-70015000D01*
X132027064Y-71485000D02*
X131572936Y-71485000D01*
X138372936Y-55815000D02*
X138827064Y-55815000D01*
X138372936Y-57285000D02*
X138827064Y-57285000D01*
X116659252Y-52409000D02*
X116136748Y-52409000D01*
X116659252Y-53879000D02*
X116136748Y-53879000D01*
D15*
X130097500Y-74152498D02*
X130377500Y-74152498D01*
X130097500Y-74852498D02*
X130097500Y-74152498D01*
X130097500Y-77602498D02*
X130097500Y-76902498D01*
X130377500Y-77602498D02*
X130097500Y-77602498D01*
X133277500Y-77602498D02*
X133547500Y-77602498D01*
X133547500Y-74152498D02*
X133277500Y-74152498D01*
X133547500Y-74852498D02*
X133547500Y-74152498D01*
X133547500Y-77602498D02*
X133547500Y-76902498D01*
D14*
X130247501Y-77932498D02*
G75*
G02*
X130247499Y-77932498I-1J0D01*
G01*
X130247499Y-77932498D02*
G75*
G02*
X130247501Y-77932498I1J0D01*
G01*
D13*
X137535436Y-73715000D02*
X137989564Y-73715000D01*
X137535436Y-75185000D02*
X137989564Y-75185000D01*
X137572936Y-76515000D02*
X138027064Y-76515000D01*
X137572936Y-77985000D02*
X138027064Y-77985000D01*
X137410436Y-86435000D02*
X137864564Y-86435000D01*
X137410436Y-84965000D02*
X137864564Y-84965000D01*
%LPC*%
D16*
X138450000Y-90300000D03*
D17*
X136800000Y-93087500D03*
X136800000Y-94912500D03*
D16*
X119800000Y-69300000D03*
D17*
X115100000Y-74050000D03*
X115100000Y-75875000D03*
D18*
X120500000Y-50350000D03*
X120500000Y-51200000D03*
X120500000Y-52050000D03*
X120500000Y-52900000D03*
X120500000Y-53750000D03*
X120500000Y-54600000D03*
X120500000Y-55450000D03*
X120500000Y-56300000D03*
X120500000Y-57150000D03*
X120500000Y-58000000D03*
X120500000Y-58850000D03*
X120500000Y-59700000D03*
X120500000Y-60550000D03*
X120500000Y-61400000D03*
X120500000Y-62250000D03*
D19*
X121550000Y-63300000D03*
X122400000Y-63300000D03*
X123250000Y-63300000D03*
X124100000Y-63300000D03*
X124950000Y-63300000D03*
X125800000Y-63300000D03*
X126650000Y-63300000D03*
X127500000Y-63300000D03*
X128350000Y-63300000D03*
X129200000Y-63300000D03*
X130050000Y-63300000D03*
X130900000Y-63300000D03*
X131750000Y-63300000D03*
X132600000Y-63300000D03*
X133450000Y-63300000D03*
D18*
X134500000Y-62250000D03*
X134500000Y-61400000D03*
X134500000Y-60550000D03*
X134500000Y-59700000D03*
X134500000Y-58850000D03*
X134500000Y-58000000D03*
X134500000Y-57150000D03*
X134500000Y-56300000D03*
X134500000Y-55450000D03*
X134500000Y-54600000D03*
X134500000Y-53750000D03*
X134500000Y-52900000D03*
X134500000Y-52050000D03*
X134500000Y-51200000D03*
X134500000Y-50350000D03*
D19*
X133450000Y-49300000D03*
X132600000Y-49300000D03*
X131750000Y-49300000D03*
X130900000Y-49300000D03*
X130050000Y-49300000D03*
X129200000Y-49300000D03*
X128350000Y-49300000D03*
X127500000Y-49300000D03*
X126650000Y-49300000D03*
X125800000Y-49300000D03*
X124950000Y-49300000D03*
X124100000Y-49300000D03*
X123250000Y-49300000D03*
X122400000Y-49300000D03*
X121550000Y-49300000D03*
D20*
X125850000Y-54650000D03*
D21*
X125850000Y-56300000D03*
X125850000Y-57950000D03*
X127500000Y-54650000D03*
X127500000Y-56300000D03*
X127500000Y-57950000D03*
X129150000Y-54650000D03*
X129150000Y-56300000D03*
X129150000Y-57950000D03*
D22*
X120500000Y-49300000D03*
X120500000Y-63300000D03*
X134500000Y-63300000D03*
X134500000Y-49300000D03*
D17*
X128800000Y-88187500D03*
X128800000Y-90012500D03*
D23*
X133200000Y-82600000D03*
X133200000Y-80700000D03*
X131200000Y-81650000D03*
D24*
X124610000Y-95390000D03*
X130390000Y-95390000D03*
D25*
X124300000Y-94250000D03*
X125100000Y-94250000D03*
D26*
X126250000Y-94250000D03*
X127250000Y-94250000D03*
X127750000Y-94250000D03*
X128750000Y-94250000D03*
D25*
X129900000Y-94250000D03*
X130700000Y-94250000D03*
X130700000Y-94250000D03*
X129900000Y-94250000D03*
D26*
X129250000Y-94250000D03*
X128250000Y-94250000D03*
X126750000Y-94250000D03*
X125750000Y-94250000D03*
D25*
X125100000Y-94250000D03*
X124300000Y-94250000D03*
D27*
X123180000Y-94890000D03*
D28*
X123180000Y-99070000D03*
D27*
X131820000Y-94890000D03*
D28*
X131820000Y-99070000D03*
D29*
X121637500Y-74800000D03*
X123462500Y-74800000D03*
D30*
X115400000Y-69180000D03*
X115400000Y-64820000D03*
D31*
X121600000Y-78800000D03*
X123500000Y-78800000D03*
D32*
X117348000Y-59748000D03*
X115448000Y-59748000D03*
X117348000Y-56446000D03*
X115448000Y-56446000D03*
D30*
X139600000Y-69180000D03*
X139600000Y-64820000D03*
D17*
X118200000Y-93087500D03*
X118200000Y-94912500D03*
D33*
X136000000Y-80700000D03*
X140000000Y-80700000D03*
D34*
X123250000Y-69250000D03*
X123250000Y-70200000D03*
X123250000Y-71150000D03*
X125550000Y-71150000D03*
X125550000Y-69250000D03*
D35*
X123930000Y-85450000D03*
X123930000Y-87450000D03*
D36*
X118070000Y-89800000D03*
X118070000Y-83100000D03*
D37*
X130730000Y-66150000D03*
X130730000Y-67250000D03*
X132570000Y-67250000D03*
X132570000Y-66150000D03*
D32*
X128891097Y-75034188D03*
X126991097Y-75034188D03*
D38*
X133012500Y-85700000D03*
X131187500Y-85700000D03*
D39*
X133250000Y-89000000D03*
X131150000Y-89000000D03*
D31*
X115350000Y-78800000D03*
X117250000Y-78800000D03*
X137650000Y-53850000D03*
X139550000Y-53850000D03*
D40*
X128750000Y-83750000D03*
X127800000Y-83750000D03*
X126850000Y-83750000D03*
D41*
X126850000Y-86050000D03*
X128750000Y-86050000D03*
D42*
X117700000Y-75875000D03*
X117700000Y-74050000D03*
D16*
X122600000Y-66050000D03*
D32*
X128858902Y-78401495D03*
X126958902Y-78401495D03*
D38*
X132712500Y-70750000D03*
X130887500Y-70750000D03*
D29*
X137687500Y-56550000D03*
X139512500Y-56550000D03*
D32*
X117348000Y-53144000D03*
X115448000Y-53144000D03*
D43*
X130827500Y-77282498D03*
X131327500Y-77282498D03*
X131827500Y-77282498D03*
X132327500Y-77282498D03*
X132827500Y-77282498D03*
D44*
X133227500Y-76382498D03*
X133227500Y-75882498D03*
X133227500Y-75382498D03*
D43*
X132827500Y-74482498D03*
X132327500Y-74482498D03*
X131827500Y-74482498D03*
X131327500Y-74482498D03*
X130827500Y-74482498D03*
D44*
X130427500Y-75382498D03*
X130427500Y-75882498D03*
X130427500Y-76382498D03*
D29*
X136850000Y-74450000D03*
X138675000Y-74450000D03*
X136887500Y-77250000D03*
X138712500Y-77250000D03*
X138550000Y-85700000D03*
X136725000Y-85700000D03*
%LPD*%
M02*
