G04 #@! TF.GenerationSoftware,KiCad,Pcbnew,8.0.0-rc2-494-g6bc7bcffef*
G04 #@! TF.CreationDate,2024-02-15T01:57:03+00:00*
G04 #@! TF.ProjectId,Wakeboard,57616b65-626f-4617-9264-2e6b69636164,rev?*
G04 #@! TF.SameCoordinates,Original*
G04 #@! TF.FileFunction,Paste,Top*
G04 #@! TF.FilePolarity,Positive*
%FSLAX46Y46*%
G04 Gerber Fmt 4.6, Leading zero omitted, Abs format (unit mm)*
G04 Created by KiCad (PCBNEW 8.0.0-rc2-494-g6bc7bcffef) date 2024-02-15 01:57:03*
%MOMM*%
%LPD*%
G01*
G04 APERTURE LIST*
G04 Aperture macros list*
%AMRoundRect*
0 Rectangle with rounded corners*
0 $1 Rounding radius*
0 $2 $3 $4 $5 $6 $7 $8 $9 X,Y pos of 4 corners*
0 Add a 4 corners polygon primitive as box body*
4,1,4,$2,$3,$4,$5,$6,$7,$8,$9,$2,$3,0*
0 Add four circle primitives for the rounded corners*
1,1,$1+$1,$2,$3*
1,1,$1+$1,$4,$5*
1,1,$1+$1,$6,$7*
1,1,$1+$1,$8,$9*
0 Add four rect primitives between the rounded corners*
20,1,$1+$1,$2,$3,$4,$5,0*
20,1,$1+$1,$4,$5,$6,$7,0*
20,1,$1+$1,$6,$7,$8,$9,0*
20,1,$1+$1,$8,$9,$2,$3,0*%
%AMOutline5P*
0 Free polygon, 5 corners , with rotation*
0 The origin of the aperture is its center*
0 number of corners: always 5*
0 $1 to $10 corner X, Y*
0 $11 Rotation angle, in degrees counterclockwise*
0 create outline with 5 corners*
4,1,5,$1,$2,$3,$4,$5,$6,$7,$8,$9,$10,$1,$2,$11*%
%AMOutline6P*
0 Free polygon, 6 corners , with rotation*
0 The origin of the aperture is its center*
0 number of corners: always 6*
0 $1 to $12 corner X, Y*
0 $13 Rotation angle, in degrees counterclockwise*
0 create outline with 6 corners*
4,1,6,$1,$2,$3,$4,$5,$6,$7,$8,$9,$10,$11,$12,$1,$2,$13*%
%AMOutline7P*
0 Free polygon, 7 corners , with rotation*
0 The origin of the aperture is its center*
0 number of corners: always 7*
0 $1 to $14 corner X, Y*
0 $15 Rotation angle, in degrees counterclockwise*
0 create outline with 7 corners*
4,1,7,$1,$2,$3,$4,$5,$6,$7,$8,$9,$10,$11,$12,$13,$14,$1,$2,$15*%
%AMOutline8P*
0 Free polygon, 8 corners , with rotation*
0 The origin of the aperture is its center*
0 number of corners: always 8*
0 $1 to $16 corner X, Y*
0 $17 Rotation angle, in degrees counterclockwise*
0 create outline with 8 corners*
4,1,8,$1,$2,$3,$4,$5,$6,$7,$8,$9,$10,$11,$12,$13,$14,$15,$16,$1,$2,$17*%
G04 Aperture macros list end*
%ADD10RoundRect,0.250000X-0.450000X0.262500X-0.450000X-0.262500X0.450000X-0.262500X0.450000X0.262500X0*%
%ADD11RoundRect,0.250000X-0.262500X-0.450000X0.262500X-0.450000X0.262500X0.450000X-0.262500X0.450000X0*%
%ADD12R,0.800000X0.400000*%
%ADD13R,0.400000X0.800000*%
%ADD14Outline5P,-0.600000X0.204000X-0.204000X0.600000X0.600000X0.600000X0.600000X-0.600000X-0.600000X-0.600000X0.000000*%
%ADD15R,1.200000X1.200000*%
%ADD16R,0.800000X0.800000*%
%ADD17R,1.250000X0.700000*%
%ADD18RoundRect,0.150000X-0.150000X-0.500000X0.150000X-0.500000X0.150000X0.500000X-0.150000X0.500000X0*%
%ADD19RoundRect,0.075000X-0.075000X-0.575000X0.075000X-0.575000X0.075000X0.575000X-0.075000X0.575000X0*%
%ADD20R,1.360000X1.230000*%
%ADD21RoundRect,0.250000X-0.250000X-0.475000X0.250000X-0.475000X0.250000X0.475000X-0.250000X0.475000X0*%
%ADD22RoundRect,0.250000X0.250000X0.475000X-0.250000X0.475000X-0.250000X-0.475000X0.250000X-0.475000X0*%
%ADD23RoundRect,0.250000X-0.650000X1.000000X-0.650000X-1.000000X0.650000X-1.000000X0.650000X1.000000X0*%
%ADD24R,1.050000X0.530000*%
%ADD25R,3.800000X1.000000*%
%ADD26R,3.400000X1.500000*%
%ADD27R,0.900000X0.700000*%
%ADD28RoundRect,0.250000X0.262500X0.450000X-0.262500X0.450000X-0.262500X-0.450000X0.262500X-0.450000X0*%
%ADD29R,1.000000X1.400000*%
%ADD30R,0.490000X1.160000*%
%ADD31R,0.490000X1.180000*%
%ADD32O,0.280000X0.800000*%
%ADD33O,0.800000X0.280000*%
G04 APERTURE END LIST*
D10*
X136000000Y-96050000D03*
X136000000Y-97875000D03*
D11*
X115487500Y-78500000D03*
X117312500Y-78500000D03*
D12*
X120500000Y-50800000D03*
X120500000Y-51650000D03*
X120500000Y-52500000D03*
X120500000Y-53350000D03*
X120500000Y-54200000D03*
X120500000Y-55050000D03*
X120500000Y-55900000D03*
X120500000Y-56750000D03*
X120500000Y-57600000D03*
X120500000Y-58450000D03*
X120500000Y-59300000D03*
X120500000Y-60150000D03*
X120500000Y-61000000D03*
X120500000Y-61850000D03*
X120500000Y-62700000D03*
D13*
X121550000Y-63750000D03*
X122400000Y-63750000D03*
X123250000Y-63750000D03*
X124100000Y-63750000D03*
X124950000Y-63750000D03*
X125800000Y-63750000D03*
X126650000Y-63750000D03*
X127500000Y-63750000D03*
X128350000Y-63750000D03*
X129200000Y-63750000D03*
X130050000Y-63750000D03*
X130900000Y-63750000D03*
X131750000Y-63750000D03*
X132600000Y-63750000D03*
X133450000Y-63750000D03*
D12*
X134500000Y-62700000D03*
X134500000Y-61850000D03*
X134500000Y-61000000D03*
X134500000Y-60150000D03*
X134500000Y-59300000D03*
X134500000Y-58450000D03*
X134500000Y-57600000D03*
X134500000Y-56750000D03*
X134500000Y-55900000D03*
X134500000Y-55050000D03*
X134500000Y-54200000D03*
X134500000Y-53350000D03*
X134500000Y-52500000D03*
X134500000Y-51650000D03*
X134500000Y-50800000D03*
D13*
X133450000Y-49750000D03*
X132600000Y-49750000D03*
X131750000Y-49750000D03*
X130900000Y-49750000D03*
X130050000Y-49750000D03*
X129200000Y-49750000D03*
X128350000Y-49750000D03*
X127500000Y-49750000D03*
X126650000Y-49750000D03*
X125800000Y-49750000D03*
X124950000Y-49750000D03*
X124100000Y-49750000D03*
X123250000Y-49750000D03*
X122400000Y-49750000D03*
X121550000Y-49750000D03*
D14*
X125850000Y-55100000D03*
D15*
X125850000Y-56750000D03*
X125850000Y-58400000D03*
X127500000Y-55100000D03*
X127500000Y-56750000D03*
X127500000Y-58400000D03*
X129150000Y-55100000D03*
X129150000Y-56750000D03*
X129150000Y-58400000D03*
D16*
X120500000Y-49750000D03*
X120500000Y-63750000D03*
X134500000Y-63750000D03*
X134500000Y-49750000D03*
D11*
X130387500Y-92150000D03*
X132212500Y-92150000D03*
D17*
X132600000Y-82950000D03*
X132600000Y-81050000D03*
X130600000Y-82000000D03*
D18*
X124300000Y-97005000D03*
X125100000Y-97005000D03*
D19*
X126250000Y-97005000D03*
X127250000Y-97005000D03*
X127750000Y-97005000D03*
X128750000Y-97005000D03*
D18*
X129900000Y-97005000D03*
X130700000Y-97005000D03*
X130700000Y-97005000D03*
X129900000Y-97005000D03*
D19*
X129250000Y-97005000D03*
X128250000Y-97005000D03*
X126750000Y-97005000D03*
X125750000Y-97005000D03*
D18*
X125100000Y-97005000D03*
X124300000Y-97005000D03*
D11*
X121637500Y-78900000D03*
X123462500Y-78900000D03*
D20*
X116450000Y-70180000D03*
X116450000Y-65820000D03*
D21*
X121600000Y-83150000D03*
X123500000Y-83150000D03*
D22*
X117348000Y-60198000D03*
X115448000Y-60198000D03*
X117348000Y-56896000D03*
X115448000Y-56896000D03*
D20*
X138550000Y-70180000D03*
X138550000Y-65820000D03*
D10*
X119000000Y-96050000D03*
X119000000Y-97875000D03*
D23*
X137700000Y-81300000D03*
X137700000Y-85300000D03*
D24*
X123250000Y-69700000D03*
X123250000Y-70650000D03*
X123250000Y-71600000D03*
X125550000Y-71600000D03*
X125550000Y-69700000D03*
D25*
X120230000Y-89100000D03*
X120230000Y-91100000D03*
D26*
X114370000Y-93450000D03*
X114370000Y-86750000D03*
D27*
X130730000Y-66600000D03*
X130730000Y-67700000D03*
X132570000Y-67700000D03*
X132570000Y-66600000D03*
D22*
X128891097Y-75484188D03*
X126991097Y-75484188D03*
D28*
X132262500Y-85750000D03*
X130437500Y-85750000D03*
D29*
X132460000Y-89040000D03*
X130360000Y-89040000D03*
D22*
X117400000Y-81950000D03*
X115500000Y-81950000D03*
D21*
X137250000Y-54300000D03*
X139150000Y-54300000D03*
D30*
X127000000Y-89100000D03*
X126050000Y-89100000D03*
X125100000Y-89100000D03*
D31*
X125100000Y-91400000D03*
X127000000Y-91400000D03*
D28*
X117312500Y-75100000D03*
X115487500Y-75100000D03*
D22*
X128858902Y-78851495D03*
X126958902Y-78851495D03*
D28*
X132712500Y-71200000D03*
X130887500Y-71200000D03*
D11*
X137287500Y-57000000D03*
X139112500Y-57000000D03*
D22*
X117348000Y-53594000D03*
X115448000Y-53594000D03*
D32*
X130827500Y-77732498D03*
X131327500Y-77732498D03*
X131827500Y-77732498D03*
X132327500Y-77732498D03*
X132827500Y-77732498D03*
D33*
X133227500Y-76832498D03*
X133227500Y-76332498D03*
X133227500Y-75832498D03*
D32*
X132827500Y-74932498D03*
X132327500Y-74932498D03*
X131827500Y-74932498D03*
X131327500Y-74932498D03*
X130827500Y-74932498D03*
D33*
X130427500Y-75832498D03*
X130427500Y-76332498D03*
X130427500Y-76832498D03*
D11*
X136850000Y-74900000D03*
X138675000Y-74900000D03*
X136887500Y-77700000D03*
X138712500Y-77700000D03*
X136725000Y-91800000D03*
X138550000Y-91800000D03*
M02*
