G04 #@! TF.GenerationSoftware,KiCad,Pcbnew,8.0.0-rc2-494-g6bc7bcffef*
G04 #@! TF.CreationDate,2024-03-15T23:56:00+00:00*
G04 #@! TF.ProjectId,Wakeboard,57616b65-626f-4617-9264-2e6b69636164,rev?*
G04 #@! TF.SameCoordinates,Original*
G04 #@! TF.FileFunction,Profile,NP*
%FSLAX46Y46*%
G04 Gerber Fmt 4.6, Leading zero omitted, Abs format (unit mm)*
G04 Created by KiCad (PCBNEW 8.0.0-rc2-494-g6bc7bcffef) date 2024-03-15 23:56:00*
%MOMM*%
%LPD*%
G01*
G04 APERTURE LIST*
G04 #@! TA.AperFunction,Profile*
%ADD10C,0.100000*%
G04 #@! TD*
G04 APERTURE END LIST*
D10*
X141900000Y-43750000D02*
G75*
G02*
X144300000Y-46150000I0J-2400000D01*
G01*
X143200000Y-97050000D02*
G75*
G02*
X139200000Y-97050000I-2000000J0D01*
G01*
X139200000Y-97050000D02*
G75*
G02*
X143200000Y-97050000I2000000J0D01*
G01*
X115800002Y-97050002D02*
G75*
G02*
X111799998Y-97050002I-2000002J0D01*
G01*
X111799998Y-97050002D02*
G75*
G02*
X115800002Y-97050002I2000002J0D01*
G01*
X115800000Y-46850000D02*
G75*
G02*
X111799996Y-46850000I-2000002J0D01*
G01*
X111799996Y-46850000D02*
G75*
G02*
X115800000Y-46850000I2000002J0D01*
G01*
X143200002Y-46850002D02*
G75*
G02*
X139199998Y-46850002I-2000002J0D01*
G01*
X139199998Y-46850002D02*
G75*
G02*
X143200002Y-46850002I2000002J0D01*
G01*
X110700000Y-97750000D02*
X110700000Y-89050000D01*
X110700000Y-83850000D02*
X110697041Y-46147028D01*
X111800000Y-84950000D02*
X110700000Y-83850000D01*
X111800000Y-87950000D02*
X110700000Y-89050000D01*
X111800000Y-84950000D02*
X111800000Y-87950000D01*
X143200000Y-59700000D02*
X143200000Y-62700000D01*
X135200000Y-48500000D02*
X119800000Y-48500000D01*
X144300000Y-46150000D02*
X144300000Y-58600000D01*
X144300000Y-63800000D02*
X144300000Y-97750000D01*
X144300000Y-58600000D02*
X143200000Y-59700000D01*
X113100000Y-100150000D02*
G75*
G02*
X110699956Y-97750000I0J2400044D01*
G01*
X119800000Y-48500000D02*
X119800000Y-43750000D01*
X144300000Y-97750000D02*
G75*
G02*
X141900000Y-100150000I-2400000J0D01*
G01*
X110697041Y-46147028D02*
G75*
G02*
X113097041Y-43747072I2400000J-44D01*
G01*
X113100000Y-100150000D02*
X141900000Y-100150000D01*
X135200000Y-43750000D02*
X141900000Y-43750000D01*
X119800000Y-43750000D02*
X113100000Y-43750000D01*
X135200000Y-43750000D02*
X135200000Y-48500000D01*
X143200000Y-62700000D02*
X144300000Y-63800000D01*
M02*
